<svg width="216" height="55" viewBox="0 0 216 55" fill="none" xmlns="http://www.w3.org/2000/svg">
<path d="M83.7975 12.9688C83.8564 12.9812 83.916 12.9905 83.9759 12.9966C87.77 13.1865 91.0417 14.611 93.8057 17.2139C93.869 17.2772 93.9373 17.3405 93.9885 17.388L91.86 19.5182C91.7721 19.4365 91.6614 19.3359 91.552 19.2334C90.2659 18.0407 88.7377 17.1399 87.0718 16.5925C86.3509 16.3581 85.6101 16.1902 84.8586 16.0906C84.0711 15.9924 83.2762 15.968 82.4842 16.0178C81.6271 16.0671 80.7785 16.214 79.9548 16.4558C79.2505 16.6556 78.5659 16.9196 77.9097 17.2443C77.0091 17.6821 76.1697 18.2364 75.4132 18.8929C75.1211 19.146 74.8327 19.4118 74.5596 19.6884C74.0148 20.2444 73.5276 20.854 73.1052 21.5079C72.6992 22.1299 72.3514 22.7881 72.0662 23.4741C71.7009 24.34 71.4418 25.2469 71.2947 26.1752C71.2314 26.5687 71.188 26.9651 71.1645 27.363C71.1335 27.8374 71.1272 28.3131 71.1455 28.7882C71.1849 29.6103 71.311 30.426 71.5218 31.2215C72.1588 33.6677 73.5411 35.8547 75.4769 37.4786C77.4126 39.1025 79.8056 40.0828 82.3235 40.2834C82.9084 40.3259 83.4954 40.3301 84.0808 40.296C85.029 40.2401 85.9668 40.0684 86.8733 39.7847C87.4959 39.5936 88.1019 39.3517 88.685 39.0613C90.6089 38.105 92.2468 36.6577 93.4333 34.8655C94.0992 33.8621 94.6108 32.7643 94.9509 31.6089C94.9819 31.5038 95.0141 31.3981 95.0489 31.2658C94.6468 31.2614 94.2699 31.2658 93.893 31.2658H80.245L83.3378 28.1706H98.4573V28.3838C98.3738 32.0829 97.1388 35.3452 94.715 38.1405C92.5518 40.6327 89.8346 42.2275 86.621 42.973C85.7774 43.1622 84.9195 43.2799 84.0562 43.3249C83.3337 43.3671 82.6091 43.3517 81.8891 43.2787C78.5756 42.9502 75.658 41.6966 73.1747 39.4714C70.7604 37.3102 69.208 34.6301 68.484 31.4715C68.2767 30.5724 68.1589 29.6549 68.1324 28.7325C68.0167 24.7082 69.263 21.1592 71.9081 18.1284C74.0442 15.6793 76.7247 14.1079 79.8865 13.3618C80.6605 13.1835 81.4472 13.0654 82.2394 13.0086C82.3552 12.9998 82.4721 13.0036 82.5885 12.9966C82.6479 12.9903 82.7067 12.9808 82.7656 12.9688H83.7975Z" fill="white"/>
<path d="M177.193 43.3457H174.169V31.274H165.056V43.3179C164.936 43.3527 162.244 43.3628 162.037 43.3318V25.1955H165.048V28.1332C165.175 28.1673 173.873 28.18 174.167 28.1477V19.1454C174.209 19.1374 174.251 19.1319 174.293 19.1289H177.116C177.141 19.1289 177.166 19.1333 177.191 19.1359L177.193 43.3457Z" fill="white"/>
<path d="M146.825 31.2591H134.752L131.665 28.1683H143.341C142.92 26.9685 142.251 25.8713 141.377 24.9483C139.977 23.4731 138.272 22.5498 136.268 22.2099C134.285 21.8713 132.245 22.1984 130.467 23.1404C128.688 24.0824 127.271 25.5863 126.435 27.4181C125.6 29.2499 125.393 31.3069 125.846 33.2687C126.3 35.2306 127.389 36.9873 128.944 38.2654C130.749 39.7425 132.833 40.438 135.161 40.3317C137.488 40.2254 139.476 39.3248 141.141 37.7263L143.238 39.8248C140.246 42.972 134.564 44.6896 129.307 42.0512C123.336 39.0451 120.93 31.7641 123.932 25.7868C125.169 23.3253 127.209 21.3598 129.713 20.2146C132.217 19.0694 135.037 18.8131 137.706 19.488C143.84 21.0537 146.936 26.583 146.825 31.2591Z" fill="white"/>
<path d="M110.638 37.2128L121.066 19.1366H124.521C124.524 19.141 124.527 19.1456 124.53 19.1505C124.53 19.1549 124.534 19.1612 124.53 19.165C124.523 19.1839 124.515 19.2023 124.505 19.2201L110.594 43.3382H107.583V19.1631C107.586 19.1576 107.59 19.1525 107.594 19.1479C107.598 19.1445 107.602 19.1421 107.607 19.141C107.626 19.1357 107.646 19.1323 107.666 19.1309H110.52C110.545 19.1333 110.57 19.1373 110.596 19.1429V37.2065L110.638 37.2128Z" fill="white"/>
<path d="M152.915 43.337H149.888V22.0807C149.681 22.0693 149.486 22.0769 149.291 22.0756C149.097 22.0744 148.887 22.0756 148.684 22.0756H146.302L144.588 19.1348H165.041V22.0737H152.915V43.337Z" fill="white"/>
<path d="M104.52 43.3379H101.513V25.1934H104.506L104.513 25.201C104.513 25.2048 104.522 25.2085 104.522 25.2123C104.525 31.2262 104.527 37.2402 104.528 43.2544C104.528 43.2784 104.523 43.3031 104.52 43.3379Z" fill="white"/>
<path d="M103.018 19.1289C103.416 19.1319 103.796 19.2925 104.076 19.5755C104.355 19.8585 104.512 20.2409 104.51 20.6389C104.509 21.0368 104.35 21.418 104.068 21.6989C103.786 21.9797 103.405 22.1375 103.007 22.1375C102.609 22.1375 102.228 21.9797 101.946 21.6989C101.664 21.418 101.505 21.0368 101.504 20.6389C101.502 20.2409 101.659 19.8585 101.938 19.5755C102.218 19.2925 102.598 19.1319 102.996 19.1289H103.018Z" fill="white"/>
<path d="M188.633 43.336H185.626V25.1914H188.619L188.626 25.199C188.63 25.2028 188.635 25.2066 188.635 25.2104C188.638 31.225 188.64 37.2391 188.642 43.2524C188.641 43.2765 188.637 43.3012 188.633 43.336Z" fill="#D3D5FF"/>
<path d="M187.133 19.127C187.53 19.1301 187.911 19.2908 188.19 19.5739C188.47 19.8571 188.626 20.2396 188.625 20.6377C188.623 21.0358 188.464 21.4171 188.182 21.698C187.9 21.979 187.519 22.1368 187.121 22.1368C186.723 22.1368 186.342 21.979 186.06 21.698C185.778 21.4171 185.619 21.0358 185.617 20.6377C185.616 20.2396 185.772 19.8571 186.051 19.5739C186.331 19.2908 186.711 19.1301 187.109 19.127H187.133Z" fill="#D3D5FF"/>
<path d="M181.304 40.3164C181.701 40.3194 182.081 40.48 182.361 40.763C182.641 41.046 182.797 41.4284 182.795 41.8264C182.794 42.2243 182.635 42.6055 182.353 42.8864C182.071 43.1672 181.69 43.325 181.292 43.325C180.894 43.325 180.513 43.1672 180.231 42.8864C179.95 42.6055 179.791 42.2243 179.789 41.8264C179.788 41.4284 179.944 41.046 180.223 40.763C180.503 40.48 180.883 40.3194 181.281 40.3164H181.304Z" fill="#D3D5FF"/>
<path d="M203.907 19.1172C197.227 19.1172 191.812 24.5363 191.812 31.2212C191.812 37.906 197.227 43.3251 203.907 43.3251C210.586 43.3251 216 37.906 216 31.2212C216 24.5363 210.586 19.1172 203.907 19.1172ZM203.907 40.3178C202.112 40.3179 200.357 39.7853 198.864 38.7873C197.371 37.7893 196.208 36.3706 195.521 34.7108C194.834 33.051 194.654 31.2246 195.004 29.4625C195.354 27.7003 196.218 26.0817 197.487 24.8111C198.757 23.5406 200.374 22.6753 202.134 22.3246C203.895 21.9739 205.72 22.1535 207.379 22.8409C209.037 23.5282 210.455 24.6923 211.453 26.186C212.45 27.6797 212.983 29.4359 212.983 31.2326C212.983 32.4256 212.749 33.6069 212.293 34.7092C211.837 35.8115 211.168 36.813 210.325 37.6567C209.482 38.5004 208.482 39.1696 207.381 39.6262C206.279 40.0828 205.099 40.3178 203.907 40.3178Z" fill="#D3D5FF"/>
<path d="M54.7551 28.0542C54.7014 28.8238 54.6825 29.5983 54.5883 30.3622C53.5895 38.474 49.8063 44.9741 43.1652 49.7337C38.2043 53.2903 32.6051 54.9501 26.5066 54.739C19.4543 54.4964 13.3742 51.8714 8.27597 46.9907C8.22906 46.9457 8.23019 46.766 8.27597 46.7179C14.6348 40.3485 20.9996 33.9855 27.3703 27.6289C27.5209 27.491 27.7158 27.4113 27.92 27.4042C36.8658 27.3931 45.8115 27.39 54.757 27.3947L54.7551 28.0542Z" fill="white"/>
<path d="M28.0436 0C28.7957 0.057131 29.5494 0.0904259 30.2988 0.171393C34.6874 0.647107 38.7291 2.09594 42.424 4.51789C42.4491 4.53672 42.4731 4.55693 42.4959 4.57843L40.1602 6.90945C39.6517 7.41682 39.1466 7.92759 38.6321 8.42853C38.5996 8.44957 38.5624 8.46233 38.5239 8.46569C38.4853 8.46905 38.4465 8.46292 38.4108 8.44783C34.6909 6.30762 30.6867 5.32328 26.3983 5.49479C16.8037 5.88147 8.43935 12.677 6.13878 21.9954C4.71477 27.7691 5.50698 33.254 8.43935 38.431C8.46735 38.4802 8.46886 38.5888 8.43519 38.6202C7.16227 39.9026 5.88492 41.1816 4.60317 42.4574C4.59068 42.4699 4.57517 42.4801 4.54604 42.5036C4.42536 42.3167 4.30391 42.1358 4.18966 41.9512C1.02727 36.8389 -0.368744 31.2825 0.0829731 25.2848C1.02462 12.817 10.3041 2.60268 22.6518 0.433591C23.9002 0.214525 25.1771 0.158908 26.4403 0.0276196L26.6983 0H28.0436Z" fill="white"/>
<path d="M41.9229 16.5281C41.925 15.3895 42.3217 14.2868 43.0453 13.4077C43.769 12.5287 44.7748 11.9276 45.8918 11.7068C47.0087 11.486 48.1676 11.659 49.1712 12.1966C50.1749 12.7341 50.9613 13.6029 51.3966 14.655C51.8318 15.7071 51.889 16.8776 51.5585 17.9672C51.228 19.0567 50.5301 19.9981 49.5836 20.631C48.6372 21.2639 47.5007 21.5492 46.3676 21.4384C45.2345 21.3276 44.1747 20.8275 43.3688 20.0233C42.9098 19.5644 42.5459 19.0195 42.2977 18.4197C42.0496 17.8199 41.9222 17.1771 41.9229 16.5281Z" fill="white"/>
</svg>
