<svg width="368" height="505" viewBox="0 0 368 505" fill="none" xmlns="http://www.w3.org/2000/svg">
<path d="M226.325 503.989C225.669 503.984 224.865 503.936 223.955 503.887L223.489 503.884C215.572 503.614 210.41 503.026 208.527 502.779C197.312 501.851 184.914 500.638 183.263 500.456L161.126 502.01C155.917 502.674 150.677 503.073 145.428 503.208L141.171 503.283L140.684 503.279C111.082 503.571 56.7082 497.859 25.0594 456.552C-3.40148 419.397 -7.06945 362.097 14.15 286.199C29.7814 230.373 48.523 180.647 69.814 138.436C86.8726 104.62 105.633 75.4954 125.56 51.8635C143.33 30.799 158.774 18.0809 168.607 11.1232C179.355 3.51586 185.853 0.959003 186.129 0.855153L186.936 0.543449L187.738 0.866905C188.012 0.974775 194.472 3.62627 205.108 11.3898C214.838 18.4903 230.094 31.4326 247.555 52.7545C267.135 76.6749 285.468 106.07 302.031 140.132C322.703 182.65 340.716 232.644 355.53 288.692C375.598 364.68 371.179 421.837 342.411 458.574C328.391 476.469 308.691 489.304 283.885 496.724C262.474 503.131 241.272 504.204 227.215 503.975L226.325 503.989ZM183.338 496.053L183.528 496.054C183.655 496.055 196.985 497.381 208.941 498.378L209.025 498.379C210.823 498.604 215.858 499.17 223.648 499.46L224.156 499.464C225.384 499.515 226.421 499.565 227.014 499.527L227.205 499.528C255.764 500.012 308.268 494.975 338.959 455.796C366.85 420.217 370.985 364.329 351.288 289.741C318.013 163.814 274.828 93.0344 244.483 55.8445C227.317 34.8212 212.356 22.0716 202.815 15.0783C194.623 9.06886 188.927 6.16889 186.901 5.22248C184.862 6.1392 179.146 8.95583 170.845 14.8449C161.204 21.698 146.058 34.2278 128.587 54.998C97.7015 91.7407 53.4875 161.882 18.3766 287.309C-2.4516 361.814 0.971574 417.841 28.5305 453.825C59.047 493.621 111.877 499.109 140.674 498.854L141.161 498.857L145.333 498.761C150.416 498.629 155.564 498.243 160.629 497.602L160.756 497.603L183.338 496.053Z" fill="url(#paint0_linear_437_1502)"/>
<defs>
<linearGradient id="paint0_linear_437_1502" x1="186.943" y1="0.543504" x2="183.269" y2="503.675" gradientUnits="userSpaceOnUse">
<stop offset="0.03125" stop-color="#F3B34E" stop-opacity="0.02"/>
<stop offset="0.437063" stop-color="#F3B34E" stop-opacity="0.2"/>
<stop offset="0.864583" stop-color="#12BAD6"/>
<stop offset="1" stop-color="#12BAD6" stop-opacity="0.1"/>
</linearGradient>
</defs>
</svg>
