<svg width="46" height="62" viewBox="0 0 46 62" fill="none" xmlns="http://www.w3.org/2000/svg">
<path d="M28.9325 56.4418L36.706 47.3083C36.9629 49.3152 36.6668 54.0347 28.9325 56.4418ZM22.0242 54.3248V25.7882C19.3924 27.7968 9.89478 36.7638 22.0242 54.3248ZM23.2584 25.7882V54.3248C35.3871 36.7638 25.8894 27.7968 23.2584 25.7882ZM22.0242 19.6901V0C21.2251 0.439024 19.7033 1.40995 17.7687 3.28349V14.6736C17.768 14.9216 17.8167 15.1672 17.912 15.3963C18.0074 15.6254 18.1475 15.8334 18.3241 16.0083L22.0242 19.6901ZM43.6719 35.205C42.7235 31.7227 41.7169 28.5743 40.6777 25.726V39.7863L44.0032 36.4767C43.8996 36.0592 43.7903 35.6363 43.6719 35.205ZM39.4434 36.6072V22.5154C37.3193 17.2717 35.1055 13.1915 33.009 10.0301V29.7064C33.0099 29.9502 33.06 30.1914 33.1565 30.4155C33.253 30.6397 33.3938 30.8423 33.5706 31.0112L39.4434 36.6072ZM27.9891 55.6497L35.907 46.3486C34.1275 46.3617 28.9879 47.1478 27.9891 55.6497ZM27.4429 6.69976V3.21594C25.5423 1.38615 24.049 0.433654 23.2584 0V11.4592L27.0203 7.7152C27.1549 7.58226 27.2615 7.42403 27.334 7.24968C27.4066 7.07537 27.4436 6.88843 27.4429 6.69976ZM10.518 30.4163V23.636L6.89271 20.0286C6.45409 21.0233 6.01699 22.0656 5.58143 23.1555V36.1022L9.97041 31.7342C10.1448 31.5621 10.283 31.3573 10.377 31.1316C10.471 30.9058 10.519 30.6638 10.518 30.4194V30.4163ZM9.47749 46.5105L17.4764 55.7004C16.3279 47.3789 11.3842 46.5252 9.47749 46.5135V46.5105ZM16.4667 56.4155L8.57038 47.3473C8.32897 49.2584 8.55805 54.1283 16.4667 56.4185V56.4155ZM44.3341 37.882L40.6637 41.5332C40.5964 42.3434 40.2761 43.1125 39.7482 43.7329L37.7211 46.1122C37.9048 46.7446 38.5124 49.3606 36.9945 52.1367C35.5205 54.8321 32.5639 56.7777 28.2074 57.9208L27.5903 58.082L27.5532 58.0512L25.3048 60.6931C25.1816 61.0136 25.001 61.3094 24.7718 61.5656C25.1127 61.5942 25.466 61.6224 25.8146 61.6502C26.1949 61.6915 26.8405 61.749 27.6705 61.7723C27.8595 61.7806 28.0114 61.7836 28.1109 61.7806C34.3866 61.8542 49.1442 59.7657 44.3341 37.885V37.882ZM19.8575 60.3117L17.8829 58.0429L17.302 57.9046C12.9193 56.8653 9.9172 54.988 8.3799 52.3284C6.66367 49.3595 7.4489 46.5184 7.54377 46.2043L7.55296 46.1746L5.41331 43.7183C4.72594 42.9284 4.34749 41.9188 4.34726 40.8738V26.4375C3.39929 29.097 2.47984 32.0105 1.60899 35.205C-5.09245 59.7951 10.8998 61.8918 17.3228 61.7851L17.3869 61.7806C17.5705 61.7806 17.7463 61.7723 17.9129 61.7652C18.5602 61.7449 19.2058 61.6911 19.8475 61.6047V61.5934L20.4885 61.545C20.1796 61.1929 19.9629 60.7701 19.8575 60.3147V60.3117ZM25.3387 58.7602L26.6122 57.2636L26.6554 56.6451C26.9709 52.1841 28.3354 48.9353 30.7119 46.9896C32.1894 45.7827 34.0409 45.1213 35.9525 45.1176C36.1903 45.1161 36.4281 45.1289 36.6644 45.1559L36.8958 45.186L38.8085 42.9393C39.2192 42.4565 39.4446 41.8444 39.445 41.2116V38.3044L32.7174 31.9046C32.42 31.6207 32.1833 31.28 32.0214 30.903C31.8594 30.5259 31.7756 30.1203 31.7748 29.7102V8.25246C30.8198 6.93122 29.7853 5.66864 28.6771 4.47163V6.69743C28.678 7.04745 28.6092 7.3942 28.4747 7.71761C28.3402 8.04102 28.1426 8.33472 27.8934 8.58174L23.2584 13.1938V24.2861L23.3077 24.3176C23.5646 24.478 24.9183 25.3668 26.3931 27.0661C27.2486 28.0504 27.9873 29.1295 28.5945 30.282C29.3431 31.7053 29.8802 33.2291 30.1889 34.8059C30.7512 37.6633 30.5885 40.7464 29.7068 43.9693C28.6748 47.7396 26.6377 51.7535 23.6526 55.9015L23.2838 56.414H23.2584V56.9145C23.7347 57.0208 24.1759 57.2463 24.54 57.5698C24.9041 57.8937 25.179 58.3044 25.3387 58.7636V58.7602ZM8.46854 45.3509L8.54569 45.3393C8.84087 45.2987 9.13867 45.2795 9.43665 45.2818C11.3567 45.2844 13.2166 45.9488 14.7003 47.1613C17.0259 49.0679 18.4128 52.2401 18.8239 56.5906L18.8833 57.2177L18.8355 57.2591L20.0049 58.6032C20.181 58.1812 20.4566 57.8073 20.8083 57.5135C21.16 57.2196 21.5776 57.0141 22.0258 56.9145V56.414H21.9995L21.6309 55.9015C18.6458 51.7569 16.6086 47.7396 15.5765 43.9693C14.6949 40.7456 14.5322 37.6633 15.0945 34.8059C15.4032 33.2291 15.9402 31.7053 16.6888 30.282C17.296 29.1295 18.0347 28.0504 18.8902 27.0661C20.3651 25.3668 21.7188 24.478 21.9757 24.3176L22.0258 24.2861V21.424L17.4532 16.8741C17.1614 16.5856 16.9301 16.2423 16.7727 15.8642C16.6152 15.4861 16.5348 15.0806 16.5361 14.6713V4.54685C15.0767 6.12259 13.4507 8.17494 11.7537 10.8298V30.4194C11.7548 30.8251 11.675 31.2269 11.5191 31.6017C11.3631 31.9765 11.1341 32.3168 10.8451 32.603L5.58143 37.8384V40.8753C5.58155 41.6249 5.85295 42.349 6.34583 42.9156L8.46854 45.3509ZM10.518 12.8538C9.49526 14.6114 8.45777 16.5939 7.43267 18.8267L10.518 21.8968V12.8538ZM24.7108 59.4933C24.707 59.452 24.7023 59.4114 24.6962 59.3704C24.6504 59.068 24.5371 58.7794 24.3645 58.5261C24.2898 58.416 24.2049 58.3134 24.1107 58.2191C23.8967 58.0061 23.6385 57.8419 23.3541 57.7382C23.2576 57.7028 23.1586 57.6747 23.0578 57.6544C23.0239 57.6476 22.9892 57.6412 22.9553 57.636C22.8855 57.6251 22.8152 57.6183 22.7447 57.6153C22.7092 57.6153 22.6737 57.6153 22.6382 57.6153C22.3938 57.6149 22.1512 57.6577 21.9216 57.7412C21.8581 57.7633 21.7958 57.7893 21.735 57.8178C21.674 57.8471 21.6154 57.8791 21.5576 57.9136C21.4997 57.9482 21.4449 57.9858 21.3917 58.0252C21.3381 58.0658 21.2866 58.1094 21.2374 58.1556C21.1889 58.1988 21.1429 58.2447 21.0994 58.2928C21.077 58.3176 21.0554 58.342 21.0338 58.3698C21.0122 58.3972 20.9752 58.4465 20.9482 58.4818C20.9212 58.5171 20.9026 58.5464 20.8811 58.5799C20.8595 58.6137 20.8426 58.6422 20.824 58.6745C20.7878 58.7384 20.7551 58.8042 20.7261 58.8718C20.7116 58.9053 20.6978 58.9398 20.6844 58.9752C20.6474 59.077 20.6183 59.1811 20.5972 59.287C20.5918 59.3152 20.5865 59.3438 20.5826 59.372C20.5719 59.4411 20.5647 59.511 20.561 59.5809C20.561 59.6162 20.561 59.6515 20.561 59.6876C20.561 59.7237 20.561 59.759 20.561 59.7943C20.5766 60.1126 20.6666 60.4229 20.824 60.7006C20.8426 60.7329 20.861 60.7645 20.8811 60.7949C20.9011 60.8258 20.9243 60.8611 20.9482 60.8934C20.9721 60.9257 21.0037 60.97 21.0338 61.0054C21.0639 61.0407 21.077 61.0561 21.0994 61.082C21.1429 61.1305 21.1889 61.1763 21.2374 61.2196C21.2866 61.2658 21.3381 61.3094 21.3917 61.3499C21.4449 61.389 21.5005 61.4266 21.5576 61.4612L21.5652 61.466C21.62 61.4987 21.6771 61.5288 21.735 61.5574C21.7958 61.5859 21.8581 61.6115 21.9216 61.634C22.1512 61.7174 22.3938 61.7599 22.6382 61.7599C22.6737 61.7599 22.7092 61.7599 22.7447 61.7599C22.8152 61.7569 22.8855 61.7497 22.9553 61.7392C22.9892 61.7336 23.0239 61.7276 23.0578 61.7208C23.1586 61.7001 23.2576 61.6723 23.3541 61.637C23.4121 61.6156 23.4692 61.5919 23.5253 61.5656C23.5808 61.5397 23.6348 61.5111 23.688 61.4796C23.7266 61.4574 23.7651 61.4337 23.8022 61.4089C23.9712 61.2958 24.1225 61.1583 24.2511 61.0009C24.2912 60.9516 24.3282 60.9017 24.3645 60.8472C24.5759 60.5349 24.6981 60.1712 24.7178 59.7951C24.7178 59.7597 24.7178 59.7244 24.7178 59.6883C24.7178 59.6523 24.7178 59.6169 24.7178 59.5816C24.7178 59.5463 24.717 59.5249 24.7108 59.4963V59.4933Z" fill="url(#paint0_linear_693_2186)"/>
<defs>
<linearGradient id="paint0_linear_693_2186" x1="22.6406" y1="0" x2="22.6406" y2="61.7888" gradientUnits="userSpaceOnUse">
<stop offset="0.437063" stop-color="#F3B34E"/>
<stop offset="1" stop-color="#12BAD6"/>
</linearGradient>
</defs>
</svg>
