<svg width="76" height="101" viewBox="0 0 76 101" fill="none" xmlns="http://www.w3.org/2000/svg">
<path d="M32.1696 6.85858V7.35593L32.6116 7.57699L33.0537 7.35593V6.85858L32.6116 6.63751L32.1696 6.85858ZM39.0787 36.2031V37.419L40.1291 38.0265L41.1796 37.419V36.2031L40.1291 35.5956L39.0787 36.2031ZM31.2299 17.4138V16.5848L31.9485 16.1427L32.6671 16.5848V17.4138L31.9485 17.8559L31.2299 17.4138ZM57.209 67.0401V69.0845L58.978 70.0793L60.7463 69.0845V67.0401L58.978 66.0453L57.209 67.0401ZM52.5103 56.5396V54.7163L54.0582 53.8323L55.6062 54.7163V56.5396L54.0582 57.4243L52.5103 56.5396ZM45.4355 44.4929V46.0399L46.7618 46.8137L48.0887 46.0399V44.4929L46.7618 43.7191L45.4355 44.4929ZM33.6067 27.3612V26.2558L34.5463 25.7032L35.4859 26.2558V27.3612L34.5463 27.914L33.6067 27.3612ZM57.209 79.5295V80.1371L57.7065 80.4135L58.204 80.1371V79.5295L57.7065 79.2531L57.209 79.5295Z" fill="#12BAD6"/>
<path d="M53.2288 88.1504V87.7631L53.5607 87.5976L53.8926 87.7631V88.1504L53.5607 88.316L53.2288 88.1504Z" fill="#12BAD6"/>
<path d="M20.8384 18.8507V19.348L21.2806 19.5691L21.7228 19.348V18.8507L21.2806 18.6296L20.8384 18.8507ZM40.0183 84.945V85.4424L40.4611 85.6634L40.9032 85.4424V84.945L40.4611 84.724L40.0183 84.945ZM38.1391 77.1533V76.2132L38.9685 75.7165L39.7973 76.2132V77.1533L38.9685 77.6507L38.1391 77.1533ZM33.2755 66.7083V68.1451L34.5463 68.8635L35.8178 68.1451V66.7083L34.5463 65.9899L33.2755 66.7083ZM27.6926 59.4133V57.7555L29.1297 56.927L30.5669 57.7555V59.4133L29.1297 60.2426L27.6926 59.4133ZM22.773 48.4716V50.4058L24.431 51.3452L26.0892 50.4058V48.4716L24.431 47.5322L22.773 48.4716ZM19.733 39.7952V38.5794L20.7831 37.9719L21.8333 38.5794V39.7952L20.7831 40.4035L19.733 39.7952ZM19.2354 27.9141V28.7427L19.954 29.1847L20.6726 28.7427V27.9141L19.954 27.4714L19.2354 27.9141Z" fill="#12BAD6"/>
<path d="M7.13037 39.8507V40.3481L7.57259 40.5691L8.01481 40.3481V39.8507L7.57259 39.6297L7.13037 39.8507ZM6.4671 47.9742V48.8034L7.18566 49.2454L7.90422 48.8034V47.9742L7.18566 47.5322L6.4671 47.9742ZM6.85403 58.0319V56.8161L7.90422 56.2085L8.95441 56.8161V58.0319L7.90422 58.6402L6.85403 58.0319ZM8.84389 64.6639V66.4873L10.3916 67.3713L11.9392 66.4873V64.6639L10.3916 63.7792L8.84389 64.6639ZM13.3764 73.6714V72.1237L14.703 71.3506L16.0296 72.1237V73.6714L14.703 74.4452L13.3764 73.6714ZM19.0696 79.1977V80.4135L20.1199 81.0211L21.1701 80.4135V79.1977L20.1199 78.5901L19.0696 79.1977ZM25.1496 85.7742V84.945L25.8681 84.503L26.5867 84.945V85.7742L25.8681 86.2162L25.1496 85.7742ZM30.456 90.6922V91.0795L30.7879 91.2451L31.1191 91.0795V90.6922L30.7879 90.5267L30.456 90.6922Z" fill="#12BAD6"/>
<path d="M41.2898 2.99021V3.48756L41.7319 3.70863L42.174 3.48756V2.99021L41.7319 2.76915L41.2898 2.99021ZM43.6665 11.5007V12.3296L44.3851 12.7718L45.1036 12.3296V11.5007L44.3851 11.0586L43.6665 11.5007ZM47.5912 20.7848V19.2375L48.9175 18.4638L50.2444 19.2375V20.7848L48.9175 21.5585L47.5912 20.7848ZM54.6112 26.9743V29.0191L56.3796 30.0139L58.1486 29.0191V26.9743L56.3796 25.9796L54.6112 26.9743ZM63.0129 36.756V35.4293L64.1735 34.7664L65.3342 35.4293V36.756L64.1735 37.419L63.0129 36.756ZM69.369 42.5587V43.1109L69.8666 43.3873L70.3641 43.1109V42.5587L69.8666 42.2823L69.369 42.5587Z" fill="#12BAD6"/>
<path d="M37.4759 0.00603805C37.0893 -0.0491764 36.7574 0.282386 36.7019 0.669233C33.3856 15.3139 34.7126 26.3112 52.953 45.1006C78.3791 71.2952 57.1535 91.3553 46.0432 98.5401C45.8776 98.6502 45.6011 98.9821 45.7674 99.424C45.933 99.9215 46.4306 99.9215 46.5962 99.9215C72.0222 93.7322 88.3835 63.5582 63.3441 41.1767C49.5258 28.7981 39.0239 21.3928 38.1391 0.835015C38.1391 0.392884 37.8626 0.0613217 37.4759 0.00603805Z" fill="#12BAD6"/>
<path d="M30.8981 2.21651C30.5669 1.99544 30.1248 2.16122 29.9037 2.49285C19.1802 19.348 21.3359 37.0324 31.5619 50.9586C49.7469 75.661 44.2195 91.7425 39.9636 99.1476C39.8527 99.3132 39.7425 99.7552 40.0737 100.032C40.4056 100.363 40.8477 100.198 41.0133 100.087C53.3397 90.0847 59.8067 69.9137 43.1143 47.6423C33.994 35.4848 23.6574 25.3164 31.23 3.15598C31.3408 2.8797 31.23 2.43757 30.8981 2.21651Z" fill="#12BAD6"/>
<path d="M22.4966 8.7928C22.165 8.5718 21.7228 8.73758 21.5016 9.01386C8.95437 26.9191 7.73836 45.8744 13.1553 60.6292C20.7831 78.8111 35.3757 87.5976 36.3707 99.3686C36.4254 99.645 36.5363 100.142 37.0893 100.142C37.6415 100.142 37.8078 99.7005 37.8626 99.4795C40.0737 81.5185 29.0188 69.6374 23.4915 59.6898C16.7481 46.4265 12.6025 31.8927 22.8282 9.67706C22.8835 9.40071 22.7729 8.95865 22.4966 8.7928Z" fill="#12BAD6"/>
<path d="M32.6671 98.8157C32.8881 99.5341 32.225 100.142 31.5064 100.032C18.1852 97.6553 0 87.432 0 62.4532C0 55.3238 1.65823 48.3607 3.59279 42.2823C3.70339 41.895 4.09032 41.6186 4.47724 41.7294C4.80888 41.7848 5.08521 42.116 5.02999 42.5032C2.98483 56.4849 4.31143 72.5109 16.8586 82.6241C25.1496 89.3108 31.0644 93.2894 32.6671 98.8157Z" fill="#12BAD6"/>
<path d="M55.8273 20.0665C49.5258 12.9928 46.2643 6.52706 45.3247 2.60338C45.2145 2.21653 45.6011 1.82969 45.9885 1.99547C56.3795 6.36129 66.2738 21.7243 71.8566 37.7509C71.9121 37.861 71.9121 38.303 71.47 38.4138C71.1381 38.524 70.8616 38.2483 70.8062 38.1374C67.8217 31.7819 62.0178 26.9743 55.8273 20.0665Z" fill="#12BAD6"/>
</svg>
