<svg width="98" height="107" viewBox="0 0 98 107" fill="none" xmlns="http://www.w3.org/2000/svg">
<path d="M2.25345 95.6269H58.8475C60.0337 95.6269 60.9834 94.678 60.9834 93.4911C60.9834 92.305 60.0344 91.3553 58.8475 91.3553H4.38965V4.38966H60.0352V11.6271C60.0352 15.4235 63.1199 18.5083 66.9163 18.5083H74.7465V42.9494C74.7465 44.1355 75.6954 45.0852 76.8823 45.0852C78.0684 45.0852 79.0181 44.1362 79.0181 42.9494V16.2545C79.0181 15.78 78.7809 15.3055 78.5437 14.9493C78.5437 14.8303 78.4247 14.8303 78.4247 14.7121L63.7124 0.593453C63.3562 0.237219 62.7635 0 62.17 0L2.25401 0.000753073C0.948858 0.000753073 0 0.949688 0 2.1358V93.3738C0 94.679 0.948935 95.6286 2.25401 95.6286L2.25345 95.6269ZM64.4233 7.23652L71.5418 14.1177H66.9146C65.4912 14.1177 64.4233 12.9315 64.4233 11.6263V7.23633V7.23652Z" fill="#20BACD"/>
<path d="M55.7628 69.2868C55.7628 76.4053 59.3221 82.6938 64.6609 86.4902V104.05C64.6609 104.881 65.1353 105.592 65.7288 105.949C66.085 106.186 66.4405 106.186 66.7967 106.186C67.1529 106.186 67.5084 106.067 67.8646 105.83L76.8818 100.491L85.899 105.83C86.6107 106.186 87.4414 106.186 88.0348 105.83C88.7465 105.473 89.1028 104.762 89.1028 103.931L89.102 86.6091V86.4901C94.4408 82.6937 98.0001 76.405 98.0001 69.2867C98.0001 57.541 88.5086 48.05 76.7633 48.05C65.255 48.05 55.7637 57.5414 55.7637 69.2867L55.7628 69.2868ZM84.9487 100.254L78.0675 96.2204C77.3558 95.8641 76.5251 95.8641 75.8135 96.2204L69.0505 100.254V88.8639C71.5418 89.8129 74.1521 90.4063 76.9996 90.4063C79.8472 90.4063 82.4575 89.8129 84.9487 88.8639V100.254ZM93.8475 69.2868C93.8475 78.5411 86.2545 86.1341 77.0002 86.1341C67.7458 86.1341 60.1528 78.5411 60.1528 69.2868C60.1528 60.0325 67.7458 52.4395 77.0002 52.4395C86.2537 52.4395 93.8475 59.9143 93.8475 69.2868Z" fill="#20BACD"/>
<path d="M76.9995 56.7105C75.4571 56.7105 74.1519 57.6595 73.6776 59.0837L72.3725 63.1174H68.1016C66.5592 63.1174 65.254 64.0664 64.7797 65.4906C64.3052 66.914 64.7797 68.4564 66.0848 69.4061L69.5259 71.8975L68.2207 75.9312C67.7463 77.3546 68.2207 78.897 69.5259 79.8468C70.712 80.6774 72.3735 80.6774 73.5596 79.8468L77.0007 77.3554L80.4417 79.8468C81.0352 80.3212 81.7469 80.5585 82.4586 80.5585C83.1703 80.5585 83.882 80.3212 84.4755 79.8468C85.6616 79.0161 86.2551 77.3554 85.7806 75.9312L84.4755 71.8975L87.9165 69.4061C89.1027 68.5754 89.6962 66.9148 89.2217 65.4906C88.7472 64.0672 87.442 63.1174 85.8998 63.1174H81.6289L80.3237 59.0837C79.8478 57.6596 78.4244 56.7105 77.0003 56.7105H76.9995ZM80.9151 67.5073H83.0509L81.2713 68.8124C80.0851 69.7613 79.6099 71.3038 79.9661 72.728L80.6778 74.7448L78.8982 73.4397C77.712 72.609 76.0505 72.609 74.8644 73.4397L73.0848 74.7448L73.7965 72.728C74.271 71.3046 73.7965 69.7621 72.4914 68.8124L70.7117 67.5073H72.8476C74.39 67.5073 75.6952 66.5583 76.1695 65.1341L76.8812 63.1172L77.5929 65.1341C78.0673 66.4392 79.3725 67.5073 80.9148 67.5073H80.9151Z" fill="#20BACD"/>
<path d="M24.6778 16.4903C23.7289 15.7786 22.3047 16.0158 21.5931 16.9647L17.3222 23.0153L16.017 21.8292C15.1863 20.9985 13.763 20.9985 12.9323 21.9482C12.1016 22.7789 12.1016 24.2022 13.0512 25.0329L16.136 27.9988C16.4923 28.355 17.085 28.5922 17.6784 28.5922H17.9157C18.5091 28.4732 19.1018 28.236 19.458 27.6433L25.1531 19.575C25.8641 18.5071 25.6268 17.2019 24.6779 16.4903L24.6778 16.4903Z" fill="#20BACD"/>
<path d="M29.8989 28.4733H58.0185C59.2047 28.4733 60.1544 27.5243 60.1544 26.3375C60.1544 25.1513 59.2054 24.2016 58.0185 24.2016L29.8989 24.2024C28.7127 24.2024 27.7631 25.1513 27.7631 26.3382C27.7631 27.5244 28.712 28.4733 29.8989 28.4733V28.4733Z" fill="#20BACD"/>
<path d="M24.6778 31.5581C23.7289 30.8464 22.3047 31.0836 21.5931 32.0325L17.3222 38.0831L16.017 36.897C15.1863 36.0663 13.763 36.0663 12.9323 37.0159C12.1016 37.8466 12.1016 39.27 13.0512 40.1007L16.136 43.0665C16.4923 43.4228 17.085 43.66 17.6784 43.66H17.9157C18.5091 43.541 19.1018 43.3038 19.458 42.7111L25.1531 34.6428C25.8641 33.6939 25.6268 32.2697 24.6779 31.558L24.6778 31.5581Z" fill="#20BACD"/>
<path d="M29.8989 43.5405H58.0185C59.2047 43.5405 60.1544 42.5915 60.1544 41.4046C60.1544 40.2185 59.2054 39.2688 58.0185 39.2688L29.8989 39.2696C28.7127 39.2696 27.7631 40.2185 27.7631 41.4054C27.7631 42.5916 28.712 43.5404 29.8989 43.5404V43.5405Z" fill="#20BACD"/>
<path d="M24.6778 46.7448C23.7289 46.0331 22.3047 46.2703 21.5931 47.2193L17.3222 53.2699L16.017 52.0837C15.1863 51.253 13.763 51.253 12.9323 52.2027C12.1016 53.0334 12.1016 54.4567 13.0512 55.2875L16.136 58.2533C16.4923 58.6095 17.085 58.8467 17.6784 58.8467H17.9157C18.5091 58.7277 19.1018 58.4905 19.458 57.8978L25.1531 49.8296C25.8641 48.7616 25.6268 47.3382 24.6779 46.7448H24.6778Z" fill="#20BACD"/>
<path d="M56.1195 56.4734C56.1195 55.2872 55.1705 54.3376 53.9836 54.3376H29.8993C28.7131 54.3376 27.7634 55.2865 27.7634 56.4734C27.7634 57.6595 28.7124 58.6092 29.8993 58.6092H53.9836C55.1698 58.7275 56.1195 57.6595 56.1195 56.4734Z" fill="#20BACD"/>
<path d="M21.5931 62.2863L17.3222 68.3369L16.017 67.1507C15.1863 66.32 13.763 66.32 12.9323 67.2697C12.1016 68.1004 12.1016 69.5237 13.0512 70.3545L16.136 73.3203C16.4923 73.6765 17.085 73.9138 17.6784 73.9138H17.9157C18.5091 73.7948 19.1018 73.5575 19.458 72.9648L25.1531 64.8966C25.8648 63.9477 25.6276 62.5235 24.6787 61.8118C23.61 61.1001 22.3049 61.3374 21.5931 62.2863H21.5931Z" fill="#20BACD"/>
<path d="M29.8989 69.4063C28.7127 69.4063 27.7631 70.3553 27.7631 71.5422C27.7631 72.7283 28.712 73.678 29.8989 73.678H50.0695C51.2556 73.678 52.2053 72.729 52.2053 71.5422C52.2045 70.3553 51.2556 69.4063 50.0687 69.4063H29.8989Z" fill="#20BACD"/>
</svg>
