<svg width="964" height="1323" viewBox="0 0 964 1323" fill="none" xmlns="http://www.w3.org/2000/svg">
<path opacity="0.1" d="M942.273 795.842C940.685 788.863 939.011 781.82 937.252 774.713C935.046 765.758 932.696 756.728 930.202 747.625C907.915 665.722 883.023 588.855 855.78 517.66C849.225 500.546 842.542 483.767 835.732 467.323C820.65 430.961 804.94 396.266 788.601 363.24C761.784 308.564 731.118 255.849 696.832 205.49C693.113 200.072 689.382 194.76 685.641 189.555C672.403 171.071 658.931 153.544 645.224 136.972C631.987 121.037 619.229 106.888 607.078 94.3154C598.2 85.1372 589.673 76.777 581.498 69.2348C540.186 30.9923 508.835 12.7157 494.766 5.60893C489.97 3.21877 487.22 2.08729 486.693 1.88015L481.896 0L477.18 1.88015C476.652 2.08729 473.87 3.21877 469.186 5.60893C454.941 12.7953 423.014 31.3589 380.983 70.5734C372.819 78.19 364.292 86.6086 355.403 95.8293C343.7 108.019 331.421 121.675 318.711 136.972C294.256 166.59 271.568 197.615 250.764 229.885C243.996 240.306 237.308 250.993 230.7 261.945C211.515 293.623 193.05 327.382 175.304 363.224C169.132 375.685 163.052 388.4 157.062 401.371C153.278 409.561 149.548 417.842 145.87 426.212C137.408 445.259 129.147 464.8 121.09 484.835C114.908 500.185 108.838 515.806 102.88 531.698C77.7154 598.941 54.6139 671.076 33.7821 747.609C-20.3996 946.788 -9.38444 1097.11 66.6682 1194.46C145.87 1295.89 276.297 1314.63 356.394 1315.56L356.155 1316.82L373.741 1315.48C377.482 1315.48 381.127 1315.3 384.548 1315.17C398.454 1314.72 412.328 1313.56 426.116 1311.7L428.674 1311.3L443.398 1310.19C454.376 1318.44 467.733 1322.93 481.481 1323C495.229 1323.07 508.63 1318.71 519.69 1310.57C528.371 1311.32 537.692 1312.16 546.725 1312.78C555.103 1313.71 568.645 1314.9 585.943 1315.38C590.164 1315.56 593.329 1315.62 595.615 1315.56C672.771 1316.37 814.356 1301.57 897.955 1193.83C967.117 1104.46 982.082 970.769 942.273 795.842ZM855.78 592.376C873.537 643.749 890.111 697.692 905.501 754.205C908.603 765.604 911.476 776.811 914.119 787.827L855.78 845.987V592.376ZM696.832 251.715C721.952 291.361 744.927 332.318 765.658 374.41C788.435 420.365 809.949 469.66 830.2 522.297V779.987L708.471 663.874C704.808 660.367 701.89 656.162 699.89 651.508C697.891 646.854 696.851 641.848 696.832 636.785V251.715ZM494.734 34.6732C512.72 45.3174 543.416 66.5418 581.466 104.657V159.089C581.48 163.006 580.713 166.887 579.209 170.506C577.705 174.125 575.494 177.41 572.705 180.17L494.734 257.898V34.6732ZM494.734 555.377C549.267 597.077 746.122 783.238 494.734 1147.82V555.377ZM494.734 1191.16H495.262L502.903 1180.51C564.775 1094.47 606.998 1011.07 628.39 932.798C646.663 865.874 650.037 801.881 638.382 742.558C631.983 709.823 620.852 678.188 605.336 648.64C592.75 624.712 577.44 602.309 559.707 581.875C529.139 546.597 501.081 528.145 495.757 524.814L494.734 524.161V293.957L590.803 198.208C595.968 193.079 600.063 186.982 602.851 180.268C605.639 173.553 607.065 166.355 607.046 159.089V131.793C613.068 138.517 619.218 145.645 625.496 153.177C641.046 171.884 656.299 191.935 671.252 213.329V636.721C671.257 645.248 672.99 653.685 676.347 661.527C679.704 669.369 684.616 676.454 690.789 682.357L830.2 815.362V875.721C830.194 888.855 825.521 901.562 817.01 911.589L777.362 958.229L772.565 957.608C767.668 957.042 762.739 956.776 757.809 956.811C718.189 956.891 679.814 970.622 649.189 995.675C599.932 1036.07 571.65 1103.52 565.111 1196.13L564.216 1208.97L541.194 1236.06C537.306 1226.2 531.023 1217.46 522.909 1210.62C514.794 1203.78 505.102 1199.05 494.702 1196.86L494.734 1191.16ZM773.46 1002.11C778.784 1043.73 772.565 1141.71 612.338 1191.73L773.46 1002.11ZM592.801 1175.24C613.505 998.734 720.03 982.433 756.914 982.147L592.801 1175.24ZM444.117 1280.29C440.937 1274.7 439.055 1268.47 438.609 1262.06C438.163 1255.64 439.165 1249.21 441.54 1243.23C443.916 1237.26 447.605 1231.89 452.337 1227.52C457.068 1223.15 462.722 1219.89 468.883 1217.99C475.044 1216.08 481.554 1215.58 487.936 1216.51C494.318 1217.45 500.409 1219.79 505.761 1223.38C511.114 1226.97 515.591 1231.71 518.865 1237.25C522.139 1242.78 524.125 1248.98 524.679 1255.39C524.79 1256.62 524.854 1257.84 524.854 1259.1C524.871 1268.27 521.935 1277.21 516.477 1284.6C516.077 1285.14 515.662 1285.68 515.23 1286.19C511.051 1291.33 505.738 1295.44 499.705 1298.2C493.672 1300.96 487.082 1302.3 480.447 1302.11C473.811 1301.92 467.309 1300.2 461.447 1297.1C455.584 1294 450.518 1289.59 446.643 1284.21C445.729 1282.98 444.881 1281.7 444.102 1280.37L444.117 1280.29ZM469.17 1147.74C217.767 783.158 414.621 596.997 469.17 555.297V1147.74ZM380.951 106.219C417.067 69.8245 448.37 46.7993 469.154 34.5139V428.794L392.414 352.309C388.753 348.678 385.85 344.359 383.874 339.603C381.899 334.846 380.889 329.747 380.903 324.599L380.951 106.219ZM237.415 696.858C243.404 690.916 248.152 683.851 251.384 676.07C254.617 668.289 256.27 659.946 256.248 651.524V268.972C280.326 229.282 307.16 191.318 336.554 155.36C342.949 147.68 349.221 140.371 355.371 133.434V324.647C355.344 333.144 357.011 341.562 360.274 349.413C363.537 357.263 368.332 364.389 374.38 370.378L469.154 464.837V524.257L468.115 524.91C462.791 528.24 434.733 546.692 404.165 581.971C386.433 602.405 371.122 624.808 358.536 648.736C343.02 678.283 331.889 709.919 325.49 742.653C313.835 801.977 317.209 865.985 335.483 932.893C356.874 1011.16 399.096 1094.5 460.968 1180.61L468.611 1191.25H469.154V1196.7C459.276 1198.69 450.006 1202.96 442.095 1209.18C434.185 1215.4 427.856 1223.39 423.621 1232.51L403.03 1208.81L404.021 1207.95L402.79 1194.93C394.269 1104.62 365.523 1038.78 317.321 999.18C286.569 974.003 248.019 960.214 208.222 960.157C202.046 960.109 195.874 960.509 189.756 961.352L188.158 961.591L144.16 910.968C133.944 899.206 128.319 884.171 128.316 868.614V805.562L237.415 696.858ZM209.101 985.652C248.622 985.891 351.086 1003.61 374.892 1176.43L209.101 985.652ZM353.964 1191.29C190.044 1143.74 185.296 1042.63 190.3 1002.96L353.964 1191.29ZM197.19 376.513C208.073 354.46 219.232 333.214 230.668 312.776V474.748L176.311 420.572C183.153 405.551 190.113 390.865 197.19 376.513V376.513ZM165.215 445.493L230.764 510.824V651.588C230.783 656.661 229.79 661.687 227.841 666.373C225.892 671.059 223.027 675.312 219.413 678.884L128.444 769.566V536.271C140.211 504.88 152.436 474.621 165.119 445.493H165.215ZM409.632 1287.86C403.062 1288.5 394.141 1289.19 383.413 1289.62C380.056 1289.74 376.474 1289.86 372.765 1289.92H371.486C298.519 1291.16 164.496 1278.3 86.733 1178.7C15.9403 1088.03 6.39534 945.195 58.3707 754.174C72.2266 703.407 87.0257 654.658 102.768 607.928V868.566C102.772 890.258 110.616 911.222 124.863 927.619L169.212 978.609L169.02 979.231C167.054 985.748 150.778 1044.74 186.351 1106.37C218.214 1161.6 280.438 1200.56 371.279 1222.13L383.317 1225L417.994 1264.92C418.659 1272.2 420.584 1279.32 423.685 1285.95L409.536 1287.03L409.632 1287.86ZM877.587 1178.17C800.655 1277.27 667.815 1290.73 595.519 1289.98H594.992C593.84 1289.98 591.49 1289.98 586.79 1289.81H586.598C570.003 1289.35 557.102 1288.21 549.204 1287.34H548.788L539.403 1286.59C541.67 1281.87 543.341 1276.88 544.376 1271.75L583.817 1225.34L584.584 1225.97L597.374 1222.63C687.672 1198.9 748.952 1158.51 779.504 1102.55C810.967 1044.91 798.369 990.608 794.564 977.478L836.579 928.081C847.524 915.201 854.158 899.235 855.556 882.413L920.833 817.369C954.407 976.522 939.987 1097.77 877.587 1178.17V1178.17Z" fill="url(#paint0_linear_938_25)"/>
<defs>
<linearGradient id="paint0_linear_938_25" x1="482" y1="0" x2="482" y2="1323" gradientUnits="userSpaceOnUse">
<stop offset="0.000755858" stop-color="#6D6D6D"/>
<stop offset="1" stop-color="#12BAD6"/>
</linearGradient>
</defs>
</svg>
