<svg width="2024" height="901" viewBox="0 0 2024 901" fill="none" xmlns="http://www.w3.org/2000/svg">
<path opacity="0.6" d="M2023.81 750.449C2024.64 751.473 2023.19 752.937 2022.35 751.906C2012.35 739.475 2002.98 726.555 1993.92 713.423C1938.76 633.412 1891.25 548.253 1838.89 466.421C1776.27 368.495 1709.02 272.266 1627.93 188.571C1551.43 109.612 1459.03 38.967 1350.06 13.6436C1278.28 -3.03485 1204.07 19.3955 1140.25 52.608C1077.09 85.477 1026.9 131.636 986.317 189.891C946.322 247.293 914.973 310.069 878.194 369.478C861.743 396.059 844.213 422.055 824.305 446.19C801.579 473.74 775.088 496.844 747.511 519.377C629.651 615.709 493.099 696.456 339.814 716.426C179.506 737.317 17.7619 693.494 -126.157 624.732C-190.842 593.808 -252.531 559.269 -304.558 509.399C-350.401 465.459 -388.451 414.496 -429.043 365.883C-470.446 316.288 -515.629 269.311 -571.731 236.249C-635.413 198.707 -712.372 175.927 -786.589 178.057C-845.282 179.748 -901.061 198.673 -951.514 228.154C-992.464 252.089 -1028.93 282.306 -1067.51 309.684C-1068.59 310.454 -1069.62 308.667 -1068.54 307.904C-1050.74 295.308 -1033.57 281.99 -1016.08 269.084C-975.635 239.232 -933.077 211.723 -885.468 194.729C-827.662 174.112 -765.787 171.116 -705.775 183.28C-637.262 197.161 -572.192 226.965 -518.13 271.359C-469.546 311.251 -430.342 360.695 -390.897 409.246C-349.501 460.209 -306.654 510.602 -253.603 549.93C-188.32 598.316 -109.616 633.412 -33.9562 661.944C124.022 721.484 297.057 741.66 459.207 686.244C535.231 660.261 606.018 620.74 671.59 574.649C734.18 530.668 796.068 482.79 841.594 420.654C920.051 313.58 964.602 176.394 1072.6 93.1118C1127.09 51.0824 1193.99 19.2237 1262.27 8.63388C1317.96 -0.00426295 1371.69 13.5336 1422.69 35.6959C1525.24 80.213 1609.37 159.75 1680.84 243.994C1754.75 331.111 1817.48 427.051 1877.53 524.03C1924.55 599.959 1967.66 680.671 2023.79 750.449H2023.81ZM2023.69 706.551C1993.73 677.482 1968.26 643.892 1943.39 610.494C1911.19 567.255 1880.23 523.109 1848.45 479.561C1777.56 382.397 1702.93 286.333 1612.89 205.971C1566.58 164.643 1516 127.63 1460.27 99.9907C1402.73 71.4786 1335.99 48.904 1271 54.8002C1208.09 60.504 1146.62 85.4013 1092.33 116.786C1038.67 147.799 994.178 188.379 955.916 237.005C918.12 285.055 886.269 337.385 850.239 386.726C831.685 412.153 811.928 436.844 789.546 459.041C765.254 483.134 737.32 502.596 709.035 521.679C581.761 607.58 436.619 677.984 283.478 700.242C132.372 722.233 -23.497 697.04 -163.155 636.593C-225.627 609.552 -283.688 576.607 -333.056 529.266C-374.514 489.504 -409.334 443.723 -445.694 399.426C-481.098 356.29 -518.66 314.439 -564.213 281.728C-617.299 243.616 -681.338 218.1 -746.03 208.926C-798.36 201.398 -851.74 206.954 -901.398 225.096C-944.003 240.696 -982.589 264.631 -1019.88 290.112C-1035.95 301.108 -1051.85 312.33 -1068.23 322.844C-1069.61 323.737 -1068.34 325.971 -1066.94 325.07C-1031.33 302.214 -997.659 276.506 -960.743 255.663C-915.306 230.037 -865.753 212.259 -813.417 208.782C-745.625 204.281 -676.597 222.615 -616.337 253.024C-562.736 280.065 -517.945 320.164 -478.383 364.825C-402.352 450.643 -339.667 547.731 -236.251 603.883C-112.138 671.277 28.4889 709.98 169.968 710.633C319.301 711.32 462.024 664.652 592.817 594.873C654.259 562.094 717.584 525.177 770.745 479.863C814.725 442.349 848.679 394.65 881.108 347.233C917.206 294.435 952.005 240.029 996.645 193.876C1042.78 146.13 1100.35 110.519 1161.74 85.7106C1193.8 72.7431 1227.45 62.6 1261.85 58.3668C1295.11 54.2436 1327.25 57.8033 1359.73 65.658C1428.87 82.3708 1492.82 116.167 1549.93 158.059C1649.17 230.862 1729.97 326.486 1803.98 424.007C1865.26 504.774 1920.46 590.62 1985.4 668.548C1996.93 682.389 2008.92 695.851 2021.85 708.406C2023.05 709.561 2024.87 707.719 2023.68 706.585L2023.69 706.551ZM2023.26 662.405C1990.07 637.851 1961.59 607.174 1934.08 576.58C1899.37 537.966 1866.18 498.005 1832.29 458.683C1756.86 371.189 1677.93 284.917 1584.17 216.616C1487.53 146.226 1360.14 85.3601 1237.7 106.32C1114.49 127.396 1001.75 198.137 919.817 290.71C880.764 334.836 846.034 382.686 805.599 425.595C784.984 447.503 762.684 468.057 737.801 485.093C711 503.448 681.589 518.546 652.809 533.52C586.248 568.162 517.302 598.007 447.112 624.457C377.328 650.75 306.389 673.62 232.873 686.814C91.7724 712.145 -57.032 705.149 -191.935 654.516C-252.407 631.838 -308.757 601.244 -356.4 557.283C-396.436 520.353 -429.84 477.162 -463.959 434.906C-498.078 392.65 -533.661 350.902 -576.913 317.511C-625.813 279.749 -684.479 253.539 -745.068 241.527C-796.12 231.398 -848.649 233.459 -898.45 248.743C-941.743 262.033 -981.222 284.333 -1019.5 308.11C-1035.6 318.116 -1051.58 328.342 -1068.03 337.77C-1069.76 338.76 -1068.2 341.433 -1066.47 340.443C-1030.73 319.971 -996.972 296.29 -960.249 277.537C-914.276 254.069 -864.592 238.943 -812.695 238.215C-746.457 237.28 -679.036 258.24 -621.903 291.033C-572.666 319.291 -531.881 358.998 -495.233 401.886C-460.07 443.029 -428.095 486.859 -391.309 526.613C-352.985 568.031 -309.685 602.893 -259.197 628.381C-139.522 688.855 -3.26609 710.846 129.898 702.414C273.335 693.322 410.018 646.51 541.086 589.898C604.534 562.492 667.762 532.242 726.703 495.985C774.119 466.82 811.97 425.203 847.271 382.747C885.19 337.165 921.199 289.762 964.244 248.743C1010.93 204.281 1066.11 170.511 1125.05 144.748C1184.23 118.868 1250.18 99.0286 1315.4 106.753C1386.68 115.192 1454.9 140.659 1516.88 176.339C1619.89 235.61 1705.68 320.844 1784.45 408.737C1850.87 482.845 1911.23 563.709 1983.41 632.443C1995.5 644.097 2008.31 654.989 2021.75 665.057C2023.35 666.239 2024.89 663.559 2023.31 662.384L2023.26 662.405ZM2023.09 618.465C1986.86 598.777 1955.06 571.687 1924.59 544.171C1887.48 510.663 1852.04 475.341 1816.01 440.665C1734.92 362.578 1650.43 285.852 1552.04 229.934C1448.58 171.13 1322.52 131.953 1203.83 159.667C1084.84 187.458 975.555 251.141 887.911 335.296C848.102 373.518 811.083 414.915 768.285 449.922C719.185 490.089 661.64 513.069 603.029 535.898C536.372 561.881 468.56 584.909 401.029 608.597C332.269 632.711 263.44 656.302 192.308 672.555C58.8834 703.039 -84.7602 713.196 -217.258 672.83C-276.212 654.873 -331.496 627.103 -377.991 586.366C-417.773 551.511 -450.607 509.873 -483.503 468.71C-516.041 427.986 -549.253 387.359 -589.509 353.947C-634.176 316.838 -687.2 290.092 -743.44 275.393C-794.374 262.061 -847.577 260.892 -898.676 273.956C-940.856 284.738 -979.765 304.386 -1017.6 325.428C-1034.27 334.691 -1050.81 344.175 -1067.84 352.737C-1069.9 353.782 -1068.1 356.86 -1066.02 355.857C-1029.6 337.543 -995.179 315.58 -957.947 298.86C-911.087 277.818 -860.84 265.833 -809.259 268.548C-745.549 271.895 -681.441 295.15 -628.205 329.819C-583.269 359.053 -546.223 398.003 -512.2 439.05C-479.091 478.99 -448.291 520.944 -412.337 558.452C-374.748 597.622 -331.812 629.618 -282.286 652.186C-166.089 705.149 -34.1279 711.21 90.8585 694.642C232.207 675.908 365.735 625.399 499.394 578.009C561.131 556.115 622.655 533.403 682.578 506.877C731.424 485.251 772.353 453.557 810.76 416.791C851.992 377.325 890.474 335.014 934.242 298.297C982.414 257.889 1036.79 226.532 1094.2 201.175C1151.83 175.714 1215.27 153.998 1278.92 153.393C1346.95 152.747 1416.97 171.673 1479.27 197.958C1586.89 243.355 1679.14 317.903 1764.18 396.622C1834.4 461.632 1899.42 534.152 1975.95 591.973C1990.38 602.859 2005.34 612.988 2021.22 621.619C2023.28 622.726 2025.08 619.613 2023.04 618.499L2023.09 618.465ZM2022.4 574.319C1983.43 559.744 1948.08 536.743 1914.34 512.732C1873.41 483.601 1834.26 452.031 1794.57 421.245C1708.33 354.325 1618.83 289.57 1517.45 247.43C1460.62 223.811 1400.71 207.937 1339.53 201.147C1278.34 194.357 1220.88 199.243 1161.73 216.568C1046.01 250.454 941.031 308.949 847.161 383.881C805.895 416.819 765.385 451.619 718.931 477.169C667.536 505.42 608.472 518.401 552.328 533.884C485.588 552.322 418.766 570.574 353.187 592.867C287.368 615.208 222.16 639.109 155.221 658.007C29.0936 693.611 -108.455 719.333 -238.657 690.993C-296.161 678.465 -350.786 654.509 -396.711 617.393C-435.88 585.747 -467.979 546.769 -499.171 507.544C-530.995 467.535 -562.461 426.893 -600.49 392.478C-642.318 354.707 -691.763 326.351 -745.488 309.327C-794.45 293.734 -846.168 289.398 -896.732 299.183C-938.65 307.299 -977.745 324.555 -1015.9 343.164C-1033.04 351.535 -1050.08 360.118 -1067.59 367.67C-1070.02 368.722 -1067.92 372.274 -1065.53 371.23C-1027.8 354.95 -992.045 334.451 -953.521 319.882C-907.074 302.31 -857.953 294.112 -808.386 299.747C-746.298 306.805 -684.912 332.733 -634.747 369.677C-592.581 400.738 -558.104 440.39 -525.483 481.004C-494.168 520.016 -464.014 560.245 -427.964 595.079C-391.756 630.127 -350.009 657.746 -302.971 676.011C-188.815 720.35 -60.7153 710.722 56.8287 686.436C192.13 658.488 319.398 604.845 451.648 566.341C513.777 548.253 576.531 532.338 638.461 513.57C688.062 498.548 731.774 477.286 773.741 446.726C817.598 414.792 858.211 378.645 902.211 346.882C952.218 310.777 1006.26 281.893 1062.76 257.333C1121.14 231.961 1183.25 209.661 1246.93 203.044C1311.05 196.412 1378.87 207.62 1440.52 224.959C1551.84 256.268 1650.62 318.137 1742.59 386.678C1818.54 443.283 1890.23 508.87 1973.08 555.51C1988.55 564.327 2004.69 571.93 2021.34 578.25C2023.82 579.184 2024.9 575.199 2022.43 574.278L2022.4 574.319ZM2022.18 530.338C1933.34 510.244 1854.46 454.856 1777.54 408.607C1683.19 351.864 1585.86 298.036 1478.85 269.318C1418.29 253.058 1355.69 244.929 1293 244.393C1234.59 243.891 1178.85 255.539 1123.44 273.455C1066.11 292.009 1009.71 315.058 955.373 341.082C902.651 366.33 853.256 397.275 803.682 428.075C761.076 454.553 717.495 480.536 669.322 495.6C615.886 512.313 558.396 517.377 503.427 527.28C438.708 538.963 374.579 553.559 312.175 574.477C247.023 596.323 183.121 621.75 117.989 643.692C-1.33514 683.887 -131.283 722.308 -258.537 707.355C-314.99 700.723 -368.934 681.282 -415.017 647.74C-455.355 618.376 -487.949 580.174 -518.838 541.368C-549.356 503.042 -578.837 463.666 -614.069 429.45C-651.961 392.518 -696.952 363.66 -746.319 344.621C-793.66 326.342 -844.388 318.556 -894.876 325.05C-937.228 330.499 -977.057 345.59 -1016.2 362.001C-1032.97 369.038 -1049.69 376.191 -1066.83 382.335C-1069.62 383.338 -1068.41 387.833 -1065.59 386.809C-1028.68 373.566 -993.433 356.036 -956.112 343.927C-908.84 328.61 -859.5 323.016 -810.29 331.455C-751.521 341.536 -694.498 368.509 -647.982 405.618C-609.726 436.143 -578.177 473.74 -547.906 511.935C-486.959 588.84 -425.848 665.346 -328.96 696.916C-217.237 733.338 -93.515 710.296 16.7379 679.874C147.304 643.85 270.813 585.672 402.252 553.229C462.588 538.344 523.885 528.421 585.107 518.003C634.489 509.598 681.314 499.606 726.565 477.458C772.009 455.254 813.99 426.639 857.132 400.374C910.959 367.595 966.766 339.639 1024.9 315.333C1081.48 291.665 1139.66 270.115 1199.85 257.669C1263.47 244.523 1329.9 247.306 1393.9 256.556C1509.47 273.248 1615.87 320.418 1716.48 377.978C1798.87 425.107 1877.86 481.849 1966.29 517.481C1984.02 524.719 2002.3 530.519 2020.96 534.826C2023.87 535.513 2025.08 531.012 2022.2 530.352L2022.18 530.338ZM2021.25 486.281C1926.92 477.21 1838.93 432.446 1753.25 395.22C1652.54 351.487 1549.59 312.151 1440.12 297.369C1377.56 288.941 1314.28 287.144 1251.35 292.009C1195.09 296.38 1139.99 312.378 1086.7 330.149C1029.2 349.315 972.147 370.886 916.34 394.547C865.302 416.194 815.777 441.112 765.055 463.439C720.23 483.168 673.837 499.813 624.978 505.688C569.549 512.361 513.275 511.447 457.688 517.027C395.154 523.301 333.437 535.238 273.809 555.235C210.203 576.539 148.397 603.188 85.9862 627.715C-27.2217 672.197 -148.422 720.886 -271.917 721.36C-325.992 721.566 -378.802 709.987 -425.408 681.908C-467.265 656.687 -501.04 621.145 -531.709 583.562C-561.994 546.453 -589.908 507.358 -622.707 472.352C-658.359 434.295 -699.439 403.089 -746.993 381.352C-793.11 360.276 -843.069 348.635 -893.907 351.803C-935.07 354.38 -974.432 366.323 -1013.18 379.71C-1030.89 385.826 -1048.55 392.08 -1066.56 397.227C-1069.75 398.134 -1068.4 403.109 -1065.19 402.195C-1027.69 391.523 -991.66 376.267 -953.817 366.708C-905.713 354.565 -856.29 352.84 -807.988 365.011C-750.875 379.401 -697.577 409.129 -654.057 448.595C-618.144 481.148 -588.561 519.68 -558.798 557.716C-500.641 632.03 -435.743 701.905 -338.945 720.583C-227.936 741.99 -111.128 705.376 -7.47868 668.473C116.099 624.492 235.787 562.458 364.897 536.042C425.816 523.576 487.691 518.972 549.675 515.735C598.672 513.179 646.315 510.608 693.546 496.205C738.997 482.337 782.042 461.652 824.957 441.524C881.204 415.135 937.952 390.582 995.999 368.399C1053.1 346.58 1110.84 325.538 1170.31 310.99C1229.62 296.476 1289.97 293.294 1350.86 295.184C1470.11 298.895 1583.39 330.341 1693.22 375.339C1782.06 411.761 1868.86 458.079 1962.5 481.272C1981.81 486.096 2001.45 489.496 2021.25 491.442C2024.55 491.759 2024.53 486.632 2021.25 486.288V486.281ZM2020.95 442.3C1922.32 444.197 1826.53 413.287 1732.49 387.324C1620.9 356.469 1508.42 331.819 1392.11 330.877C1332.83 330.396 1272.12 333.076 1213.57 342.821C1154.69 352.614 1097.32 370.838 1040.75 389.516C981.559 409.06 922.53 429.113 863.66 449.674C815.708 466.408 767.749 483.773 718.415 496.074C674.05 507.138 628.696 512.911 582.942 510.883C526.593 508.389 470.525 502.424 413.996 504.238C352.836 506.204 292.508 516.532 234.571 536.255C175.115 556.493 117.748 582.895 60.4778 608.514C-47.6587 656.893 -159.114 712.495 -277.476 730.149C-327.242 737.564 -379.476 736.918 -426.507 717.25C-471.532 698.414 -508.695 666.184 -540.581 629.831C-603.541 558.039 -652.593 474.372 -737.564 425.306C-783.881 398.553 -835.42 380.782 -889.207 379.483C-930.906 378.473 -971.498 387.668 -1011.53 398.402C-1029.72 403.281 -1047.87 408.318 -1066.32 412.146C-1069.88 412.895 -1068.38 418.331 -1064.81 417.644C-1026.04 409.535 -988.465 396.519 -949.364 389.846C-899.199 381.284 -848.635 384.802 -800.6 402.003C-746.312 421.43 -698.443 454.052 -658.558 495.387C-625.573 529.541 -597.996 568.23 -568.433 605.216C-511.527 676.424 -442.443 735.434 -347.405 739.908C-239.454 744.993 -131.929 698.675 -34.8907 656.914C23.1151 631.941 80.3856 605.284 138.398 580.311C199.332 554.081 261.014 529.788 326.689 518.532C385.966 508.375 446.033 508.224 505.908 511.66C555.764 514.505 605.207 519.858 655.029 513.777C755.998 501.455 852.253 458.8 947.972 426.728C1006.59 407.088 1064.9 386.335 1124.39 369.45C1183.49 352.675 1242.37 343.261 1303.65 339.213C1425.62 331.2 1544.65 344.814 1662.95 374.652C1759.37 398.965 1854.58 432.954 1953.74 444.582C1976.03 447.238 1998.48 448.372 2020.92 447.977C2024.57 447.901 2024.58 442.232 2020.92 442.307L2020.95 442.3ZM2020.66 398.319C1918.74 410.792 1816.56 395.742 1715.44 383.002C1596.99 368.076 1479.05 359.197 1359.78 369.89C1301.37 375.126 1242.17 381.655 1184.83 394.1C1124.52 407.157 1065.56 425.972 1006.59 443.998C900.624 476.393 790.811 512.759 679.617 520.917C578.977 528.311 483.41 494.645 383.574 490.047C324.387 487.299 265.123 494.473 208.698 512.725C150.486 531.596 94.961 558.61 40.2125 585.699C-63.6771 637.102 -166.213 696.895 -277.675 730.699C-323.669 744.642 -373.195 754.373 -421.257 746.505C-468.33 738.829 -509.905 712.351 -543.735 679.612C-611.142 614.328 -654.256 528.132 -730.967 471.74C-774.37 439.84 -825.676 416.537 -879.284 409.267C-921.202 403.583 -962.874 408.689 -1004.16 416.29C-1024.47 420.028 -1044.7 424.165 -1065.2 426.873C-1069.09 427.388 -1069.13 433.58 -1065.2 433.058C-1024.37 427.663 -984.362 417.025 -943.227 413.885C-890.748 409.807 -838.137 419.881 -790.877 443.056C-741.021 467.28 -699.439 502.493 -663.492 544.343C-633.036 579.817 -606.668 618.561 -576.177 654.014C-547.102 687.818 -513.588 718.171 -472.776 737.035C-434.595 754.682 -392.959 758.277 -351.514 753.246C-246.621 740.505 -147.789 687.447 -54.7986 640.545C-1.01899 613.428 52.472 585.672 107.186 560.458C166.972 532.901 228.187 508.43 293.862 499.812C353.977 491.93 414.271 496.576 473.851 506.451C521.604 514.367 568.766 525.583 617.254 527.954C715.522 532.764 812.237 506.279 905.977 480.069C1025.38 446.685 1141.85 403.899 1265.17 387.008C1388 370.178 1509.68 366.852 1633.08 379.573C1737.53 390.334 1841.81 410.284 1947.13 409.294C1971.71 409.072 1996.26 407.466 2020.66 404.484C2024.55 404.009 2024.6 397.818 2020.66 398.299V398.319ZM2019.46 354.469C1911.57 377.669 1801.19 378.521 1691.34 380.645C1570.54 382.954 1450.99 390.623 1331.82 411.404C1271.44 421.939 1210.75 432.453 1151.33 447.613C1091.44 462.882 1032.37 481.121 972.717 497.263C867.014 525.864 756.115 551.463 645.882 542.185C544.336 533.644 451.49 487.436 350.582 475.595C291.807 468.723 232.159 473.664 175.727 491.683C118.607 509.914 64.6215 537.561 11.9895 565.949C-87.7975 619.764 -183.523 682.602 -287.805 727.696C-330.761 746.25 -376.803 762.544 -423.951 764.805C-468.261 766.942 -508.798 752.518 -544.354 726.322C-621.683 669.339 -662.509 576.422 -735.09 514.065C-774.831 479.918 -822.652 453.296 -873.772 441.015C-916.543 430.707 -960.111 432.082 -1003.56 436.356C-1023.97 438.37 -1044.35 440.713 -1064.85 441.812C-1069.14 442.046 -1069.17 448.746 -1064.85 448.513C-1022.35 446.238 -980.198 438.734 -937.53 439.682C-881.868 440.926 -829.559 458.237 -782.404 487.608C-737.448 515.618 -701.535 553.895 -669.058 595.293C-640.684 631.453 -614.612 669.799 -582.039 702.434C-552.985 731.531 -517.134 756.985 -476.672 766.887C-438.457 776.24 -398.181 771.01 -360.695 760.888C-258.723 733.338 -165.931 674.259 -75.0638 622.327C-24.4316 593.382 26.3587 564.547 78.8257 539.024C139.299 509.612 201.833 485.182 269.466 480.282C329.005 475.973 387.732 485.972 444.989 501.689C493.429 514.986 540.763 532.022 590.24 541.299C812.004 582.882 1026.46 475.925 1240.03 435.167C1364.73 411.369 1488.67 393.537 1615.7 389.228C1725.81 385.489 1836.61 388.444 1946.06 373.937C1971.3 370.589 1996.36 366.236 2021.25 360.881C2025.46 359.974 2023.67 353.514 2019.46 354.421V354.469ZM2019.1 310.488C1910.86 342.842 1799.5 361.128 1688.12 378.72C1566.33 397.962 1445.49 419.733 1325.81 449.654C1266.56 464.463 1206.93 478.028 1147.95 493.806C1086.55 510.224 1025.6 528.311 963.784 543.285C854.287 569.804 740.13 587.63 628.324 564.836C529.183 544.625 441.986 490.618 344.192 466.497C288.062 452.65 229.121 449.887 172.483 462.532C114.134 475.589 59.4194 503.207 7.50212 532.09C-91.4534 587.149 -183.31 653.78 -281.482 710.11C-350.256 749.57 -444.195 803.185 -525.957 773.739C-619.525 740.066 -664.214 639.734 -727.868 570.924C-764.908 530.902 -809.816 497.936 -860.785 477.953C-905.012 460.614 -951.693 456.443 -998.8 456.649C-1020.71 456.725 -1042.62 457.336 -1064.53 456.759C-1069.18 456.635 -1069.18 463.851 -1064.53 463.975C-1017.65 465.219 -970.522 461.109 -923.951 468.407C-866.227 477.458 -812.372 504.554 -767.959 542.275C-694.807 604.453 -655.259 699.548 -576.39 755.184C-544.381 777.766 -507.912 790.967 -468.501 788.658C-428.837 786.328 -390.526 772.447 -354.613 756.249C-255.39 711.492 -166.082 646.359 -74.0331 588.991C28.599 525.026 140.776 455.893 266.188 461.996C376.826 467.377 471.171 527.383 574.84 558.72C795.937 625.55 1020.57 531.754 1234.54 479.863C1357.72 449.99 1480 420.076 1605.16 399.357C1716.3 380.954 1828.23 366.124 1937.9 339.859C1965.82 333.175 1993.53 325.719 2021.05 317.491C2025.49 316.164 2023.6 309.203 2019.13 310.536L2019.1 310.488ZM2018.73 266.507C1906.03 308.77 1790.83 343.618 1675.35 377.442C1552.89 413.314 1430.97 450.368 1309.68 490.061C1249.9 509.626 1189.55 526.744 1129.12 544.075C1069.72 561.111 1010.23 577.824 949.758 590.709C836.839 614.761 721.405 624.306 609.75 589.204C511.818 558.41 428.455 496.651 332.86 460.697C278.001 440.081 219.693 430.536 161.254 438.088C103.042 445.606 48.4175 471.493 -2.29724 499.881C-100.208 554.699 -188.842 624.265 -281.077 687.769C-322.308 716.158 -364.364 743.983 -409.238 766.331C-444.202 783.744 -483.187 799.516 -522.913 798.931C-619.649 797.516 -674.989 692.827 -727.277 626.828C-762.056 582.93 -802.641 544.364 -852.202 517.563C-895.797 493.971 -943.364 483.148 -992.334 478.159C-1016.25 475.726 -1040.24 474.187 -1064.14 471.596C-1069.08 471.06 -1069.04 478.798 -1064.14 479.327C-1014.21 484.742 -963.547 485.745 -915.018 499.977C-856.819 517.048 -805.315 551.971 -763.939 595.884C-701.068 662.625 -659.273 760.716 -569.622 796.897C-496.779 826.296 -416.426 782.088 -354.998 745.124C-260.07 688.003 -173.408 618.211 -80.9944 557.263C-30.7745 524.146 21.3147 492.191 77.1628 469.438C136.701 445.18 199.765 436.782 263.24 448.822C369.205 468.888 457.145 536.317 555.091 577.329C651.297 617.606 752.871 628.052 856.08 614.899C978.284 599.32 1097.47 561.984 1215.42 527.624C1341.02 491.03 1464.55 447.461 1590.1 410.483C1705.55 376.473 1821.47 343.742 1935.36 304.654C1963.97 294.827 1992.45 284.599 2020.79 273.97C2025.4 272.238 2023.41 264.761 2018.73 266.514V266.507ZM2017.35 222.959C1781.01 327.95 1543.02 429.276 1303.36 526.936C1188.64 573.625 1068.48 612.5 946.762 636.202C830.214 658.88 712.636 663.511 600.548 619.248C502.438 580.504 421.72 511.701 329.108 462.91C280.633 437.38 228.317 418.75 173.177 416.29C113.35 413.617 57.3167 431.504 4.46479 458.34C-96.0163 509.358 -184.073 582.785 -272.198 652.131C-314.289 685.234 -356.476 718.391 -400.854 748.408C-436.155 772.282 -473.614 795.633 -514.502 808.614C-552.401 820.654 -587.289 818.331 -622.206 798.368C-666.11 773.264 -695.735 730.129 -724.776 690.078C-756.242 646.702 -788.973 604.439 -831.545 571.268C-877.085 535.781 -928.81 514.003 -984.912 501.634C-1010.7 495.95 -1036.78 491.676 -1062.7 486.694C-1067.89 485.69 -1070.11 493.641 -1064.89 494.645C-1009.56 505.283 -953.136 513.158 -901.666 537.409C-845.914 563.674 -800.305 605.284 -762.448 653.334C-711.822 717.58 -659.506 820.894 -565.725 824.86C-531.95 826.289 -498.662 813.383 -468.921 798.622C-426.535 777.587 -387.461 750.071 -349.528 721.972C-259.836 655.546 -175.373 582.085 -82.575 519.858C-30.8088 485.148 24.4964 451.825 84.8662 434.645C145.449 417.465 209.2 422.784 267.948 444.314C370.339 481.842 453.393 557.448 550.418 605.772C646.466 653.602 750.184 670.136 856.706 658.323C980.799 644.579 1103.28 609.421 1220.65 567.612C1346.03 522.903 1468.13 467.555 1590.8 415.946C1705.33 367.76 1819.54 318.792 1933.42 269.043C1962.82 256.137 1992.2 243.165 2021.55 230.126C2026.36 227.975 2022.2 220.87 2017.39 223.007L2017.35 222.959ZM2016.92 179.019C1774.78 301.932 1541.97 442.465 1298.12 562.066C1184.17 617.95 1063.19 661.182 937.918 683.014C872.793 694.38 805.888 701.246 739.911 693.968C684.523 687.866 630.771 671.524 580.798 647.005C483.121 599.086 404.486 523.226 314.168 464.002C266.614 432.81 214.525 406.923 157.674 398.938C98.9604 390.692 43.0231 403.267 -10.1036 428.419C-112.935 477.107 -201.06 555.552 -286.54 629.179C-361.107 693.432 -435.448 766.138 -523.504 811.892C-552.071 826.743 -586.437 840.315 -619.086 832.508C-669.725 820.379 -704.806 779.126 -734.176 738.939C-766.832 694.27 -797.233 647.884 -838.231 610.157C-879.655 572.044 -927.964 544.57 -980.954 525.995C-1007.7 516.628 -1035.04 509.11 -1062.32 501.524C-1067.77 500.012 -1070.08 508.458 -1064.65 509.969C-1008.84 525.5 -952.744 541.292 -902.957 571.818C-848.573 605.195 -807.053 652.269 -770.158 703.596C-725.387 765.87 -667.924 858.01 -577.813 841.256C-541.653 834.535 -508.18 814.93 -477.902 794.918C-437.915 768.488 -400.655 737.99 -364.035 707.156C-276.761 633.707 -193.089 555.187 -98.7788 490.686C-46.7172 455.069 10.4846 421.032 73.1908 409.04C136.9 396.856 201.854 412.297 258.732 441.531C357.001 492.02 435.774 572.848 530.304 629.453C626.765 687.213 733.595 712.873 845.862 703.61C971.295 693.26 1095.31 659.553 1211.35 611.256C1338.03 558.52 1459.15 490.398 1579.51 424.825C1696.52 361.08 1812.6 295.631 1930.49 233.528C1960.64 217.64 1990.92 201.979 2021.32 186.544C2026.35 183.988 2021.92 176.428 2016.9 178.985L2016.92 179.019ZM2016.49 135.079C1767.93 275.777 1541.91 452.169 1294.58 594.928C1182.32 659.738 1062.58 708.42 934.186 729.338C867.02 740.279 797.222 746.127 729.589 736.011C673.178 727.572 619.137 708.2 569.315 680.581C470.119 625.605 392.24 542.399 304.183 472.448C259.213 436.714 210.32 403.865 154.733 387.407C98.3488 370.708 40.1026 373.663 -14.5635 395.062C-121.642 436.982 -211.829 520.958 -295.096 597.849C-372.192 669.043 -445.783 747.178 -531.854 807.81C-559.864 827.547 -592.134 848.355 -626.954 852.54C-672.831 858.038 -713.128 824.042 -740.451 791.084C-777.353 746.56 -805.466 695.562 -844.313 652.482C-883.311 609.188 -930.163 574.738 -982.52 549.346C-1008.3 536.846 -1034.97 526.325 -1061.87 516.477C-1067.48 514.416 -1069.9 523.349 -1064.33 525.411C-1006.24 546.68 -949.515 572.072 -901.088 611.249C-851.226 651.588 -815.128 703.005 -778.768 755.109C-752.03 793.379 -722.673 833.786 -678.383 852.753C-647.288 866.071 -618 863.748 -587.31 850.637C-550.312 834.879 -517.457 809.913 -486.43 784.72C-446.065 751.934 -408.022 716.35 -370.123 680.781C-286.911 602.687 -204.73 521.123 -109.678 457.233C-54.4619 420.124 8.23056 386.156 76.4068 385.551C138.941 384.995 196.913 409.067 248.425 443.049C345.319 506.959 422.703 596.055 519.219 660.749C563.303 690.298 610.939 714.715 661.811 730.197C720.051 747.927 780.572 752.793 841.168 748.992C966.966 741.103 1090.62 708.042 1204.22 653.588C1333.64 591.561 1454.74 509.818 1573.93 430.329C1691.71 351.755 1808.03 270.898 1929.01 197.244C1959.46 178.703 1990.2 160.652 2021.23 143.092C2026.42 140.151 2021.75 132.138 2016.55 135.086L2016.49 135.079ZM2016.06 91.1326C1767.49 245.066 1553.81 447.104 1312.55 611.435C1253.08 651.98 1191.96 690.463 1125.85 719.326C1070.36 743.56 1012.25 761.298 952.679 772.185C884.399 784.644 812.128 790.987 743.003 782.411C682.709 774.927 624.758 754.504 572.044 724.501C472.071 667.648 394.418 581.535 312.375 502.651C229.273 422.749 125.246 336.911 1.40682 359.644C-62.502 371.367 -120.006 408.435 -170.948 447.049C-215.526 480.866 -257.053 518.518 -297.315 557.352C-376.899 634.051 -450.593 717.113 -533.228 790.603C-563.004 817.087 -594.773 844.026 -631.256 860.848C-669.051 878.276 -705.589 871.919 -738.458 845.654C-785.187 808.312 -812.812 749.783 -847.831 702.393C-883.462 654.186 -925.814 611.62 -975.759 578.25C-1002.56 560.383 -1030.98 545.264 -1060.28 531.905C-1065.97 529.314 -1070.96 537.746 -1065.22 540.364C-1005.82 567.454 -951.027 602.611 -905.26 649.485C-858.991 696.902 -827.098 753.982 -787.709 806.621C-761.3 841.916 -725.449 878.221 -678.645 881.444C-648.985 883.506 -619.897 867.782 -595.859 852.155C-558.956 828.172 -525.999 798.148 -494.154 767.918C-453.534 729.318 -414.619 688.958 -375.353 648.991C-293.33 565.468 -209.623 478.173 -109.293 416.372C-48.4009 378.872 18.6277 355.802 90.3087 371.161C153.53 384.713 208.004 422.701 256.162 464.312C344.92 541.004 420.216 632.463 516.415 700.606C561.811 732.761 611.372 759.122 664.629 775.587C726.112 794.588 789.491 798.045 853.393 794.018C983.85 785.772 1108.23 747.412 1221.09 681.619C1346.74 608.377 1462.53 517.377 1576.53 427.512C1692.86 335.791 1807.83 242.07 1930.34 158.589C1960.14 138.284 1990.38 118.635 2021.05 99.6402C2026.39 96.3279 2021.49 87.8547 2016.11 91.1808L2016.06 91.1326ZM2015.63 47.1929C1858.2 152.452 1718.76 280.718 1578.88 407.686C1507.89 472.146 1436.48 536.227 1362.06 596.736C1302.96 644.84 1242.3 692.257 1176.98 731.723C1114.45 769.519 1046.98 797.935 975.548 813.816C897.607 831.141 812.327 838.404 733.004 826.571C613.433 808.703 513.832 739.784 428.957 657.1C350.617 580.82 283.959 492.349 200.5 421.389C132.317 363.389 45.5244 319.429 -45.982 341.721C-93.7143 353.349 -137.378 379.112 -176.823 407.631C-224.342 441.991 -267.656 481.849 -309.121 523.184C-394.422 608.184 -471.168 701.239 -556.056 786.596C-587.131 817.836 -619.711 849.771 -657.761 872.558C-689.165 891.388 -719.608 896.528 -752.978 878.145C-796.216 854.348 -822.096 805.989 -847.378 765.65C-881.936 710.488 -918.57 656.68 -967.024 612.61C-995.199 586.964 -1026.47 565.111 -1059.88 546.824C-1065.71 543.642 -1070.88 552.542 -1065.09 555.758C-997.302 592.867 -941.969 645.259 -897.412 708.083C-865.114 753.645 -839.688 804.573 -803.823 847.524C-779.806 876.269 -743.701 904.19 -703.899 900.693C-671.312 897.834 -641.763 876.063 -617.052 856.402C-577.373 824.839 -542.031 787.854 -507.41 750.944C-465.787 706.564 -425.366 661.079 -384.059 616.403C-304.304 530.132 -219.972 437.882 -115.711 380.878C-74.3836 358.283 -29.5512 343.405 17.9955 346.58C64.9926 349.72 108.911 368.364 147.813 394.203C237.354 453.674 304.664 542.605 377.864 619.867C456.657 703.019 545.154 781.648 655.654 818.647C722.181 840.927 791.271 844.335 860.863 840.013C938.557 835.202 1015.27 819.328 1087.21 789.242C1150.69 762.702 1208.93 725.937 1264.33 685.426C1335.61 633.309 1403.72 576.917 1470.18 518.827C1614.79 392.382 1752.05 257.292 1904.39 139.924C1942.28 110.732 1981.09 82.8106 2020.83 56.1609C2026.33 52.4912 2021.17 43.5575 2015.63 47.2272V47.1929Z" fill="url(#paint0_linear_905_389)"/>
<g opacity="0.9" filter="url(#filter0_d_905_389)">
<g clip-path="url(#clip0_905_389)" filter="url(#filter1_d_905_389)">
<path d="M402.006 153.848C403.609 153.848 404.907 152.553 404.907 150.956C404.907 149.359 403.609 148.064 402.006 148.064C400.404 148.064 399.105 149.359 399.105 150.956C399.105 152.553 400.404 153.848 402.006 153.848Z" fill="#33B8C2"/>
<path d="M401.147 103C401.147 103 380.302 115.693 401.147 144.679Z" fill="#33B8C2"/>
<path d="M402.415 103C402.415 103 423.259 115.693 402.415 144.679Z" fill="#33B8C2"/>
<path d="M420.809 132.211C420.809 132.211 408.023 129.126 404.886 148.096Z" fill="#33B8C2"/>
<path d="M421.68 133.068C421.68 133.068 424.764 145.825 405.746 148.953Z" fill="#33B8C2"/>
<path d="M383.042 132.211C383.042 132.211 395.839 129.126 398.976 148.096Z" fill="#33B8C2"/>
<path d="M382.183 133.068C382.183 133.068 379.088 145.825 398.117 148.953Z" fill="#33B8C2"/>
</g>
</g>
<g opacity="0.9" filter="url(#filter2_d_905_389)">
<g clip-path="url(#clip1_905_389)" filter="url(#filter3_d_905_389)">
<path d="M1023.01 133.848C1024.61 133.848 1025.91 132.553 1025.91 130.956C1025.91 129.359 1024.61 128.064 1023.01 128.064C1021.4 128.064 1020.11 129.359 1020.11 130.956C1020.11 132.553 1021.4 133.848 1023.01 133.848Z" fill="#33B8C2"/>
<path d="M1022.15 83C1022.15 83 1001.3 95.6933 1022.15 124.679Z" fill="#33B8C2"/>
<path d="M1023.41 83C1023.41 83 1044.26 95.6933 1023.41 124.679Z" fill="#33B8C2"/>
<path d="M1041.81 112.211C1041.81 112.211 1029.02 109.126 1025.89 128.096Z" fill="#33B8C2"/>
<path d="M1042.68 113.068C1042.68 113.068 1045.76 125.825 1026.75 128.953Z" fill="#33B8C2"/>
<path d="M1004.04 112.211C1004.04 112.211 1016.84 109.126 1019.98 128.096Z" fill="#33B8C2"/>
<path d="M1003.18 113.068C1003.18 113.068 1000.09 125.825 1019.12 128.953Z" fill="#33B8C2"/>
</g>
</g>
<g filter="url(#filter4_d_905_389)">
<g clip-path="url(#clip2_905_389)" filter="url(#filter5_d_905_389)">
<path d="M587.006 479.848C588.609 479.848 589.907 478.553 589.907 476.956C589.907 475.359 588.609 474.064 587.006 474.064C585.404 474.064 584.105 475.359 584.105 476.956C584.105 478.553 585.404 479.848 587.006 479.848Z" fill="#33B8C2"/>
<path d="M586.147 429C586.147 429 565.302 441.693 586.147 470.679Z" fill="#33B8C2"/>
<path d="M587.415 429C587.415 429 608.259 441.693 587.415 470.679Z" fill="#33B8C2"/>
<path d="M605.809 458.211C605.809 458.211 593.023 455.126 589.886 474.096Z" fill="#33B8C2"/>
<path d="M606.68 459.067C606.68 459.067 609.764 471.825 590.746 474.953Z" fill="#33B8C2"/>
<path d="M568.042 458.211C568.042 458.211 580.839 455.126 583.976 474.096Z" fill="#33B8C2"/>
<path d="M567.183 459.067C567.183 459.067 564.088 471.825 583.117 474.953Z" fill="#33B8C2"/>
</g>
</g>
<g filter="url(#filter6_d_905_389)">
<g clip-path="url(#clip3_905_389)" filter="url(#filter7_d_905_389)">
<path d="M1504.01 426.848C1505.61 426.848 1506.91 425.553 1506.91 423.956C1506.91 422.359 1505.61 421.064 1504.01 421.064C1502.4 421.064 1501.11 422.359 1501.11 423.956C1501.11 425.553 1502.4 426.848 1504.01 426.848Z" fill="#33B8C2"/>
<path d="M1503.15 376C1503.15 376 1482.3 388.693 1503.15 417.679Z" fill="#33B8C2"/>
<path d="M1504.41 376C1504.41 376 1525.26 388.693 1504.41 417.679Z" fill="#33B8C2"/>
<path d="M1522.81 405.211C1522.81 405.211 1510.02 402.126 1506.89 421.096Z" fill="#33B8C2"/>
<path d="M1523.68 406.067C1523.68 406.067 1526.76 418.825 1507.75 421.953Z" fill="#33B8C2"/>
<path d="M1485.04 405.211C1485.04 405.211 1497.84 402.126 1500.98 421.096Z" fill="#33B8C2"/>
<path d="M1484.18 406.067C1484.18 406.067 1481.09 418.825 1500.12 421.953Z" fill="#33B8C2"/>
</g>
</g>
<g opacity="0.2" filter="url(#filter8_d_905_389)">
<g clip-path="url(#clip4_905_389)" filter="url(#filter9_d_905_389)">
<path d="M1378.01 203.848C1379.61 203.848 1380.91 202.553 1380.91 200.956C1380.91 199.359 1379.61 198.064 1378.01 198.064C1376.4 198.064 1375.11 199.359 1375.11 200.956C1375.11 202.553 1376.4 203.848 1378.01 203.848Z" fill="#33B8C2"/>
<path d="M1377.15 153C1377.15 153 1356.3 165.693 1377.15 194.679Z" fill="#33B8C2"/>
<path d="M1378.41 153C1378.41 153 1399.26 165.693 1378.41 194.679Z" fill="#33B8C2"/>
<path d="M1396.81 182.211C1396.81 182.211 1384.02 179.126 1380.89 198.096Z" fill="#33B8C2"/>
<path d="M1397.68 183.068C1397.68 183.068 1400.76 195.825 1381.75 198.953Z" fill="#33B8C2"/>
<path d="M1359.04 182.211C1359.04 182.211 1371.84 179.126 1374.98 198.096Z" fill="#33B8C2"/>
<path d="M1358.18 183.068C1358.18 183.068 1355.09 195.825 1374.12 198.953Z" fill="#33B8C2"/>
</g>
</g>
<g filter="url(#filter10_d_905_389)">
<g clip-path="url(#clip5_905_389)" filter="url(#filter11_d_905_389)">
<path d="M465.006 555.848C466.608 555.848 467.907 554.553 467.907 552.956C467.907 551.359 466.608 550.064 465.006 550.064C463.404 550.064 462.105 551.359 462.105 552.956C462.105 554.553 463.404 555.848 465.006 555.848Z" fill="#33B8C2" fill-opacity="0.6"/>
<path d="M464.147 505C464.147 505 443.302 517.693 464.147 546.679Z" fill="#33B8C2" fill-opacity="0.6"/>
<path d="M465.415 505C465.415 505 486.259 517.693 465.415 546.679Z" fill="#33B8C2" fill-opacity="0.6"/>
<path d="M483.809 534.211C483.809 534.211 471.023 531.126 467.886 550.096Z" fill="#33B8C2" fill-opacity="0.6"/>
<path d="M484.68 535.067C484.68 535.067 487.763 547.825 468.745 550.953Z" fill="#33B8C2" fill-opacity="0.6"/>
<path d="M446.042 534.211C446.042 534.211 458.839 531.126 461.976 550.096Z" fill="#33B8C2" fill-opacity="0.6"/>
<path d="M445.183 535.067C445.183 535.067 442.088 547.825 461.117 550.953Z" fill="#33B8C2" fill-opacity="0.6"/>
</g>
</g>
<g filter="url(#filter12_d_905_389)">
<g clip-path="url(#clip6_905_389)" filter="url(#filter13_d_905_389)">
<path d="M1245.01 60.848C1246.61 60.848 1247.91 59.5532 1247.91 57.9559C1247.91 56.3586 1246.61 55.0637 1245.01 55.0637C1243.4 55.0637 1242.11 56.3586 1242.11 57.9559C1242.11 59.5532 1243.4 60.848 1245.01 60.848Z" fill="#33B8C2" fill-opacity="0.6"/>
<path d="M1244.15 10C1244.15 10 1223.3 22.6933 1244.15 51.679Z" fill="#33B8C2" fill-opacity="0.6"/>
<path d="M1245.41 10C1245.41 10 1266.26 22.6933 1245.41 51.679Z" fill="#33B8C2" fill-opacity="0.6"/>
<path d="M1263.81 39.2107C1263.81 39.2107 1251.02 36.1258 1247.89 55.0961Z" fill="#33B8C2" fill-opacity="0.6"/>
<path d="M1264.68 40.0676C1264.68 40.0676 1267.76 52.8252 1248.75 55.953Z" fill="#33B8C2" fill-opacity="0.6"/>
<path d="M1226.04 39.2107C1226.04 39.2107 1238.84 36.1258 1241.98 55.0961Z" fill="#33B8C2" fill-opacity="0.6"/>
<path d="M1225.18 40.0676C1225.18 40.0676 1222.09 52.8252 1241.12 55.953Z" fill="#33B8C2" fill-opacity="0.6"/>
</g>
</g>
<g opacity="0.2" filter="url(#filter14_d_905_389)">
<g clip-path="url(#clip7_905_389)" filter="url(#filter15_d_905_389)">
<path d="M754.006 198.848C755.608 198.848 756.907 197.553 756.907 195.956C756.907 194.359 755.608 193.064 754.006 193.064C752.404 193.064 751.105 194.359 751.105 195.956C751.105 197.553 752.404 198.848 754.006 198.848Z" fill="#33B8C2" fill-opacity="0.6"/>
<path d="M753.147 148C753.147 148 732.302 160.693 753.147 189.679Z" fill="#33B8C2" fill-opacity="0.6"/>
<path d="M754.415 148C754.415 148 775.259 160.693 754.415 189.679Z" fill="#33B8C2" fill-opacity="0.6"/>
<path d="M772.809 177.211C772.809 177.211 760.023 174.126 756.886 193.096Z" fill="#33B8C2" fill-opacity="0.6"/>
<path d="M773.68 178.068C773.68 178.068 776.763 190.825 757.745 193.953Z" fill="#33B8C2" fill-opacity="0.6"/>
<path d="M735.042 177.211C735.042 177.211 747.839 174.126 750.976 193.096Z" fill="#33B8C2" fill-opacity="0.6"/>
<path d="M734.183 178.068C734.183 178.068 731.088 190.825 750.117 193.953Z" fill="#33B8C2" fill-opacity="0.6"/>
</g>
</g>
<g opacity="0.3" filter="url(#filter16_d_905_389)">
<g clip-path="url(#clip8_905_389)" filter="url(#filter17_d_905_389)">
<path d="M353.006 323.848C354.608 323.848 355.907 322.553 355.907 320.956C355.907 319.359 354.608 318.064 353.006 318.064C351.404 318.064 350.105 319.359 350.105 320.956C350.105 322.553 351.404 323.848 353.006 323.848Z" fill="#33B8C2" fill-opacity="0.9"/>
<path d="M352.147 273C352.147 273 331.302 285.693 352.147 314.679Z" fill="#33B8C2" fill-opacity="0.9"/>
<path d="M353.415 273C353.415 273 374.259 285.693 353.415 314.679Z" fill="#33B8C2" fill-opacity="0.9"/>
<path d="M371.809 302.211C371.809 302.211 359.023 299.126 355.886 318.096Z" fill="#33B8C2" fill-opacity="0.9"/>
<path d="M372.68 303.067C372.68 303.067 375.763 315.825 356.745 318.953Z" fill="#33B8C2" fill-opacity="0.9"/>
<path d="M334.042 302.211C334.042 302.211 346.839 299.126 349.976 318.096Z" fill="#33B8C2" fill-opacity="0.9"/>
<path d="M333.183 303.067C333.183 303.067 330.088 315.825 349.117 318.953Z" fill="#33B8C2" fill-opacity="0.9"/>
</g>
</g>
<g opacity="0.3" filter="url(#filter18_d_905_389)">
<g clip-path="url(#clip9_905_389)" filter="url(#filter19_d_905_389)">
<path d="M1244.01 504.848C1245.61 504.848 1246.91 503.553 1246.91 501.956C1246.91 500.359 1245.61 499.064 1244.01 499.064C1242.4 499.064 1241.11 500.359 1241.11 501.956C1241.11 503.553 1242.4 504.848 1244.01 504.848Z" fill="#33B8C2" fill-opacity="0.9"/>
<path d="M1243.15 454C1243.15 454 1222.3 466.693 1243.15 495.679Z" fill="#33B8C2" fill-opacity="0.9"/>
<path d="M1244.41 454C1244.41 454 1265.26 466.693 1244.41 495.679Z" fill="#33B8C2" fill-opacity="0.9"/>
<path d="M1262.81 483.211C1262.81 483.211 1250.02 480.126 1246.89 499.096Z" fill="#33B8C2" fill-opacity="0.9"/>
<path d="M1263.68 484.067C1263.68 484.067 1266.76 496.825 1247.75 499.953Z" fill="#33B8C2" fill-opacity="0.9"/>
<path d="M1225.04 483.211C1225.04 483.211 1237.84 480.126 1240.98 499.096Z" fill="#33B8C2" fill-opacity="0.9"/>
<path d="M1224.18 484.067C1224.18 484.067 1221.09 496.825 1240.12 499.953Z" fill="#33B8C2" fill-opacity="0.9"/>
</g>
</g>
<g opacity="0.3" filter="url(#filter20_d_905_389)">
<g clip-path="url(#clip10_905_389)" filter="url(#filter21_d_905_389)">
<path d="M1667.01 321.848C1668.61 321.848 1669.91 320.553 1669.91 318.956C1669.91 317.359 1668.61 316.064 1667.01 316.064C1665.4 316.064 1664.11 317.359 1664.11 318.956C1664.11 320.553 1665.4 321.848 1667.01 321.848Z" fill="#33B8C2" fill-opacity="0.9"/>
<path d="M1666.15 271C1666.15 271 1645.3 283.693 1666.15 312.679Z" fill="#33B8C2" fill-opacity="0.9"/>
<path d="M1667.41 271C1667.41 271 1688.26 283.693 1667.41 312.679Z" fill="#33B8C2" fill-opacity="0.9"/>
<path d="M1685.81 300.211C1685.81 300.211 1673.02 297.126 1669.89 316.096Z" fill="#33B8C2" fill-opacity="0.9"/>
<path d="M1686.68 301.067C1686.68 301.067 1689.76 313.825 1670.75 316.953Z" fill="#33B8C2" fill-opacity="0.9"/>
<path d="M1648.04 300.211C1648.04 300.211 1660.84 297.126 1663.98 316.096Z" fill="#33B8C2" fill-opacity="0.9"/>
<path d="M1647.18 301.067C1647.18 301.067 1644.09 313.825 1663.12 316.953Z" fill="#33B8C2" fill-opacity="0.9"/>
</g>
</g>
<g opacity="0.6" filter="url(#filter22_d_905_389)">
<g clip-path="url(#clip11_905_389)" filter="url(#filter23_d_905_389)">
<path d="M699.006 85.848C700.608 85.848 701.907 84.5532 701.907 82.9559C701.907 81.3586 700.608 80.0637 699.006 80.0637C697.404 80.0637 696.105 81.3586 696.105 82.9559C696.105 84.5532 697.404 85.848 699.006 85.848Z" fill="#33B8C2" fill-opacity="0.9"/>
<path d="M698.147 35C698.147 35 677.302 47.6933 698.147 76.679Z" fill="#33B8C2" fill-opacity="0.9"/>
<path d="M699.415 35C699.415 35 720.259 47.6933 699.415 76.679Z" fill="#33B8C2" fill-opacity="0.9"/>
<path d="M717.809 64.2107C717.809 64.2107 705.023 61.1258 701.886 80.0961Z" fill="#33B8C2" fill-opacity="0.9"/>
<path d="M718.68 65.0676C718.68 65.0676 721.763 77.8252 702.745 80.953Z" fill="#33B8C2" fill-opacity="0.9"/>
<path d="M680.042 64.2107C680.042 64.2107 692.839 61.1258 695.976 80.0961Z" fill="#33B8C2" fill-opacity="0.9"/>
<path d="M679.183 65.0676C679.183 65.0676 676.088 77.8252 695.117 80.953Z" fill="#33B8C2" fill-opacity="0.9"/>
</g>
</g>
<g opacity="0.6" filter="url(#filter24_d_905_389)">
<g clip-path="url(#clip12_905_389)" filter="url(#filter25_d_905_389)">
<path d="M1627.01 150.848C1628.61 150.848 1629.91 149.553 1629.91 147.956C1629.91 146.359 1628.61 145.064 1627.01 145.064C1625.4 145.064 1624.11 146.359 1624.11 147.956C1624.11 149.553 1625.4 150.848 1627.01 150.848Z" fill="#33B8C2" fill-opacity="0.9"/>
<path d="M1626.15 100C1626.15 100 1605.3 112.693 1626.15 141.679Z" fill="#33B8C2" fill-opacity="0.9"/>
<path d="M1627.41 100C1627.41 100 1648.26 112.693 1627.41 141.679Z" fill="#33B8C2" fill-opacity="0.9"/>
<path d="M1645.81 129.211C1645.81 129.211 1633.02 126.126 1629.89 145.096Z" fill="#33B8C2" fill-opacity="0.9"/>
<path d="M1646.68 130.068C1646.68 130.068 1649.76 142.825 1630.75 145.953Z" fill="#33B8C2" fill-opacity="0.9"/>
<path d="M1608.04 129.211C1608.04 129.211 1620.84 126.126 1623.98 145.096Z" fill="#33B8C2" fill-opacity="0.9"/>
<path d="M1607.18 130.068C1607.18 130.068 1604.09 142.825 1623.12 145.953Z" fill="#33B8C2" fill-opacity="0.9"/>
</g>
</g>
<defs>
<filter id="filter0_d_905_389" x="372.347" y="93.3468" width="66.2817" height="77.2674" filterUnits="userSpaceOnUse" color-interpolation-filters="sRGB">
<feFlood flood-opacity="0" result="BackgroundImageFix"/>
<feColorMatrix in="SourceAlpha" type="matrix" values="0 0 0 0 0 0 0 0 0 0 0 0 0 0 0 0 0 0 127 0" result="hardAlpha"/>
<feOffset dx="3.55644" dy="3.55644"/>
<feGaussianBlur stdDeviation="6.60481"/>
<feComposite in2="hardAlpha" operator="out"/>
<feColorMatrix type="matrix" values="0 0 0 0 0 0 0 0 0 0 0 0 0 0 0 0 0 0 0.9 0"/>
<feBlend mode="normal" in2="BackgroundImageFix" result="effect1_dropShadow_905_389"/>
<feBlend mode="normal" in="SourceGraphic" in2="effect1_dropShadow_905_389" result="shape"/>
</filter>
<filter id="filter1_d_905_389" x="382" y="103" width="56.6285" height="67.1061" filterUnits="userSpaceOnUse" color-interpolation-filters="sRGB">
<feFlood flood-opacity="0" result="BackgroundImageFix"/>
<feColorMatrix in="SourceAlpha" type="matrix" values="0 0 0 0 0 0 0 0 0 0 0 0 0 0 0 0 0 0 127 0" result="hardAlpha"/>
<feOffset dx="9.14513" dy="8.63706"/>
<feGaussianBlur stdDeviation="3.81047"/>
<feComposite in2="hardAlpha" operator="out"/>
<feColorMatrix type="matrix" values="0 0 0 0 0 0 0 0 0 0 0 0 0 0 0 0 0 0 0.9 0"/>
<feBlend mode="normal" in2="BackgroundImageFix" result="effect1_dropShadow_905_389"/>
<feBlend mode="normal" in="SourceGraphic" in2="effect1_dropShadow_905_389" result="shape"/>
</filter>
<filter id="filter2_d_905_389" x="993.347" y="73.3468" width="66.2818" height="77.2674" filterUnits="userSpaceOnUse" color-interpolation-filters="sRGB">
<feFlood flood-opacity="0" result="BackgroundImageFix"/>
<feColorMatrix in="SourceAlpha" type="matrix" values="0 0 0 0 0 0 0 0 0 0 0 0 0 0 0 0 0 0 127 0" result="hardAlpha"/>
<feOffset dx="3.55644" dy="3.55644"/>
<feGaussianBlur stdDeviation="6.60481"/>
<feComposite in2="hardAlpha" operator="out"/>
<feColorMatrix type="matrix" values="0 0 0 0 0 0 0 0 0 0 0 0 0 0 0 0 0 0 0.9 0"/>
<feBlend mode="normal" in2="BackgroundImageFix" result="effect1_dropShadow_905_389"/>
<feBlend mode="normal" in="SourceGraphic" in2="effect1_dropShadow_905_389" result="shape"/>
</filter>
<filter id="filter3_d_905_389" x="1003" y="83" width="56.6286" height="67.1061" filterUnits="userSpaceOnUse" color-interpolation-filters="sRGB">
<feFlood flood-opacity="0" result="BackgroundImageFix"/>
<feColorMatrix in="SourceAlpha" type="matrix" values="0 0 0 0 0 0 0 0 0 0 0 0 0 0 0 0 0 0 127 0" result="hardAlpha"/>
<feOffset dx="9.14513" dy="8.63706"/>
<feGaussianBlur stdDeviation="3.81047"/>
<feComposite in2="hardAlpha" operator="out"/>
<feColorMatrix type="matrix" values="0 0 0 0 0 0 0 0 0 0 0 0 0 0 0 0 0 0 0.9 0"/>
<feBlend mode="normal" in2="BackgroundImageFix" result="effect1_dropShadow_905_389"/>
<feBlend mode="normal" in="SourceGraphic" in2="effect1_dropShadow_905_389" result="shape"/>
</filter>
<filter id="filter4_d_905_389" x="557.347" y="419.347" width="66.2817" height="77.2674" filterUnits="userSpaceOnUse" color-interpolation-filters="sRGB">
<feFlood flood-opacity="0" result="BackgroundImageFix"/>
<feColorMatrix in="SourceAlpha" type="matrix" values="0 0 0 0 0 0 0 0 0 0 0 0 0 0 0 0 0 0 127 0" result="hardAlpha"/>
<feOffset dx="3.55644" dy="3.55644"/>
<feGaussianBlur stdDeviation="6.60481"/>
<feComposite in2="hardAlpha" operator="out"/>
<feColorMatrix type="matrix" values="0 0 0 0 0 0 0 0 0 0 0 0 0 0 0 0 0 0 0.9 0"/>
<feBlend mode="normal" in2="BackgroundImageFix" result="effect1_dropShadow_905_389"/>
<feBlend mode="normal" in="SourceGraphic" in2="effect1_dropShadow_905_389" result="shape"/>
</filter>
<filter id="filter5_d_905_389" x="567" y="429" width="56.6285" height="67.1061" filterUnits="userSpaceOnUse" color-interpolation-filters="sRGB">
<feFlood flood-opacity="0" result="BackgroundImageFix"/>
<feColorMatrix in="SourceAlpha" type="matrix" values="0 0 0 0 0 0 0 0 0 0 0 0 0 0 0 0 0 0 127 0" result="hardAlpha"/>
<feOffset dx="9.14513" dy="8.63706"/>
<feGaussianBlur stdDeviation="3.81047"/>
<feComposite in2="hardAlpha" operator="out"/>
<feColorMatrix type="matrix" values="0 0 0 0 0 0 0 0 0 0 0 0 0 0 0 0 0 0 0.9 0"/>
<feBlend mode="normal" in2="BackgroundImageFix" result="effect1_dropShadow_905_389"/>
<feBlend mode="normal" in="SourceGraphic" in2="effect1_dropShadow_905_389" result="shape"/>
</filter>
<filter id="filter6_d_905_389" x="1474.35" y="366.347" width="66.2818" height="77.2674" filterUnits="userSpaceOnUse" color-interpolation-filters="sRGB">
<feFlood flood-opacity="0" result="BackgroundImageFix"/>
<feColorMatrix in="SourceAlpha" type="matrix" values="0 0 0 0 0 0 0 0 0 0 0 0 0 0 0 0 0 0 127 0" result="hardAlpha"/>
<feOffset dx="3.55644" dy="3.55644"/>
<feGaussianBlur stdDeviation="6.60481"/>
<feComposite in2="hardAlpha" operator="out"/>
<feColorMatrix type="matrix" values="0 0 0 0 0 0 0 0 0 0 0 0 0 0 0 0 0 0 0.9 0"/>
<feBlend mode="normal" in2="BackgroundImageFix" result="effect1_dropShadow_905_389"/>
<feBlend mode="normal" in="SourceGraphic" in2="effect1_dropShadow_905_389" result="shape"/>
</filter>
<filter id="filter7_d_905_389" x="1484" y="376" width="56.6286" height="67.1061" filterUnits="userSpaceOnUse" color-interpolation-filters="sRGB">
<feFlood flood-opacity="0" result="BackgroundImageFix"/>
<feColorMatrix in="SourceAlpha" type="matrix" values="0 0 0 0 0 0 0 0 0 0 0 0 0 0 0 0 0 0 127 0" result="hardAlpha"/>
<feOffset dx="9.14513" dy="8.63706"/>
<feGaussianBlur stdDeviation="3.81047"/>
<feComposite in2="hardAlpha" operator="out"/>
<feColorMatrix type="matrix" values="0 0 0 0 0 0 0 0 0 0 0 0 0 0 0 0 0 0 0.9 0"/>
<feBlend mode="normal" in2="BackgroundImageFix" result="effect1_dropShadow_905_389"/>
<feBlend mode="normal" in="SourceGraphic" in2="effect1_dropShadow_905_389" result="shape"/>
</filter>
<filter id="filter8_d_905_389" x="1348.35" y="143.347" width="66.2818" height="77.2674" filterUnits="userSpaceOnUse" color-interpolation-filters="sRGB">
<feFlood flood-opacity="0" result="BackgroundImageFix"/>
<feColorMatrix in="SourceAlpha" type="matrix" values="0 0 0 0 0 0 0 0 0 0 0 0 0 0 0 0 0 0 127 0" result="hardAlpha"/>
<feOffset dx="3.55644" dy="3.55644"/>
<feGaussianBlur stdDeviation="6.60481"/>
<feComposite in2="hardAlpha" operator="out"/>
<feColorMatrix type="matrix" values="0 0 0 0 0 0 0 0 0 0 0 0 0 0 0 0 0 0 0.9 0"/>
<feBlend mode="normal" in2="BackgroundImageFix" result="effect1_dropShadow_905_389"/>
<feBlend mode="normal" in="SourceGraphic" in2="effect1_dropShadow_905_389" result="shape"/>
</filter>
<filter id="filter9_d_905_389" x="1358" y="153" width="56.6286" height="67.1061" filterUnits="userSpaceOnUse" color-interpolation-filters="sRGB">
<feFlood flood-opacity="0" result="BackgroundImageFix"/>
<feColorMatrix in="SourceAlpha" type="matrix" values="0 0 0 0 0 0 0 0 0 0 0 0 0 0 0 0 0 0 127 0" result="hardAlpha"/>
<feOffset dx="9.14513" dy="8.63706"/>
<feGaussianBlur stdDeviation="3.81047"/>
<feComposite in2="hardAlpha" operator="out"/>
<feColorMatrix type="matrix" values="0 0 0 0 0 0 0 0 0 0 0 0 0 0 0 0 0 0 0.9 0"/>
<feBlend mode="normal" in2="BackgroundImageFix" result="effect1_dropShadow_905_389"/>
<feBlend mode="normal" in="SourceGraphic" in2="effect1_dropShadow_905_389" result="shape"/>
</filter>
<filter id="filter10_d_905_389" x="435.347" y="495.347" width="66.2817" height="77.2674" filterUnits="userSpaceOnUse" color-interpolation-filters="sRGB">
<feFlood flood-opacity="0" result="BackgroundImageFix"/>
<feColorMatrix in="SourceAlpha" type="matrix" values="0 0 0 0 0 0 0 0 0 0 0 0 0 0 0 0 0 0 127 0" result="hardAlpha"/>
<feOffset dx="3.55644" dy="3.55644"/>
<feGaussianBlur stdDeviation="6.60481"/>
<feComposite in2="hardAlpha" operator="out"/>
<feColorMatrix type="matrix" values="0 0 0 0 0 0 0 0 0 0 0 0 0 0 0 0 0 0 0.9 0"/>
<feBlend mode="normal" in2="BackgroundImageFix" result="effect1_dropShadow_905_389"/>
<feBlend mode="normal" in="SourceGraphic" in2="effect1_dropShadow_905_389" result="shape"/>
</filter>
<filter id="filter11_d_905_389" x="445" y="505" width="56.6285" height="67.1061" filterUnits="userSpaceOnUse" color-interpolation-filters="sRGB">
<feFlood flood-opacity="0" result="BackgroundImageFix"/>
<feColorMatrix in="SourceAlpha" type="matrix" values="0 0 0 0 0 0 0 0 0 0 0 0 0 0 0 0 0 0 127 0" result="hardAlpha"/>
<feOffset dx="9.14513" dy="8.63706"/>
<feGaussianBlur stdDeviation="3.81047"/>
<feComposite in2="hardAlpha" operator="out"/>
<feColorMatrix type="matrix" values="0 0 0 0 0 0 0 0 0 0 0 0 0 0 0 0 0 0 0.9 0"/>
<feBlend mode="normal" in2="BackgroundImageFix" result="effect1_dropShadow_905_389"/>
<feBlend mode="normal" in="SourceGraphic" in2="effect1_dropShadow_905_389" result="shape"/>
</filter>
<filter id="filter12_d_905_389" x="1215.35" y="0.346812" width="66.2818" height="77.2674" filterUnits="userSpaceOnUse" color-interpolation-filters="sRGB">
<feFlood flood-opacity="0" result="BackgroundImageFix"/>
<feColorMatrix in="SourceAlpha" type="matrix" values="0 0 0 0 0 0 0 0 0 0 0 0 0 0 0 0 0 0 127 0" result="hardAlpha"/>
<feOffset dx="3.55644" dy="3.55644"/>
<feGaussianBlur stdDeviation="6.60481"/>
<feComposite in2="hardAlpha" operator="out"/>
<feColorMatrix type="matrix" values="0 0 0 0 0 0 0 0 0 0 0 0 0 0 0 0 0 0 0.9 0"/>
<feBlend mode="normal" in2="BackgroundImageFix" result="effect1_dropShadow_905_389"/>
<feBlend mode="normal" in="SourceGraphic" in2="effect1_dropShadow_905_389" result="shape"/>
</filter>
<filter id="filter13_d_905_389" x="1225" y="10" width="56.6286" height="67.1061" filterUnits="userSpaceOnUse" color-interpolation-filters="sRGB">
<feFlood flood-opacity="0" result="BackgroundImageFix"/>
<feColorMatrix in="SourceAlpha" type="matrix" values="0 0 0 0 0 0 0 0 0 0 0 0 0 0 0 0 0 0 127 0" result="hardAlpha"/>
<feOffset dx="9.14513" dy="8.63706"/>
<feGaussianBlur stdDeviation="3.81047"/>
<feComposite in2="hardAlpha" operator="out"/>
<feColorMatrix type="matrix" values="0 0 0 0 0 0 0 0 0 0 0 0 0 0 0 0 0 0 0.9 0"/>
<feBlend mode="normal" in2="BackgroundImageFix" result="effect1_dropShadow_905_389"/>
<feBlend mode="normal" in="SourceGraphic" in2="effect1_dropShadow_905_389" result="shape"/>
</filter>
<filter id="filter14_d_905_389" x="724.347" y="138.347" width="66.2817" height="77.2674" filterUnits="userSpaceOnUse" color-interpolation-filters="sRGB">
<feFlood flood-opacity="0" result="BackgroundImageFix"/>
<feColorMatrix in="SourceAlpha" type="matrix" values="0 0 0 0 0 0 0 0 0 0 0 0 0 0 0 0 0 0 127 0" result="hardAlpha"/>
<feOffset dx="3.55644" dy="3.55644"/>
<feGaussianBlur stdDeviation="6.60481"/>
<feComposite in2="hardAlpha" operator="out"/>
<feColorMatrix type="matrix" values="0 0 0 0 0 0 0 0 0 0 0 0 0 0 0 0 0 0 0.9 0"/>
<feBlend mode="normal" in2="BackgroundImageFix" result="effect1_dropShadow_905_389"/>
<feBlend mode="normal" in="SourceGraphic" in2="effect1_dropShadow_905_389" result="shape"/>
</filter>
<filter id="filter15_d_905_389" x="734" y="148" width="56.6285" height="67.1061" filterUnits="userSpaceOnUse" color-interpolation-filters="sRGB">
<feFlood flood-opacity="0" result="BackgroundImageFix"/>
<feColorMatrix in="SourceAlpha" type="matrix" values="0 0 0 0 0 0 0 0 0 0 0 0 0 0 0 0 0 0 127 0" result="hardAlpha"/>
<feOffset dx="9.14513" dy="8.63706"/>
<feGaussianBlur stdDeviation="3.81047"/>
<feComposite in2="hardAlpha" operator="out"/>
<feColorMatrix type="matrix" values="0 0 0 0 0 0 0 0 0 0 0 0 0 0 0 0 0 0 0.9 0"/>
<feBlend mode="normal" in2="BackgroundImageFix" result="effect1_dropShadow_905_389"/>
<feBlend mode="normal" in="SourceGraphic" in2="effect1_dropShadow_905_389" result="shape"/>
</filter>
<filter id="filter16_d_905_389" x="323.347" y="263.347" width="66.2817" height="77.2674" filterUnits="userSpaceOnUse" color-interpolation-filters="sRGB">
<feFlood flood-opacity="0" result="BackgroundImageFix"/>
<feColorMatrix in="SourceAlpha" type="matrix" values="0 0 0 0 0 0 0 0 0 0 0 0 0 0 0 0 0 0 127 0" result="hardAlpha"/>
<feOffset dx="3.55644" dy="3.55644"/>
<feGaussianBlur stdDeviation="6.60481"/>
<feComposite in2="hardAlpha" operator="out"/>
<feColorMatrix type="matrix" values="0 0 0 0 0 0 0 0 0 0 0 0 0 0 0 0 0 0 0.9 0"/>
<feBlend mode="normal" in2="BackgroundImageFix" result="effect1_dropShadow_905_389"/>
<feBlend mode="normal" in="SourceGraphic" in2="effect1_dropShadow_905_389" result="shape"/>
</filter>
<filter id="filter17_d_905_389" x="333" y="273" width="56.6285" height="67.1061" filterUnits="userSpaceOnUse" color-interpolation-filters="sRGB">
<feFlood flood-opacity="0" result="BackgroundImageFix"/>
<feColorMatrix in="SourceAlpha" type="matrix" values="0 0 0 0 0 0 0 0 0 0 0 0 0 0 0 0 0 0 127 0" result="hardAlpha"/>
<feOffset dx="9.14513" dy="8.63706"/>
<feGaussianBlur stdDeviation="3.81047"/>
<feComposite in2="hardAlpha" operator="out"/>
<feColorMatrix type="matrix" values="0 0 0 0 0 0 0 0 0 0 0 0 0 0 0 0 0 0 0.9 0"/>
<feBlend mode="normal" in2="BackgroundImageFix" result="effect1_dropShadow_905_389"/>
<feBlend mode="normal" in="SourceGraphic" in2="effect1_dropShadow_905_389" result="shape"/>
</filter>
<filter id="filter18_d_905_389" x="1214.35" y="444.347" width="66.2818" height="77.2674" filterUnits="userSpaceOnUse" color-interpolation-filters="sRGB">
<feFlood flood-opacity="0" result="BackgroundImageFix"/>
<feColorMatrix in="SourceAlpha" type="matrix" values="0 0 0 0 0 0 0 0 0 0 0 0 0 0 0 0 0 0 127 0" result="hardAlpha"/>
<feOffset dx="3.55644" dy="3.55644"/>
<feGaussianBlur stdDeviation="6.60481"/>
<feComposite in2="hardAlpha" operator="out"/>
<feColorMatrix type="matrix" values="0 0 0 0 0 0 0 0 0 0 0 0 0 0 0 0 0 0 0.9 0"/>
<feBlend mode="normal" in2="BackgroundImageFix" result="effect1_dropShadow_905_389"/>
<feBlend mode="normal" in="SourceGraphic" in2="effect1_dropShadow_905_389" result="shape"/>
</filter>
<filter id="filter19_d_905_389" x="1224" y="454" width="56.6286" height="67.1061" filterUnits="userSpaceOnUse" color-interpolation-filters="sRGB">
<feFlood flood-opacity="0" result="BackgroundImageFix"/>
<feColorMatrix in="SourceAlpha" type="matrix" values="0 0 0 0 0 0 0 0 0 0 0 0 0 0 0 0 0 0 127 0" result="hardAlpha"/>
<feOffset dx="9.14513" dy="8.63706"/>
<feGaussianBlur stdDeviation="3.81047"/>
<feComposite in2="hardAlpha" operator="out"/>
<feColorMatrix type="matrix" values="0 0 0 0 0 0 0 0 0 0 0 0 0 0 0 0 0 0 0.9 0"/>
<feBlend mode="normal" in2="BackgroundImageFix" result="effect1_dropShadow_905_389"/>
<feBlend mode="normal" in="SourceGraphic" in2="effect1_dropShadow_905_389" result="shape"/>
</filter>
<filter id="filter20_d_905_389" x="1637.35" y="261.347" width="66.2818" height="77.2674" filterUnits="userSpaceOnUse" color-interpolation-filters="sRGB">
<feFlood flood-opacity="0" result="BackgroundImageFix"/>
<feColorMatrix in="SourceAlpha" type="matrix" values="0 0 0 0 0 0 0 0 0 0 0 0 0 0 0 0 0 0 127 0" result="hardAlpha"/>
<feOffset dx="3.55644" dy="3.55644"/>
<feGaussianBlur stdDeviation="6.60481"/>
<feComposite in2="hardAlpha" operator="out"/>
<feColorMatrix type="matrix" values="0 0 0 0 0 0 0 0 0 0 0 0 0 0 0 0 0 0 0.9 0"/>
<feBlend mode="normal" in2="BackgroundImageFix" result="effect1_dropShadow_905_389"/>
<feBlend mode="normal" in="SourceGraphic" in2="effect1_dropShadow_905_389" result="shape"/>
</filter>
<filter id="filter21_d_905_389" x="1647" y="271" width="56.6286" height="67.1061" filterUnits="userSpaceOnUse" color-interpolation-filters="sRGB">
<feFlood flood-opacity="0" result="BackgroundImageFix"/>
<feColorMatrix in="SourceAlpha" type="matrix" values="0 0 0 0 0 0 0 0 0 0 0 0 0 0 0 0 0 0 127 0" result="hardAlpha"/>
<feOffset dx="9.14513" dy="8.63706"/>
<feGaussianBlur stdDeviation="3.81047"/>
<feComposite in2="hardAlpha" operator="out"/>
<feColorMatrix type="matrix" values="0 0 0 0 0 0 0 0 0 0 0 0 0 0 0 0 0 0 0.9 0"/>
<feBlend mode="normal" in2="BackgroundImageFix" result="effect1_dropShadow_905_389"/>
<feBlend mode="normal" in="SourceGraphic" in2="effect1_dropShadow_905_389" result="shape"/>
</filter>
<filter id="filter22_d_905_389" x="669.347" y="25.3468" width="66.2817" height="77.2674" filterUnits="userSpaceOnUse" color-interpolation-filters="sRGB">
<feFlood flood-opacity="0" result="BackgroundImageFix"/>
<feColorMatrix in="SourceAlpha" type="matrix" values="0 0 0 0 0 0 0 0 0 0 0 0 0 0 0 0 0 0 127 0" result="hardAlpha"/>
<feOffset dx="3.55644" dy="3.55644"/>
<feGaussianBlur stdDeviation="6.60481"/>
<feComposite in2="hardAlpha" operator="out"/>
<feColorMatrix type="matrix" values="0 0 0 0 0 0 0 0 0 0 0 0 0 0 0 0 0 0 0.9 0"/>
<feBlend mode="normal" in2="BackgroundImageFix" result="effect1_dropShadow_905_389"/>
<feBlend mode="normal" in="SourceGraphic" in2="effect1_dropShadow_905_389" result="shape"/>
</filter>
<filter id="filter23_d_905_389" x="679" y="35" width="56.6285" height="67.1061" filterUnits="userSpaceOnUse" color-interpolation-filters="sRGB">
<feFlood flood-opacity="0" result="BackgroundImageFix"/>
<feColorMatrix in="SourceAlpha" type="matrix" values="0 0 0 0 0 0 0 0 0 0 0 0 0 0 0 0 0 0 127 0" result="hardAlpha"/>
<feOffset dx="9.14513" dy="8.63706"/>
<feGaussianBlur stdDeviation="3.81047"/>
<feComposite in2="hardAlpha" operator="out"/>
<feColorMatrix type="matrix" values="0 0 0 0 0 0 0 0 0 0 0 0 0 0 0 0 0 0 0.9 0"/>
<feBlend mode="normal" in2="BackgroundImageFix" result="effect1_dropShadow_905_389"/>
<feBlend mode="normal" in="SourceGraphic" in2="effect1_dropShadow_905_389" result="shape"/>
</filter>
<filter id="filter24_d_905_389" x="1597.35" y="90.3468" width="66.2818" height="77.2674" filterUnits="userSpaceOnUse" color-interpolation-filters="sRGB">
<feFlood flood-opacity="0" result="BackgroundImageFix"/>
<feColorMatrix in="SourceAlpha" type="matrix" values="0 0 0 0 0 0 0 0 0 0 0 0 0 0 0 0 0 0 127 0" result="hardAlpha"/>
<feOffset dx="3.55644" dy="3.55644"/>
<feGaussianBlur stdDeviation="6.60481"/>
<feComposite in2="hardAlpha" operator="out"/>
<feColorMatrix type="matrix" values="0 0 0 0 0 0 0 0 0 0 0 0 0 0 0 0 0 0 0.9 0"/>
<feBlend mode="normal" in2="BackgroundImageFix" result="effect1_dropShadow_905_389"/>
<feBlend mode="normal" in="SourceGraphic" in2="effect1_dropShadow_905_389" result="shape"/>
</filter>
<filter id="filter25_d_905_389" x="1607" y="100" width="56.6286" height="67.1061" filterUnits="userSpaceOnUse" color-interpolation-filters="sRGB">
<feFlood flood-opacity="0" result="BackgroundImageFix"/>
<feColorMatrix in="SourceAlpha" type="matrix" values="0 0 0 0 0 0 0 0 0 0 0 0 0 0 0 0 0 0 127 0" result="hardAlpha"/>
<feOffset dx="9.14513" dy="8.63706"/>
<feGaussianBlur stdDeviation="3.81047"/>
<feComposite in2="hardAlpha" operator="out"/>
<feColorMatrix type="matrix" values="0 0 0 0 0 0 0 0 0 0 0 0 0 0 0 0 0 0 0.9 0"/>
<feBlend mode="normal" in2="BackgroundImageFix" result="effect1_dropShadow_905_389"/>
<feBlend mode="normal" in="SourceGraphic" in2="effect1_dropShadow_905_389" result="shape"/>
</filter>
<linearGradient id="paint0_linear_905_389" x1="-1068.91" y1="453.474" x2="2024.08" y2="453.474" gradientUnits="userSpaceOnUse">
<stop stop-color="#00A8B5"/>
<stop offset="0.5" stop-color="#55FFE0" stop-opacity="0.4"/>
<stop offset="0.833333" stop-color="#F3B34E" stop-opacity="0.5"/>
<stop offset="1" stop-color="#F3B34E" stop-opacity="0.05"/>
</linearGradient>
<clipPath id="clip0_905_389">
<rect width="39.8624" height="50.8481" fill="white" transform="translate(382 103)"/>
</clipPath>
<clipPath id="clip1_905_389">
<rect width="39.8624" height="50.8481" fill="white" transform="translate(1003 83)"/>
</clipPath>
<clipPath id="clip2_905_389">
<rect width="39.8624" height="50.8481" fill="white" transform="translate(567 429)"/>
</clipPath>
<clipPath id="clip3_905_389">
<rect width="39.8624" height="50.8481" fill="white" transform="translate(1484 376)"/>
</clipPath>
<clipPath id="clip4_905_389">
<rect width="39.8624" height="50.8481" fill="white" transform="translate(1358 153)"/>
</clipPath>
<clipPath id="clip5_905_389">
<rect width="39.8624" height="50.8481" fill="white" transform="translate(445 505)"/>
</clipPath>
<clipPath id="clip6_905_389">
<rect width="39.8624" height="50.8481" fill="white" transform="translate(1225 10)"/>
</clipPath>
<clipPath id="clip7_905_389">
<rect width="39.8624" height="50.8481" fill="white" transform="translate(734 148)"/>
</clipPath>
<clipPath id="clip8_905_389">
<rect width="39.8624" height="50.8481" fill="white" transform="translate(333 273)"/>
</clipPath>
<clipPath id="clip9_905_389">
<rect width="39.8624" height="50.8481" fill="white" transform="translate(1224 454)"/>
</clipPath>
<clipPath id="clip10_905_389">
<rect width="39.8624" height="50.8481" fill="white" transform="translate(1647 271)"/>
</clipPath>
<clipPath id="clip11_905_389">
<rect width="39.8624" height="50.8481" fill="white" transform="translate(679 35)"/>
</clipPath>
<clipPath id="clip12_905_389">
<rect width="39.8624" height="50.8481" fill="white" transform="translate(1607 100)"/>
</clipPath>
</defs>
</svg>
