<svg width="1737" height="2373" viewBox="0 0 1737 2373" fill="none" xmlns="http://www.w3.org/2000/svg">
<style>
  .leaf {
    animation: 9s opacity ease-in-out infinite both;
    filter: url(#dropshadow);
  }
  @keyframes opacity {
    0% {opacity: 1}
    50% {opacity: 0.05}
    100% {opacity: 1}
  }
  #leaf0 {animation-delay: -0.75s}
  #leaf1 {animation-delay: -1.5s}
  #leaf2 {animation-delay: -2.25s}
  #leaf3 {animation-delay: -3s}
  #leaf4 {animation-delay: -3.75s}
  #leaf5 {animation-delay: -4.5s}
  #leaf6 {animation-delay: -5.25s}
  #leaf7 {animation-delay: -6s}
  #leaf8 {animation-delay: -6.75s}
  #leaf9 {animation-delay: -7.5s}
  #leaf10 {animation-delay: 0s}
</style>
<path d="M909.325 1437.99C908.669 1437.98 907.865 1437.94 906.955 1437.89L906.489 1437.88C898.572 1437.61 893.41 1437.03 891.527 1436.78C880.312 1435.85 867.914 1434.64 866.263 1434.46L844.126 1436.01C838.917 1436.67 833.677 1437.07 828.428 1437.21L824.171 1437.28L823.684 1437.28C794.082 1437.57 739.708 1431.86 708.059 1390.55C679.599 1353.4 675.931 1296.1 697.15 1220.2C712.781 1164.37 731.523 1114.65 752.814 1072.44C769.873 1038.62 788.633 1009.5 808.56 985.863C826.33 964.799 841.774 952.081 851.607 945.123C862.355 937.516 868.853 934.959 869.129 934.855L869.936 934.543L870.738 934.867C871.012 934.975 877.472 937.626 888.108 945.39C897.838 952.49 913.094 965.433 930.555 986.754C950.135 1010.67 968.468 1040.07 985.031 1074.13C1005.7 1116.65 1023.72 1166.64 1038.53 1222.69C1058.6 1298.68 1054.18 1355.84 1025.41 1392.57C1011.39 1410.47 991.691 1423.3 966.885 1430.72C945.474 1437.13 924.272 1438.2 910.215 1437.97L909.325 1437.99ZM866.338 1430.05L866.528 1430.05C866.655 1430.06 879.985 1431.38 891.941 1432.38L892.025 1432.38C893.823 1432.6 898.858 1433.17 906.648 1433.46L907.156 1433.46C908.384 1433.51 909.421 1433.56 910.014 1433.53L910.205 1433.53C938.764 1434.01 991.268 1428.97 1021.96 1389.8C1049.85 1354.22 1053.99 1298.33 1034.29 1223.74C1001.01 1097.81 957.828 1027.03 927.483 989.844C910.317 968.821 895.356 956.072 885.815 949.078C877.623 943.069 871.927 940.169 869.901 939.222C867.862 940.139 862.146 942.956 853.845 948.845C844.204 955.698 829.058 968.228 811.587 988.998C780.702 1025.74 736.488 1095.88 701.377 1221.31C680.548 1295.81 683.972 1351.84 711.531 1387.83C742.047 1427.62 794.877 1433.11 823.674 1432.85L824.161 1432.86L828.333 1432.76C833.416 1432.63 838.564 1432.24 843.629 1431.6L843.756 1431.6L866.338 1430.05Z" fill="url(#paint0_linear_903_25)"/>
<path opacity="0.3" d="M923.275 1522.47C922.386 1522.46 921.349 1522.41 920.121 1522.36L919.487 1522.31C908.903 1521.94 902.027 1521.17 899.51 1520.85C884.38 1519.58 867.644 1517.93 865.655 1517.73L835.955 1519.8C829.004 1520.7 822.01 1521.24 815.003 1521.4L809.307 1521.51L808.671 1521.5C807.147 1521.53 805.559 1521.52 803.929 1521.51C763.617 1521.22 695.018 1512.16 654.455 1459.23C616.514 1409.7 611.653 1333.19 639.982 1231.85C660.896 1157.18 685.921 1090.71 714.409 1034.25C737.226 989.026 762.304 950.103 788.916 918.537C812.646 890.381 833.286 873.424 846.397 864.14C860.721 853.997 869.342 850.587 869.703 850.463L870.552 850.13L871.396 850.475C871.755 850.605 880.326 854.14 894.5 864.491C907.474 873.966 927.843 891.222 951.18 919.722C977.329 951.673 1001.84 990.959 1023.97 1036.52C1051.63 1093.38 1075.7 1160.21 1095.52 1235.18C1122.33 1336.64 1116.46 1412.93 1078.07 1461.92C1059.39 1485.75 1033.16 1502.86 1000.1 1512.76C971.517 1521.32 943.197 1522.76 924.44 1522.43C924.053 1522.47 923.664 1522.48 923.275 1522.47ZM865.731 1513.15L865.921 1513.15C866.091 1513.18 883.948 1514.94 899.945 1516.28L900.03 1516.28C902.442 1516.58 909.19 1517.35 919.668 1517.72L920.346 1517.72C921.635 1517.82 922.928 1517.85 924.22 1517.81L924.432 1517.82C962.751 1518.46 1033.24 1511.67 1074.49 1459.03C1111.94 1411.25 1117.52 1336.29 1091.11 1236.27C1046.5 1067.55 988.651 972.759 947.959 922.938C924.959 894.758 904.884 877.694 892.101 868.327C880.749 860.008 872.985 856.14 870.517 855C868.031 856.104 860.212 859.858 848.719 868.01C835.821 877.19 815.499 893.959 792.069 921.8C750.675 971.021 691.424 1064.96 644.377 1233C616.44 1332.91 621.057 1408.06 658.075 1456.4C699.057 1509.88 770.019 1517.26 808.642 1516.89L809.319 1516.89L814.91 1516.76C821.774 1516.6 828.626 1516.08 835.438 1515.22L835.565 1515.22L865.731 1513.15Z" fill="url(#paint1_linear_903_25)"/>
<path opacity="0.4" d="M937.225 1606.94C936.125 1606.93 934.812 1606.88 933.288 1606.81L932.505 1606.76C919.233 1606.3 910.622 1605.33 907.492 1604.93C888.426 1603.33 867.31 1601.24 865.047 1601.02L827.784 1603.62C819.088 1604.73 810.341 1605.4 801.578 1605.61L794.463 1605.75L793.658 1605.75C744.278 1606.21 653.578 1596.72 600.872 1527.92C553.43 1466.01 547.353 1370.32 582.813 1243.52C608.989 1150.02 640.34 1066.77 676.004 996.075C704.578 939.476 735.953 890.731 769.272 851.233C798.981 816.006 824.777 794.767 841.187 783.157C859.086 770.499 869.83 766.258 870.276 766.071L871.168 765.739L872.034 766.084C872.477 766.278 883.159 770.675 900.871 783.593C917.109 795.441 942.592 817.055 971.784 852.712C1004.52 892.693 1035.18 941.89 1062.93 998.9C1097.55 1070.1 1127.69 1153.81 1152.49 1247.68C1186.04 1374.63 1178.73 1470.07 1130.75 1531.29C1107.41 1561.08 1074.63 1582.43 1033.31 1594.81C997.559 1605.52 962.123 1607.29 938.666 1606.91C938.221 1606.95 937.755 1606.95 937.225 1606.94ZM865.124 1596.25L865.314 1596.25C865.547 1596.28 887.89 1598.52 907.929 1600.19L908.056 1600.19C911.08 1600.59 919.543 1601.54 932.688 1602.02L933.535 1602.03C935.588 1602.12 937.387 1602.22 938.446 1602.15L941.918 1602.17C990.699 1602.53 1076.37 1592.95 1127.03 1528.34C1174.02 1468.32 1181.06 1374.29 1147.91 1248.83C1092.01 1037.35 1019.47 918.506 968.456 856.075C939.601 820.738 914.413 799.339 898.385 787.619C883.854 776.969 874.001 772.133 871.131 770.82C868.221 772.09 858.299 776.782 843.613 787.219C827.416 798.703 801.939 819.733 772.55 854.644C720.627 916.366 646.359 1034.14 587.377 1244.78C552.331 1370.08 558.142 1464.37 604.619 1525.03C656.088 1592.21 745.118 1601.47 793.629 1601.02L794.455 1601.03L801.464 1600.87C810.086 1600.65 818.691 1600 827.246 1598.92L827.373 1598.92L865.124 1596.25Z" fill="url(#paint2_linear_903_25)"/>
<path opacity="0.5" d="M951.155 1691.44C949.842 1691.43 948.276 1691.36 946.456 1691.26L945.503 1691.21C929.564 1690.65 919.24 1689.49 915.475 1689C892.473 1687.07 866.978 1684.56 864.439 1684.31L819.613 1687.43C809.174 1688.77 798.674 1689.57 788.153 1689.83L779.619 1690L778.645 1689.99C776.337 1690.02 773.966 1690.02 771.51 1690C710.979 1689.56 608.07 1675.96 547.268 1596.62C490.346 1522.31 483.055 1407.44 525.645 1255.19C557.082 1142.85 594.76 1042.85 637.621 957.915C671.931 889.904 709.624 831.381 749.649 783.907C765.39 765.241 781.521 748.272 797.637 733.463C810.533 721.594 823.441 711.06 835.998 702.195C857.452 687.001 870.32 681.908 870.872 681.7L871.785 681.347L872.672 681.713C873.22 681.929 886.013 687.21 907.242 702.716C919.669 711.763 932.421 722.485 945.143 734.54C961.04 749.584 976.922 766.786 992.388 785.68C1031.72 833.734 1068.55 892.8 1101.86 961.306C1143.48 1046.85 1179.69 1147.39 1209.49 1260.19C1249.77 1412.63 1240.99 1527.18 1183.41 1600.67C1155.43 1636.38 1116.1 1662.03 1066.53 1676.87C1047.39 1682.59 1026.69 1686.7 1004.99 1689.06C987.693 1690.92 970.291 1691.7 952.891 1691.39C952.362 1691.43 951.79 1691.45 951.155 1691.44ZM864.496 1679.37L864.708 1679.38C864.983 1679.4 891.853 1682.07 915.934 1684.09L916.061 1684.09C919.699 1684.56 929.875 1685.72 945.688 1686.28L946.703 1686.33C949.201 1686.45 951.36 1686.55 952.652 1686.45L952.864 1686.46C1010.77 1687.43 1117.22 1677.18 1179.54 1597.62C1236.11 1525.41 1244.58 1412.28 1204.73 1261.42C1137.52 1007.15 1050.29 864.295 988.932 789.233C954.222 746.76 923.963 721.025 904.671 706.91C886.938 693.95 874.996 688.146 871.725 686.682C868.454 688.098 856.429 693.706 838.508 706.427C819.012 720.259 788.38 745.549 753.053 787.51C690.601 861.668 601.295 1003.24 530.378 1256.52C488.244 1407.2 495.228 1520.61 551.164 1593.62C610.708 1671.32 711.946 1684.65 771.546 1685.09C773.988 1685.11 776.338 1685.1 778.597 1685.08L779.613 1685.09L788.041 1684.89C798.413 1684.65 808.765 1683.87 819.056 1682.56L819.204 1682.56L864.496 1679.37Z" fill="url(#paint3_linear_903_25)"/>
<path opacity="0.6" d="M965.104 1775.92C963.58 1775.91 961.76 1775.83 959.622 1775.73L958.522 1775.66C939.915 1775.01 927.835 1773.66 923.456 1773.07C896.519 1770.82 866.644 1767.87 863.809 1767.6L811.441 1771.26C799.259 1772.81 787.005 1773.74 774.728 1774.04L764.754 1774.24L763.61 1774.23C760.921 1774.28 758.147 1774.28 755.31 1774.26C684.68 1773.74 564.595 1757.88 493.663 1665.32C427.261 1578.64 418.776 1444.57 468.476 1266.85C487.651 1198.3 509.026 1133.09 531.972 1073.05C552.824 1018.42 575.454 966.862 599.215 919.735C639.262 840.353 683.273 772.01 730.004 716.602C748.373 694.822 767.235 674.994 786.015 657.705C801.085 643.841 816.144 631.565 830.787 621.212C855.816 603.504 870.808 597.579 871.445 597.33L872.379 596.976L873.329 597.343C873.942 597.602 888.845 603.745 913.634 621.817C928.124 632.383 943.002 644.878 957.848 658.96C976.394 676.521 994.944 696.623 1013.01 718.669C1058.93 774.754 1101.92 843.732 1140.82 923.691C1163.89 971.16 1185.77 1023.05 1205.82 1077.97C1227.88 1138.34 1248.28 1203.86 1266.48 1272.67C1313.49 1450.62 1303.27 1584.31 1236.09 1670.04C1203.43 1711.7 1157.57 1741.6 1099.74 1758.93C1077.4 1765.6 1053.25 1770.38 1027.95 1773.14C1007.75 1775.31 987.43 1776.23 967.116 1775.87C966.502 1775.91 965.845 1775.92 965.104 1775.92ZM863.888 1762.48L864.1 1762.48C864.417 1762.5 895.795 1765.63 923.938 1767.97L924.065 1767.98C928.317 1768.54 940.228 1769.89 958.707 1770.54L959.871 1770.59C962.813 1770.74 965.332 1770.86 966.857 1770.74L967.09 1770.75C1034.77 1771.87 1159.19 1759.87 1232.07 1666.86C1298.22 1582.44 1308.12 1450.26 1261.56 1273.95C1183.03 976.911 1081.1 810.021 1009.43 722.348C968.863 672.719 933.491 642.67 910.956 626.181C890.021 610.868 875.99 604.117 872.339 602.481C868.686 604.064 854.558 610.588 833.381 625.614C810.607 641.772 774.82 671.302 733.534 720.333C660.574 806.949 556.231 972.333 473.378 1268.24C424.135 1444.31 432.334 1576.87 497.708 1662.21C567.319 1753.05 685.67 1768.65 755.326 1769.16C758.163 1769.18 760.916 1769.18 763.584 1769.15L764.748 1769.16L774.617 1768.94C786.74 1768.66 798.84 1767.74 810.865 1766.17L811.013 1766.18L863.888 1762.48Z" fill="url(#paint4_linear_903_25)"/>
<path opacity="0.7" d="M979.055 1860.42C977.319 1860.4 975.224 1860.3 972.79 1860.18L971.52 1860.11C950.246 1859.36 936.452 1857.8 931.439 1857.17C900.566 1854.57 866.29 1851.19 863.201 1850.89L803.271 1855.07C789.346 1856.85 775.338 1857.91 761.304 1858.25L749.91 1858.51L748.577 1858.5C745.527 1858.52 742.351 1858.52 739.091 1858.49C658.361 1857.9 521.121 1839.77 440.08 1734.01C423.239 1712.02 409.447 1686.96 399.146 1659.55C387.992 1629.91 380.612 1596.74 377.168 1560.95C373.488 1522.62 374.264 1480.26 379.464 1435.05C385.003 1386.92 395.72 1334.26 411.287 1278.52C433.245 1200.13 457.673 1125.54 483.9 1056.88C507.752 994.422 533.633 935.454 560.811 881.576C606.616 790.802 656.944 712.639 710.361 649.298C731.377 624.382 752.928 601.715 774.415 581.948C791.617 566.109 808.828 552.091 825.578 540.229C854.183 519.985 871.319 513.25 872.02 512.959L872.996 512.585L873.967 512.973C874.685 513.275 891.7 520.259 920.006 540.919C936.581 553.024 953.585 567.292 970.554 583.38C991.771 603.459 1012.99 626.439 1033.62 651.659C1086.12 715.773 1135.28 794.663 1179.76 886.096C1206.15 940.365 1231.16 999.706 1254.1 1062.5C1279.32 1131.54 1302.66 1206.48 1323.47 1285.18C1377.2 1488.6 1365.52 1641.43 1288.75 1739.41C1251.46 1787.01 1199.04 1821.18 1132.96 1840.96C1107.43 1848.61 1079.82 1854.08 1050.88 1857.24C1027.78 1859.72 1004.55 1860.76 981.321 1860.35C980.643 1860.41 979.902 1860.42 979.055 1860.42ZM863.282 1845.57L863.515 1845.58C863.875 1845.62 899.758 1849.19 931.943 1851.88L932.07 1851.88C936.936 1852.51 950.56 1854.07 971.707 1854.79L971.749 1854.79L973.04 1854.87C976.532 1855.04 979.305 1855.17 981.085 1855.05L986.589 1855.09C1065.1 1855.67 1203.03 1840.22 1284.6 1736.12C1360.31 1639.51 1371.66 1488.2 1318.36 1286.5C1228.44 946.266 1111.67 755.278 1029.55 654.953C983.128 598.251 942.662 563.951 916.905 545.152C892.853 527.614 876.923 520.024 872.955 518.238C868.941 519.966 852.71 527.427 828.276 544.759C802.225 563.222 761.262 597.012 714.017 653.093C630.548 752.251 511.146 941.451 416.379 1279.95C360.048 1481.43 369.421 1633.12 444.275 1730.81C523.953 1834.8 659.395 1852.64 739.129 1853.22C742.369 1853.25 745.502 1853.25 748.573 1853.21L749.907 1853.22L761.173 1852.98C775.053 1852.65 788.906 1851.59 802.674 1849.81L802.823 1849.81L863.282 1845.57Z" fill="url(#paint5_linear_903_25)"/>
<path opacity="0.6" d="M993.005 1944.89C991.036 1944.88 988.687 1944.78 985.956 1944.63L984.517 1944.56C960.576 1943.72 945.048 1941.96 939.421 1941.24C904.591 1938.32 865.935 1934.5 862.593 1934.16L795.1 1938.87C779.433 1940.89 763.671 1942.09 747.878 1942.47L735.045 1942.73L733.585 1942.72C730.133 1942.76 726.555 1942.78 722.892 1942.75C632.063 1942.09 477.647 1921.69 386.475 1802.71C367.537 1777.97 352.032 1749.78 340.442 1718.95C327.897 1685.6 319.573 1648.29 315.717 1608.04C311.586 1564.9 312.442 1517.22 318.298 1466.36C324.537 1412.19 336.594 1352.93 354.118 1290.19C378.837 1201.95 406.319 1118.01 435.848 1040.71C462.701 970.422 491.812 904.045 522.406 843.417C573.968 741.23 630.593 653.288 690.716 581.993C714.36 553.942 738.62 528.457 762.793 506.19C782.17 488.377 801.532 472.596 820.367 459.267C852.548 436.487 871.808 428.9 872.593 428.588L873.612 428.193L874.626 428.603C875.407 428.926 894.553 436.794 926.398 460.042C945.037 473.644 964.166 489.706 983.28 507.8C1007.13 530.418 1031.01 556.254 1054.24 584.648C1113.32 656.814 1168.65 745.574 1218.72 848.502C1248.4 909.57 1276.56 976.366 1302.38 1047.04C1330.76 1124.76 1357.03 1209.1 1380.46 1297.69C1397.05 1360.48 1408.22 1419.74 1413.69 1473.88C1418.84 1524.69 1419.07 1572.27 1414.37 1615.28C1410.01 1655.41 1401.25 1692.57 1388.32 1725.7C1376.39 1756.35 1360.6 1784.31 1341.43 1808.77C1299.48 1862.33 1240.5 1900.75 1166.15 1923.02C1137.44 1931.61 1106.38 1937.78 1073.83 1941.31C1047.83 1944.12 1021.69 1945.29 995.547 1944.83C994.805 1944.88 993.937 1944.9 993.005 1944.89ZM862.675 1928.7L862.908 1928.7C863.31 1928.74 903.721 1932.74 939.948 1935.78L940.075 1935.78C945.554 1936.48 960.913 1938.24 984.727 1939.07L984.748 1939.07L986.229 1939.15C990.166 1939.32 993.278 1939.47 995.29 1939.34L995.523 1939.34C1082.77 1940.81 1243.14 1925.33 1337.14 1805.38C1422.39 1696.62 1435.18 1526.23 1375.18 1299.09C1274.05 916.448 1142.74 701.514 1050.4 588.558C998.148 524.657 952.569 485.937 923.548 464.721C896.126 444.661 877.917 436.037 873.569 434.1C869.194 435.974 850.86 444.33 823.149 463.988C793.82 484.778 747.681 522.828 694.498 585.959C600.521 697.554 466.082 910.548 359.379 1291.67C295.939 1518.54 306.506 1689.36 390.819 1799.38C480.564 1916.53 633.119 1936.63 722.911 1937.29C726.573 1937.32 730.109 1937.32 733.54 1937.28L735.043 1937.29L747.749 1937C763.379 1936.64 778.978 1935.46 794.483 1933.45L794.631 1933.45L862.675 1928.7Z" fill="url(#paint6_linear_903_25)"/>
<path opacity="0.5" d="M1006.93 2029.37C1004.77 2029.35 1002.15 2029.23 999.123 2029.1L997.536 2029C970.907 2028.07 953.665 2026.12 947.425 2025.31C908.638 2022.07 865.581 2017.81 861.984 2017.45L786.929 2022.7C769.51 2024.93 751.988 2026.25 734.432 2026.68L720.201 2027L718.55 2026.99C714.717 2027.02 710.758 2027.02 706.672 2026.99C605.744 2026.25 434.173 2003.59 332.892 1871.41C311.835 1843.92 294.617 1812.61 281.74 1778.34C267.803 1741.29 258.557 1699.83 254.268 1655.1C249.663 1607.17 250.643 1554.18 257.133 1497.66C264.072 1437.45 277.448 1371.57 296.95 1301.86C324.408 1203.78 354.986 1110.48 387.797 1024.54C417.629 946.421 450.013 872.636 484.022 805.236C541.321 691.68 604.263 593.917 671.093 514.667C697.364 483.522 724.313 455.178 751.193 430.453C772.723 410.644 794.236 393.101 815.179 378.284C850.935 352.99 872.296 344.57 873.188 344.217L874.229 343.801L875.263 344.232C876.15 344.598 897.386 353.329 932.769 379.143C953.493 394.264 974.748 412.12 995.986 432.241C1022.5 457.356 1049.03 486.091 1074.85 517.616C1140.51 597.833 1202.02 696.505 1257.65 810.886C1290.68 878.776 1321.96 953.025 1350.67 1031.58C1382.22 1117.98 1411.41 1211.72 1437.45 1310.19C1455.87 1379.99 1468.31 1445.86 1474.39 1506.02C1480.1 1562.51 1480.34 1615.38 1475.15 1663.15C1470.29 1707.75 1460.55 1749.03 1446.2 1785.85C1432.93 1819.9 1415.4 1850.96 1394.09 1878.16C1347.48 1937.64 1281.97 1980.35 1199.37 2005.07C1167.45 2014.62 1132.93 2021.46 1096.78 2025.41C1067.89 2028.51 1038.83 2029.81 1009.77 2029.31C1008.95 2029.36 1007.99 2029.38 1006.93 2029.37ZM862.068 2011.8L862.301 2011.8C862.745 2011.84 907.663 2016.32 947.953 2019.69L948.08 2019.69C954.193 2020.49 971.244 2022.44 997.726 2023.35L997.768 2023.35L999.397 2023.45C1003.78 2023.65 1007.25 2023.82 1009.52 2023.67L1009.75 2023.67C1106.77 2025.31 1285.12 2008.11 1389.67 1874.68C1484.48 1753.67 1498.72 1564.21 1432 1311.63C1319.56 886.228 1173.56 647.239 1070.88 521.673C1012.77 450.615 962.098 407.581 929.833 383.97C899.168 361.578 878.869 351.987 874.184 349.899C869.469 351.918 849.011 361.212 818.044 383.154C785.416 406.291 734.122 448.58 675.002 518.782C570.495 642.834 421.018 879.665 302.38 1303.38C231.83 1555.66 243.613 1745.62 337.364 1867.97C437.176 1998.26 606.844 2020.63 706.713 2021.35C710.778 2021.38 714.695 2021.37 718.528 2021.33L720.2 2021.35L734.304 2021.05C751.691 2020.64 769.044 2019.31 786.292 2017.09L786.44 2017.09L862.068 2011.8Z" fill="url(#paint7_linear_903_25)"/>
<path opacity="0.4" d="M1020.88 2113.87C1018.49 2113.85 1015.63 2113.7 1012.29 2113.55L1010.51 2113.45C981.237 2112.43 962.26 2110.28 955.407 2109.39C912.642 2105.81 865.205 2101.13 861.376 2100.74L778.758 2106.51C759.597 2108.97 740.321 2110.44 721.007 2110.89L705.358 2111.25L703.537 2111.23C699.323 2111.26 694.94 2111.27 690.452 2111.24C579.446 2110.43 390.699 2085.51 279.288 1940.1C256.134 1909.87 237.202 1875.43 223.016 1837.74C207.709 1797 197.54 1751.38 192.818 1702.18C187.761 1649.43 188.822 1591.17 195.967 1528.97C203.586 1462.71 218.323 1390.24 239.781 1313.53C270 1205.6 303.633 1102.93 339.746 1008.4C372.578 922.42 408.192 841.227 445.617 767.077C508.652 642.129 577.913 534.546 651.449 447.362C680.368 413.082 710.005 381.899 739.593 354.696C763.254 332.912 786.94 313.606 809.968 297.323C849.3 269.492 872.785 260.22 873.762 259.846L874.845 259.431L875.9 259.862C876.893 260.25 900.24 269.864 939.161 298.266C961.928 314.884 985.329 334.534 1008.69 356.661C1037.86 384.293 1067.06 415.907 1095.45 450.605C1167.71 538.853 1235.39 647.436 1296.59 773.292C1332.93 847.981 1367.35 929.685 1398.93 1016.13C1433.65 1111.18 1465.78 1214.34 1494.42 1322.7C1514.72 1399.47 1528.4 1471.96 1535.09 1538.13C1541.37 1600.3 1541.64 1658.47 1535.92 1711.04C1530.57 1760.1 1519.86 1805.5 1504.09 1846C1489.48 1883.45 1470.2 1917.63 1446.77 1947.53C1395.5 2012.96 1323.44 2059.93 1232.58 2087.13C1197.48 2097.63 1159.51 2105.16 1119.71 2109.49C1087.93 2112.92 1055.96 2114.35 1024 2113.78C1023.07 2113.86 1022.03 2113.88 1020.88 2113.87ZM861.461 2094.9L861.694 2094.9C862.201 2094.96 911.626 2099.88 955.957 2103.59L956.084 2103.59C962.811 2104.47 981.597 2106.61 1010.75 2107.63L1010.79 2107.63L1012.57 2107.71C1017.41 2107.96 1021.22 2108.13 1023.72 2107.96L1031.24 2108.01C1139.47 2108.8 1329.66 2087.52 1442.18 1943.9C1546.57 1810.74 1562.25 1602.19 1488.8 1324.18C1364.95 855.583 1204.09 592.475 1090.96 454.277C1026.99 376.168 971.227 328.863 935.718 302.963C901.978 278.346 879.78 267.915 874.799 265.698C869.744 267.863 847.184 278.052 812.938 302.341C777.033 327.783 720.563 374.333 655.483 451.605C540.468 588.136 375.953 848.762 245.381 1315.1C167.743 1592.77 180.698 1801.86 283.909 1936.56C393.809 2080 580.568 2104.62 690.494 2105.42C694.969 2105.45 699.309 2105.45 703.516 2105.41L705.337 2105.42L720.88 2105.07C740.01 2104.63 759.103 2103.18 778.08 2100.72L778.25 2100.73L861.461 2094.9Z" fill="url(#paint8_linear_903_25)"/>
<path opacity="0.3" d="M1034.83 2198.34C1032.23 2198.33 1029.1 2198.18 1025.46 2198L1023.53 2197.9C991.568 2196.78 970.856 2194.45 963.389 2193.48C916.688 2189.56 864.83 2184.44 860.746 2184.03L770.565 2190.32C749.668 2193 728.645 2194.6 707.582 2195.11L690.493 2195.49L688.524 2195.48C569.924 2196.58 352.132 2173.82 225.683 2008.8C200.432 1975.82 179.787 1938.26 164.313 1897.15C156.109 1875.32 149.207 1852.09 143.793 1828.04C138.173 1803.08 133.984 1776.58 131.368 1749.25C128.652 1720.96 127.537 1691.02 128.037 1660.21C128.566 1628.37 130.844 1594.74 134.802 1560.26C143.121 1487.99 159.198 1408.9 182.613 1325.21C215.593 1207.43 252.279 1095.39 291.694 992.23C327.527 898.42 366.392 809.819 407.212 728.897C476.005 592.557 551.583 475.196 631.805 380.058C663.351 342.642 695.719 308.642 727.971 278.938C753.807 255.18 779.644 234.111 804.758 216.34C847.665 185.994 873.274 175.891 874.336 175.475L875.461 175.039L876.559 175.492C877.614 175.923 903.073 186.399 945.532 217.368C970.384 235.504 995.911 256.948 1021.4 281.081C1053.23 311.253 1085.08 345.722 1116.08 383.595C1194.9 479.894 1268.75 598.347 1335.55 735.677C1375.18 817.186 1412.75 906.345 1447.21 1000.67C1485.11 1104.4 1520.16 1216.96 1551.41 1335.2C1573.54 1418.98 1588.46 1498.06 1595.77 1570.27C1599.25 1604.73 1601.08 1638.32 1601.16 1670.08C1601.28 1700.83 1599.77 1730.71 1596.68 1758.91C1593.71 1786.16 1589.22 1812.55 1583.28 1837.39C1577.57 1861.34 1570.4 1884.47 1561.96 1906.15C1546.04 1947.03 1524.99 1984.29 1499.43 2016.9C1443.52 2088.26 1364.91 2139.5 1265.79 2169.18C1227.49 2180.65 1186.06 2188.86 1142.66 2193.58C1107.98 2197.31 1073.1 2198.88 1038.22 2198.26C1037.23 2198.34 1036.08 2198.35 1034.83 2198.34ZM860.854 2178.02L861.108 2178.02C861.637 2178.07 915.589 2183.44 963.941 2187.47L964.089 2187.47C971.429 2188.44 991.929 2190.77 1023.77 2191.89L1023.79 2191.89L1025.76 2191.97C1031.03 2192.24 1035.22 2192.44 1037.93 2192.25L1038.2 2192.25C1154.77 2194.2 1369.09 2173.54 1494.72 2013.18C1608.67 1867.77 1625.79 1640.15 1545.62 1336.71C1410.56 825.745 1235.19 538.711 1111.85 387.904C1042.05 302.554 981.176 250.849 942.403 222.511C905.252 195.35 880.753 183.886 875.414 181.518C870.019 183.807 845.356 194.913 807.812 221.528C768.629 249.297 707.003 300.107 635.965 384.429C510.441 533.418 330.889 817.859 188.381 1326.82C103.634 1629.88 117.784 1858.11 230.453 2005.15C355.308 2168.1 571.026 2190.57 688.483 2189.46L690.494 2189.48L707.457 2189.11C728.336 2188.62 749.175 2187.03 769.889 2184.36L770.08 2184.36L860.854 2178.02Z" fill="url(#paint9_linear_903_25)"/>
<path opacity="0.2" d="M1048.76 2282.84C1045.97 2282.82 1042.56 2282.65 1038.62 2282.45L1036.53 2282.35C1001.88 2281.15 979.473 2278.59 971.371 2277.56C920.713 2273.31 864.476 2267.73 860.138 2267.32L762.395 2274.15C739.754 2277.05 716.977 2278.78 694.157 2279.32L675.649 2279.74L673.489 2279.72C545.001 2280.92 309.056 2256.25 172.1 2077.5C158.556 2059.8 146.343 2041.12 135.561 2021.61C124.234 2001.16 114.167 1979.28 105.61 1956.54C96.7204 1932.93 89.2398 1907.72 83.3744 1881.68C77.2834 1854.63 72.7502 1825.93 69.9174 1796.33C66.9653 1765.67 65.7625 1733.23 66.3028 1699.84C66.8722 1665.36 69.3403 1628.93 73.6361 1591.57C78.0677 1553.01 84.5893 1512.38 92.9813 1470.8C101.658 1427.96 112.573 1382.9 125.444 1336.88C161.164 1209.25 200.946 1087.86 243.643 976.063C282.455 874.419 324.571 778.41 368.807 690.737C443.358 543.006 525.232 415.824 612.182 312.732C646.355 272.223 681.412 235.363 716.371 203.202C744.338 177.448 772.348 154.637 799.548 135.378C846.031 102.497 873.763 91.5411 874.931 91.105L876.056 90.6474L877.196 91.1215C878.357 91.5746 905.927 102.934 951.903 136.491C978.84 156.146 1006.49 179.363 1034.1 205.523C1068.59 238.191 1103.1 275.559 1136.68 316.563C1222.11 420.914 1302.12 549.278 1374.49 698.082C1417.44 786.392 1458.15 883.006 1495.49 985.206C1536.55 1097.62 1574.53 1219.58 1608.41 1347.71C1620.58 1393.77 1630.82 1438.85 1638.85 1481.7C1646.66 1523.28 1652.56 1563.89 1656.47 1602.41C1660.25 1639.75 1662.2 1676.14 1662.31 1710.57C1662.43 1743.87 1660.77 1776.24 1657.46 1806.81C1654.24 1836.3 1649.35 1864.91 1642.95 1891.82C1636.75 1917.75 1628.98 1942.83 1619.83 1966.3C1611.03 1988.89 1600.73 2010.63 1589.19 2030.89C1578.21 2050.24 1565.82 2068.76 1552.11 2086.28C1491.52 2163.59 1406.38 2219.08 1299.01 2251.24C1257.5 2263.66 1212.64 2272.54 1165.59 2277.66C1128.81 2281.67 1090.73 2283.38 1052.45 2282.74C1051.38 2282.82 1050.15 2282.85 1048.76 2282.84ZM860.226 2261.12L860.501 2261.12C861.072 2261.19 919.532 2266.99 971.946 2271.38L972.094 2271.38C980.048 2272.41 1002.28 2274.94 1036.76 2276.15L1036.81 2276.15L1038.92 2276.25C1044.66 2276.52 1049.19 2276.75 1052.15 2276.54L1052.41 2276.54L1061.03 2276.64C1189.08 2277.58 1414.1 2252.37 1547.25 2082.44C1670.76 1924.8 1689.33 1678.12 1602.45 1349.23C1455.95 795.036 1265.72 483.884 1131.91 320.445C1056.25 228.022 990.284 172.088 948.268 141.419C908.041 112.075 881.664 99.7716 876.008 97.2742C870.316 99.6887 843.528 111.731 802.707 140.652C760.225 170.768 693.444 225.817 616.447 317.21C480.415 478.72 285.825 786.977 131.382 1338.53C39.5255 1667 54.8906 1914.35 176.997 2073.74C312.339 2250.38 546.147 2274.75 673.471 2273.54L675.652 2273.55L694.012 2273.14C716.649 2272.61 739.242 2270.89 761.698 2268L761.889 2268L860.226 2261.12Z" fill="url(#paint10_linear_903_25)"/>
<path opacity="0.1" d="M1062.71 2367.32C1059.69 2367.3 1056.05 2367.12 1051.79 2366.92L1049.53 2366.8C1012.21 2365.49 988.069 2362.75 979.354 2361.63C924.739 2357.06 864.079 2351.05 859.53 2350.59L754.224 2357.95C729.839 2361.08 705.31 2362.94 680.733 2363.53L660.784 2363.98L658.498 2363.97C653.119 2364.01 647.551 2364.01 641.834 2363.97C500.51 2362.94 260.277 2331.2 118.496 2146.19C103.92 2127.13 90.7692 2107.01 79.1512 2086.01C66.7206 2063.46 55.9445 2040.05 46.9078 2015.94C37.3327 1990.51 29.2733 1963.37 22.9569 1935.31C16.3939 1906.21 11.517 1875.29 8.46806 1843.4C5.30025 1810.39 3.98864 1775.44 4.56878 1739.49C5.20008 1702.34 7.85803 1663.1 12.4713 1622.87C17.2633 1581.34 24.2736 1537.58 33.3241 1492.8C42.6386 1446.65 54.4054 1398.12 68.2549 1348.55C106.757 1211.08 149.593 1080.31 195.592 959.896C237.405 850.418 282.772 747.022 330.424 652.557C410.711 493.434 498.903 356.453 592.538 245.427C629.338 201.783 667.105 162.084 704.75 127.444C734.891 99.7159 765.031 75.1423 794.359 54.3951C820.474 35.9111 841.078 23.9717 853.789 17.1832C867.627 9.81017 875.186 6.8376 875.505 6.73406L876.673 6.27684L877.855 6.75122C878.151 6.85925 885.687 9.94207 899.415 17.5165C912.005 24.4897 932.454 36.729 958.295 55.5924C987.296 76.7656 1017.07 101.777 1046.81 129.942C1083.96 165.128 1121.13 205.375 1157.28 249.552C1249.31 361.934 1335.49 500.188 1413.44 660.467C1459.71 755.618 1503.56 859.666 1543.77 969.742C1587.99 1090.82 1628.91 1222.2 1665.4 1360.22C1678.5 1409.84 1689.54 1458.38 1698.18 1504.54C1706.58 1549.32 1712.97 1593.07 1717.15 1634.55C1721.22 1674.77 1723.35 1713.96 1723.46 1751.03C1723.56 1786.9 1721.8 1821.78 1718.21 1854.68C1714.76 1886.45 1709.5 1917.27 1702.6 1946.24C1695.94 1974.19 1687.57 2001.16 1677.7 2026.46C1668.23 2050.78 1657.14 2074.18 1644.72 2096.02C1632.88 2116.85 1619.53 2136.78 1604.77 2155.65C1539.54 2238.89 1447.85 2298.67 1332.22 2333.29C1287.53 2346.67 1239.19 2356.24 1188.54 2361.76C1148.92 2366.06 1107.91 2367.92 1066.67 2367.22C1065.51 2367.3 1064.17 2367.33 1062.71 2367.32ZM859.619 2344.22L859.894 2344.26C860.529 2344.31 923.494 2350.59 979.95 2355.3L980.099 2355.3C988.666 2356.4 1012.61 2359.14 1049.78 2360.45L1049.83 2360.45L1052.09 2360.55C1058.27 2360.85 1063.16 2361.1 1066.36 2360.87L1066.64 2360.87C1069.66 2360.93 1072.75 2360.96 1075.91 2360.98C1213.87 2361.99 1456.31 2334.84 1599.78 2151.74C1732.85 1981.91 1752.83 1716.12 1659.25 1361.84C1589.63 1098.41 1505.08 863.551 1407.98 663.772C1330.3 503.983 1244.45 366.154 1152.83 254.135C1116.83 210.129 1079.86 170.053 1042.92 134.996C1013.37 106.98 983.785 82.0967 954.974 61.0308C911.315 29.1427 882.617 15.7635 876.623 13.1366C870.591 15.6756 841.7 28.6343 797.601 59.8814C768.485 80.5243 738.537 104.972 708.566 132.554C671.134 167.068 633.559 206.599 596.929 250.075C503.678 360.744 415.828 497.304 335.841 655.942C235.81 854.281 147.844 1087.88 74.3826 1350.27C-24.5614 1704.11 -8.02344 1970.61 123.543 2142.31C269.371 2332.65 521.268 2358.9 658.438 2357.61L660.788 2357.63L680.589 2357.18C704.975 2356.6 729.314 2354.75 753.508 2351.64L753.698 2351.64L859.619 2344.22Z" fill="url(#paint11_linear_903_25)"/>
<g filter="url(#filter0_d_903_25)">
<path d="M904.961 1356.33L950.626 1302.22C952.135 1314.11 950.395 1342.07 904.961 1356.33ZM864.379 1343.79L864.379 1174.75C848.919 1186.65 793.126 1239.77 864.379 1343.79ZM871.629 1174.75L871.629 1343.79C942.877 1239.77 887.085 1186.65 871.629 1174.75ZM864.379 1138.63L864.379 1022C859.685 1024.6 850.745 1030.35 839.38 1041.45L839.38 1108.92C839.376 1110.39 839.663 1111.84 840.223 1113.2C840.783 1114.56 841.605 1115.79 842.643 1116.82L864.379 1138.63ZM991.547 1230.53C985.974 1209.91 980.06 1191.26 973.957 1174.39L973.957 1257.67L993.491 1238.07C992.884 1235.59 992.24 1233.09 991.547 1230.53ZM966.707 1238.84L966.707 1155.37C954.228 1124.31 941.224 1100.14 928.908 1081.41L928.908 1197.96C928.913 1199.41 929.208 1200.84 929.774 1202.16C930.341 1203.49 931.168 1204.69 932.207 1205.69L966.707 1238.84ZM899.419 1351.63L945.932 1296.54C935.478 1296.62 905.287 1301.27 899.419 1351.63ZM896.211 1061.69L896.211 1041.05C885.046 1030.21 876.273 1024.57 871.629 1022L871.629 1089.88L893.728 1067.7C894.518 1066.91 895.145 1065.98 895.571 1064.94C895.997 1063.91 896.215 1062.8 896.211 1061.69ZM796.787 1202.17L796.787 1162.01L775.491 1140.64C772.914 1146.53 770.346 1152.7 767.788 1159.16L767.788 1235.85L793.57 1209.97C794.594 1208.96 795.406 1207.74 795.958 1206.4C796.511 1205.07 796.793 1203.63 796.787 1202.19L796.787 1202.17ZM790.675 1297.5L837.663 1351.93C830.916 1302.64 801.876 1297.59 790.675 1297.52L790.675 1297.5ZM831.732 1356.17L785.346 1302.46C783.928 1313.78 785.273 1342.62 831.732 1356.19L831.732 1356.17ZM995.435 1246.39L973.876 1268.02C973.479 1272.82 971.599 1277.37 968.497 1281.05L956.589 1295.14C957.667 1298.89 961.238 1314.38 952.321 1330.83C943.661 1346.79 926.293 1358.32 900.701 1365.09L897.076 1366.04L896.858 1365.86L883.65 1381.51C882.927 1383.41 881.866 1385.16 880.519 1386.68C882.522 1386.85 884.597 1387.01 886.645 1387.18C888.879 1387.42 892.672 1387.76 897.547 1387.9C898.658 1387.95 899.55 1387.97 900.135 1387.95C937.001 1388.39 1023.69 1376.02 995.435 1246.41L995.435 1246.39ZM851.651 1379.25L840.051 1365.81L836.639 1364.99C810.893 1358.84 793.258 1347.72 784.227 1331.96C774.145 1314.38 778.758 1297.55 779.315 1295.69L779.369 1295.51L766.8 1280.96C762.762 1276.28 760.539 1270.3 760.538 1264.11L760.538 1178.6C754.969 1194.35 749.568 1211.61 744.452 1230.53C705.085 1376.19 799.03 1388.61 836.761 1387.98L837.137 1387.95C838.216 1387.95 839.249 1387.9 840.228 1387.86C844.03 1387.74 847.823 1387.42 851.592 1386.91L851.592 1386.84L855.357 1386.56C853.543 1384.47 852.27 1381.97 851.651 1379.27L851.651 1379.25ZM883.849 1370.06L891.331 1361.2L891.584 1357.53C893.438 1331.11 901.453 1311.86 915.414 1300.34C924.094 1293.19 934.97 1289.27 946.199 1289.25C947.596 1289.24 948.993 1289.32 950.381 1289.48L951.74 1289.65L962.978 1276.35C965.39 1273.49 966.714 1269.86 966.716 1266.11L966.716 1248.89L927.195 1210.98C925.448 1209.3 924.058 1207.28 923.106 1205.05C922.155 1202.82 921.662 1200.41 921.658 1197.99L921.658 1070.88C916.048 1063.06 909.971 1055.58 903.461 1048.49L903.461 1061.67C903.466 1063.74 903.062 1065.8 902.272 1067.71C901.481 1069.63 900.321 1071.37 898.857 1072.83L871.629 1100.15L871.629 1165.86L871.919 1166.04C873.428 1166.99 881.38 1172.26 890.044 1182.32C895.069 1188.15 899.409 1194.55 902.976 1201.37C907.373 1209.8 910.528 1218.83 912.342 1228.17C915.645 1245.1 914.689 1263.36 909.51 1282.45C903.447 1304.78 891.48 1328.56 873.945 1353.13L871.779 1356.16L871.629 1356.16L871.629 1359.13C874.427 1359.76 877.019 1361.09 879.158 1363.01C881.296 1364.93 882.911 1367.36 883.849 1370.08L883.849 1370.06ZM784.748 1290.63L785.201 1290.56C786.935 1290.32 788.684 1290.21 790.435 1290.22C801.714 1290.24 812.64 1294.17 821.355 1301.36C835.017 1312.65 843.164 1331.44 845.579 1357.21L845.928 1360.92L845.647 1361.17L852.516 1369.13C853.551 1366.63 855.17 1364.42 857.236 1362.68C859.302 1360.93 861.755 1359.72 864.388 1359.13L864.388 1356.16L864.234 1356.16L862.068 1353.13C844.533 1328.58 832.566 1304.78 826.503 1282.45C821.324 1263.35 820.368 1245.1 823.671 1228.17C825.484 1218.83 828.639 1209.8 833.037 1201.37C836.604 1194.55 840.943 1188.15 845.969 1182.32C854.632 1172.26 862.585 1166.99 864.094 1166.04L864.388 1165.86L864.388 1148.9L837.527 1121.95C835.813 1120.24 834.454 1118.21 833.529 1115.97C832.604 1113.73 832.132 1111.33 832.139 1108.9L832.139 1048.93C823.566 1058.27 814.015 1070.42 804.046 1086.15L804.046 1202.19C804.052 1204.59 803.584 1206.97 802.668 1209.19C801.751 1211.41 800.406 1213.43 798.709 1215.12L767.788 1246.13L767.788 1264.12C767.788 1268.56 769.382 1272.85 772.278 1276.21L784.748 1290.63ZM796.787 1098.14C790.779 1108.55 784.684 1120.29 778.662 1133.52L796.787 1151.7L796.787 1098.14ZM880.161 1374.4C880.139 1374.16 880.111 1373.92 880.075 1373.68C879.806 1371.88 879.141 1370.17 878.127 1368.67C877.688 1368.02 877.189 1367.41 876.636 1366.86C875.378 1365.59 873.862 1364.62 872.191 1364.01C871.624 1363.8 871.043 1363.63 870.451 1363.51C870.252 1363.47 870.048 1363.43 869.848 1363.4C869.439 1363.34 869.025 1363.3 868.611 1363.28C868.403 1363.28 868.194 1363.28 867.986 1363.28C866.55 1363.28 865.125 1363.53 863.776 1364.02C863.403 1364.16 863.037 1364.31 862.68 1364.48C862.322 1364.65 861.978 1364.84 861.638 1365.05C861.298 1365.25 860.976 1365.47 860.663 1365.71C860.348 1365.95 860.046 1366.21 859.757 1366.48C859.472 1366.73 859.201 1367.01 858.946 1367.29C858.815 1367.44 858.688 1367.58 858.561 1367.75C858.434 1367.91 858.216 1368.2 858.058 1368.41C857.899 1368.62 857.791 1368.79 857.664 1368.99C857.537 1369.19 857.437 1369.36 857.329 1369.55C857.116 1369.93 856.924 1370.32 856.753 1370.72C856.668 1370.92 856.587 1371.13 856.508 1371.33C856.291 1371.94 856.12 1372.55 855.996 1373.18C855.965 1373.35 855.933 1373.52 855.91 1373.68C855.847 1374.09 855.805 1374.51 855.783 1374.92C855.783 1375.13 855.783 1375.34 855.783 1375.55C855.783 1375.77 855.783 1375.98 855.783 1376.19C855.875 1378.07 856.404 1379.91 857.329 1381.55C857.437 1381.75 857.546 1381.93 857.664 1382.11C857.781 1382.3 857.917 1382.5 858.058 1382.7C858.198 1382.89 858.384 1383.15 858.561 1383.36C858.738 1383.57 858.815 1383.66 858.946 1383.81C859.201 1384.1 859.472 1384.37 859.757 1384.63C860.046 1384.9 860.348 1385.16 860.663 1385.4C860.976 1385.63 861.302 1385.86 861.638 1386.06L861.683 1386.09C862.005 1386.28 862.34 1386.46 862.68 1386.63C863.037 1386.8 863.403 1386.95 863.776 1387.08C865.125 1387.58 866.55 1387.83 867.986 1387.83C868.194 1387.83 868.403 1387.83 868.611 1387.83C869.025 1387.81 869.439 1387.77 869.848 1387.71C870.048 1387.67 870.252 1387.64 870.451 1387.6C871.043 1387.48 871.624 1387.31 872.191 1387.1C872.532 1386.97 872.867 1386.83 873.197 1386.68C873.523 1386.52 873.84 1386.36 874.153 1386.17C874.38 1386.04 874.606 1385.9 874.823 1385.75C875.816 1385.08 876.705 1384.26 877.461 1383.33C877.696 1383.04 877.914 1382.75 878.127 1382.42C879.369 1380.57 880.086 1378.42 880.202 1376.19C880.202 1375.98 880.202 1375.77 880.202 1375.56C880.202 1375.34 880.202 1375.13 880.202 1374.93C880.202 1374.72 880.197 1374.59 880.161 1374.42L880.161 1374.4Z" fill="url(#paint12_linear_903_25)"/>
</g>
<g filter="url(#filter1_d_903_25)">
<g filter="url(#filter2_d_903_25)" class="leaf" id="leaf0">
<path d="M235.006 1110.85C236.609 1110.85 237.907 1109.55 237.907 1107.96C237.907 1106.36 236.609 1105.06 235.006 1105.06C233.404 1105.06 232.105 1106.36 232.105 1107.96C232.105 1109.55 233.404 1110.85 235.006 1110.85Z" fill="#33B8C2"/>
<path d="M234.147 1060C234.147 1060 213.302 1072.69 234.147 1101.68Z" fill="#33B8C2"/>
<path d="M235.415 1060C235.415 1060 256.259 1072.69 235.415 1101.68Z" fill="#33B8C2"/>
<path d="M253.809 1089.21C253.809 1089.21 241.023 1086.13 237.886 1105.1Z" fill="#33B8C2"/>
<path d="M254.68 1090.07C254.68 1090.07 257.763 1102.83 238.745 1105.95Z" fill="#33B8C2"/>
<path d="M216.042 1089.21C216.042 1089.21 228.839 1086.13 231.976 1105.1Z" fill="#33B8C2"/>
<path d="M215.183 1090.07C215.183 1090.07 212.088 1102.83 231.117 1105.95Z" fill="#33B8C2"/>
</g>
</g>
<g filter="url(#filter3_d_903_25)">
<g filter="url(#filter4_d_903_25)" class="leaf" id="leaf1">
<path d="M1110.01 1110.85C1111.61 1110.85 1112.91 1109.55 1112.91 1107.96C1112.91 1106.36 1111.61 1105.06 1110.01 1105.06C1108.4 1105.06 1107.11 1106.36 1107.11 1107.96C1107.11 1109.55 1108.4 1110.85 1110.01 1110.85Z" fill="#33B8C2"/>
<path d="M1109.15 1060C1109.15 1060 1088.3 1072.69 1109.15 1101.68Z" fill="#33B8C2"/>
<path d="M1110.41 1060C1110.41 1060 1131.26 1072.69 1110.41 1101.68Z" fill="#33B8C2"/>
<path d="M1128.81 1089.21C1128.81 1089.21 1116.02 1086.13 1112.89 1105.1Z" fill="#33B8C2"/>
<path d="M1129.68 1090.07C1129.68 1090.07 1132.76 1102.83 1113.75 1105.95Z" fill="#33B8C2"/>
<path d="M1091.04 1089.21C1091.04 1089.21 1103.84 1086.13 1106.98 1105.1Z" fill="#33B8C2"/>
<path d="M1090.18 1090.07C1090.18 1090.07 1087.09 1102.83 1106.12 1105.95Z" fill="#33B8C2"/>
</g>
</g>
<g filter="url(#filter5_d_903_25)">
<g filter="url(#filter6_d_903_25)" class="leaf" id="leaf2">
<path d="M496.006 1392.85C497.609 1392.85 498.907 1391.55 498.907 1389.96C498.907 1388.36 497.609 1387.06 496.006 1387.06C494.404 1387.06 493.105 1388.36 493.105 1389.96C493.105 1391.55 494.404 1392.85 496.006 1392.85Z" fill="#33B8C2"/>
<path d="M495.147 1342C495.147 1342 474.302 1354.69 495.147 1383.68Z" fill="#33B8C2"/>
<path d="M496.415 1342C496.415 1342 517.259 1354.69 496.415 1383.68Z" fill="#33B8C2"/>
<path d="M514.809 1371.21C514.809 1371.21 502.023 1368.13 498.886 1387.1Z" fill="#33B8C2"/>
<path d="M515.68 1372.07C515.68 1372.07 518.764 1384.83 499.746 1387.95Z" fill="#33B8C2"/>
<path d="M477.042 1371.21C477.042 1371.21 489.839 1368.13 492.976 1387.1Z" fill="#33B8C2"/>
<path d="M476.183 1372.07C476.183 1372.07 473.088 1384.83 492.117 1387.95Z" fill="#33B8C2"/>
</g>
</g>
<g filter="url(#filter7_d_903_25)">
<g filter="url(#filter8_d_903_25)" class="leaf" id="leaf3">
<path d="M1339.01 1392.85C1340.61 1392.85 1341.91 1391.55 1341.91 1389.96C1341.91 1388.36 1340.61 1387.06 1339.01 1387.06C1337.4 1387.06 1336.11 1388.36 1336.11 1389.96C1336.11 1391.55 1337.4 1392.85 1339.01 1392.85Z" fill="#33B8C2"/>
<path d="M1338.15 1342C1338.15 1342 1317.3 1354.69 1338.15 1383.68Z" fill="#33B8C2"/>
<path d="M1339.41 1342C1339.41 1342 1360.26 1354.69 1339.41 1383.68Z" fill="#33B8C2"/>
<path d="M1357.81 1371.21C1357.81 1371.21 1345.02 1368.13 1341.89 1387.1Z" fill="#33B8C2"/>
<path d="M1358.68 1372.07C1358.68 1372.07 1361.76 1384.83 1342.75 1387.95Z" fill="#33B8C2"/>
<path d="M1320.04 1371.21C1320.04 1371.21 1332.84 1368.13 1335.98 1387.1Z" fill="#33B8C2"/>
<path d="M1319.18 1372.07C1319.18 1372.07 1316.09 1384.83 1335.12 1387.95Z" fill="#33B8C2"/>
</g>
</g>
<g filter="url(#filter9_d_903_25)">
<g filter="url(#filter10_d_903_25)" class="leaf" id="leaf4">
<path d="M432.006 1199.85C433.608 1199.85 434.907 1198.55 434.907 1196.96C434.907 1195.36 433.608 1194.06 432.006 1194.06C430.404 1194.06 429.105 1195.36 429.105 1196.96C429.105 1198.55 430.404 1199.85 432.006 1199.85Z" fill="#33B8C2"/>
<path d="M431.147 1149C431.147 1149 410.302 1161.69 431.147 1190.68Z" fill="#33B8C2"/>
<path d="M432.415 1149C432.415 1149 453.259 1161.69 432.415 1190.68Z" fill="#33B8C2"/>
<path d="M450.809 1178.21C450.809 1178.21 438.023 1175.13 434.886 1194.1Z" fill="#33B8C2"/>
<path d="M451.68 1179.07C451.68 1179.07 454.763 1191.83 435.745 1194.95Z" fill="#33B8C2"/>
<path d="M413.042 1178.21C413.042 1178.21 425.839 1175.13 428.976 1194.1Z" fill="#33B8C2"/>
<path d="M412.183 1179.07C412.183 1179.07 409.088 1191.83 428.117 1194.95Z" fill="#33B8C2"/>
</g>
</g>
<g filter="url(#filter11_d_903_25)">
<g filter="url(#filter12_d_903_25)" class="leaf" id="leaf5">
<path d="M1307.01 1199.85C1308.61 1199.85 1309.91 1198.55 1309.91 1196.96C1309.91 1195.36 1308.61 1194.06 1307.01 1194.06C1305.4 1194.06 1304.11 1195.36 1304.11 1196.96C1304.11 1198.55 1305.4 1199.85 1307.01 1199.85Z" fill="#33B8C2"/>
<path d="M1306.15 1149C1306.15 1149 1285.3 1161.69 1306.15 1190.68Z" fill="#33B8C2"/>
<path d="M1307.41 1149C1307.41 1149 1328.26 1161.69 1307.41 1190.68Z" fill="#33B8C2"/>
<path d="M1325.81 1178.21C1325.81 1178.21 1313.02 1175.13 1309.89 1194.1Z" fill="#33B8C2"/>
<path d="M1326.68 1179.07C1326.68 1179.07 1329.76 1191.83 1310.75 1194.95Z" fill="#33B8C2"/>
<path d="M1288.04 1178.21C1288.04 1178.21 1300.84 1175.13 1303.98 1194.1Z" fill="#33B8C2"/>
<path d="M1287.18 1179.07C1287.18 1179.07 1284.09 1191.83 1303.12 1194.95Z" fill="#33B8C2"/>
</g>
</g>
<g filter="url(#filter13_d_903_25)">
<g filter="url(#filter14_d_903_25)" class="leaf" id="leaf6">
<path d="M610.006 1250.85C611.608 1250.85 612.907 1249.55 612.907 1247.96C612.907 1246.36 611.608 1245.06 610.006 1245.06C608.404 1245.06 607.105 1246.36 607.105 1247.96C607.105 1249.55 608.404 1250.85 610.006 1250.85Z" fill="#33B8C2"/>
<path d="M609.147 1200C609.147 1200 588.302 1212.69 609.147 1241.68Z" fill="#33B8C2"/>
<path d="M610.415 1200C610.415 1200 631.259 1212.69 610.415 1241.68Z" fill="#33B8C2"/>
<path d="M628.809 1229.21C628.809 1229.21 616.023 1226.13 612.886 1245.1Z" fill="#33B8C2"/>
<path d="M629.68 1230.07C629.68 1230.07 632.763 1242.83 613.745 1245.95Z" fill="#33B8C2"/>
<path d="M591.042 1229.21C591.042 1229.21 603.839 1226.13 606.976 1245.1Z" fill="#33B8C2"/>
<path d="M590.183 1230.07C590.183 1230.07 587.088 1242.83 606.117 1245.95Z" fill="#33B8C2"/>
</g>
</g>
<g filter="url(#filter15_d_903_25)">
<g filter="url(#filter16_d_903_25)" class="leaf" id="leaf7">
<path d="M250.006 1311.85C251.609 1311.85 252.907 1310.55 252.907 1308.96C252.907 1307.36 251.609 1306.06 250.006 1306.06C248.404 1306.06 247.105 1307.36 247.105 1308.96C247.105 1310.55 248.404 1311.85 250.006 1311.85Z" fill="#33B8C2"/>
<path d="M249.147 1261C249.147 1261 228.302 1273.69 249.147 1302.68Z" fill="#33B8C2"/>
<path d="M250.415 1261C250.415 1261 271.259 1273.69 250.415 1302.68Z" fill="#33B8C2"/>
<path d="M268.809 1290.21C268.809 1290.21 256.023 1287.13 252.886 1306.1Z" fill="#33B8C2"/>
<path d="M269.68 1291.07C269.68 1291.07 272.763 1303.83 253.745 1306.95Z" fill="#33B8C2"/>
<path d="M231.042 1290.21C231.042 1290.21 243.839 1287.13 246.976 1306.1Z" fill="#33B8C2"/>
<path d="M230.183 1291.07C230.183 1291.07 227.088 1303.83 246.117 1306.95Z" fill="#33B8C2"/>
</g>
</g>
<g filter="url(#filter17_d_903_25)">
<g filter="url(#filter18_d_903_25)" class="leaf" id="leaf8">
<path d="M1125.01 1311.85C1126.61 1311.85 1127.91 1310.55 1127.91 1308.96C1127.91 1307.36 1126.61 1306.06 1125.01 1306.06C1123.4 1306.06 1122.11 1307.36 1122.11 1308.96C1122.11 1310.55 1123.4 1311.85 1125.01 1311.85Z" fill="#33B8C2"/>
<path d="M1124.15 1261C1124.15 1261 1103.3 1273.69 1124.15 1302.68Z" fill="#33B8C2"/>
<path d="M1125.41 1261C1125.41 1261 1146.26 1273.69 1125.41 1302.68Z" fill="#33B8C2"/>
<path d="M1143.81 1290.21C1143.81 1290.21 1131.02 1287.13 1127.89 1306.1Z" fill="#33B8C2"/>
<path d="M1144.68 1291.07C1144.68 1291.07 1147.76 1303.83 1128.75 1306.95Z" fill="#33B8C2"/>
<path d="M1106.04 1290.21C1106.04 1290.21 1118.84 1287.13 1121.98 1306.1Z" fill="#33B8C2"/>
<path d="M1105.18 1291.07C1105.18 1291.07 1102.09 1303.83 1121.12 1306.95Z" fill="#33B8C2"/>
</g>
</g>
<g filter="url(#filter19_d_903_25)">
<g filter="url(#filter20_d_903_25)" class="leaf" id="leaf9">
<path d="M579.006 1072.85C580.608 1072.85 581.907 1071.55 581.907 1069.96C581.907 1068.36 580.608 1067.06 579.006 1067.06C577.404 1067.06 576.105 1068.36 576.105 1069.96C576.105 1071.55 577.404 1072.85 579.006 1072.85Z" fill="#33B8C2"/>
<path d="M578.147 1022C578.147 1022 557.302 1034.69 578.147 1063.68Z" fill="#33B8C2"/>
<path d="M579.415 1022C579.415 1022 600.259 1034.69 579.415 1063.68Z" fill="#33B8C2"/>
<path d="M597.809 1051.21C597.809 1051.21 585.023 1048.13 581.886 1067.1Z" fill="#33B8C2"/>
<path d="M598.68 1052.07C598.68 1052.07 601.763 1064.83 582.745 1067.95Z" fill="#33B8C2"/>
<path d="M560.042 1051.21C560.042 1051.21 572.839 1048.13 575.976 1067.1Z" fill="#33B8C2"/>
<path d="M559.183 1052.07C559.183 1052.07 556.088 1064.83 575.117 1067.95Z" fill="#33B8C2"/>
</g>
</g>
<g filter="url(#filter21_d_903_25)">
<g filter="url(#filter22_d_903_25)" class="leaf" id="leaf10">
<path d="M1454.01 1072.85C1455.61 1072.85 1456.91 1071.55 1456.91 1069.96C1456.91 1068.36 1455.61 1067.06 1454.01 1067.06C1452.4 1067.06 1451.11 1068.36 1451.11 1069.96C1451.11 1071.55 1452.4 1072.85 1454.01 1072.85Z" fill="#33B8C2"/>
<path d="M1453.15 1022C1453.15 1022 1432.3 1034.69 1453.15 1063.68Z" fill="#33B8C2"/>
<path d="M1454.41 1022C1454.41 1022 1475.26 1034.69 1454.41 1063.68Z" fill="#33B8C2"/>
<path d="M1472.81 1051.21C1472.81 1051.21 1460.02 1048.13 1456.89 1067.1Z" fill="#33B8C2"/>
<path d="M1473.68 1052.07C1473.68 1052.07 1476.76 1064.83 1457.75 1067.95Z" fill="#33B8C2"/>
<path d="M1435.04 1051.21C1435.04 1051.21 1447.84 1048.13 1450.98 1067.1Z" fill="#33B8C2"/>
<path d="M1434.18 1052.07C1434.18 1052.07 1431.09 1064.83 1450.12 1067.95Z" fill="#33B8C2"/>
</g>
</g>
<defs>
<filter id="filter0_d_903_25" x="716" y="1003" width="318" height="418" filterUnits="userSpaceOnUse" color-interpolation-filters="sRGB">
<feFlood flood-opacity="0" result="BackgroundImageFix"/>
<feOffset dx="7" dy="7"/>
<feGaussianBlur stdDeviation="13"/>
<feComposite in2="hardAlpha" operator="out"/>
<feBlend mode="normal" in2="BackgroundImageFix" result="effect1_dropShadow_903_25"/>
<feBlend mode="normal" in="SourceGraphic" in2="effect1_dropShadow_903_25" result="shape"/>
</filter>
<filter id="filter1_d_903_25" x="205.347" y="1050.35" width="66.2817" height="77.2674" filterUnits="userSpaceOnUse" color-interpolation-filters="sRGB">
<feFlood flood-opacity="0" result="BackgroundImageFix"/>
<feOffset dx="3.55644" dy="3.55644"/>
<feGaussianBlur stdDeviation="6.60481"/>
<feComposite in2="hardAlpha" operator="out"/>
<feBlend mode="normal" in2="BackgroundImageFix" result="effect1_dropShadow_903_25"/>
<feBlend mode="normal" in="SourceGraphic" in2="effect1_dropShadow_903_25" result="shape"/>
</filter>
<filter id="filter2_d_903_25" x="215" y="1060" width="56.6285" height="67.1061" filterUnits="userSpaceOnUse" color-interpolation-filters="sRGB">
<feFlood flood-opacity="0" result="BackgroundImageFix"/>
<feOffset dx="9.14513" dy="8.63706"/>
<feGaussianBlur stdDeviation="3.81047"/>
<feComposite in2="hardAlpha" operator="out"/>
<feBlend mode="normal" in2="BackgroundImageFix" result="effect1_dropShadow_903_25"/>
<feBlend mode="normal" in="SourceGraphic" in2="effect1_dropShadow_903_25" result="shape"/>
</filter>
<filter id="filter3_d_903_25" x="1080.35" y="1050.35" width="66.2817" height="77.2674" filterUnits="userSpaceOnUse" color-interpolation-filters="sRGB">
<feFlood flood-opacity="0" result="BackgroundImageFix"/>
<feOffset dx="3.55644" dy="3.55644"/>
<feGaussianBlur stdDeviation="6.60481"/>
<feComposite in2="hardAlpha" operator="out"/>
<feBlend mode="normal" in2="BackgroundImageFix" result="effect1_dropShadow_903_25"/>
<feBlend mode="normal" in="SourceGraphic" in2="effect1_dropShadow_903_25" result="shape"/>
</filter>
<filter id="filter4_d_903_25" x="1090" y="1060" width="56.6285" height="67.1061" filterUnits="userSpaceOnUse" color-interpolation-filters="sRGB">
<feFlood flood-opacity="0" result="BackgroundImageFix"/>
<feOffset dx="9.14513" dy="8.63706"/>
<feGaussianBlur stdDeviation="3.81047"/>
<feComposite in2="hardAlpha" operator="out"/>
<feBlend mode="normal" in2="BackgroundImageFix" result="effect1_dropShadow_903_25"/>
<feBlend mode="normal" in="SourceGraphic" in2="effect1_dropShadow_903_25" result="shape"/>
</filter>
<filter id="filter5_d_903_25" x="466.347" y="1332.35" width="66.2817" height="77.2674" filterUnits="userSpaceOnUse" color-interpolation-filters="sRGB">
<feFlood flood-opacity="0" result="BackgroundImageFix"/>
<feOffset dx="3.55644" dy="3.55644"/>
<feGaussianBlur stdDeviation="6.60481"/>
<feComposite in2="hardAlpha" operator="out"/>
<feBlend mode="normal" in2="BackgroundImageFix" result="effect1_dropShadow_903_25"/>
<feBlend mode="normal" in="SourceGraphic" in2="effect1_dropShadow_903_25" result="shape"/>
</filter>
<filter id="filter6_d_903_25" x="476" y="1342" width="56.6285" height="67.1061" filterUnits="userSpaceOnUse" color-interpolation-filters="sRGB">
<feFlood flood-opacity="0" result="BackgroundImageFix"/>
<feOffset dx="9.14513" dy="8.63706"/>
<feGaussianBlur stdDeviation="3.81047"/>
<feComposite in2="hardAlpha" operator="out"/>
<feBlend mode="normal" in2="BackgroundImageFix" result="effect1_dropShadow_903_25"/>
<feBlend mode="normal" in="SourceGraphic" in2="effect1_dropShadow_903_25" result="shape"/>
</filter>
<filter id="filter7_d_903_25" x="1309.35" y="1332.35" width="66.2817" height="77.2674" filterUnits="userSpaceOnUse" color-interpolation-filters="sRGB">
<feFlood flood-opacity="0" result="BackgroundImageFix"/>
<feOffset dx="3.55644" dy="3.55644"/>
<feGaussianBlur stdDeviation="6.60481"/>
<feComposite in2="hardAlpha" operator="out"/>
<feBlend mode="normal" in2="BackgroundImageFix" result="effect1_dropShadow_903_25"/>
<feBlend mode="normal" in="SourceGraphic" in2="effect1_dropShadow_903_25" result="shape"/>
</filter>
<filter id="filter8_d_903_25" x="1319" y="1342" width="56.6285" height="67.1061" filterUnits="userSpaceOnUse" color-interpolation-filters="sRGB">
<feFlood flood-opacity="0" result="BackgroundImageFix"/>
<feOffset dx="9.14513" dy="8.63706"/>
<feGaussianBlur stdDeviation="3.81047"/>
<feComposite in2="hardAlpha" operator="out"/>
<feBlend mode="normal" in2="BackgroundImageFix" result="effect1_dropShadow_903_25"/>
<feBlend mode="normal" in="SourceGraphic" in2="effect1_dropShadow_903_25" result="shape"/>
</filter>
<filter id="filter9_d_903_25" x="402.347" y="1139.35" width="66.2817" height="77.2674" filterUnits="userSpaceOnUse" color-interpolation-filters="sRGB">
<feFlood flood-opacity="0" result="BackgroundImageFix"/>
<feOffset dx="3.55644" dy="3.55644"/>
<feGaussianBlur stdDeviation="6.60481"/>
<feComposite in2="hardAlpha" operator="out"/>
<feBlend mode="normal" in2="BackgroundImageFix" result="effect1_dropShadow_903_25"/>
<feBlend mode="normal" in="SourceGraphic" in2="effect1_dropShadow_903_25" result="shape"/>
</filter>
<filter id="filter10_d_903_25" x="412" y="1149" width="56.6285" height="67.1061" filterUnits="userSpaceOnUse" color-interpolation-filters="sRGB">
<feFlood flood-opacity="0" result="BackgroundImageFix"/>
<feOffset dx="9.14513" dy="8.63706"/>
<feGaussianBlur stdDeviation="3.81047"/>
<feComposite in2="hardAlpha" operator="out"/>
<feBlend mode="normal" in2="BackgroundImageFix" result="effect1_dropShadow_903_25"/>
<feBlend mode="normal" in="SourceGraphic" in2="effect1_dropShadow_903_25" result="shape"/>
</filter>
<filter id="filter11_d_903_25" x="1277.35" y="1139.35" width="66.2817" height="77.2674" filterUnits="userSpaceOnUse" color-interpolation-filters="sRGB">
<feFlood flood-opacity="0" result="BackgroundImageFix"/>
<feOffset dx="3.55644" dy="3.55644"/>
<feGaussianBlur stdDeviation="6.60481"/>
<feComposite in2="hardAlpha" operator="out"/>
<feBlend mode="normal" in2="BackgroundImageFix" result="effect1_dropShadow_903_25"/>
<feBlend mode="normal" in="SourceGraphic" in2="effect1_dropShadow_903_25" result="shape"/>
</filter>
<filter id="filter12_d_903_25" x="1287" y="1149" width="56.6285" height="67.1061" filterUnits="userSpaceOnUse" color-interpolation-filters="sRGB">
<feFlood flood-opacity="0" result="BackgroundImageFix"/>
<feOffset dx="9.14513" dy="8.63706"/>
<feGaussianBlur stdDeviation="3.81047"/>
<feComposite in2="hardAlpha" operator="out"/>
<feBlend mode="normal" in2="BackgroundImageFix" result="effect1_dropShadow_903_25"/>
<feBlend mode="normal" in="SourceGraphic" in2="effect1_dropShadow_903_25" result="shape"/>
</filter>
<filter id="filter13_d_903_25" x="580.347" y="1190.35" width="66.2817" height="77.2674" filterUnits="userSpaceOnUse" color-interpolation-filters="sRGB">
<feFlood flood-opacity="0" result="BackgroundImageFix"/>
<feOffset dx="3.55644" dy="3.55644"/>
<feGaussianBlur stdDeviation="6.60481"/>
<feComposite in2="hardAlpha" operator="out"/>
<feBlend mode="normal" in2="BackgroundImageFix" result="effect1_dropShadow_903_25"/>
<feBlend mode="normal" in="SourceGraphic" in2="effect1_dropShadow_903_25" result="shape"/>
</filter>
<filter id="filter14_d_903_25" x="590" y="1200" width="56.6285" height="67.1061" filterUnits="userSpaceOnUse" color-interpolation-filters="sRGB">
<feFlood flood-opacity="0" result="BackgroundImageFix"/>
<feOffset dx="9.14513" dy="8.63706"/>
<feGaussianBlur stdDeviation="3.81047"/>
<feComposite in2="hardAlpha" operator="out"/>
<feBlend mode="normal" in2="BackgroundImageFix" result="effect1_dropShadow_903_25"/>
<feBlend mode="normal" in="SourceGraphic" in2="effect1_dropShadow_903_25" result="shape"/>
</filter>
<filter id="filter15_d_903_25" x="220.347" y="1251.35" width="66.2817" height="77.2674" filterUnits="userSpaceOnUse" color-interpolation-filters="sRGB">
<feFlood flood-opacity="0" result="BackgroundImageFix"/>
<feOffset dx="3.55644" dy="3.55644"/>
<feGaussianBlur stdDeviation="6.60481"/>
<feComposite in2="hardAlpha" operator="out"/>
<feBlend mode="normal" in2="BackgroundImageFix" result="effect1_dropShadow_903_25"/>
<feBlend mode="normal" in="SourceGraphic" in2="effect1_dropShadow_903_25" result="shape"/>
</filter>
<filter id="filter16_d_903_25" x="230" y="1261" width="56.6285" height="67.1061" filterUnits="userSpaceOnUse" color-interpolation-filters="sRGB">
<feFlood flood-opacity="0" result="BackgroundImageFix"/>
<feOffset dx="9.14513" dy="8.63706"/>
<feGaussianBlur stdDeviation="3.81047"/>
<feComposite in2="hardAlpha" operator="out"/>
<feBlend mode="normal" in2="BackgroundImageFix" result="effect1_dropShadow_903_25"/>
<feBlend mode="normal" in="SourceGraphic" in2="effect1_dropShadow_903_25" result="shape"/>
</filter>
<filter id="filter17_d_903_25" x="1095.35" y="1251.35" width="66.2817" height="77.2674" filterUnits="userSpaceOnUse" color-interpolation-filters="sRGB">
<feFlood flood-opacity="0" result="BackgroundImageFix"/>
<feOffset dx="3.55644" dy="3.55644"/>
<feGaussianBlur stdDeviation="6.60481"/>
<feComposite in2="hardAlpha" operator="out"/>
<feBlend mode="normal" in2="BackgroundImageFix" result="effect1_dropShadow_903_25"/>
<feBlend mode="normal" in="SourceGraphic" in2="effect1_dropShadow_903_25" result="shape"/>
</filter>
<filter id="filter18_d_903_25" x="1105" y="1261" width="56.6285" height="67.1061" filterUnits="userSpaceOnUse" color-interpolation-filters="sRGB">
<feFlood flood-opacity="0" result="BackgroundImageFix"/>
<feOffset dx="9.14513" dy="8.63706"/>
<feGaussianBlur stdDeviation="3.81047"/>
<feComposite in2="hardAlpha" operator="out"/>
<feBlend mode="normal" in2="BackgroundImageFix" result="effect1_dropShadow_903_25"/>
<feBlend mode="normal" in="SourceGraphic" in2="effect1_dropShadow_903_25" result="shape"/>
</filter>
<filter id="filter19_d_903_25" x="549.347" y="1012.35" width="66.2817" height="77.2674" filterUnits="userSpaceOnUse" color-interpolation-filters="sRGB">
<feFlood flood-opacity="0" result="BackgroundImageFix"/>
<feOffset dx="3.55644" dy="3.55644"/>
<feGaussianBlur stdDeviation="6.60481"/>
<feComposite in2="hardAlpha" operator="out"/>
<feBlend mode="normal" in2="BackgroundImageFix" result="effect1_dropShadow_903_25"/>
<feBlend mode="normal" in="SourceGraphic" in2="effect1_dropShadow_903_25" result="shape"/>
</filter>
<filter id="filter20_d_903_25" x="559" y="1022" width="56.6285" height="67.1061" filterUnits="userSpaceOnUse" color-interpolation-filters="sRGB">
<feFlood flood-opacity="0" result="BackgroundImageFix"/>
<feOffset dx="9.14513" dy="8.63706"/>
<feGaussianBlur stdDeviation="3.81047"/>
<feComposite in2="hardAlpha" operator="out"/>
<feBlend mode="normal" in2="BackgroundImageFix" result="effect1_dropShadow_903_25"/>
<feBlend mode="normal" in="SourceGraphic" in2="effect1_dropShadow_903_25" result="shape"/>
</filter>
<filter id="filter21_d_903_25" x="1424.35" y="1012.35" width="66.2818" height="77.2674" filterUnits="userSpaceOnUse" color-interpolation-filters="sRGB">
<feFlood flood-opacity="0" result="BackgroundImageFix"/>
<feOffset dx="3.55644" dy="3.55644"/>
<feGaussianBlur stdDeviation="6.60481"/>
<feComposite in2="hardAlpha" operator="out"/>
<feBlend mode="normal" in2="BackgroundImageFix" result="effect1_dropShadow_903_25"/>
<feBlend mode="normal" in="SourceGraphic" in2="effect1_dropShadow_903_25" result="shape"/>
</filter>
<filter id="filter22_d_903_25" x="1434" y="1022" width="56.6286" height="67.1061" filterUnits="userSpaceOnUse" color-interpolation-filters="sRGB">
<feFlood flood-opacity="0" result="BackgroundImageFix"/>
<feOffset dx="9.14513" dy="8.63706"/>
<feGaussianBlur stdDeviation="3.81047"/>
<feComposite in2="hardAlpha" operator="out"/>
<feBlend mode="normal" in2="BackgroundImageFix" result="effect1_dropShadow_903_25"/>
<feBlend mode="normal" in="SourceGraphic" in2="effect1_dropShadow_903_25" result="shape"/>
</filter>
<filter id="dropshadow"  filterUnits="userSpaceOnUse" color-interpolation-filters="sRGB">
<feFlood flood-opacity="0" result="BackgroundImageFix"/>
<feColorMatrix in="SourceAlpha" type="matrix" values="0 0 0 0 0 0 0 0 0 0 0 0 0 0 0 0 0 0 127 0" result="hardAlpha"/>
<feOffset dx="9.14513" dy="8.63706"/>
<feGaussianBlur stdDeviation="3.81047"/>
<feComposite in2="hardAlpha" operator="out"/>
<feBlend mode="normal" in2="BackgroundImageFix" result="effect1_dropShadow_903_25"/>
<feBlend mode="normal" in="SourceGraphic" in2="effect1_dropShadow_903_25" result="shape"/>
</filter>
<linearGradient id="paint0_linear_903_25" x1="869.943" y1="934.543" x2="866.269" y2="1437.67" gradientUnits="userSpaceOnUse">
<stop offset="0.03125" stop-color="#F3B34E" stop-opacity="0.02"/>
<stop offset="0.437063" stop-color="#F3B34E" stop-opacity="0.2"/>
<stop offset="0.864583" stop-color="#12BAD6"/>
<stop offset="1" stop-color="#12BAD6" stop-opacity="0.1"/>
</linearGradient>
<linearGradient id="paint1_linear_903_25" x1="870.565" y1="850.13" x2="865.658" y2="1522.05" gradientUnits="userSpaceOnUse">
<stop offset="0.03125" stop-color="#F3B34E" stop-opacity="0.02"/>
<stop offset="0.437063" stop-color="#F3B34E" stop-opacity="0.2"/>
<stop offset="0.864583" stop-color="#12BAD6"/>
<stop offset="1" stop-color="#12BAD6" stop-opacity="0.1"/>
</linearGradient>
<linearGradient id="paint2_linear_903_25" x1="871.177" y1="765.739" x2="865.038" y2="1606.42" gradientUnits="userSpaceOnUse">
<stop offset="0.03125" stop-color="#F3B34E" stop-opacity="0.02"/>
<stop offset="0.437063" stop-color="#F3B34E" stop-opacity="0.2"/>
<stop offset="0.864583" stop-color="#12BAD6"/>
<stop offset="1" stop-color="#12BAD6" stop-opacity="0.1"/>
</linearGradient>
<linearGradient id="paint3_linear_903_25" x1="871.792" y1="681.347" x2="864.42" y2="1690.81" gradientUnits="userSpaceOnUse">
<stop offset="0.03125" stop-color="#F3B34E" stop-opacity="0.02"/>
<stop offset="0.437063" stop-color="#F3B34E" stop-opacity="0.2"/>
<stop offset="0.864583" stop-color="#12BAD6"/>
<stop offset="1" stop-color="#12BAD6" stop-opacity="0.1"/>
</linearGradient>
<linearGradient id="paint4_linear_903_25" x1="872.414" y1="596.977" x2="863.809" y2="1775.18" gradientUnits="userSpaceOnUse">
<stop offset="0.03125" stop-color="#F3B34E" stop-opacity="0.02"/>
<stop offset="0.437063" stop-color="#F3B34E" stop-opacity="0.2"/>
<stop offset="0.864583" stop-color="#12BAD6"/>
<stop offset="1" stop-color="#12BAD6" stop-opacity="0.1"/>
</linearGradient>
<linearGradient id="paint5_linear_903_25" x1="873.031" y1="512.585" x2="863.194" y2="1859.57" gradientUnits="userSpaceOnUse">
<stop offset="0.03125" stop-color="#F3B34E" stop-opacity="0.02"/>
<stop offset="0.437063" stop-color="#F3B34E" stop-opacity="0.2"/>
<stop offset="0.864583" stop-color="#12BAD6"/>
<stop offset="1" stop-color="#12BAD6" stop-opacity="0.1"/>
</linearGradient>
<linearGradient id="paint6_linear_903_25" x1="873.645" y1="428.193" x2="862.575" y2="1943.94" gradientUnits="userSpaceOnUse">
<stop offset="0.03125" stop-color="#F3B34E" stop-opacity="0.02"/>
<stop offset="0.437063" stop-color="#F3B34E" stop-opacity="0.2"/>
<stop offset="0.864583" stop-color="#12BAD6"/>
<stop offset="1" stop-color="#12BAD6" stop-opacity="0.1"/>
</linearGradient>
<linearGradient id="paint7_linear_903_25" x1="874.259" y1="343.801" x2="861.956" y2="2028.31" gradientUnits="userSpaceOnUse">
<stop offset="0.03125" stop-color="#F3B34E" stop-opacity="0.02"/>
<stop offset="0.437063" stop-color="#F3B34E" stop-opacity="0.2"/>
<stop offset="0.864583" stop-color="#12BAD6"/>
<stop offset="1" stop-color="#12BAD6" stop-opacity="0.1"/>
</linearGradient>
<linearGradient id="paint8_linear_903_25" x1="874.881" y1="259.431" x2="861.346" y2="2112.7" gradientUnits="userSpaceOnUse">
<stop offset="0.03125" stop-color="#F3B34E" stop-opacity="0.02"/>
<stop offset="0.437063" stop-color="#F3B34E" stop-opacity="0.2"/>
<stop offset="0.864583" stop-color="#12BAD6"/>
<stop offset="1" stop-color="#12BAD6" stop-opacity="0.1"/>
</linearGradient>
<linearGradient id="paint9_linear_903_25" x1="875.491" y1="175.039" x2="860.723" y2="2197.07" gradientUnits="userSpaceOnUse">
<stop offset="0.03125" stop-color="#F3B34E" stop-opacity="0.02"/>
<stop offset="0.437063" stop-color="#F3B34E" stop-opacity="0.2"/>
<stop offset="0.864583" stop-color="#12BAD6"/>
<stop offset="1" stop-color="#12BAD6" stop-opacity="0.1"/>
</linearGradient>
<linearGradient id="paint10_linear_903_25" x1="876.107" y1="90.6478" x2="860.107" y2="2281.47" gradientUnits="userSpaceOnUse">
<stop offset="0.03125" stop-color="#F3B34E" stop-opacity="0.02"/>
<stop offset="0.437063" stop-color="#F3B34E" stop-opacity="0.2"/>
<stop offset="0.864583" stop-color="#12BAD6"/>
<stop offset="1" stop-color="#12BAD6" stop-opacity="0.1"/>
</linearGradient>
<linearGradient id="paint11_linear_903_25" x1="876.721" y1="6.27719" x2="859.488" y2="2365.84" gradientUnits="userSpaceOnUse">
<stop offset="0.03125" stop-color="#F3B34E" stop-opacity="0.02"/>
<stop offset="0.437063" stop-color="#F3B34E" stop-opacity="0.2"/>
<stop offset="0.864583" stop-color="#12BAD6"/>
<stop offset="1" stop-color="#12BAD6" stop-opacity="0.1"/>
</linearGradient>
<linearGradient id="paint12_linear_903_25" x1="868" y1="1022" x2="868" y2="1388" gradientUnits="userSpaceOnUse">
<stop offset="0.437063" stop-color="#F3B34E"/>
<stop offset="1" stop-color="#12BAD6"/>
</linearGradient>
</defs>
</svg>
