<svg width="136" height="62" viewBox="0 0 136 62" fill="none" xmlns="http://www.w3.org/2000/svg">
<path d="M54.5347 20.8504V20.1834C54.5347 19.9894 54.5994 19.8286 54.7289 19.7009C54.8584 19.5731 55.0214 19.5093 55.218 19.5093H64.3456C64.5421 19.5093 64.7051 19.5731 64.8346 19.7009C64.9641 19.8286 65.0289 19.9894 65.0289 20.1834V20.8504C65.0289 21.0443 64.9641 21.2052 64.8346 21.3329C64.7051 21.4559 64.5421 21.5174 64.3456 21.5174H61.1377V29.032C61.1377 29.2165 61.0703 29.3726 60.9362 29.5003C60.8067 29.6233 60.6483 29.6848 60.4613 29.6848H59.1019C58.9149 29.6848 58.7545 29.6233 58.6201 29.5003C58.4906 29.3726 58.4258 29.2165 58.4258 29.032V21.5174H55.218C55.0214 21.5174 54.8584 21.4559 54.7289 21.3329C54.5994 21.2052 54.5347 21.0443 54.5347 20.8504ZM76.9186 29.3797C76.9186 29.5831 76.7964 29.6848 76.5518 29.6848H74.8253C74.6432 29.6848 74.4417 29.6209 74.2212 29.4932C74.0052 29.3607 73.8399 29.2023 73.7249 29.0178L72.5022 27.1303C71.9987 26.3545 71.3897 25.9665 70.6751 25.9665H68.92V29.0178C68.92 29.2023 68.853 29.3607 68.7189 29.4932C68.5894 29.6209 68.431 29.6848 68.2439 29.6848H66.8918C66.7048 29.6848 66.544 29.6209 66.41 29.4932C66.2755 29.3607 66.2085 29.2023 66.2085 29.0178V20.1834C66.2085 19.9989 66.2732 19.8404 66.4027 19.708C66.5322 19.5755 66.6903 19.5093 66.8773 19.5093H72.8115C73.9096 19.5093 74.8085 19.8002 75.5086 20.3821C76.2136 20.9639 76.5659 21.7492 76.5659 22.7379C76.5659 24.1145 75.6621 24.9778 73.8544 25.3279C74.142 25.432 74.4082 25.6117 74.6527 25.8672C74.8973 26.1179 75.178 26.4846 75.4945 26.9671L76.8032 29.0178C76.8802 29.1502 76.9186 29.2709 76.9186 29.3797ZM68.92 23.9584H71.9842C72.4783 23.9584 72.9121 23.8614 73.2861 23.6675C73.6651 23.4735 73.8544 23.1636 73.8544 22.7379C73.8544 22.3121 73.6651 22.0023 73.2861 21.8084C72.9121 21.6144 72.4783 21.5174 71.9842 21.5174H68.92V23.9584ZM77.976 25.6614V20.1834C77.976 19.9989 78.0407 19.8404 78.1698 19.708C78.3043 19.5755 78.4696 19.5093 78.6661 19.5093H80.0114C80.1935 19.5093 80.3519 19.5755 80.486 19.708C80.6205 19.8404 80.6875 19.9989 80.6875 20.1834V25.6756C80.6875 26.371 80.841 26.889 81.148 27.2296C81.4596 27.5702 81.9391 27.7405 82.5862 27.7405H83.7373C84.3844 27.7405 84.8617 27.5702 85.1686 27.2296C85.4802 26.889 85.636 26.371 85.636 25.6756V20.1834C85.636 19.9989 85.7007 19.8404 85.8302 19.708C85.9647 19.5755 86.1251 19.5093 86.3121 19.5093H87.6501C87.8467 19.5093 88.012 19.5755 88.1464 19.708C88.2805 19.8404 88.3479 19.9989 88.3479 20.1834V25.6614C88.3479 26.9576 87.9617 27.9629 87.1896 28.6772C86.4176 29.3868 85.2909 29.7416 83.8093 29.7416H82.5146C81.028 29.7416 79.8987 29.3868 79.1266 28.6772C78.3595 27.9629 77.976 26.9576 77.976 25.6614ZM89.6711 27.0806C89.6711 26.8015 89.7553 26.6028 89.9229 26.4846C90.0908 26.3616 90.2539 26.3001 90.4123 26.3001H91.2682C91.6997 26.3001 92.028 26.5319 92.2535 26.9955C92.479 27.459 92.9848 27.6908 93.771 27.6908L96.2886 27.7405C97.1327 27.7405 97.5547 27.4685 97.5547 26.9245C97.5547 26.5129 97.039 26.1889 96.0079 25.9524C95.5478 25.8435 95.0393 25.7371 94.4832 25.633C93.9271 25.5242 93.3733 25.3894 92.8218 25.2286C92.2752 25.0677 91.7717 24.8785 91.3112 24.6609C90.8507 24.4433 90.4767 24.1453 90.1891 23.7668C89.9061 23.3837 89.7648 22.9342 89.7648 22.4186C89.7648 21.4677 90.1076 20.7369 90.7932 20.226C91.4792 19.7103 92.6588 19.4525 94.332 19.4525L96.1591 19.4951C97.1422 19.4951 98.027 19.7458 98.8132 20.2472C99.6046 20.744 100 21.366 100 22.1135C100 22.3926 99.9162 22.5936 99.7482 22.7166C99.5806 22.8396 99.4199 22.9011 99.2664 22.9011H98.4106C97.979 22.9011 97.6503 22.6693 97.4252 22.2057C97.1997 21.7374 96.6939 21.5032 95.9074 21.5032L93.7424 21.4606C92.8984 21.4606 92.4763 21.7326 92.4763 22.2767C92.4763 22.5747 92.7426 22.8183 93.2747 23.0076C93.8117 23.1968 94.4592 23.3647 95.2168 23.5114C95.9794 23.6533 96.7442 23.826 97.5113 24.0294C98.2788 24.2328 98.9282 24.5686 99.4607 25.037C99.9977 25.5006 100.266 26.0801 100.266 26.7755C100.266 27.7263 99.9212 28.4596 99.2306 28.9752C98.5446 29.4861 97.3677 29.7416 95.6986 29.7416L93.5196 29.699C92.5365 29.699 91.6494 29.4506 90.858 28.9539C90.0669 28.4525 89.6711 27.828 89.6711 27.0806ZM100.64 20.8504V20.1834C100.64 19.9894 100.705 19.8286 100.835 19.7009C100.964 19.5731 101.127 19.5093 101.324 19.5093H110.451C110.648 19.5093 110.811 19.5731 110.94 19.7009C111.07 19.8286 111.134 19.9894 111.134 20.1834V20.8504C111.134 21.0443 111.07 21.2052 110.94 21.3329C110.811 21.4559 110.648 21.5174 110.451 21.5174H107.243V29.032C107.243 29.2165 107.176 29.3726 107.042 29.5003C106.912 29.6233 106.754 29.6848 106.567 29.6848H105.207C105.02 29.6848 104.86 29.6233 104.726 29.5003C104.596 29.3726 104.531 29.2165 104.531 29.032V21.5174H101.324C101.127 21.5174 100.964 21.4559 100.835 21.3329C100.705 21.2052 100.64 21.0443 100.64 20.8504ZM112.314 29.0036V20.1692C112.314 19.9847 112.381 19.8286 112.516 19.7009C112.65 19.5731 112.81 19.5093 112.997 19.5093H121.291C121.478 19.5093 121.636 19.5755 121.765 19.708C121.9 19.8404 121.967 19.9989 121.967 20.1834V20.8504C121.967 21.0349 121.9 21.1934 121.765 21.3258C121.636 21.4535 121.478 21.5174 121.291 21.5174H115.026V23.5823H120.42C120.608 23.5823 120.766 23.6486 120.895 23.781C121.03 23.9087 121.097 24.0649 121.097 24.2493V24.9164C121.097 25.1009 121.03 25.2593 120.895 25.3918C120.766 25.5195 120.608 25.5834 120.42 25.5834H115.026V27.6766H121.276C121.458 27.6766 121.615 27.7405 121.744 27.8682C121.873 27.996 121.938 28.1521 121.938 28.3366V29.0178C121.938 29.2023 121.871 29.3607 121.737 29.4932C121.602 29.6209 121.442 29.6848 121.255 29.6848H112.997C112.81 29.6848 112.65 29.6209 112.516 29.4932C112.381 29.3607 112.314 29.1976 112.314 29.0036ZM123.29 29.032V20.1976C123.29 20.0036 123.358 19.8404 123.492 19.708C123.626 19.5755 123.787 19.5093 123.974 19.5093H127.994C130.076 19.5093 131.588 19.9208 132.533 20.744C133.483 21.5624 133.957 22.8491 133.957 24.6041C133.957 26.3545 133.483 27.6388 132.533 28.4572C131.588 29.2756 130.076 29.6848 127.994 29.6848H123.974C123.787 29.6848 123.626 29.6233 123.492 29.5003C123.358 29.3726 123.29 29.2165 123.29 29.032ZM126.002 27.6766H127.915C129.205 27.6766 130.083 27.4449 130.548 26.9813C131.013 26.5177 131.246 25.7253 131.246 24.6041C131.246 23.4783 131.013 22.6835 130.548 22.2199C130.083 21.7516 129.205 21.5174 127.915 21.5174H126.002V27.6766Z" fill="white"/>
<path d="M56.3152 44.6306C56.3152 44.3514 56.399 44.1526 56.567 44.0342C56.7345 43.9114 56.8976 43.8497 57.056 43.8497H57.9119C58.3434 43.8497 58.6717 44.0816 58.8972 44.5453C59.1227 45.009 59.6285 45.2408 60.4151 45.2408L62.9323 45.2904C63.7764 45.2904 64.1984 45.0184 64.1984 44.4743C64.1984 44.0628 63.6827 43.7385 62.652 43.5022C62.1915 43.3932 61.6834 43.2869 61.1269 43.1828C60.5708 43.0742 60.017 42.9393 59.4655 42.7785C58.9189 42.6176 58.4154 42.4283 57.9549 42.2107C57.4948 41.9931 57.1208 41.6952 56.8328 41.3168C56.5502 40.9335 56.4085 40.4841 56.4085 39.9685C56.4085 39.0175 56.7513 38.2867 57.4373 37.7756C58.1229 37.2601 59.3025 37.0023 60.9761 37.0023L62.8028 37.0449C63.7859 37.0449 64.6707 37.2956 65.4572 37.797C66.2483 38.2938 66.6437 38.9157 66.6437 39.6634C66.6437 39.9422 66.5599 40.1433 66.3919 40.2665C66.2243 40.3894 66.0636 40.451 65.9101 40.451H65.0543C64.6227 40.451 64.2944 40.2192 64.0689 39.7555C63.8434 39.2873 63.3376 39.0532 62.5511 39.0532L60.3861 39.0104C59.5421 39.0104 59.12 39.2824 59.12 39.8265C59.12 40.1245 59.3863 40.368 59.9188 40.5574C60.4558 40.7467 61.1029 40.9143 61.8605 41.0613C62.6231 41.2029 63.3879 41.3758 64.155 41.579C64.9225 41.7827 65.5723 42.1186 66.1044 42.5868C66.6414 43.0505 66.9099 43.6299 66.9099 44.3255C66.9099 45.2761 66.5649 46.0092 65.8743 46.5251C65.1887 47.0358 64.0114 47.2913 62.3427 47.2913L60.1633 47.2488C59.1802 47.2488 58.2931 47.0005 57.502 46.5037C56.7105 46.0025 56.3152 45.378 56.3152 44.6306ZM68.3844 46.5533V37.7189C68.3844 37.5345 68.4518 37.3784 68.5858 37.2507C68.7203 37.1229 68.8807 37.0591 69.0677 37.0591H77.3611C77.5481 37.0591 77.7062 37.1253 77.8357 37.2578C77.9701 37.3902 78.0372 37.5487 78.0372 37.7332V38.4001C78.0372 38.5846 77.9701 38.7432 77.8357 38.8755C77.7062 39.0032 77.5481 39.0671 77.3611 39.0671H71.0963V41.1323H76.4908C76.6778 41.1323 76.8359 41.1984 76.9654 41.3307C77.0998 41.4584 77.1669 41.6147 77.1669 41.7992V42.4662C77.1669 42.6507 77.0998 42.8093 76.9654 42.9415C76.8359 43.0693 76.6778 43.1332 76.4908 43.1332H71.0963V45.2265H77.3466C77.5291 45.2265 77.6849 45.2904 77.8144 45.4182C77.9439 45.5459 78.0086 45.7019 78.0086 45.8863V46.5676C78.0086 46.7521 77.9412 46.9107 77.8071 47.0429C77.6727 47.1707 77.5123 47.2346 77.3253 47.2346H69.0677C68.8807 47.2346 68.7203 47.1707 68.5858 47.0429C68.4518 46.9107 68.3844 46.7472 68.3844 46.5533ZM79.3608 46.5533V37.7189C79.3608 37.5345 79.4278 37.3784 79.5622 37.2507C79.6963 37.1229 79.8571 37.0591 80.0441 37.0591H88.3371C88.5241 37.0591 88.6826 37.1253 88.8121 37.2578C88.9462 37.3902 89.0136 37.5487 89.0136 37.7332V38.4001C89.0136 38.5846 88.9462 38.7432 88.8121 38.8755C88.6826 39.0032 88.5241 39.0671 88.3371 39.0671H82.0723V41.1323H87.4668C87.6538 41.1323 87.8123 41.1984 87.9418 41.3307C88.0758 41.4584 88.1433 41.6147 88.1433 41.7992V42.4662C88.1433 42.6507 88.0758 42.8093 87.9418 42.9415C87.8123 43.0693 87.6538 43.1332 87.4668 43.1332H82.0723V45.2265H88.323C88.5051 45.2265 88.6609 45.2904 88.7904 45.4182C88.9199 45.5459 88.9846 45.7019 88.9846 45.8863V46.5676C88.9846 46.7521 88.9176 46.9107 88.7831 47.0429C88.6491 47.1707 88.4883 47.2346 88.3013 47.2346H80.0441C79.8571 47.2346 79.6963 47.1707 79.5622 47.0429C79.4278 46.9107 79.3608 46.7472 79.3608 46.5533ZM90.3368 46.5819V37.7474C90.3368 37.5534 90.4042 37.3902 90.5383 37.2578C90.6727 37.1253 90.8331 37.0591 91.0201 37.0591H95.0411C97.1219 37.0591 98.6348 37.4706 99.5798 38.2938C100.529 39.1122 101.004 40.3988 101.004 42.154C101.004 43.9042 100.529 45.1886 99.5798 46.007C98.6348 46.8254 97.1219 47.2346 95.0411 47.2346H91.0201C90.8331 47.2346 90.6727 47.1729 90.5383 47.0501C90.4042 46.9223 90.3368 46.7664 90.3368 46.5819ZM93.0487 45.2265H94.9619C96.2516 45.2265 97.1291 44.9947 97.5942 44.531C98.0597 44.0673 98.292 43.2752 98.292 42.154C98.292 41.0282 98.0597 40.2335 97.5942 39.7698C97.1291 39.3012 96.2516 39.0671 94.9619 39.0671H93.0487V45.2265Z" fill="white"/>
<path d="M29.1418 56.4418L36.9716 47.3083C37.2303 49.3152 36.932 54.0347 29.1418 56.4418ZM22.1835 54.3248V25.7882C19.5327 27.7968 9.96636 36.7638 22.1835 54.3248ZM23.4266 25.7882V54.3248C35.6431 36.7638 26.0767 27.7968 23.4266 25.7882ZM22.1835 19.6901V0C21.3787 0.439024 19.8458 1.40995 17.8973 3.28349V14.6736C17.8966 14.9216 17.9456 15.1672 18.0416 15.3963C18.1376 15.6254 18.2788 15.8334 18.4567 16.0083L22.1835 19.6901ZM43.9879 35.205C43.0326 31.7227 42.0187 28.5743 40.972 25.726V39.7863L44.3215 36.4767C44.2172 36.0592 44.1071 35.6363 43.9879 35.205ZM39.7288 36.6072V22.5154C37.5893 17.2717 35.3595 13.1915 33.2478 10.0301V29.7064C33.2487 29.9502 33.2992 30.1914 33.3964 30.4155C33.4935 30.6397 33.6354 30.8423 33.8134 31.0112L39.7288 36.6072ZM28.1915 55.6497L36.1668 46.3486C34.3744 46.3617 29.1977 47.1478 28.1915 55.6497ZM27.6415 6.69976V3.21594C25.7271 1.38615 24.223 0.433654 23.4266 0V11.4592L27.2158 7.7152C27.3513 7.58226 27.4587 7.42403 27.5318 7.24968C27.6049 7.07537 27.6422 6.88843 27.6415 6.69976ZM10.5941 30.4163V23.636L6.94258 20.0286C6.50079 21.0233 6.06052 22.0656 5.62181 23.1555V36.1022L10.0425 31.7342C10.2182 31.5621 10.3573 31.3573 10.452 31.1316C10.5467 30.9058 10.5951 30.6638 10.5941 30.4194V30.4163ZM9.54606 46.5105L17.6028 55.7004C16.446 47.3789 11.4666 46.5252 9.54606 46.5135V46.5105ZM16.5858 56.4155L8.63238 47.3473C8.38923 49.2584 8.61997 54.1283 16.5858 56.4185V56.4155ZM44.6548 37.882L40.9579 41.5332C40.8901 42.3434 40.5675 43.1125 40.0358 43.7329L37.994 46.1122C38.179 46.7446 38.7911 49.3606 37.2622 52.1367C35.7775 54.8321 32.7995 56.7777 28.4114 57.9208L27.7899 58.082L27.7526 58.0512L25.4879 60.6931C25.3638 61.0136 25.1819 61.3094 24.951 61.5656C25.2944 61.5942 25.6502 61.6224 26.0014 61.6502C26.3844 61.6915 27.0347 61.749 27.8707 61.7723C28.0611 61.7806 28.2141 61.7836 28.3143 61.7806C34.6354 61.8542 49.4997 59.7657 44.6548 37.885V37.882ZM20.0012 60.3117L18.0123 58.0429L17.4272 57.9046C13.0127 56.8653 9.98895 54.988 8.44053 52.3284C6.71187 49.3595 7.50279 46.5184 7.59835 46.2043L7.60761 46.1746L5.45247 43.7183C4.76013 42.9284 4.37894 41.9188 4.37871 40.8738V26.4375C3.42388 29.097 2.49779 32.0105 1.62063 35.205C-5.1293 59.7951 10.9787 61.8918 17.4482 61.7851L17.5127 61.7806C17.6976 61.7806 17.8747 61.7723 18.0425 61.7652C18.6944 61.7449 19.3448 61.6911 19.9911 61.6047V61.5934L20.6367 61.545C20.3256 61.1929 20.1073 60.7701 20.0012 60.3147V60.3117ZM25.522 58.7602L26.8048 57.2636L26.8482 56.6451C27.166 52.1841 28.5404 48.9353 30.9341 46.9896C32.4223 45.7827 34.2872 45.1213 36.2126 45.1176C36.4522 45.1161 36.6916 45.1289 36.9296 45.1559L37.1627 45.186L39.0893 42.9393C39.5029 42.4565 39.7299 41.8444 39.7303 41.2116V38.3044L32.9541 31.9046C32.6546 31.6207 32.4162 31.28 32.2531 30.903C32.0899 30.5259 32.0054 30.1203 32.0047 29.7102V8.25246C31.0428 6.93122 30.0008 5.66864 28.8846 4.47163V6.69743C28.8854 7.04745 28.8162 7.3942 28.6807 7.71761C28.5452 8.04102 28.3462 8.33472 28.0952 8.58174L23.4266 13.1938V24.2861L23.4764 24.3176C23.7351 24.478 25.0986 25.3668 26.5841 27.0661C27.4458 28.0504 28.1898 29.1295 28.8014 30.282C29.5554 31.7053 30.0964 33.2291 30.4073 34.8059C30.9737 37.6633 30.8098 40.7464 29.9217 43.9693C28.8822 47.7396 26.8304 51.7535 23.8237 55.9015L23.4523 56.414H23.4266V56.9145C23.9065 57.0208 24.3508 57.2463 24.7175 57.5698C25.0843 57.8937 25.3611 58.3044 25.522 58.7636V58.7602ZM8.52981 45.3509L8.60751 45.3393C8.90483 45.2987 9.20478 45.2795 9.50492 45.2818C11.4389 45.2844 13.3122 45.9488 14.8066 47.1613C17.1491 49.0679 18.546 52.2401 18.9601 56.5906L19.0199 57.2177L18.9718 57.2591L20.1496 58.6032C20.327 58.1812 20.6046 57.8073 20.9588 57.5135C21.3131 57.2196 21.7337 57.0141 22.1851 56.9145V56.414H22.1587L21.7873 55.9015C18.7807 51.7569 16.7288 47.7396 15.6892 43.9693C14.8012 40.7456 14.6373 37.6633 15.2037 34.8059C15.5146 33.2291 16.0556 31.7053 16.8096 30.282C17.4212 29.1295 18.1652 28.0504 19.0269 27.0661C20.5124 25.3668 21.8759 24.478 22.1346 24.3176L22.1851 24.2861V21.424L17.5795 16.8741C17.2856 16.5856 17.0526 16.2423 16.894 15.8642C16.7355 15.4861 16.6544 15.0806 16.6557 14.6713V4.54685C15.1857 6.12259 13.548 8.17494 11.8387 10.8298V30.4194C11.8398 30.8251 11.7595 31.2269 11.6024 31.6017C11.4453 31.9765 11.2146 32.3168 10.9236 32.603L5.62181 37.8384V40.8753C5.62193 41.6249 5.89529 42.349 6.39174 42.9156L8.52981 45.3509ZM10.5941 12.8538C9.56396 14.6114 8.51896 16.5939 7.48645 18.8267L10.5941 21.8968V12.8538ZM24.8896 59.4933C24.8857 59.452 24.881 59.4114 24.8748 59.3704C24.8288 59.068 24.7146 58.7794 24.5407 58.5261C24.4656 58.416 24.38 58.3134 24.2851 58.2191C24.0695 58.0061 23.8095 57.8419 23.523 57.7382C23.4258 57.7028 23.3261 57.6747 23.2247 57.6544C23.1905 57.6476 23.1555 57.6412 23.1213 57.636C23.0511 57.6251 22.9802 57.6183 22.9092 57.6153C22.8734 57.6153 22.8377 57.6153 22.802 57.6153C22.5558 57.6149 22.3115 57.6577 22.0802 57.7412C22.0163 57.7633 21.9535 57.7893 21.8922 57.8178C21.8308 57.8471 21.7718 57.8791 21.7135 57.9136C21.6553 57.9482 21.6001 57.9858 21.5465 58.0252C21.4924 58.0658 21.4406 58.1094 21.3911 58.1556C21.3422 58.1988 21.2958 58.2447 21.252 58.2928C21.2295 58.3176 21.2078 58.342 21.186 58.3698C21.1643 58.3972 21.1269 58.4465 21.0997 58.4818C21.0725 58.5171 21.0539 58.5464 21.0321 58.5799C21.0104 58.6137 20.9934 58.6422 20.9747 58.6745C20.9382 58.7384 20.9053 58.8042 20.876 58.8718C20.8615 58.9053 20.8475 58.9398 20.834 58.9752C20.7968 59.077 20.7674 59.1811 20.7462 59.287C20.7408 59.3152 20.7354 59.3438 20.7315 59.372C20.7207 59.4411 20.7134 59.511 20.7097 59.5809C20.7097 59.6162 20.7097 59.6515 20.7097 59.6876C20.7097 59.7237 20.7097 59.759 20.7097 59.7943C20.7254 60.1126 20.8162 60.4229 20.9747 60.7006C20.9934 60.7329 21.0119 60.7645 21.0321 60.7949C21.0524 60.8258 21.0757 60.8611 21.0997 60.8934C21.1238 60.9257 21.1557 60.97 21.186 61.0054C21.2163 61.0407 21.2295 61.0561 21.252 61.082C21.2958 61.1305 21.3422 61.1763 21.3911 61.2196C21.4406 61.2658 21.4924 61.3094 21.5465 61.3499C21.6001 61.389 21.6561 61.4266 21.7135 61.4612L21.7213 61.466C21.7765 61.4987 21.8339 61.5288 21.8922 61.5574C21.9535 61.5859 22.0163 61.6115 22.0802 61.634C22.3115 61.7174 22.5558 61.7599 22.802 61.7599C22.8377 61.7599 22.8734 61.7599 22.9092 61.7599C22.9802 61.7569 23.0511 61.7497 23.1213 61.7392C23.1555 61.7336 23.1905 61.7276 23.2247 61.7208C23.3261 61.7001 23.4258 61.6723 23.523 61.637C23.5815 61.6156 23.639 61.5919 23.6955 61.5656C23.7514 61.5397 23.8058 61.5111 23.8594 61.4796C23.8983 61.4574 23.9371 61.4337 23.9744 61.4089C24.1447 61.2958 24.2971 61.1583 24.4266 61.0009C24.467 60.9516 24.5042 60.9017 24.5407 60.8472C24.7537 60.5349 24.8768 60.1712 24.8966 59.7951C24.8966 59.7597 24.8966 59.7244 24.8966 59.6883C24.8966 59.6523 24.8966 59.6169 24.8966 59.5816C24.8966 59.5463 24.8958 59.5249 24.8896 59.4963V59.4933Z" fill="url(#paint0_linear_452_33)"/>
<defs>
<linearGradient id="paint0_linear_452_33" x1="22.8044" y1="0" x2="22.8044" y2="61.7888" gradientUnits="userSpaceOnUse">
<stop offset="0.437063" stop-color="#F3B34E"/>
<stop offset="1" stop-color="#12BAD6"/>
</linearGradient>
</defs>
</svg>
