<svg width="4058" height="5461" viewBox="0 0 4058 5461" fill="none" xmlns="http://www.w3.org/2000/svg">
<g opacity="0.6">
<path opacity="0.4" d="M2851.18 1994.36C2849.81 1994.35 2848.18 1994.28 2846.29 1994.19L2845.32 1994.13C2828.85 1993.56 2818.16 1992.36 2814.28 1991.85C2790.61 1989.87 2764.41 1987.29 2761.6 1987L2715.35 1990.24C2704.56 1991.61 2693.7 1992.44 2682.83 1992.71L2674 1992.88L2673 1992.87C2611.71 1993.45 2499.15 1981.67 2433.73 1896.29C2374.86 1819.44 2367.31 1700.69 2411.32 1543.32C2443.81 1427.28 2482.72 1323.95 2526.98 1236.22C2562.44 1165.97 2601.38 1105.48 2642.73 1056.45C2679.61 1012.74 2711.62 986.376 2731.99 971.967C2754.2 956.257 2767.54 950.994 2768.09 950.761L2769.2 950.349L2770.27 950.777C2770.82 951.018 2784.08 956.475 2806.06 972.508C2826.21 987.213 2857.84 1014.04 2894.07 1058.29C2934.7 1107.91 2972.75 1168.97 3007.18 1239.72C3050.16 1328.09 3087.56 1431.98 3118.34 1548.48C3159.97 1706.03 3150.91 1824.48 3091.36 1900.46C3062.4 1937.43 3021.71 1963.94 2970.43 1979.3C2926.06 1992.59 2882.08 1994.79 2852.97 1994.32C2852.41 1994.37 2851.84 1994.36 2851.18 1994.36ZM2761.69 1981.09L2761.93 1981.09C2762.22 1981.12 2789.95 1983.9 2814.82 1985.97L2814.98 1985.97C2818.73 1986.47 2829.23 1987.65 2845.55 1988.25L2846.6 1988.25C2849.15 1988.38 2851.38 1988.5 2852.69 1988.4L2857 1988.43C2917.54 1988.88 3023.87 1976.99 3086.74 1896.8C3145.07 1822.31 3153.8 1705.62 3112.66 1549.91C3043.28 1287.44 2953.25 1139.95 2889.94 1062.46C2854.13 1018.61 2822.87 992.05 2802.98 977.504C2784.94 964.286 2772.71 958.284 2769.15 956.655C2765.54 958.232 2753.22 964.055 2735 977.008C2714.9 991.261 2683.28 1017.36 2646.8 1060.69C2582.36 1137.29 2490.19 1283.46 2416.99 1544.89C2373.49 1700.39 2380.7 1817.41 2438.39 1892.7C2502.26 1976.07 2612.76 1987.57 2672.96 1987.01L2673.99 1987.02L2682.69 1986.82C2693.39 1986.55 2704.07 1985.74 2714.69 1984.4L2714.84 1984.4L2761.69 1981.09Z" fill="url(#paint0_linear_921_39)"/>
<path opacity="0.5" d="M2868.47 2099.23C2866.84 2099.21 2864.89 2099.12 2862.63 2099L2861.45 2098.94C2841.67 2098.24 2828.86 2096.81 2824.18 2096.2C2795.64 2093.81 2764 2090.69 2760.84 2090.37L2705.21 2094.25C2692.26 2095.91 2679.22 2096.9 2666.17 2097.22L2655.58 2097.44L2654.37 2097.43C2651.5 2097.46 2648.56 2097.46 2645.51 2097.44C2570.39 2096.89 2442.67 2080.01 2367.21 1981.55C2296.56 1889.32 2287.51 1746.75 2340.37 1557.81C2379.39 1418.37 2426.15 1294.26 2479.34 1188.86C2521.93 1104.45 2568.71 1031.82 2618.38 972.897C2637.92 949.732 2657.94 928.672 2677.94 910.292C2693.94 895.562 2709.96 882.488 2725.55 871.486C2752.17 852.629 2768.14 846.308 2768.83 846.05L2769.96 845.611L2771.06 846.066C2771.74 846.334 2787.62 852.888 2813.97 872.132C2829.39 883.36 2845.22 896.667 2861.01 911.629C2880.74 930.299 2900.45 951.649 2919.64 975.098C2968.45 1034.74 3014.16 1108.04 3055.51 1193.07C3107.16 1299.24 3152.1 1424.02 3189.08 1564C3239.07 1753.2 3228.18 1895.36 3156.72 1986.58C3122 2030.89 3073.18 2062.72 3011.66 2081.14C2987.9 2088.25 2962.22 2093.34 2935.29 2096.27C2913.81 2098.58 2892.22 2099.55 2870.62 2099.16C2869.96 2099.21 2869.25 2099.23 2868.47 2099.23ZM2760.92 2084.25L2761.18 2084.25C2761.52 2084.28 2794.87 2087.6 2824.75 2090.1L2824.91 2090.11C2829.43 2090.69 2842.06 2092.12 2861.68 2092.82L2862.94 2092.88C2866.04 2093.03 2868.72 2093.16 2870.32 2093.04L2870.59 2093.04C2942.45 2094.25 3074.56 2081.52 3151.91 1982.78C3222.12 1893.16 3232.63 1752.76 3183.18 1565.54C3099.77 1249.96 2991.51 1072.67 2915.35 979.507C2872.27 926.795 2834.72 894.856 2810.78 877.338C2788.77 861.253 2773.95 854.049 2769.89 852.233C2765.83 853.99 2750.9 860.95 2728.66 876.738C2704.47 893.905 2666.45 925.292 2622.6 977.369C2545.1 1069.41 2434.26 1245.1 2346.25 1559.45C2293.95 1746.46 2302.62 1887.21 2372.04 1977.82C2445.94 2074.25 2571.59 2090.8 2645.56 2091.34C2648.59 2091.37 2651.5 2091.36 2654.31 2091.33L2655.57 2091.34L2666.03 2091.1C2678.9 2090.8 2691.75 2089.84 2704.52 2088.2L2704.7 2088.2L2760.92 2084.25Z" fill="url(#paint1_linear_921_39)"/>
<path opacity="0.6" d="M2885.78 2204.07C2883.89 2204.06 2881.63 2203.96 2878.98 2203.84L2877.61 2203.75C2854.52 2202.95 2839.52 2201.26 2834.09 2200.54C2800.66 2197.75 2763.58 2194.09 2760.06 2193.75L2695.07 2198.29C2679.95 2200.21 2664.74 2201.36 2649.51 2201.74L2637.13 2201.99L2635.71 2201.98C2632.37 2202.04 2628.93 2202.04 2625.41 2202.01C2537.75 2201.37 2388.71 2181.68 2300.68 2066.81C2218.27 1959.23 2207.74 1792.84 2269.42 1572.27C2293.22 1487.2 2319.75 1406.27 2348.22 1331.74C2374.1 1263.95 2402.19 1199.96 2431.68 1141.47C2481.38 1042.95 2536 958.132 2594 889.367C2616.8 862.336 2640.21 837.727 2663.51 816.27C2682.22 799.064 2700.91 783.828 2719.08 770.979C2750.14 749.001 2768.75 741.648 2769.54 741.338L2770.7 740.9L2771.88 741.355C2772.64 741.676 2791.14 749.301 2821.9 771.73C2839.88 784.843 2858.35 800.35 2876.77 817.828C2899.79 839.622 2922.81 864.571 2945.24 891.932C3002.23 961.537 3055.58 1047.15 3103.86 1146.38C3132.49 1205.29 3159.64 1269.69 3184.53 1337.85C3211.91 1412.79 3237.23 1494.09 3259.81 1579.5C3318.16 1800.34 3305.47 1966.27 3222.1 2072.67C3181.57 2124.38 3124.64 2161.48 3052.88 2182.98C3025.15 2191.27 2995.17 2197.2 2963.77 2200.62C2938.7 2203.32 2913.49 2204.45 2888.28 2204.01C2887.51 2204.06 2886.7 2204.08 2885.78 2204.07ZM2760.16 2187.39L2760.42 2187.39C2760.82 2187.42 2799.76 2191.3 2834.69 2194.21L2834.85 2194.21C2840.12 2194.91 2854.91 2196.59 2877.84 2197.39L2879.28 2197.45C2882.94 2197.64 2886.06 2197.79 2887.96 2197.65L2888.24 2197.65C2972.24 2199.05 3126.66 2184.15 3217.11 2068.72C3299.2 1963.94 3311.49 1799.9 3253.7 1581.08C3156.25 1212.43 3029.73 1005.31 2940.79 896.498C2890.44 834.903 2846.54 797.61 2818.58 777.145C2792.59 758.141 2775.18 749.762 2770.65 747.732C2766.12 749.696 2748.58 757.793 2722.3 776.442C2694.03 796.496 2649.62 833.144 2598.38 893.997C2507.83 1001.49 2378.33 1206.75 2275.5 1573.99C2214.39 1792.52 2224.57 1957.04 2305.7 2062.95C2392.09 2175.69 2538.98 2195.05 2625.43 2195.68C2628.95 2195.7 2632.36 2195.7 2635.67 2195.67L2637.12 2195.69L2649.37 2195.41C2664.41 2195.06 2679.43 2193.92 2694.35 2191.98L2694.54 2191.98L2760.16 2187.39Z" fill="url(#paint2_linear_921_39)"/>
<path opacity="0.7" d="M2903.09 2308.94C2900.94 2308.92 2898.34 2308.8 2895.32 2308.65L2893.74 2308.56C2867.34 2307.63 2850.22 2305.69 2844 2304.91C2805.68 2301.68 2763.14 2297.49 2759.31 2297.12L2684.93 2302.3C2667.65 2304.51 2650.26 2305.83 2632.84 2306.26L2618.7 2306.57L2617.05 2306.56C2613.27 2306.59 2609.32 2306.58 2605.28 2306.55C2505.08 2305.82 2334.76 2283.32 2234.18 2152.06C2213.28 2124.77 2196.16 2093.66 2183.37 2059.64C2169.53 2022.86 2160.37 1981.69 2156.1 1937.28C2151.53 1889.71 2152.49 1837.13 2158.95 1781.02C2165.82 1721.29 2179.12 1655.93 2198.44 1586.75C2225.69 1489.46 2256.01 1396.9 2288.56 1311.68C2318.17 1234.17 2350.29 1160.98 2384.02 1094.11C2440.86 981.455 2503.32 884.447 2569.62 805.835C2595.7 774.913 2622.45 746.781 2649.12 722.248C2670.47 702.591 2691.83 685.193 2712.61 670.472C2748.12 645.347 2769.38 636.988 2770.25 636.627L2771.47 636.163L2772.67 636.644C2773.56 637.019 2794.68 645.687 2829.81 671.328C2850.38 686.351 2871.48 704.059 2892.54 724.026C2918.88 748.946 2945.21 777.466 2970.81 808.765C3035.98 888.337 3096.99 986.247 3152.18 1099.72C3184.93 1167.08 3215.98 1240.72 3244.45 1318.66C3275.75 1404.34 3304.71 1497.34 3330.54 1595.02C3397.23 1847.49 3382.73 2037.16 3287.45 2158.76C3241.17 2217.83 3176.11 2260.24 3094.1 2284.79C3062.42 2294.28 3028.16 2301.08 2992.23 2304.99C2963.56 2308.08 2934.73 2309.37 2905.91 2308.85C2905.06 2308.93 2904.14 2308.95 2903.09 2308.94ZM2759.41 2290.52L2759.7 2290.52C2760.14 2290.58 2804.68 2295 2844.62 2298.34L2844.78 2298.34C2850.82 2299.12 2867.73 2301.06 2893.97 2301.96L2894.03 2301.96L2895.63 2302.05C2899.96 2302.27 2903.4 2302.42 2905.61 2302.28L2912.44 2302.33C3009.88 2303.04 3181.06 2283.88 3282.31 2154.67C3376.26 2034.77 3390.35 1846.99 3324.2 1596.66C3212.6 1174.4 3067.68 937.367 2965.76 812.854C2908.15 742.482 2857.93 699.913 2825.96 676.582C2796.11 654.816 2776.34 645.396 2771.41 643.179C2766.43 645.323 2746.29 654.583 2715.96 676.094C2683.63 699.008 2632.79 740.944 2574.16 810.546C2470.57 933.61 2322.38 1168.42 2204.76 1588.53C2134.85 1838.58 2146.48 2026.84 2239.38 2148.08C2338.27 2277.14 2506.37 2299.29 2605.32 2300.01C2609.34 2300.04 2613.23 2300.04 2617.04 2299.99L2618.7 2300L2632.68 2299.71C2649.91 2299.3 2667.1 2297.99 2684.19 2295.78L2684.37 2295.78L2759.41 2290.52Z" fill="url(#paint3_linear_921_39)"/>
<path opacity="0.6" d="M2920.41 2413.78C2917.96 2413.77 2915.05 2413.64 2911.66 2413.46L2909.87 2413.36C2880.16 2412.33 2860.89 2410.14 2853.9 2409.25C2810.68 2405.62 2762.7 2400.89 2758.55 2400.46L2674.79 2406.31C2655.34 2408.82 2635.78 2410.31 2616.18 2410.77L2600.26 2411.1L2598.44 2411.09C2594.16 2411.14 2589.72 2411.16 2585.17 2411.12C2472.45 2410.3 2280.8 2384.99 2167.65 2237.32C2144.15 2206.62 2124.9 2171.63 2110.52 2133.37C2094.95 2091.97 2084.62 2045.68 2079.83 1995.71C2074.71 1942.18 2075.77 1883.01 2083.04 1819.89C2090.78 1752.65 2105.74 1679.1 2127.49 1601.24C2158.17 1491.73 2192.28 1387.55 2228.93 1291.61C2262.25 1204.38 2298.38 1122 2336.35 1046.75C2400.34 919.932 2470.62 810.788 2545.24 722.304C2574.58 687.49 2604.69 655.862 2634.69 628.226C2658.74 606.118 2682.77 586.533 2706.15 569.991C2746.09 541.719 2769.99 532.302 2770.96 531.915L2772.23 531.425L2773.49 531.933C2774.46 532.335 2798.22 542.1 2837.74 570.952C2860.87 587.834 2884.61 607.768 2908.34 630.225C2937.93 658.295 2967.58 690.36 2996.41 725.599C3069.73 815.164 3138.4 925.322 3200.53 1053.07C3237.37 1128.86 3272.32 1211.76 3304.37 1299.47C3339.59 1395.93 3372.2 1500.59 3401.27 1610.54C3421.86 1688.47 3435.72 1762.02 3442.51 1829.21C3448.91 1892.27 3449.19 1951.32 3443.36 2004.7C3437.95 2054.51 3427.07 2100.63 3411.03 2141.74C3396.22 2179.79 3376.63 2214.49 3352.84 2244.85C3300.77 2311.32 3227.58 2359 3135.3 2386.63C3099.66 2397.3 3061.11 2404.96 3020.72 2409.34C2988.45 2412.82 2956.01 2414.28 2923.56 2413.7C2922.64 2413.77 2921.56 2413.79 2920.41 2413.78ZM2758.66 2393.68L2758.94 2393.68C2759.44 2393.74 2809.6 2398.7 2854.56 2402.48L2854.72 2402.48C2861.52 2403.34 2880.58 2405.53 2910.13 2406.56L2910.16 2406.56L2912 2406.65C2916.88 2406.87 2920.74 2407.06 2923.24 2406.89L2923.53 2406.89C3031.81 2408.71 3230.85 2389.51 3347.51 2240.63C3453.31 2105.65 3469.18 1894.18 3394.72 1612.28C3269.21 1137.39 3106.24 870.64 2991.64 730.452C2926.79 651.145 2870.22 603.091 2834.2 576.76C2800.17 551.863 2777.57 541.16 2772.18 538.756C2766.75 541.081 2743.99 551.453 2709.6 575.85C2673.2 601.652 2615.94 648.875 2549.93 727.226C2433.3 865.725 2266.45 1130.07 2134.02 1603.07C2055.29 1884.64 2068.4 2096.64 2173.04 2233.18C2284.42 2378.58 2473.76 2403.53 2585.2 2404.34C2589.74 2404.38 2594.13 2404.38 2598.39 2404.34L2600.25 2404.35L2616.02 2403.99C2635.42 2403.54 2654.78 2402.07 2674.02 2399.58L2674.21 2399.58L2758.66 2393.68Z" fill="url(#paint4_linear_921_39)"/>
<path opacity="0.5" d="M2937.69 2518.63C2935.01 2518.61 2931.76 2518.45 2928 2518.29L2926.03 2518.17C2892.98 2517.01 2871.58 2514.6 2863.84 2513.59C2815.7 2509.56 2762.26 2504.28 2757.8 2503.83L2664.65 2510.35C2643.03 2513.11 2621.28 2514.76 2599.5 2515.29L2581.83 2515.69L2579.78 2515.67C2575.03 2515.71 2570.11 2515.7 2565.04 2515.67C2439.78 2514.75 2226.85 2486.63 2101.15 2322.58C2075.01 2288.47 2053.65 2249.6 2037.66 2207.07C2020.37 2161.09 2008.89 2109.64 2003.57 2054.12C1997.85 1994.64 1999.07 1928.88 2007.12 1858.72C2015.74 1784 2032.34 1702.24 2056.54 1615.73C2090.62 1493.99 2128.57 1378.2 2169.29 1271.55C2206.31 1174.59 2246.51 1083.02 2288.71 999.369C2359.83 858.435 2437.94 737.103 2520.89 638.747C2553.49 600.094 2586.94 564.916 2620.3 534.23C2647.02 509.646 2673.72 487.873 2699.71 469.484C2744.08 438.091 2770.6 427.642 2771.7 427.203L2772.99 426.687L2774.28 427.222C2775.38 427.677 2801.74 438.512 2845.65 470.55C2871.37 489.316 2897.75 511.477 2924.11 536.449C2957.01 567.619 2989.94 603.281 3021.98 642.406C3103.48 741.964 3179.81 864.424 3248.86 1006.38C3289.84 1090.64 3328.66 1182.79 3364.29 1280.28C3403.45 1387.51 3439.68 1503.85 3472.01 1626.06C3494.87 1712.68 3510.3 1794.44 3517.85 1869.1C3524.93 1939.21 3525.24 2004.83 3518.79 2064.11C3512.76 2119.46 3500.66 2170.69 3482.86 2216.39C3466.39 2258.66 3444.64 2297.21 3418.19 2330.96C3360.34 2404.78 3279.04 2457.79 3176.52 2488.47C3136.91 2500.32 3094.07 2508.81 3049.2 2513.71C3013.34 2517.56 2977.28 2519.18 2941.22 2518.55C2940.19 2518.62 2939.01 2518.64 2937.69 2518.63ZM2757.9 2496.82L2758.19 2496.82C2758.74 2496.87 2814.49 2502.43 2864.49 2506.61L2864.65 2506.61C2872.24 2507.61 2893.4 2510.02 2926.27 2511.16L2926.32 2511.16L2928.34 2511.28C2933.78 2511.53 2938.09 2511.74 2940.9 2511.55L2941.19 2511.56C3061.61 2513.59 3282.94 2492.24 3412.7 2326.64C3530.37 2176.46 3548.04 1941.32 3465.24 1627.85C3325.7 1099.89 3144.49 803.28 3017.06 647.442C2944.94 559.253 2882.05 505.844 2842 476.541C2803.95 448.75 2778.75 436.846 2772.94 434.255C2767.09 436.761 2741.7 448.296 2703.26 475.528C2662.77 504.243 2599.11 556.727 2525.74 643.854C2396.03 797.814 2210.52 1091.74 2063.28 1617.61C1975.72 1930.7 1990.34 2166.47 2106.7 2318.31C2230.57 2480.01 2441.15 2507.77 2565.09 2508.68C2570.14 2508.72 2575 2508.7 2579.76 2508.65L2581.83 2508.67L2599.34 2508.3C2620.91 2507.79 2642.45 2506.15 2663.86 2503.38L2664.04 2503.38L2757.9 2496.82Z" fill="url(#paint5_linear_921_39)"/>
<path opacity="0.4" d="M2955.01 2623.49C2952.04 2623.47 2948.49 2623.29 2944.34 2623.1L2942.13 2622.98C2905.8 2621.72 2882.25 2619.05 2873.74 2617.93C2820.67 2613.5 2761.8 2607.68 2757.04 2607.2L2654.51 2614.36C2630.73 2617.42 2606.8 2619.24 2582.83 2619.8L2563.41 2620.24L2561.15 2620.22C2555.92 2620.26 2550.48 2620.28 2544.91 2620.24C2407.14 2619.23 2172.89 2588.3 2034.62 2407.84C2005.88 2370.31 1982.39 2327.57 1964.78 2280.8C1945.78 2230.24 1933.16 2173.62 1927.3 2112.56C1921.03 2047.08 1922.34 1974.78 1931.21 1897.58C1940.67 1815.35 1958.96 1725.41 1985.59 1630.21C2023.09 1496.26 2064.83 1368.83 2109.65 1251.51C2150.4 1144.8 2194.6 1044.04 2241.05 952.01C2319.28 796.938 2405.24 663.418 2496.51 555.216C2532.4 512.672 2569.18 473.97 2605.9 440.209C2635.27 413.173 2664.66 389.212 2693.24 369.003C2742.06 334.463 2771.2 322.956 2772.42 322.492L2773.76 321.976L2775.07 322.511C2776.3 322.993 2805.28 334.925 2853.58 370.174C2881.84 390.799 2910.88 415.186 2939.87 442.648C2976.07 476.942 3012.31 516.177 3047.55 559.24C3137.23 668.764 3221.22 803.525 3297.18 959.723C3342.28 1052.42 3385 1153.82 3424.19 1261.11C3467.29 1379.07 3507.17 1507.1 3542.71 1641.58C3567.9 1736.87 3584.87 1826.83 3593.18 1908.96C3600.97 1986.12 3601.31 2058.3 3594.22 2123.55C3587.57 2184.44 3574.28 2240.79 3554.71 2291.05C3536.58 2337.53 3512.64 2379.95 3483.57 2417.05C3419.94 2498.26 3330.51 2556.55 3217.74 2590.31C3174.18 2603.34 3127.05 2612.69 3077.66 2618.06C3038.21 2622.31 2998.54 2624.1 2958.87 2623.39C2957.71 2623.49 2956.43 2623.51 2955.01 2623.49ZM2757.15 2599.95L2757.44 2599.95C2758.07 2600.04 2819.41 2606.13 2874.43 2610.74L2874.58 2610.74C2882.93 2611.83 2906.25 2614.49 2942.42 2615.76L2942.48 2615.76L2944.68 2615.85C2950.7 2616.16 2955.43 2616.38 2958.53 2616.16L2967.86 2616.23C3102.18 2617.21 3338.22 2590.79 3477.88 2412.55C3607.42 2247.29 3626.89 1988.46 3535.73 1643.42C3382.02 1061.85 3182.38 735.314 3041.97 563.798C2962.59 466.858 2893.38 408.147 2849.31 376.003C2807.43 345.452 2779.88 332.506 2773.7 329.754C2767.43 332.441 2739.43 345.086 2696.93 375.232C2652.37 406.808 2582.28 464.58 2501.51 560.482C2358.77 729.929 2154.59 1053.39 1992.54 1632.15C1896.18 1976.77 1912.26 2236.27 2040.36 2403.44C2176.75 2581.47 2408.54 2612.01 2544.96 2613.01C2550.52 2613.05 2555.9 2613.05 2561.12 2613L2563.38 2613.01L2582.68 2612.58C2606.42 2612.03 2630.11 2610.23 2653.67 2607.18L2653.88 2607.18L2757.15 2599.95Z" fill="url(#paint6_linear_921_39)"/>
<path opacity="0.3" d="M2972.32 2728.34C2969.09 2728.32 2965.2 2728.13 2960.68 2727.91L2958.29 2727.79C2918.62 2726.4 2892.92 2723.5 2883.65 2722.3C2825.69 2717.44 2761.33 2711.08 2756.26 2710.57L2644.34 2718.38C2618.4 2721.71 2592.31 2723.69 2566.17 2724.32L2544.96 2724.8L2542.52 2724.78C2395.33 2726.15 2125.03 2697.9 1968.09 2493.1C1936.75 2452.16 1911.13 2405.54 1891.93 2354.53C1881.74 2327.44 1873.18 2298.61 1866.46 2268.76C1859.49 2237.78 1854.29 2204.89 1851.04 2170.97C1847.67 2135.87 1846.28 2098.7 1846.91 2060.47C1847.56 2020.95 1850.39 1979.22 1855.3 1936.42C1865.63 1846.73 1885.58 1748.57 1914.64 1644.7C1955.57 1498.53 2001.1 1359.48 2050.02 1231.44C2094.49 1115.02 2142.72 1005.06 2193.39 904.625C2278.76 735.415 2372.56 589.76 2472.12 471.685C2511.28 425.249 2551.45 383.051 2591.48 346.187C2623.54 316.701 2655.61 290.553 2686.78 268.497C2740.03 230.835 2771.81 218.296 2773.13 217.781L2774.52 217.239L2775.89 217.801C2777.2 218.336 2808.79 231.338 2861.49 269.773C2892.33 292.281 2924.01 318.896 2955.64 348.847C2995.15 386.292 3034.68 429.072 3073.15 476.075C3170.97 595.591 3262.64 742.601 3345.53 913.039C3394.72 1014.2 3441.35 1124.85 3484.11 1241.92C3531.16 1370.66 3574.65 1510.35 3613.44 1657.11C3640.91 1761.08 3659.42 1859.23 3668.49 1948.85C3672.8 1991.61 3675.08 2033.3 3675.18 2072.72C3675.32 2110.87 3673.45 2147.97 3669.62 2182.97C3665.93 2216.78 3660.36 2249.54 3652.98 2280.36C3645.91 2310.08 3637 2338.79 3626.53 2365.7C3606.77 2416.43 3580.65 2462.67 3548.93 2503.15C3479.54 2591.72 3381.97 2655.31 3258.96 2692.15C3211.43 2706.38 3160 2716.57 3106.14 2722.43C3063.1 2727.06 3019.81 2729 2976.53 2728.24C2975.29 2728.33 2973.87 2728.35 2972.32 2728.34ZM2756.39 2703.11L2756.71 2703.11C2757.37 2703.17 2824.33 2709.84 2884.33 2714.85L2884.52 2714.85C2893.63 2716.04 2919.07 2718.94 2958.58 2720.33L2958.61 2720.33L2961.05 2720.43C2967.59 2720.76 2972.79 2721.01 2976.16 2720.77L2976.5 2720.78C3121.17 2723.2 3387.16 2697.55 3543.07 2498.53C3684.51 2318.06 3705.75 2035.57 3606.25 1658.97C3438.63 1024.82 3220.97 668.588 3067.91 481.423C2981.28 375.496 2905.73 311.325 2857.6 276.156C2811.5 242.447 2781.09 228.218 2774.47 225.279C2767.77 228.121 2737.16 241.904 2690.56 274.936C2641.94 309.399 2565.45 372.459 2477.29 477.11C2321.5 662.018 2098.66 1015.04 1921.8 1646.7C1816.62 2022.83 1834.18 2306.07 1974.01 2488.57C2128.97 2690.8 2396.69 2718.7 2542.47 2717.32L2544.96 2717.33L2566.02 2716.88C2591.93 2716.27 2617.79 2714.3 2643.5 2710.99L2643.74 2710.99L2756.39 2703.11Z" fill="url(#paint7_linear_921_39)"/>
<path opacity="0.2" d="M2989.61 2833.21C2986.14 2833.18 2981.91 2832.97 2977.02 2832.72L2974.42 2832.6C2931.42 2831.1 2903.61 2827.93 2893.56 2826.65C2830.69 2821.38 2760.89 2814.46 2755.51 2813.95L2634.2 2822.41C2606.1 2826.02 2577.83 2828.17 2549.51 2828.84L2526.54 2829.35L2523.86 2829.33C2364.39 2830.82 2071.57 2800.2 1901.59 2578.36C1884.78 2556.39 1869.62 2533.2 1856.24 2508.99C1842.19 2483.61 1829.69 2456.45 1819.07 2428.23C1808.04 2398.93 1798.75 2367.65 1791.48 2335.32C1783.92 2301.76 1778.29 2266.14 1774.77 2229.41C1771.11 2191.36 1769.62 2151.09 1770.29 2109.65C1770.99 2066.85 1774.06 2021.65 1779.39 1975.28C1784.89 1927.42 1792.98 1877 1803.4 1825.39C1814.17 1772.23 1827.71 1716.3 1843.69 1659.19C1888.02 1500.79 1937.39 1350.13 1990.38 1211.38C2038.55 1085.23 2090.82 966.075 2145.72 857.266C2238.25 673.919 2339.86 516.075 2447.77 388.128C2490.18 337.853 2533.69 292.106 2577.08 252.192C2611.79 220.229 2646.55 191.919 2680.31 168.016C2738 127.208 2772.42 113.611 2773.87 113.069L2775.26 112.501L2776.68 113.09C2778.12 113.652 2812.33 127.75 2869.4 169.397C2902.83 193.79 2937.15 222.605 2971.41 255.072C3014.21 295.616 3057.05 341.993 3098.72 392.882C3204.75 522.391 3304.05 681.703 3393.86 866.381C3447.16 975.981 3497.69 1095.89 3544.04 1222.73C3594.99 1362.24 3642.14 1513.6 3684.17 1672.63C3699.29 1729.79 3711.99 1785.75 3721.96 1838.93C3731.64 1890.53 3738.98 1940.93 3743.83 1988.74C3748.51 2035.07 3750.94 2080.24 3751.07 2122.96C3751.22 2164.3 3749.17 2204.46 3745.05 2242.4C3741.05 2279.01 3734.99 2314.52 3727.04 2347.91C3719.34 2380.1 3709.71 2411.22 3698.36 2440.36C3687.43 2468.39 3674.64 2495.37 3660.32 2520.51C3646.7 2544.53 3631.32 2567.51 3614.31 2589.26C3539.11 2685.2 3433.44 2754.07 3300.18 2793.98C3248.67 2809.4 3192.99 2820.43 3134.6 2826.78C3088.95 2831.75 3041.69 2833.88 2994.18 2833.08C2992.85 2833.18 2991.32 2833.22 2989.61 2833.21ZM2755.62 2806.25L2755.96 2806.25C2756.67 2806.33 2829.22 2813.54 2894.27 2818.98L2894.45 2818.98C2904.33 2820.26 2931.92 2823.41 2974.72 2824.9L2974.77 2824.9L2977.4 2825.03C2984.51 2825.37 2990.14 2825.64 2993.82 2825.38L2994.13 2825.38L3004.83 2825.52C3163.75 2826.68 3443.02 2795.4 3608.27 2584.49C3761.56 2388.84 3784.61 2082.69 3676.78 1674.52C3494.96 986.71 3258.87 600.542 3092.8 397.7C2998.9 282.996 2917.03 213.576 2864.88 175.513C2814.96 139.095 2782.22 123.825 2775.2 120.726C2768.14 123.722 2734.89 138.668 2684.23 174.561C2631.51 211.938 2548.63 280.259 2453.07 393.685C2284.24 594.134 2042.73 976.708 1851.06 1661.24C1737.05 2068.89 1756.12 2375.88 1907.67 2573.7C2075.64 2792.92 2365.82 2823.16 2523.84 2821.66L2526.54 2821.68L2549.33 2821.16C2577.42 2820.51 2605.46 2818.38 2633.33 2814.79L2633.57 2814.79L2755.62 2806.25Z" fill="url(#paint8_linear_921_39)"/>
<path opacity="0.1" d="M3006.92 2938.05C3003.16 2938.02 2998.64 2937.81 2993.36 2937.56L2990.55 2937.41C2944.24 2935.78 2914.28 2932.38 2903.46 2930.99C2835.68 2925.32 2760.4 2917.86 2754.75 2917.29L2624.06 2926.43C2593.79 2930.31 2563.35 2932.62 2532.85 2933.35L2508.09 2933.91L2505.25 2933.89C2498.58 2933.94 2491.67 2933.95 2484.57 2933.9C2309.18 2932.61 2011.03 2893.23 1835.06 2663.61C1816.97 2639.95 1800.65 2614.98 1786.23 2588.92C1770.81 2560.94 1757.43 2531.88 1746.22 2501.96C1734.33 2470.39 1724.33 2436.71 1716.49 2401.89C1708.35 2365.78 1702.29 2327.39 1698.51 2287.82C1694.58 2246.85 1692.95 2203.48 1693.67 2158.86C1694.45 2112.75 1697.75 2064.06 1703.48 2014.12C1709.42 1962.58 1718.13 1908.27 1729.36 1852.7C1740.92 1795.42 1755.52 1735.19 1772.71 1673.67C1820.49 1503.06 1873.66 1340.76 1930.75 1191.31C1982.64 1055.44 2038.94 927.12 2098.09 809.881C2197.73 612.395 2307.18 442.39 2423.39 304.597C2469.06 250.43 2515.94 201.16 2562.66 158.17C2600.06 123.756 2637.47 93.2582 2673.87 67.5091C2706.28 44.5689 2731.85 29.7509 2747.63 21.3259C2764.8 12.1753 2774.18 8.48606 2774.58 8.35756L2776.03 7.79011L2777.49 8.37886C2777.86 8.51293 2787.21 12.339 2804.25 21.7395C2819.88 30.3938 2845.26 45.5839 2877.33 68.9951C2913.32 95.2729 2950.28 126.314 2987.18 161.27C3033.29 204.939 3079.41 254.888 3124.29 309.716C3238.5 449.191 3345.46 620.778 3442.21 819.697C3499.63 937.788 3554.05 1066.92 3603.96 1203.54C3658.83 1353.8 3709.62 1516.85 3754.91 1688.15C3771.17 1749.73 3784.87 1809.98 3795.59 1867.27C3806.01 1922.84 3813.94 1977.13 3819.14 2028.62C3824.19 2078.54 3826.83 2127.17 3826.96 2173.18C3827.09 2217.7 3824.9 2260.99 3820.45 2301.82C3816.17 2341.26 3809.64 2379.49 3801.07 2415.46C3792.8 2450.14 3782.42 2483.62 3770.18 2515.01C3758.42 2545.2 3744.65 2574.24 3729.24 2601.35C3714.55 2627.2 3697.98 2651.93 3679.66 2675.35C3598.71 2778.66 3484.91 2852.86 3341.41 2895.82C3285.94 2912.42 3225.94 2924.3 3163.09 2931.15C3113.91 2936.49 3063.02 2938.8 3011.84 2937.93C3010.39 2938.02 3008.73 2938.06 3006.92 2938.05ZM2754.86 2909.38L2755.2 2909.44C2755.99 2909.49 2834.14 2917.29 2904.2 2923.14L2904.39 2923.14C2915.02 2924.5 2944.74 2927.9 2990.87 2929.53L2990.93 2929.53L2993.74 2929.65C3001.41 2930.02 3007.48 2930.33 3011.45 2930.04L3011.79 2930.05C3015.55 2930.13 3019.38 2930.15 3023.3 2930.18C3194.51 2931.43 3495.41 2897.74 3673.47 2670.5C3838.62 2459.72 3863.41 2129.85 3747.27 1690.17C3660.87 1363.22 3555.94 1071.74 3435.42 823.8C3339.01 625.487 3232.47 454.429 3118.76 315.404C3074.09 260.788 3028.2 211.051 2982.35 167.541C2945.68 132.771 2908.96 101.889 2873.21 75.7446C2819.02 36.1687 2783.4 19.5638 2775.97 16.3036C2768.48 19.4548 2732.62 35.5377 2677.89 74.3181C2641.76 99.9378 2604.59 130.28 2567.39 164.511C2520.94 207.346 2474.3 256.408 2428.84 310.365C2313.11 447.715 2204.08 617.198 2104.81 814.082C1980.66 1060.24 1871.49 1350.15 1780.32 1675.8C1657.52 2114.95 1678.04 2445.7 1841.33 2658.8C2022.31 2895.02 2334.94 2927.6 2505.18 2926L2508.1 2926.03L2532.67 2925.47C2562.94 2924.75 2593.14 2922.45 2623.17 2918.59L2623.41 2918.59L2754.86 2909.38Z" fill="url(#paint9_linear_921_39)"/>
</g>
<path opacity="0.2" d="M3092.81 5310.45C3093.64 5311.47 3092.19 5312.94 3091.35 5311.91C3081.35 5299.47 3071.98 5286.56 3062.92 5273.42C3007.76 5193.41 2960.25 5108.25 2907.89 5026.42C2845.27 4928.49 2778.02 4832.27 2696.93 4748.57C2620.43 4669.61 2528.03 4598.97 2419.06 4573.64C2347.28 4556.97 2273.07 4579.4 2209.25 4612.61C2146.09 4645.48 2095.9 4691.64 2055.32 4749.89C2015.32 4807.29 1983.97 4870.07 1947.19 4929.48C1930.74 4956.06 1913.21 4982.06 1893.3 5006.19C1870.58 5033.74 1844.09 5056.84 1816.51 5079.38C1698.65 5175.71 1562.1 5256.46 1408.81 5276.43C1248.51 5297.32 1086.76 5253.49 942.843 5184.73C878.158 5153.81 816.469 5119.27 764.442 5069.4C718.599 5025.46 680.549 4974.5 639.957 4925.88C598.554 4876.29 553.371 4829.31 497.269 4796.25C433.587 4758.71 356.628 4735.93 282.411 4738.06C223.718 4739.75 167.939 4758.67 117.486 4788.15C76.5358 4812.09 40.0734 4842.31 1.49453 4869.68C0.408769 4870.45 -0.622024 4868.67 0.456866 4867.9C18.2551 4855.31 35.4349 4841.99 52.9171 4829.08C93.3651 4799.23 135.923 4771.72 183.532 4754.73C241.338 4734.11 303.213 4731.12 363.225 4743.28C431.738 4757.16 496.808 4786.97 550.87 4831.36C599.454 4871.25 638.658 4920.7 678.103 4969.25C719.499 5020.21 762.346 5070.6 815.397 5109.93C880.68 5158.32 959.384 5193.41 1035.04 5221.94C1193.02 5281.48 1366.06 5301.66 1528.21 5246.24C1604.23 5220.26 1675.02 5180.74 1740.59 5134.65C1803.18 5090.67 1865.07 5042.79 1910.59 4980.65C1989.05 4873.58 2033.6 4736.39 2141.6 4653.11C2196.09 4611.08 2262.99 4579.22 2331.27 4568.63C2386.96 4560 2440.69 4573.53 2491.69 4595.7C2594.24 4640.21 2678.37 4719.75 2749.84 4803.99C2823.75 4891.11 2886.48 4987.05 2946.53 5084.03C2993.55 5159.96 3036.66 5240.67 3092.79 5310.45H3092.81ZM3092.69 5266.55C3062.73 5237.48 3037.26 5203.89 3012.39 5170.49C2980.19 5127.25 2949.23 5083.11 2917.45 5039.56C2846.56 4942.4 2771.93 4846.33 2681.89 4765.97C2635.58 4724.64 2585 4687.63 2529.27 4659.99C2471.73 4631.48 2404.99 4608.9 2340 4614.8C2277.09 4620.5 2215.62 4645.4 2161.33 4676.79C2107.67 4707.8 2063.18 4748.38 2024.92 4797.01C1987.12 4845.05 1955.27 4897.39 1919.24 4946.73C1900.69 4972.15 1880.93 4996.84 1858.55 5019.04C1834.25 5043.13 1806.32 5062.6 1778.04 5081.68C1650.76 5167.58 1505.62 5237.98 1352.48 5260.24C1201.37 5282.23 1045.5 5257.04 905.845 5196.59C843.373 5169.55 785.312 5136.61 735.944 5089.27C694.486 5049.5 659.666 5003.72 623.306 4959.43C587.902 4916.29 550.34 4874.44 504.787 4841.73C451.701 4803.62 387.662 4778.1 322.97 4768.93C270.64 4761.4 217.26 4766.95 167.602 4785.1C124.997 4800.7 86.4108 4824.63 49.1238 4850.11C33.0504 4861.11 17.1487 4872.33 0.76611 4882.84C-0.608272 4883.74 0.663042 4885.97 2.06491 4885.07C37.6683 4862.21 71.3406 4836.51 108.257 4815.66C153.694 4790.04 203.247 4772.26 255.583 4768.78C323.375 4764.28 392.403 4782.62 452.663 4813.02C506.264 4840.07 551.055 4880.16 590.617 4924.83C666.648 5010.64 729.333 5107.73 832.749 5163.88C956.862 5231.28 1097.49 5269.98 1238.97 5270.63C1388.3 5271.32 1531.02 5224.65 1661.82 5154.87C1723.26 5122.09 1786.58 5085.18 1839.74 5039.86C1883.73 5002.35 1917.68 4954.65 1950.11 4907.23C1986.21 4854.43 2021.01 4800.03 2065.65 4753.88C2111.78 4706.13 2169.35 4670.52 2230.74 4645.71C2262.8 4632.74 2296.45 4622.6 2330.85 4618.37C2364.11 4614.24 2396.25 4617.8 2428.73 4625.66C2497.87 4642.37 2561.82 4676.17 2618.93 4718.06C2718.17 4790.86 2798.97 4886.49 2872.98 4984.01C2934.26 5064.77 2989.46 5150.62 3054.4 5228.55C3065.93 5242.39 3077.92 5255.85 3090.85 5268.41C3092.05 5269.56 3093.87 5267.72 3092.68 5266.59L3092.69 5266.55ZM3092.26 5222.4C3059.07 5197.85 3030.59 5167.17 3003.08 5136.58C2968.37 5097.97 2935.18 5058.01 2901.29 5018.68C2825.86 4931.19 2746.93 4844.92 2653.17 4776.62C2556.53 4706.23 2429.14 4645.36 2306.7 4666.32C2183.49 4687.4 2070.75 4758.14 1988.82 4850.71C1949.76 4894.84 1915.03 4942.69 1874.6 4985.59C1853.98 5007.5 1831.68 5028.06 1806.8 5045.09C1780 5063.45 1750.59 5078.55 1721.81 5093.52C1655.25 5128.16 1586.3 5158.01 1516.11 5184.46C1446.33 5210.75 1375.39 5233.62 1301.87 5246.81C1160.77 5272.14 1011.97 5265.15 877.065 5214.52C816.593 5191.84 760.243 5161.24 712.6 5117.28C672.564 5080.35 639.16 5037.16 605.041 4994.91C570.922 4952.65 535.339 4910.9 492.087 4877.51C443.187 4839.75 384.521 4813.54 323.932 4801.53C272.88 4791.4 220.351 4793.46 170.55 4808.74C127.257 4822.03 87.7783 4844.33 49.5017 4868.11C33.4008 4878.12 17.4237 4888.34 0.965423 4897.77C-0.759427 4898.76 0.800475 4901.43 2.5322 4900.44C38.2661 4879.97 72.0279 4856.29 108.751 4837.54C154.724 4814.07 204.408 4798.94 256.305 4798.21C322.543 4797.28 389.964 4818.24 447.097 4851.03C496.334 4879.29 537.119 4919 573.767 4961.89C608.93 5003.03 640.905 5046.86 677.691 5086.61C716.015 5128.03 759.315 5162.89 809.803 5188.38C929.478 5248.86 1065.73 5270.85 1198.9 5262.41C1342.34 5253.32 1479.02 5206.51 1610.09 5149.9C1673.53 5122.49 1736.76 5092.24 1795.7 5055.98C1843.12 5026.82 1880.97 4985.2 1916.27 4942.75C1954.19 4897.17 1990.2 4849.76 2033.24 4808.74C2079.93 4764.28 2135.11 4730.51 2194.05 4704.75C2253.23 4678.87 2319.18 4659.03 2384.4 4666.75C2455.68 4675.19 2523.9 4700.66 2585.88 4736.34C2688.89 4795.61 2774.68 4880.84 2853.45 4968.74C2919.87 5042.85 2980.23 5123.71 3052.41 5192.44C3064.5 5204.1 3077.31 5214.99 3090.75 5225.06C3092.35 5226.24 3093.89 5223.56 3092.31 5222.38L3092.26 5222.4ZM3092.09 5178.47C3055.86 5158.78 3024.06 5131.69 2993.59 5104.17C2956.48 5070.66 2921.04 5035.34 2885.01 5000.66C2803.92 4922.58 2719.43 4845.85 2621.04 4789.93C2517.58 4731.13 2391.52 4691.95 2272.83 4719.67C2153.84 4747.46 2044.56 4811.14 1956.91 4895.3C1917.1 4933.52 1880.08 4974.92 1837.28 5009.92C1788.19 5050.09 1730.64 5073.07 1672.03 5095.9C1605.37 5121.88 1537.56 5144.91 1470.03 5168.6C1401.27 5192.71 1332.44 5216.3 1261.31 5232.55C1127.88 5263.04 984.24 5273.2 851.742 5232.83C792.788 5214.87 737.504 5187.1 691.009 5146.37C651.227 5111.51 618.393 5069.87 585.497 5028.71C552.959 4987.99 519.747 4947.36 479.491 4913.95C434.824 4876.84 381.8 4850.09 325.56 4835.39C274.626 4822.06 221.423 4820.89 170.324 4833.96C128.144 4844.74 89.2351 4864.39 51.3984 4885.43C34.734 4894.69 18.1933 4904.17 1.15781 4912.74C-0.903759 4913.78 0.90357 4916.86 2.97889 4915.86C39.4 4897.54 73.8214 4875.58 111.053 4858.86C157.913 4837.82 208.16 4825.83 259.741 4828.55C323.451 4831.89 387.559 4855.15 440.795 4889.82C485.731 4919.05 522.777 4958 556.8 4999.05C589.909 5038.99 620.709 5080.94 656.663 5118.45C694.252 5157.62 737.188 5189.62 786.714 5212.19C902.911 5265.15 1034.87 5271.21 1159.86 5254.64C1301.21 5235.91 1434.74 5185.4 1568.39 5138.01C1630.13 5116.12 1691.66 5093.4 1751.58 5066.88C1800.42 5045.25 1841.35 5013.56 1879.76 4976.79C1920.99 4937.33 1959.47 4895.01 2003.24 4858.3C2051.41 4817.89 2105.79 4786.53 2163.2 4761.17C2220.83 4735.71 2284.27 4714 2347.92 4713.39C2415.95 4712.75 2485.97 4731.67 2548.27 4757.96C2655.89 4803.36 2748.14 4877.9 2833.18 4956.62C2903.4 5021.63 2968.42 5094.15 3044.95 5151.97C3059.38 5162.86 3074.34 5172.99 3090.22 5181.62C3092.28 5182.73 3094.08 5179.61 3092.04 5178.5L3092.09 5178.47ZM3091.4 5134.32C3052.43 5119.74 3017.08 5096.74 2983.34 5072.73C2942.41 5043.6 2903.26 5012.03 2863.57 4981.24C2777.33 4914.32 2687.83 4849.57 2586.45 4807.43C2529.62 4783.81 2469.71 4767.94 2408.53 4761.15C2347.34 4754.36 2289.88 4759.24 2230.73 4776.57C2115.01 4810.45 2010.03 4868.95 1916.16 4943.88C1874.89 4976.82 1834.38 5011.62 1787.93 5037.17C1736.54 5065.42 1677.47 5078.4 1621.33 5093.88C1554.59 5112.32 1487.77 5130.57 1422.19 5152.87C1356.37 5175.21 1291.16 5199.11 1224.22 5218.01C1098.09 5253.61 960.545 5279.33 830.343 5250.99C772.839 5238.46 718.214 5214.51 672.289 5177.39C633.12 5145.75 601.021 5106.77 569.829 5067.54C538.005 5027.53 506.539 4986.89 468.51 4952.48C426.682 4914.71 377.237 4886.35 323.512 4869.33C274.55 4853.73 222.832 4849.4 172.268 4859.18C130.35 4867.3 91.2555 4884.56 53.0957 4903.16C35.9572 4911.53 18.9217 4920.12 1.40519 4927.67C-1.02059 4928.72 1.07534 4932.27 3.46677 4931.23C41.2004 4914.95 76.955 4894.45 115.479 4879.88C161.926 4862.31 211.047 4854.11 260.614 4859.75C322.702 4866.8 384.088 4892.73 434.253 4929.68C476.419 4960.74 510.896 5000.39 543.517 5041C574.832 5080.02 604.986 5120.25 641.036 5155.08C677.244 5190.13 718.991 5217.75 766.029 5236.01C880.185 5280.35 1008.28 5270.72 1125.83 5246.44C1261.13 5218.49 1388.4 5164.84 1520.65 5126.34C1582.78 5108.25 1645.53 5092.34 1707.46 5073.57C1757.06 5058.55 1800.77 5037.29 1842.74 5006.73C1886.6 4974.79 1927.21 4938.64 1971.21 4906.88C2021.22 4870.78 2075.26 4841.89 2131.76 4817.33C2190.14 4791.96 2252.25 4769.66 2315.93 4763.04C2380.05 4756.41 2447.87 4767.62 2509.52 4784.96C2620.84 4816.27 2719.62 4878.14 2811.59 4946.68C2887.54 5003.28 2959.23 5068.87 3042.08 5115.51C3057.55 5124.33 3073.69 5131.93 3090.34 5138.25C3092.82 5139.18 3093.9 5135.2 3091.43 5134.28L3091.4 5134.32ZM3091.18 5090.34C3002.34 5070.24 2923.46 5014.86 2846.54 4968.61C2752.19 4911.86 2654.86 4858.04 2547.85 4829.32C2487.29 4813.06 2424.69 4804.93 2362 4804.39C2303.59 4803.89 2247.85 4815.54 2192.44 4833.45C2135.11 4852.01 2078.71 4875.06 2024.37 4901.08C1971.65 4926.33 1922.26 4957.27 1872.68 4988.08C1830.08 5014.55 1786.49 5040.54 1738.32 5055.6C1684.89 5072.31 1627.4 5077.38 1572.43 5087.28C1507.71 5098.96 1443.58 5113.56 1381.18 5134.48C1316.02 5156.32 1252.12 5181.75 1186.99 5203.69C1067.66 5243.89 937.717 5282.31 810.463 5267.35C754.01 5260.72 700.066 5241.28 653.983 5207.74C613.645 5178.38 581.051 5140.17 550.162 5101.37C519.644 5063.04 490.163 5023.67 454.931 4989.45C417.039 4952.52 372.048 4923.66 322.681 4904.62C275.34 4886.34 224.612 4878.56 174.124 4885.05C131.772 4890.5 91.9427 4905.59 52.8003 4922C36.0259 4929.04 19.3065 4936.19 2.17484 4942.34C-0.615152 4943.34 0.587466 4947.83 3.41182 4946.81C40.3209 4933.57 75.5669 4916.04 112.888 4903.93C160.16 4888.61 209.5 4883.02 258.71 4891.45C317.479 4901.54 374.502 4928.51 421.018 4965.62C459.274 4996.14 490.823 5033.74 521.094 5071.93C582.041 5148.84 643.152 5225.35 740.04 5256.92C851.763 5293.34 975.485 5270.3 1085.74 5239.87C1216.3 5203.85 1339.81 5145.67 1471.25 5113.23C1531.59 5098.34 1592.89 5088.42 1654.11 5078C1703.49 5069.6 1750.31 5059.61 1795.57 5037.46C1841.01 5015.25 1882.99 4986.64 1926.13 4960.37C1979.96 4927.59 2035.77 4899.64 2093.9 4875.33C2150.48 4851.67 2208.66 4830.11 2268.85 4817.67C2332.47 4804.52 2398.9 4807.31 2462.9 4816.56C2578.47 4833.25 2684.87 4880.42 2785.48 4937.98C2867.87 4985.11 2946.86 5041.85 3035.29 5077.48C3053.02 5084.72 3071.3 5090.52 3089.96 5094.83C3092.87 5095.51 3094.08 5091.01 3091.2 5090.35L3091.18 5090.34ZM3090.25 5046.28C2995.92 5037.21 2907.93 4992.45 2822.25 4955.22C2721.54 4911.49 2618.59 4872.15 2509.12 4857.37C2446.56 4848.94 2383.28 4847.14 2320.35 4852.01C2264.09 4856.38 2208.99 4872.38 2155.7 4890.15C2098.2 4909.31 2041.15 4930.89 1985.34 4954.55C1934.3 4976.19 1884.78 5001.11 1834.06 5023.44C1789.23 5043.17 1742.84 5059.81 1693.98 5065.69C1638.55 5072.36 1582.28 5071.45 1526.69 5077.03C1464.15 5083.3 1402.44 5095.24 1342.81 5115.24C1279.2 5136.54 1217.4 5163.19 1154.99 5187.71C1041.78 5232.2 920.578 5280.89 797.083 5281.36C743.008 5281.57 690.198 5269.99 643.592 5241.91C601.735 5216.69 567.96 5181.15 537.291 5143.56C507.006 5106.45 479.092 5067.36 446.293 5032.35C410.641 4994.29 369.561 4963.09 322.007 4941.35C275.89 4920.28 225.931 4908.63 175.093 4911.8C133.93 4914.38 94.5677 4926.32 55.817 4939.71C38.1081 4945.83 20.4541 4952.08 2.43598 4957.23C-0.752587 4958.13 0.601179 4963.11 3.81036 4962.2C41.3104 4951.52 77.3398 4936.27 115.183 4926.71C163.287 4914.57 212.71 4912.84 261.012 4925.01C318.125 4939.4 371.423 4969.13 414.943 5008.6C450.856 5041.15 480.439 5079.68 510.202 5117.72C568.359 5192.03 633.257 5261.91 730.055 5280.58C841.064 5301.99 957.872 5265.38 1061.52 5228.47C1185.1 5184.49 1304.79 5122.46 1433.9 5096.04C1494.82 5083.58 1556.69 5078.97 1618.68 5075.74C1667.67 5073.18 1715.32 5070.61 1762.55 5056.2C1808 5042.34 1851.04 5021.65 1893.96 5001.52C1950.2 4975.14 2006.95 4950.58 2065 4928.4C2122.1 4906.58 2179.84 4885.54 2239.31 4870.99C2298.62 4856.48 2358.97 4853.29 2419.86 4855.18C2539.11 4858.89 2652.39 4890.34 2762.22 4935.34C2851.06 4971.76 2937.86 5018.08 3031.5 5041.27C3050.81 5046.1 3070.45 5049.5 3090.25 5051.44C3093.55 5051.76 3093.53 5046.63 3090.25 5046.29V5046.28ZM3089.95 5002.3C2991.32 5004.2 2895.53 4973.29 2801.49 4947.32C2689.9 4916.47 2577.42 4891.82 2461.11 4890.88C2401.83 4890.4 2341.12 4893.08 2282.57 4902.82C2223.69 4912.61 2166.32 4930.84 2109.75 4949.52C2050.56 4969.06 1991.53 4989.11 1932.66 5009.67C1884.71 5026.41 1836.75 5043.77 1787.42 5056.07C1743.05 5067.14 1697.7 5072.91 1651.94 5070.88C1595.59 5068.39 1539.52 5062.42 1483 5064.24C1421.84 5066.2 1361.51 5076.53 1303.57 5096.25C1244.11 5116.49 1186.75 5142.9 1129.48 5168.51C1021.34 5216.89 909.886 5272.5 791.524 5290.15C741.758 5297.56 689.524 5296.92 642.493 5277.25C597.468 5258.41 560.305 5226.18 528.419 5189.83C465.459 5118.04 416.407 5034.37 331.436 4985.31C285.119 4958.55 233.58 4940.78 179.793 4939.48C138.094 4938.47 97.502 4947.67 57.4731 4958.4C39.2763 4963.28 21.1276 4968.32 2.6834 4972.15C-0.883122 4972.9 0.621829 4978.33 4.18835 4977.64C42.9597 4969.53 80.5353 4956.52 119.636 4949.85C169.801 4941.28 220.365 4944.8 268.4 4962C322.688 4981.43 370.557 5014.05 410.442 5055.39C443.427 5089.54 471.004 5128.23 500.567 5165.22C557.473 5236.42 626.557 5295.43 721.595 5299.91C829.546 5304.99 937.071 5258.68 1034.11 5216.91C1092.12 5191.94 1149.39 5165.28 1207.4 5140.31C1268.33 5114.08 1330.01 5089.79 1395.69 5078.53C1454.97 5068.38 1515.03 5068.22 1574.91 5071.66C1624.76 5074.5 1674.21 5079.86 1724.03 5073.78C1825 5061.45 1921.25 5018.8 2016.97 4986.73C2075.59 4967.09 2133.9 4946.33 2193.39 4929.45C2252.49 4912.68 2311.37 4903.26 2372.65 4899.21C2494.62 4891.2 2613.65 4904.81 2731.95 4934.65C2828.37 4958.97 2923.58 4992.95 3022.74 5004.58C3045.03 5007.24 3067.48 5008.37 3089.92 5007.98C3093.57 5007.9 3093.58 5002.23 3089.92 5002.31L3089.95 5002.3ZM3089.66 4958.32C2987.74 4970.79 2885.56 4955.74 2784.44 4943C2665.99 4928.08 2548.05 4919.2 2428.78 4929.89C2370.37 4935.13 2311.17 4941.65 2253.83 4954.1C2193.52 4967.16 2134.56 4985.97 2075.59 5004C1969.62 5036.39 1859.81 5072.76 1748.62 5080.92C1647.98 5088.31 1552.41 5054.64 1452.57 5050.05C1393.39 5047.3 1334.12 5054.47 1277.7 5072.73C1219.49 5091.6 1163.96 5118.61 1109.21 5145.7C1005.32 5197.1 902.787 5256.9 791.325 5290.7C745.331 5304.64 695.805 5314.37 647.743 5306.5C600.67 5298.83 559.095 5272.35 525.265 5239.61C457.858 5174.33 414.744 5088.13 338.033 5031.74C294.63 4999.84 243.324 4976.54 189.716 4969.27C147.798 4963.58 106.126 4968.69 64.8398 4976.29C44.5264 4980.03 24.2955 4984.17 3.80348 4986.87C-0.0860185 4987.39 -0.134122 4993.58 3.80348 4993.06C44.6295 4987.66 84.6378 4977.03 125.773 4973.88C178.252 4969.81 230.863 4979.88 278.123 5003.06C327.979 5027.28 369.561 5062.49 405.508 5104.34C435.964 5139.82 462.332 5178.56 492.823 5214.01C521.898 5247.82 555.412 5278.17 596.224 5297.04C634.405 5314.68 676.041 5318.28 717.486 5313.25C822.379 5300.51 921.211 5247.45 1014.2 5200.54C1067.98 5173.43 1121.47 5145.67 1176.19 5120.46C1235.97 5092.9 1297.19 5068.43 1362.86 5059.81C1422.98 5051.93 1483.27 5056.58 1542.85 5066.45C1590.6 5074.37 1637.77 5085.58 1686.25 5087.95C1784.52 5092.76 1881.24 5066.28 1974.98 5040.07C2094.38 5006.68 2210.85 4963.9 2334.17 4947.01C2457 4930.18 2578.68 4926.85 2702.08 4939.57C2806.53 4950.33 2910.81 4970.28 3016.13 4969.29C3040.71 4969.07 3065.26 4967.47 3089.66 4964.48C3093.55 4964.01 3093.6 4957.82 3089.66 4958.3V4958.32ZM3088.46 4914.47C2980.57 4937.67 2870.19 4938.52 2760.34 4940.64C2639.54 4942.95 2519.99 4950.62 2400.82 4971.4C2340.44 4981.94 2279.75 4992.45 2220.33 5007.61C2160.44 5022.88 2101.37 5041.12 2041.72 5057.26C1936.01 5085.86 1825.11 5111.46 1714.88 5102.19C1613.34 5093.64 1520.49 5047.44 1419.58 5035.6C1360.81 5028.72 1301.16 5033.66 1244.73 5051.68C1187.61 5069.91 1133.62 5097.56 1080.99 5125.95C981.202 5179.76 885.477 5242.6 781.195 5287.7C738.239 5306.25 692.197 5322.54 645.049 5324.8C600.739 5326.94 560.202 5312.52 524.646 5286.32C447.317 5229.34 406.491 5136.42 333.91 5074.07C294.169 5039.92 246.348 5013.3 195.228 5001.02C152.457 4990.71 108.889 4992.08 65.4445 4996.36C45.0281 4998.37 24.646 5000.71 4.14708 5001.81C-0.140994 5002.05 -0.168482 5008.75 4.14708 5008.51C46.6499 5006.24 88.8022 4998.73 131.47 4999.68C187.132 5000.93 239.441 5018.24 286.596 5047.61C331.552 5075.62 367.465 5113.9 399.942 5155.29C428.316 5191.45 454.388 5229.8 486.961 5262.43C516.015 5291.53 551.866 5316.98 592.328 5326.89C630.543 5336.24 670.819 5331.01 708.305 5320.89C810.277 5293.34 903.069 5234.26 993.936 5182.33C1044.57 5153.38 1095.36 5124.55 1147.83 5099.02C1208.3 5069.61 1270.83 5045.18 1338.47 5040.28C1398 5035.97 1456.73 5045.97 1513.99 5061.69C1562.43 5074.99 1609.76 5092.02 1659.24 5101.3C1881 5142.88 2095.46 5035.93 2309.03 4995.17C2433.73 4971.37 2557.67 4953.54 2684.7 4949.23C2794.81 4945.49 2905.61 4948.44 3015.06 4933.94C3040.3 4930.59 3065.36 4926.24 3090.25 4920.88C3094.46 4919.97 3092.67 4913.51 3088.46 4914.42V4914.47ZM3088.1 4870.49C2979.86 4902.84 2868.5 4921.13 2757.12 4938.72C2635.33 4957.96 2514.49 4979.73 2394.81 5009.65C2335.56 5024.46 2275.93 5038.03 2216.95 5053.81C2155.55 5070.22 2094.6 5088.31 2032.78 5103.28C1923.29 5129.8 1809.13 5147.63 1697.32 5124.84C1598.18 5104.63 1510.99 5050.62 1413.19 5026.5C1357.06 5012.65 1298.12 5009.89 1241.48 5022.53C1183.13 5035.59 1128.42 5063.21 1076.5 5092.09C977.547 5147.15 885.69 5213.78 787.518 5270.11C718.744 5309.57 624.805 5363.19 543.043 5333.74C449.475 5300.07 404.786 5199.73 341.132 5130.92C304.092 5090.9 259.184 5057.94 208.215 5037.95C163.988 5020.61 117.307 5016.44 70.1999 5016.65C48.2854 5016.72 26.3777 5017.34 4.47008 5016.76C-0.175332 5016.64 -0.175332 5023.85 4.47008 5023.97C51.3503 5025.22 98.4778 5021.11 145.049 5028.41C202.773 5037.46 256.628 5064.55 301.041 5102.27C374.193 5164.45 413.741 5259.55 492.61 5315.18C524.619 5337.77 561.088 5350.97 600.499 5348.66C640.163 5346.33 678.474 5332.45 714.387 5316.25C813.61 5271.49 902.918 5206.36 994.967 5148.99C1097.6 5085.03 1209.78 5015.89 1335.19 5022C1445.83 5027.38 1540.17 5087.38 1643.84 5118.72C1864.94 5185.55 2089.57 5091.75 2303.54 5039.86C2426.72 5009.99 2549 4980.08 2674.16 4959.36C2785.3 4940.95 2897.23 4926.12 3006.9 4899.86C3034.82 4893.17 3062.53 4885.72 3090.05 4877.49C3094.49 4876.16 3092.6 4869.2 3088.13 4870.54L3088.1 4870.49ZM3087.73 4826.51C2975.03 4868.77 2859.83 4903.62 2744.35 4937.44C2621.89 4973.31 2499.97 5010.37 2378.68 5050.06C2318.9 5069.63 2258.55 5086.74 2198.12 5104.08C2138.72 5121.11 2079.23 5137.82 2018.76 5150.71C1905.84 5174.76 1790.4 5184.31 1678.75 5149.2C1580.82 5118.41 1497.45 5056.65 1401.86 5020.7C1347 5000.08 1288.69 4990.54 1230.25 4998.09C1172.04 5005.61 1117.42 5031.49 1066.7 5059.88C968.792 5114.7 880.158 5184.27 787.923 5247.77C746.692 5276.16 704.636 5303.98 659.762 5326.33C624.798 5343.74 585.813 5359.52 546.087 5358.93C449.351 5357.52 394.011 5252.83 341.723 5186.83C306.944 5142.93 266.359 5104.36 216.798 5077.56C173.203 5053.97 125.636 5043.15 76.6664 5038.16C52.7521 5035.73 28.7623 5034.19 4.86179 5031.6C-0.0791199 5031.06 -0.0378885 5038.8 4.86179 5039.33C54.7931 5044.74 105.453 5045.75 153.982 5059.98C212.181 5077.05 263.685 5111.97 305.061 5155.88C367.932 5222.62 409.727 5320.72 499.378 5356.9C572.221 5386.3 652.574 5342.09 714.002 5305.12C808.93 5248 895.592 5178.21 988.006 5117.26C1038.23 5084.15 1090.31 5052.19 1146.16 5029.44C1205.7 5005.18 1268.76 4996.78 1332.24 5008.82C1438.21 5028.89 1526.15 5096.32 1624.09 5137.33C1720.3 5177.61 1821.87 5188.05 1925.08 5174.9C2047.28 5159.32 2166.47 5121.98 2284.42 5087.62C2410.02 5051.03 2533.55 5007.46 2659.1 4970.48C2774.55 4936.47 2890.47 4903.74 3004.36 4864.65C3032.97 4854.83 3061.45 4844.6 3089.79 4833.97C3094.4 4832.24 3092.41 4824.76 3087.73 4826.51V4826.51ZM3086.35 4782.96C2850.01 4887.95 2612.02 4989.28 2372.36 5086.94C2257.64 5133.63 2137.48 5172.5 2015.76 5196.2C1899.21 5218.88 1781.64 5223.51 1669.55 5179.25C1571.44 5140.5 1490.72 5071.7 1398.11 5022.91C1349.63 4997.38 1297.32 4978.75 1242.18 4976.29C1182.35 4973.62 1126.32 4991.5 1073.46 5018.34C972.984 5069.36 884.927 5142.79 796.802 5212.13C754.711 5245.23 712.524 5278.39 668.146 5308.41C632.845 5332.28 595.386 5355.63 554.498 5368.61C516.599 5380.65 481.711 5378.33 446.794 5358.37C402.89 5333.26 373.265 5290.13 344.224 5250.08C312.758 5206.7 280.027 5164.44 237.455 5131.27C191.915 5095.78 140.19 5074 84.0881 5061.63C58.2978 5055.95 32.2188 5051.68 6.29799 5046.69C1.1097 5045.69 -1.10993 5053.64 4.10585 5054.64C59.4385 5065.28 115.864 5073.16 167.334 5097.41C223.086 5123.67 268.695 5165.28 306.552 5213.33C357.178 5277.58 409.494 5380.89 503.275 5384.86C537.05 5386.29 570.338 5373.38 600.079 5358.62C642.465 5337.59 681.539 5310.07 719.472 5281.97C809.164 5215.55 893.627 5142.08 986.425 5079.86C1038.19 5045.15 1093.5 5011.83 1153.87 4994.65C1214.45 4977.46 1278.2 4982.78 1336.95 5004.31C1439.34 5041.84 1522.39 5117.45 1619.42 5165.77C1715.47 5213.6 1819.18 5230.14 1925.71 5218.32C2049.8 5204.58 2172.28 5169.42 2289.65 5127.61C2415.03 5082.9 2537.13 5027.56 2659.8 4975.95C2774.33 4927.76 2888.54 4878.79 3002.42 4829.04C3031.82 4816.14 3061.2 4803.16 3090.55 4790.13C3095.36 4787.98 3091.2 4780.87 3086.39 4783.01L3086.35 4782.96ZM3085.92 4739.02C2843.78 4861.93 2610.97 5002.47 2367.12 5122.07C2253.17 5177.95 2132.19 5221.18 2006.92 5243.01C1941.79 5254.38 1874.89 5261.25 1808.91 5253.97C1753.52 5247.87 1699.77 5231.52 1649.8 5207C1552.12 5159.09 1473.49 5083.23 1383.17 5024C1335.61 4992.81 1283.53 4966.92 1226.67 4958.94C1167.96 4950.69 1112.02 4963.27 1058.9 4988.42C956.065 5037.11 867.94 5115.55 782.46 5189.18C707.893 5253.43 633.552 5326.14 545.496 5371.89C516.929 5386.74 482.563 5400.31 449.914 5392.51C399.275 5380.38 364.194 5339.13 334.824 5298.94C302.168 5254.27 271.767 5207.88 230.769 5170.16C189.345 5132.04 141.036 5104.57 88.0463 5085.99C61.3008 5076.63 33.9575 5069.11 6.67598 5061.52C1.23343 5060.01 -1.08242 5068.46 4.34639 5069.97C60.1601 5085.5 116.256 5101.29 166.043 5131.82C220.427 5165.2 261.947 5212.27 298.842 5263.6C343.613 5325.87 401.076 5418.01 491.187 5401.26C527.347 5394.54 560.82 5374.93 591.098 5354.92C631.085 5328.49 668.345 5297.99 704.965 5267.16C792.239 5193.71 875.911 5115.19 970.221 5050.69C1022.28 5015.07 1079.48 4981.03 1142.19 4969.04C1205.9 4956.86 1270.85 4972.3 1327.73 5001.53C1426 5052.02 1504.77 5132.85 1599.3 5189.45C1695.76 5247.21 1802.6 5272.87 1914.86 5263.61C2040.29 5253.26 2164.31 5219.55 2280.35 5171.26C2407.03 5118.52 2528.15 5050.4 2648.51 4984.82C2765.52 4921.08 2881.6 4855.63 2999.49 4793.53C3029.64 4777.64 3059.92 4761.98 3090.32 4746.54C3095.35 4743.99 3090.92 4736.43 3085.9 4738.98L3085.92 4739.02ZM3085.49 4695.08C2836.93 4835.78 2610.91 5012.17 2363.58 5154.93C2251.32 5219.74 2131.58 5268.42 2003.19 5289.34C1936.02 5300.28 1866.22 5306.13 1798.59 5296.01C1742.18 5287.57 1688.14 5268.2 1638.32 5240.58C1539.12 5185.61 1461.24 5102.4 1373.18 5032.45C1328.21 4996.71 1279.32 4963.87 1223.73 4947.41C1167.35 4930.71 1109.1 4933.66 1054.44 4955.06C947.358 4996.98 857.171 5080.96 773.904 5157.85C696.808 5229.04 623.217 5307.18 537.146 5367.81C509.136 5387.55 476.866 5408.36 442.046 5412.54C396.169 5418.04 355.872 5384.04 328.549 5351.08C291.647 5306.56 263.534 5255.56 224.687 5212.48C185.689 5169.19 138.837 5134.74 86.4795 5109.35C60.6961 5096.85 34.0262 5086.32 7.12951 5076.48C1.51516 5074.42 -0.903769 5083.35 4.66935 5085.41C62.7576 5106.68 119.485 5132.07 167.912 5171.25C217.774 5211.59 253.872 5263 290.232 5315.11C316.97 5353.38 346.327 5393.79 390.617 5412.75C421.712 5426.07 451 5423.75 481.69 5410.64C518.688 5394.88 551.543 5369.91 582.57 5344.72C622.935 5311.93 660.978 5276.35 698.877 5240.78C782.089 5162.69 864.27 5081.12 959.322 5017.23C1014.54 4980.12 1077.23 4946.16 1145.41 4945.55C1207.94 4944.99 1265.91 4969.07 1317.42 5003.05C1414.32 5066.96 1491.7 5156.06 1588.22 5220.75C1632.3 5250.3 1679.94 5274.71 1730.81 5290.2C1789.05 5307.93 1849.57 5312.79 1910.17 5308.99C2035.97 5301.1 2159.62 5268.04 2273.22 5213.59C2402.64 5151.56 2523.74 5069.82 2642.93 4990.33C2760.71 4911.75 2877.03 4830.9 2998.01 4757.24C3028.46 4738.7 3059.2 4720.65 3090.23 4703.09C3095.42 4700.15 3090.75 4692.14 3085.55 4695.09L3085.49 4695.08ZM3085.06 4651.13C2836.49 4805.07 2622.81 5007.1 2381.55 5171.43C2322.08 5211.98 2260.96 5250.46 2194.85 5279.33C2139.36 5303.56 2081.25 5321.3 2021.68 5332.19C1953.4 5344.64 1881.13 5350.99 1812 5342.41C1751.71 5334.93 1693.76 5314.5 1641.04 5284.5C1541.07 5227.65 1463.42 5141.53 1381.37 5062.65C1298.27 4982.75 1194.25 4896.91 1070.41 4919.64C1006.5 4931.37 948.994 4968.44 898.052 5007.05C853.474 5040.87 811.947 5078.52 771.685 5117.35C692.101 5194.05 618.407 5277.11 535.772 5350.6C505.996 5377.09 474.227 5404.03 437.744 5420.85C399.949 5438.28 363.411 5431.92 330.542 5405.65C283.813 5368.31 256.188 5309.78 221.169 5262.39C185.538 5214.19 143.186 5171.62 93.2414 5138.25C66.441 5120.38 38.0188 5105.26 8.71692 5091.9C3.02698 5089.31 -1.95516 5097.75 3.77601 5100.36C63.1768 5127.45 117.973 5162.61 163.74 5209.49C210.009 5256.9 241.902 5313.98 281.291 5366.62C307.7 5401.92 343.551 5438.22 390.355 5441.44C420.015 5443.51 449.103 5427.78 473.141 5412.16C510.044 5388.17 543.001 5358.15 574.846 5327.92C615.466 5289.32 654.381 5248.96 693.647 5208.99C775.67 5125.47 859.377 5038.17 959.707 4976.37C1020.6 4938.87 1087.63 4915.8 1159.31 4931.16C1222.53 4944.71 1277 4982.7 1325.16 5024.31C1413.92 5101 1489.22 5192.46 1585.42 5260.61C1630.81 5292.76 1680.37 5319.12 1733.63 5335.59C1795.11 5354.59 1858.49 5358.04 1922.39 5354.02C2052.85 5345.77 2177.23 5307.41 2290.09 5241.62C2415.74 5168.38 2531.53 5077.38 2645.53 4987.51C2761.86 4895.79 2876.83 4802.07 2999.34 4718.59C3029.14 4698.28 3059.38 4678.63 3090.05 4659.64C3095.39 4656.33 3090.49 4647.85 3085.11 4651.18L3085.06 4651.13ZM3084.63 4607.19C2927.2 4712.45 2787.76 4840.72 2647.88 4967.69C2576.89 5032.15 2505.48 5096.23 2431.06 5156.74C2371.96 5204.84 2311.3 5252.26 2245.98 5291.72C2183.45 5329.52 2115.98 5357.94 2044.55 5373.82C1966.61 5391.14 1881.33 5398.4 1802 5386.57C1682.43 5368.7 1582.83 5299.78 1497.96 5217.1C1419.62 5140.82 1352.96 5052.35 1269.5 4981.39C1201.32 4923.39 1114.52 4879.43 1023.02 4901.72C975.286 4913.35 931.622 4939.11 892.177 4967.63C844.658 5001.99 801.344 5041.85 759.879 5083.18C674.578 5168.18 597.832 5261.24 512.944 5346.6C481.869 5377.84 449.289 5409.77 411.239 5432.56C379.835 5451.39 349.392 5456.53 316.022 5438.15C272.784 5414.35 246.904 5365.99 221.622 5325.65C187.064 5270.49 150.43 5216.68 101.976 5172.61C73.8008 5146.96 42.5267 5125.11 9.1155 5106.82C3.29499 5103.64 -1.87956 5112.54 3.91346 5115.76C71.698 5152.87 127.031 5205.26 171.588 5268.08C203.886 5313.64 229.312 5364.57 265.177 5407.52C289.194 5436.27 325.299 5464.19 365.101 5460.69C397.688 5457.83 427.237 5436.06 451.948 5416.4C491.627 5384.84 526.969 5347.85 561.59 5310.94C603.213 5266.56 643.634 5221.08 684.941 5176.4C764.696 5090.13 849.028 4997.88 953.289 4940.88C994.616 4918.28 1039.45 4903.4 1087 4906.58C1133.99 4909.72 1177.91 4928.36 1216.81 4954.2C1306.35 5013.67 1373.66 5102.6 1446.86 5179.87C1525.66 5263.02 1614.15 5341.65 1724.65 5378.65C1791.18 5400.93 1860.27 5404.34 1929.86 5400.01C2007.56 5395.2 2084.27 5379.33 2156.21 5349.24C2219.69 5322.7 2277.93 5285.94 2333.33 5245.43C2404.61 5193.31 2472.72 5136.92 2539.18 5078.83C2683.79 4952.38 2821.05 4817.29 2973.39 4699.92C3011.28 4670.73 3050.09 4642.81 3089.83 4616.16C3095.33 4612.49 3090.17 4603.56 3084.63 4607.23V4607.19Z" fill="url(#paint10_linear_921_39)"/>
<path opacity="0.2" d="M4056.81 3715.45C4057.64 3716.47 4056.19 3717.94 4055.35 3716.91C4045.35 3704.47 4035.98 3691.56 4026.92 3678.42C3971.76 3598.41 3924.25 3513.25 3871.89 3431.42C3809.27 3333.49 3742.02 3237.27 3660.93 3153.57C3584.43 3074.61 3492.03 3003.97 3383.06 2978.64C3311.28 2961.97 3237.07 2984.4 3173.25 3017.61C3110.09 3050.48 3059.9 3096.64 3019.32 3154.89C2979.32 3212.29 2947.97 3275.07 2911.19 3334.48C2894.74 3361.06 2877.21 3387.06 2857.3 3411.19C2834.58 3438.74 2808.09 3461.84 2780.51 3484.38C2662.65 3580.71 2526.1 3661.46 2372.81 3681.43C2212.51 3702.32 2050.76 3658.49 1906.84 3589.73C1842.16 3558.81 1780.47 3524.27 1728.44 3474.4C1682.6 3430.46 1644.55 3379.5 1603.96 3330.88C1562.55 3281.29 1517.37 3234.31 1461.27 3201.25C1397.59 3163.71 1320.63 3140.93 1246.41 3143.06C1187.72 3144.75 1131.94 3163.67 1081.49 3193.15C1040.54 3217.09 1004.07 3247.31 965.495 3274.68C964.409 3275.45 963.378 3273.67 964.457 3272.9C982.255 3260.31 999.435 3246.99 1016.92 3234.08C1057.37 3204.23 1099.92 3176.72 1147.53 3159.73C1205.34 3139.11 1267.21 3136.12 1327.23 3148.28C1395.74 3162.16 1460.81 3191.97 1514.87 3236.36C1563.45 3276.25 1602.66 3325.7 1642.1 3374.25C1683.5 3425.21 1726.35 3475.6 1779.4 3514.93C1844.68 3563.32 1923.38 3598.41 1999.04 3626.94C2157.02 3686.48 2330.06 3706.66 2492.21 3651.24C2568.23 3625.26 2639.02 3585.74 2704.59 3539.65C2767.18 3495.67 2829.07 3447.79 2874.59 3385.65C2953.05 3278.58 2997.6 3141.39 3105.6 3058.11C3160.09 3016.08 3226.99 2984.22 3295.27 2973.63C3350.96 2965 3404.69 2978.53 3455.69 3000.7C3558.24 3045.21 3642.37 3124.75 3713.84 3208.99C3787.75 3296.11 3850.48 3392.05 3910.53 3489.03C3957.55 3564.96 4000.66 3645.67 4056.79 3715.45H4056.81ZM4056.69 3671.55C4026.73 3642.48 4001.26 3608.89 3976.39 3575.49C3944.19 3532.25 3913.23 3488.11 3881.45 3444.56C3810.56 3347.4 3735.93 3251.33 3645.89 3170.97C3599.58 3129.64 3549 3092.63 3493.27 3064.99C3435.73 3036.48 3368.99 3013.9 3304 3019.8C3241.09 3025.5 3179.62 3050.4 3125.33 3081.79C3071.67 3112.8 3027.18 3153.38 2988.92 3202.01C2951.12 3250.05 2919.27 3302.39 2883.24 3351.73C2864.69 3377.15 2844.93 3401.84 2822.55 3424.04C2798.25 3448.13 2770.32 3467.6 2742.04 3486.68C2614.76 3572.58 2469.62 3642.98 2316.48 3665.24C2165.37 3687.23 2009.5 3662.04 1869.85 3601.59C1807.37 3574.55 1749.31 3541.61 1699.94 3494.27C1658.49 3454.5 1623.67 3408.72 1587.31 3364.43C1551.9 3321.29 1514.34 3279.44 1468.79 3246.73C1415.7 3208.62 1351.66 3183.1 1286.97 3173.93C1234.64 3166.4 1181.26 3171.95 1131.6 3190.1C1089 3205.7 1050.41 3229.63 1013.12 3255.11C997.05 3266.11 981.149 3277.33 964.766 3287.84C963.392 3288.74 964.663 3290.97 966.065 3290.07C1001.67 3267.21 1035.34 3241.51 1072.26 3220.66C1117.69 3195.04 1167.25 3177.26 1219.58 3173.78C1287.37 3169.28 1356.4 3187.62 1416.66 3218.02C1470.26 3245.07 1515.06 3285.16 1554.62 3329.83C1630.65 3415.64 1693.33 3512.73 1796.75 3568.88C1920.86 3636.28 2061.49 3674.98 2202.97 3675.63C2352.3 3676.32 2495.02 3629.65 2625.82 3559.87C2687.26 3527.09 2750.58 3490.18 2803.74 3444.86C2847.73 3407.35 2881.68 3359.65 2914.11 3312.23C2950.21 3259.43 2985.01 3205.03 3029.65 3158.88C3075.78 3111.13 3133.35 3075.52 3194.74 3050.71C3226.8 3037.74 3260.45 3027.6 3294.85 3023.37C3328.11 3019.24 3360.25 3022.8 3392.73 3030.66C3461.87 3047.37 3525.82 3081.17 3582.93 3123.06C3682.17 3195.86 3762.97 3291.49 3836.98 3389.01C3898.26 3469.77 3953.46 3555.62 4018.4 3633.55C4029.93 3647.39 4041.92 3660.85 4054.85 3673.41C4056.05 3674.56 4057.87 3672.72 4056.68 3671.59L4056.69 3671.55ZM4056.26 3627.4C4023.07 3602.85 3994.59 3572.17 3967.08 3541.58C3932.37 3502.97 3899.18 3463.01 3865.29 3423.68C3789.86 3336.19 3710.93 3249.92 3617.17 3181.62C3520.53 3111.23 3393.14 3050.36 3270.7 3071.32C3147.49 3092.4 3034.75 3163.14 2952.82 3255.71C2913.76 3299.84 2879.03 3347.69 2838.6 3390.59C2817.98 3412.5 2795.68 3433.06 2770.8 3450.09C2744 3468.45 2714.59 3483.55 2685.81 3498.52C2619.25 3533.16 2550.3 3563.01 2480.11 3589.46C2410.33 3615.75 2339.39 3638.62 2265.87 3651.81C2124.77 3677.14 1975.97 3670.15 1841.07 3619.52C1780.59 3596.84 1724.24 3566.24 1676.6 3522.28C1636.56 3485.35 1603.16 3442.16 1569.04 3399.91C1534.92 3357.65 1499.34 3315.9 1456.09 3282.51C1407.19 3244.75 1348.52 3218.54 1287.93 3206.53C1236.88 3196.4 1184.35 3198.46 1134.55 3213.74C1091.26 3227.03 1051.78 3249.33 1013.5 3273.11C997.401 3283.12 981.424 3293.34 964.965 3302.77C963.241 3303.76 964.8 3306.43 966.532 3305.44C1002.27 3284.97 1036.03 3261.29 1072.75 3242.54C1118.72 3219.07 1168.41 3203.94 1220.31 3203.21C1286.54 3202.28 1353.96 3223.24 1411.1 3256.03C1460.33 3284.29 1501.12 3324 1537.77 3366.89C1572.93 3408.03 1604.91 3451.86 1641.69 3491.61C1680.02 3533.03 1723.32 3567.89 1773.8 3593.38C1893.48 3653.86 2029.73 3675.85 2162.9 3667.41C2306.34 3658.32 2443.02 3611.51 2574.09 3554.9C2637.53 3527.49 2700.76 3497.24 2759.7 3460.98C2807.12 3431.82 2844.97 3390.2 2880.27 3347.75C2918.19 3302.17 2954.2 3254.76 2997.24 3213.74C3043.93 3169.28 3099.11 3135.51 3158.05 3109.75C3217.23 3083.87 3283.18 3064.03 3348.4 3071.75C3419.68 3080.19 3487.9 3105.66 3549.88 3141.34C3652.89 3200.61 3738.68 3285.84 3817.45 3373.74C3883.87 3447.85 3944.23 3528.71 4016.41 3597.44C4028.5 3609.1 4041.31 3619.99 4054.75 3630.06C4056.35 3631.24 4057.89 3628.56 4056.31 3627.38L4056.26 3627.4ZM4056.09 3583.47C4019.86 3563.78 3988.06 3536.69 3957.59 3509.17C3920.48 3475.66 3885.04 3440.34 3849.01 3405.66C3767.92 3327.58 3683.43 3250.85 3585.04 3194.93C3481.58 3136.13 3355.52 3096.95 3236.83 3124.67C3117.84 3152.46 3008.56 3216.14 2920.91 3300.3C2881.1 3338.52 2844.08 3379.92 2801.28 3414.92C2752.19 3455.09 2694.64 3478.07 2636.03 3500.9C2569.37 3526.88 2501.56 3549.91 2434.03 3573.6C2365.27 3597.71 2296.44 3621.3 2225.31 3637.55C2091.88 3668.04 1948.24 3678.2 1815.74 3637.83C1756.79 3619.87 1701.5 3592.1 1655.01 3551.37C1615.23 3516.51 1582.39 3474.87 1549.5 3433.71C1516.96 3392.99 1483.75 3352.36 1443.49 3318.95C1398.82 3281.84 1345.8 3255.09 1289.56 3240.39C1238.63 3227.06 1185.42 3225.89 1134.32 3238.96C1092.14 3249.74 1053.24 3269.39 1015.4 3290.43C998.734 3299.69 982.193 3309.17 965.158 3317.74C963.096 3318.78 964.904 3321.86 966.979 3320.86C1003.4 3302.54 1037.82 3280.58 1075.05 3263.86C1121.91 3242.82 1172.16 3230.83 1223.74 3233.55C1287.45 3236.89 1351.56 3260.15 1404.8 3294.82C1449.73 3324.05 1486.78 3363 1520.8 3404.05C1553.91 3443.99 1584.71 3485.94 1620.66 3523.45C1658.25 3562.62 1701.19 3594.62 1750.71 3617.19C1866.91 3670.15 1998.87 3676.21 2123.86 3659.64C2265.21 3640.91 2398.74 3590.4 2532.39 3543.01C2594.13 3521.12 2655.66 3498.4 2715.58 3471.88C2764.42 3450.25 2805.35 3418.56 2843.76 3381.79C2884.99 3342.33 2923.47 3300.01 2967.24 3263.3C3015.41 3222.89 3069.79 3191.53 3127.2 3166.17C3184.83 3140.71 3248.27 3119 3311.92 3118.39C3379.95 3117.75 3449.97 3136.67 3512.27 3162.96C3619.89 3208.36 3712.14 3282.9 3797.18 3361.62C3867.4 3426.63 3932.42 3499.15 4008.95 3556.97C4023.38 3567.86 4038.34 3577.99 4054.22 3586.62C4056.28 3587.73 4058.08 3584.61 4056.04 3583.5L4056.09 3583.47ZM4055.4 3539.32C4016.43 3524.74 3981.08 3501.74 3947.34 3477.73C3906.41 3448.6 3867.26 3417.03 3827.57 3386.24C3741.33 3319.32 3651.83 3254.57 3550.45 3212.43C3493.62 3188.81 3433.71 3172.94 3372.53 3166.15C3311.34 3159.36 3253.88 3164.24 3194.73 3181.57C3079.01 3215.45 2974.03 3273.95 2880.16 3348.88C2838.89 3381.82 2798.38 3416.62 2751.93 3442.17C2700.54 3470.42 2641.47 3483.4 2585.33 3498.88C2518.59 3517.32 2451.77 3535.57 2386.19 3557.87C2320.37 3580.21 2255.16 3604.11 2188.22 3623.01C2062.09 3658.61 1924.55 3684.33 1794.34 3655.99C1736.84 3643.46 1682.21 3619.51 1636.29 3582.39C1597.12 3550.75 1565.02 3511.77 1533.83 3472.54C1502.01 3432.53 1470.54 3391.89 1432.51 3357.48C1390.68 3319.71 1341.24 3291.35 1287.51 3274.33C1238.55 3258.73 1186.83 3254.4 1136.27 3264.18C1094.35 3272.3 1055.26 3289.56 1017.1 3308.16C999.957 3316.53 982.922 3325.12 965.405 3332.67C962.979 3333.72 965.075 3337.27 967.467 3336.23C1005.2 3319.95 1040.95 3299.45 1079.48 3284.88C1125.93 3267.31 1175.05 3259.11 1224.61 3264.75C1286.7 3271.8 1348.09 3297.73 1398.25 3334.68C1440.42 3365.74 1474.9 3405.39 1507.52 3446C1538.83 3485.02 1568.99 3525.25 1605.04 3560.08C1641.24 3595.13 1682.99 3622.75 1730.03 3641.01C1844.19 3685.35 1972.28 3675.72 2089.83 3651.44C2225.13 3623.49 2352.4 3569.84 2484.65 3531.34C2546.78 3513.25 2609.53 3497.34 2671.46 3478.57C2721.06 3463.55 2764.77 3442.29 2806.74 3411.73C2850.6 3379.79 2891.21 3343.64 2935.21 3311.88C2985.22 3275.78 3039.26 3246.89 3095.76 3222.33C3154.14 3196.96 3216.25 3174.66 3279.93 3168.04C3344.05 3161.41 3411.87 3172.62 3473.52 3189.96C3584.84 3221.27 3683.62 3283.14 3775.59 3351.68C3851.54 3408.28 3923.23 3473.87 4006.08 3520.51C4021.55 3529.33 4037.69 3536.93 4054.34 3543.25C4056.82 3544.18 4057.9 3540.2 4055.43 3539.28L4055.4 3539.32ZM4055.18 3495.34C3966.34 3475.24 3887.46 3419.86 3810.54 3373.61C3716.19 3316.86 3618.86 3263.04 3511.85 3234.32C3451.29 3218.06 3388.69 3209.93 3326 3209.39C3267.59 3208.89 3211.85 3220.54 3156.44 3238.45C3099.11 3257.01 3042.71 3280.06 2988.37 3306.08C2935.65 3331.33 2886.26 3362.27 2836.68 3393.08C2794.08 3419.55 2750.49 3445.54 2702.32 3460.6C2648.89 3477.31 2591.4 3482.38 2536.43 3492.28C2471.71 3503.96 2407.58 3518.56 2345.18 3539.48C2280.02 3561.32 2216.12 3586.75 2150.99 3608.69C2031.66 3648.89 1901.72 3687.31 1774.46 3672.35C1718.01 3665.72 1664.07 3646.28 1617.98 3612.74C1577.64 3583.38 1545.05 3545.17 1514.16 3506.37C1483.64 3468.04 1454.16 3428.67 1418.93 3394.45C1381.04 3357.52 1336.05 3328.66 1286.68 3309.62C1239.34 3291.34 1188.61 3283.56 1138.12 3290.05C1095.77 3295.5 1055.94 3310.59 1016.8 3327C1000.03 3334.04 983.307 3341.19 966.175 3347.34C963.385 3348.34 964.587 3352.83 967.412 3351.81C1004.32 3338.57 1039.57 3321.04 1076.89 3308.93C1124.16 3293.61 1173.5 3288.02 1222.71 3296.45C1281.48 3306.54 1338.5 3333.51 1385.02 3370.62C1423.27 3401.14 1454.82 3438.74 1485.09 3476.93C1546.04 3553.84 1607.15 3630.35 1704.04 3661.92C1815.76 3698.34 1939.48 3675.3 2049.74 3644.87C2180.3 3608.85 2303.81 3550.67 2435.25 3518.23C2495.59 3503.34 2556.89 3493.42 2618.11 3483C2667.49 3474.6 2714.31 3464.61 2759.57 3442.46C2805.01 3420.25 2846.99 3391.64 2890.13 3365.37C2943.96 3332.59 2999.77 3304.64 3057.9 3280.33C3114.48 3256.67 3172.66 3235.11 3232.85 3222.67C3296.47 3209.52 3362.9 3212.31 3426.9 3221.56C3542.47 3238.25 3648.87 3285.42 3749.48 3342.98C3831.87 3390.11 3910.86 3446.85 3999.29 3482.48C4017.02 3489.72 4035.3 3495.52 4053.96 3499.83C4056.87 3500.51 4058.08 3496.01 4055.2 3495.35L4055.18 3495.34ZM4054.25 3451.28C3959.92 3442.21 3871.93 3397.45 3786.25 3360.22C3685.54 3316.49 3582.59 3277.15 3473.12 3262.37C3410.56 3253.94 3347.28 3252.14 3284.35 3257.01C3228.09 3261.38 3172.99 3277.38 3119.7 3295.15C3062.2 3314.31 3005.15 3335.89 2949.34 3359.55C2898.3 3381.19 2848.78 3406.11 2798.06 3428.44C2753.23 3448.17 2706.84 3464.81 2657.98 3470.69C2602.55 3477.36 2546.28 3476.45 2490.69 3482.03C2428.15 3488.3 2366.44 3500.24 2306.81 3520.24C2243.2 3541.54 2181.4 3568.19 2118.99 3592.71C2005.78 3637.2 1884.58 3685.89 1761.08 3686.36C1707.01 3686.57 1654.2 3674.99 1607.59 3646.91C1565.74 3621.69 1531.96 3586.15 1501.29 3548.56C1471.01 3511.45 1443.09 3472.36 1410.29 3437.35C1374.64 3399.29 1333.56 3368.09 1286.01 3346.35C1239.89 3325.28 1189.93 3313.63 1139.09 3316.8C1097.93 3319.38 1058.57 3331.32 1019.82 3344.71C1002.11 3350.83 984.454 3357.08 966.436 3362.23C963.247 3363.13 964.601 3368.11 967.81 3367.2C1005.31 3356.52 1041.34 3341.27 1079.18 3331.71C1127.29 3319.57 1176.71 3317.84 1225.01 3330.01C1282.12 3344.4 1335.42 3374.13 1378.94 3413.6C1414.86 3446.15 1444.44 3484.68 1474.2 3522.72C1532.36 3597.03 1597.26 3666.91 1694.05 3685.58C1805.06 3706.99 1921.87 3670.38 2025.52 3633.47C2149.1 3589.49 2268.79 3527.46 2397.9 3501.04C2458.82 3488.58 2520.69 3483.97 2582.68 3480.74C2631.67 3478.18 2679.32 3475.61 2726.55 3461.2C2772 3447.34 2815.04 3426.65 2857.96 3406.52C2914.2 3380.14 2970.95 3355.58 3029 3333.4C3086.1 3311.58 3143.84 3290.54 3203.31 3275.99C3262.62 3261.48 3322.97 3258.29 3383.86 3260.18C3503.11 3263.89 3616.39 3295.34 3726.22 3340.34C3815.06 3376.76 3901.86 3423.08 3995.5 3446.27C4014.81 3451.1 4034.45 3454.5 4054.25 3456.44C4057.55 3456.76 4057.53 3451.63 4054.25 3451.29V3451.28ZM4053.95 3407.3C3955.32 3409.2 3859.53 3378.29 3765.49 3352.32C3653.9 3321.47 3541.42 3296.82 3425.11 3295.88C3365.83 3295.4 3305.12 3298.08 3246.57 3307.82C3187.69 3317.61 3130.32 3335.84 3073.75 3354.52C3014.56 3374.06 2955.53 3394.11 2896.66 3414.67C2848.71 3431.41 2800.75 3448.77 2751.42 3461.07C2707.05 3472.14 2661.7 3477.91 2615.94 3475.88C2559.59 3473.39 2503.52 3467.42 2447 3469.24C2385.84 3471.2 2325.51 3481.53 2267.57 3501.25C2208.11 3521.49 2150.75 3547.9 2093.48 3573.51C1985.34 3621.89 1873.89 3677.5 1755.52 3695.15C1705.76 3702.56 1653.52 3701.92 1606.49 3682.25C1561.47 3663.41 1524.3 3631.18 1492.42 3594.83C1429.46 3523.04 1380.41 3439.37 1295.44 3390.31C1249.12 3363.55 1197.58 3345.78 1143.79 3344.48C1102.09 3343.47 1061.5 3352.67 1021.47 3363.4C1003.28 3368.28 985.128 3373.32 966.683 3377.15C963.117 3377.9 964.622 3383.33 968.188 3382.64C1006.96 3374.53 1044.54 3361.52 1083.64 3354.85C1133.8 3346.28 1184.36 3349.8 1232.4 3367C1286.69 3386.43 1334.56 3419.05 1374.44 3460.39C1407.43 3494.54 1435 3533.23 1464.57 3570.22C1521.47 3641.42 1590.56 3700.43 1685.6 3704.91C1793.55 3709.99 1901.07 3663.68 1998.11 3621.91C2056.12 3596.94 2113.39 3570.28 2171.4 3545.31C2232.33 3519.08 2294.01 3494.79 2359.69 3483.53C2418.97 3473.38 2479.03 3473.22 2538.91 3476.66C2588.76 3479.5 2638.21 3484.86 2688.03 3478.78C2789 3466.45 2885.25 3423.8 2980.97 3391.73C3039.59 3372.09 3097.9 3351.33 3157.39 3334.45C3216.49 3317.68 3275.37 3308.26 3336.65 3304.21C3458.62 3296.2 3577.65 3309.81 3695.95 3339.65C3792.37 3363.97 3887.58 3397.95 3986.74 3409.58C4009.03 3412.24 4031.48 3413.37 4053.92 3412.98C4057.57 3412.9 4057.58 3407.23 4053.92 3407.31L4053.95 3407.3ZM4053.66 3363.32C3951.74 3375.79 3849.56 3360.74 3748.44 3348C3629.99 3333.08 3512.05 3324.2 3392.78 3334.89C3334.37 3340.13 3275.17 3346.65 3217.83 3359.1C3157.52 3372.16 3098.56 3390.97 3039.59 3409C2933.62 3441.39 2823.81 3477.76 2712.62 3485.92C2611.98 3493.31 2516.41 3459.64 2416.57 3455.05C2357.39 3452.3 2298.12 3459.47 2241.7 3477.73C2183.49 3496.6 2127.96 3523.61 2073.21 3550.7C1969.32 3602.1 1866.79 3661.9 1755.32 3695.7C1709.33 3709.64 1659.81 3719.37 1611.74 3711.5C1564.67 3703.83 1523.1 3677.35 1489.26 3644.61C1421.86 3579.33 1378.74 3493.13 1302.03 3436.74C1258.63 3404.84 1207.32 3381.54 1153.72 3374.27C1111.8 3368.58 1070.13 3373.69 1028.84 3381.29C1008.53 3385.03 988.296 3389.17 967.803 3391.87C963.914 3392.39 963.866 3398.58 967.803 3398.06C1008.63 3392.66 1048.64 3382.03 1089.77 3378.88C1142.25 3374.81 1194.86 3384.88 1242.12 3408.06C1291.98 3432.28 1333.56 3467.49 1369.51 3509.34C1399.96 3544.82 1426.33 3583.56 1456.82 3619.01C1485.9 3652.82 1519.41 3683.17 1560.22 3702.04C1598.4 3719.68 1640.04 3723.28 1681.49 3718.25C1786.38 3705.51 1885.21 3652.45 1978.2 3605.54C2031.98 3578.43 2085.47 3550.67 2140.19 3525.46C2199.97 3497.9 2261.19 3473.43 2326.86 3464.81C2386.98 3456.93 2447.27 3461.58 2506.85 3471.45C2554.6 3479.37 2601.77 3490.58 2650.25 3492.95C2748.52 3497.76 2845.24 3471.28 2938.98 3445.07C3058.38 3411.68 3174.85 3368.9 3298.17 3352.01C3421 3335.18 3542.68 3331.85 3666.08 3344.57C3770.53 3355.33 3874.81 3375.28 3980.13 3374.29C4004.71 3374.07 4029.26 3372.47 4053.66 3369.48C4057.55 3369.01 4057.6 3362.82 4053.66 3363.3V3363.32ZM4052.46 3319.47C3944.57 3342.67 3834.19 3343.52 3724.34 3345.64C3603.54 3347.95 3483.99 3355.62 3364.82 3376.4C3304.44 3386.94 3243.75 3397.45 3184.33 3412.61C3124.44 3427.88 3065.37 3446.12 3005.72 3462.26C2900.01 3490.86 2789.11 3516.46 2678.88 3507.19C2577.34 3498.64 2484.49 3452.44 2383.58 3440.6C2324.81 3433.72 2265.16 3438.66 2208.73 3456.68C2151.61 3474.91 2097.62 3502.56 2044.99 3530.95C1945.2 3584.76 1849.48 3647.6 1745.2 3692.7C1702.24 3711.25 1656.2 3727.54 1609.05 3729.8C1564.74 3731.94 1524.2 3717.52 1488.65 3691.32C1411.32 3634.34 1370.49 3541.42 1297.91 3479.07C1258.17 3444.92 1210.35 3418.3 1159.23 3406.02C1116.46 3395.71 1072.89 3397.08 1029.44 3401.36C1009.03 3403.37 988.646 3405.71 968.147 3406.81C963.859 3407.05 963.832 3413.75 968.147 3413.51C1010.65 3411.24 1052.8 3403.73 1095.47 3404.68C1151.13 3405.93 1203.44 3423.24 1250.6 3452.61C1295.55 3480.62 1331.47 3518.9 1363.94 3560.29C1392.32 3596.45 1418.39 3634.8 1450.96 3667.43C1480.02 3696.53 1515.87 3721.98 1556.33 3731.89C1594.54 3741.24 1634.82 3736.01 1672.31 3725.89C1774.28 3698.34 1867.07 3639.26 1957.94 3587.33C2008.57 3558.38 2059.36 3529.55 2111.83 3504.02C2172.3 3474.61 2234.83 3450.18 2302.47 3445.28C2362 3440.97 2420.73 3450.97 2477.99 3466.69C2526.43 3479.99 2573.76 3497.02 2623.24 3506.3C2845 3547.88 3059.46 3440.93 3273.03 3400.17C3397.73 3376.37 3521.67 3358.54 3648.7 3354.23C3758.81 3350.49 3869.61 3353.44 3979.06 3338.94C4004.3 3335.59 4029.36 3331.24 4054.25 3325.88C4058.46 3324.97 4056.67 3318.51 4052.46 3319.42V3319.47ZM4052.1 3275.49C3943.86 3307.84 3832.5 3326.13 3721.12 3343.72C3599.33 3362.96 3478.49 3384.73 3358.81 3414.65C3299.56 3429.46 3239.93 3443.03 3180.95 3458.81C3119.55 3475.22 3058.6 3493.31 2996.78 3508.28C2887.29 3534.8 2773.13 3552.63 2661.32 3529.84C2562.18 3509.63 2474.99 3455.62 2377.19 3431.5C2321.06 3417.65 2262.12 3414.89 2205.48 3427.53C2147.13 3440.59 2092.42 3468.21 2040.5 3497.09C1941.55 3552.15 1849.69 3618.78 1751.52 3675.11C1682.74 3714.57 1588.8 3768.19 1507.04 3738.74C1413.47 3705.07 1368.79 3604.73 1305.13 3535.92C1268.09 3495.9 1223.18 3462.94 1172.22 3442.95C1127.99 3425.61 1081.31 3421.44 1034.2 3421.65C1012.29 3421.72 990.378 3422.34 968.47 3421.76C963.825 3421.64 963.825 3428.85 968.47 3428.97C1015.35 3430.22 1062.48 3426.11 1109.05 3433.41C1166.77 3442.46 1220.63 3469.55 1265.04 3507.27C1338.19 3569.45 1377.74 3664.55 1456.61 3720.18C1488.62 3742.77 1525.09 3755.97 1564.5 3753.66C1604.16 3751.33 1642.47 3737.45 1678.39 3721.25C1777.61 3676.49 1866.92 3611.36 1958.97 3553.99C2061.6 3490.03 2173.78 3420.89 2299.19 3427C2409.83 3432.38 2504.17 3492.38 2607.84 3523.72C2828.94 3590.55 3053.57 3496.75 3267.54 3444.86C3390.72 3414.99 3513 3385.08 3638.16 3364.36C3749.3 3345.95 3861.23 3331.12 3970.9 3304.86C3998.82 3298.17 4026.53 3290.72 4054.05 3282.49C4058.49 3281.16 4056.6 3274.2 4052.13 3275.54L4052.1 3275.49ZM4051.73 3231.51C3939.03 3273.77 3823.83 3308.62 3708.35 3342.44C3585.89 3378.31 3463.97 3415.37 3342.68 3455.06C3282.9 3474.63 3222.55 3491.74 3162.12 3509.08C3102.72 3526.11 3043.23 3542.82 2982.76 3555.71C2869.84 3579.76 2754.4 3589.31 2642.75 3554.2C2544.82 3523.41 2461.45 3461.65 2365.86 3425.7C2311 3405.08 2252.69 3395.54 2194.25 3403.09C2136.04 3410.61 2081.42 3436.49 2030.7 3464.88C1932.79 3519.7 1844.16 3589.27 1751.92 3652.77C1710.69 3681.16 1668.64 3708.98 1623.76 3731.33C1588.8 3748.74 1549.81 3764.52 1510.09 3763.93C1413.35 3762.52 1358.01 3657.83 1305.72 3591.83C1270.94 3547.93 1230.36 3509.36 1180.8 3482.56C1137.2 3458.97 1089.64 3448.15 1040.67 3443.16C1016.75 3440.73 992.762 3439.19 968.862 3436.6C963.921 3436.06 963.962 3443.8 968.862 3444.33C1018.79 3449.74 1069.45 3450.75 1117.98 3464.98C1176.18 3482.05 1227.69 3516.97 1269.06 3560.88C1331.93 3627.62 1373.73 3725.72 1463.38 3761.9C1536.22 3791.3 1616.57 3747.09 1678 3710.12C1772.93 3653 1859.59 3583.21 1952.01 3522.26C2002.23 3489.15 2054.31 3457.19 2110.16 3434.44C2169.7 3410.18 2232.76 3401.78 2296.24 3413.82C2402.21 3433.89 2490.15 3501.32 2588.09 3542.33C2684.3 3582.61 2785.87 3593.05 2889.08 3579.9C3011.28 3564.32 3130.47 3526.98 3248.42 3492.62C3374.02 3456.03 3497.55 3412.46 3623.1 3375.48C3738.55 3341.47 3854.47 3308.74 3968.36 3269.65C3996.97 3259.83 4025.45 3249.6 4053.79 3238.97C4058.4 3237.24 4056.41 3229.76 4051.73 3231.51V3231.51ZM4050.35 3187.96C3814.01 3292.95 3576.02 3394.28 3336.36 3491.94C3221.64 3538.63 3101.48 3577.5 2979.76 3601.2C2863.21 3623.88 2745.64 3628.51 2633.55 3584.25C2535.44 3545.5 2454.72 3476.7 2362.11 3427.91C2313.63 3402.38 2261.32 3383.75 2206.18 3381.29C2146.35 3378.62 2090.32 3396.5 2037.46 3423.34C1936.98 3474.36 1848.93 3547.79 1760.8 3617.13C1718.71 3650.23 1676.52 3683.39 1632.15 3713.41C1596.84 3737.28 1559.39 3760.63 1518.5 3773.61C1480.6 3785.65 1445.71 3783.33 1410.79 3763.37C1366.89 3738.26 1337.26 3695.13 1308.22 3655.08C1276.76 3611.7 1244.03 3569.44 1201.46 3536.27C1155.92 3500.78 1104.19 3479 1048.09 3466.63C1022.3 3460.95 996.219 3456.68 970.298 3451.69C965.11 3450.69 962.89 3458.64 968.106 3459.64C1023.44 3470.28 1079.86 3478.16 1131.33 3502.41C1187.09 3528.67 1232.7 3570.28 1270.55 3618.33C1321.18 3682.58 1373.49 3785.89 1467.27 3789.86C1501.05 3791.29 1534.34 3778.38 1564.08 3763.62C1606.47 3742.59 1645.54 3715.07 1683.47 3686.97C1773.16 3620.55 1857.63 3547.08 1950.43 3484.86C2002.19 3450.15 2057.5 3416.83 2117.87 3399.65C2178.45 3382.46 2242.2 3387.78 2300.95 3409.31C2403.34 3446.84 2486.39 3522.45 2583.42 3570.77C2679.47 3618.6 2783.18 3635.14 2889.71 3623.32C3013.8 3609.58 3136.28 3574.42 3253.65 3532.61C3379.03 3487.9 3501.13 3432.56 3623.8 3380.95C3738.33 3332.76 3852.54 3283.79 3966.42 3234.04C3995.82 3221.14 4025.2 3208.16 4054.55 3195.13C4059.36 3192.98 4055.2 3185.87 4050.39 3188.01L4050.35 3187.96ZM4049.92 3144.02C3807.78 3266.93 3574.97 3407.47 3331.12 3527.07C3217.17 3582.95 3096.19 3626.18 2970.92 3648.01C2905.79 3659.38 2838.89 3666.25 2772.91 3658.97C2717.52 3652.87 2663.77 3636.52 2613.8 3612C2516.12 3564.09 2437.49 3488.23 2347.17 3429C2299.61 3397.81 2247.53 3371.92 2190.67 3363.94C2131.96 3355.69 2076.02 3368.27 2022.9 3393.42C1920.07 3442.11 1831.94 3520.55 1746.46 3594.18C1671.89 3658.43 1597.55 3731.14 1509.5 3776.89C1480.93 3791.74 1446.56 3805.31 1413.91 3797.51C1363.28 3785.38 1328.19 3744.13 1298.82 3703.94C1266.17 3659.27 1235.77 3612.88 1194.77 3575.16C1153.35 3537.04 1105.04 3509.57 1052.05 3490.99C1025.3 3481.63 997.957 3474.11 970.676 3466.52C965.233 3465.01 962.918 3473.46 968.346 3474.97C1024.16 3490.5 1080.26 3506.29 1130.04 3536.82C1184.43 3570.2 1225.95 3617.27 1262.84 3668.6C1307.61 3730.87 1365.08 3823.01 1455.19 3806.26C1491.35 3799.54 1524.82 3779.93 1555.1 3759.92C1595.09 3733.49 1632.34 3702.99 1668.97 3672.16C1756.24 3598.71 1839.91 3520.19 1934.22 3455.69C1986.28 3420.07 2043.48 3386.03 2106.19 3374.04C2169.9 3361.86 2234.85 3377.3 2291.73 3406.53C2390 3457.02 2468.77 3537.85 2563.3 3594.45C2659.76 3652.21 2766.6 3677.87 2878.86 3668.61C3004.29 3658.26 3128.31 3624.55 3244.35 3576.26C3371.03 3523.52 3492.15 3455.4 3612.51 3389.82C3729.52 3326.08 3845.6 3260.63 3963.49 3198.53C3993.64 3182.64 4023.92 3166.98 4054.32 3151.54C4059.35 3148.99 4054.92 3141.43 4049.9 3143.98L4049.92 3144.02ZM4049.49 3100.08C3800.93 3240.78 3574.91 3417.17 3327.58 3559.93C3215.32 3624.74 3095.58 3673.42 2967.19 3694.34C2900.02 3705.28 2830.22 3711.13 2762.59 3701.01C2706.18 3692.57 2652.14 3673.2 2602.32 3645.58C2503.12 3590.61 2425.24 3507.4 2337.18 3437.45C2292.21 3401.71 2243.32 3368.87 2187.73 3352.41C2131.35 3335.71 2073.1 3338.66 2018.44 3360.06C1911.36 3401.98 1821.17 3485.96 1737.9 3562.85C1660.81 3634.04 1587.22 3712.18 1501.15 3772.81C1473.14 3792.55 1440.87 3813.36 1406.05 3817.54C1360.17 3823.04 1319.87 3789.04 1292.55 3756.08C1255.65 3711.56 1227.53 3660.56 1188.69 3617.48C1149.69 3574.19 1102.84 3539.74 1050.48 3514.35C1024.7 3501.85 998.026 3491.32 971.13 3481.48C965.515 3479.42 963.096 3488.35 968.669 3490.41C1026.76 3511.68 1083.49 3537.07 1131.91 3576.25C1181.77 3616.59 1217.87 3668 1254.23 3720.11C1280.97 3758.38 1310.33 3798.79 1354.62 3817.75C1385.71 3831.07 1415 3828.75 1445.69 3815.64C1482.69 3799.88 1515.54 3774.91 1546.57 3749.72C1586.94 3716.93 1624.98 3681.35 1662.88 3645.78C1746.09 3567.69 1828.27 3486.12 1923.32 3422.23C1978.54 3385.12 2041.23 3351.16 2109.41 3350.55C2171.94 3349.99 2229.91 3374.07 2281.42 3408.05C2378.32 3471.96 2455.7 3561.06 2552.22 3625.75C2596.3 3655.3 2643.94 3679.71 2694.81 3695.2C2753.05 3712.93 2813.57 3717.79 2874.17 3713.99C2999.97 3706.1 3123.62 3673.04 3237.22 3618.59C3366.64 3556.56 3487.74 3474.82 3606.93 3395.33C3724.71 3316.75 3841.03 3235.9 3962.01 3162.24C3992.46 3143.7 4023.2 3125.65 4054.23 3108.09C4059.42 3105.15 4054.75 3097.14 4049.55 3100.09L4049.49 3100.08ZM4049.06 3056.13C3800.49 3210.07 3586.81 3412.1 3345.55 3576.43C3286.08 3616.98 3224.96 3655.46 3158.85 3684.33C3103.36 3708.56 3045.25 3726.3 2985.68 3737.19C2917.4 3749.64 2845.13 3755.99 2776 3747.41C2715.71 3739.93 2657.76 3719.5 2605.04 3689.5C2505.07 3632.65 2427.42 3546.53 2345.37 3467.65C2262.27 3387.75 2158.25 3301.91 2034.41 3324.64C1970.5 3336.37 1912.99 3373.44 1862.05 3412.05C1817.47 3445.87 1775.95 3483.52 1735.68 3522.35C1656.1 3599.05 1582.41 3682.11 1499.77 3755.6C1470 3782.09 1438.23 3809.03 1401.74 3825.85C1363.95 3843.28 1327.41 3836.92 1294.54 3810.65C1247.81 3773.31 1220.19 3714.78 1185.17 3667.39C1149.54 3619.19 1107.19 3576.62 1057.24 3543.25C1030.44 3525.38 1002.02 3510.26 972.717 3496.9C967.027 3494.31 962.045 3502.75 967.776 3505.36C1027.18 3532.45 1081.97 3567.61 1127.74 3614.49C1174.01 3661.9 1205.9 3718.98 1245.29 3771.62C1271.7 3806.92 1307.55 3843.22 1354.36 3846.44C1384.01 3848.51 1413.1 3832.78 1437.14 3817.16C1474.04 3793.17 1507 3763.15 1538.85 3732.92C1579.47 3694.32 1618.38 3653.96 1657.65 3613.99C1739.67 3530.47 1823.38 3443.17 1923.71 3381.37C1984.6 3343.87 2051.63 3320.8 2123.31 3336.16C2186.53 3349.71 2241 3387.7 2289.16 3429.31C2377.92 3506 2453.22 3597.46 2549.42 3665.61C2594.81 3697.76 2644.37 3724.12 2697.63 3740.59C2759.11 3759.59 2822.49 3763.04 2886.39 3759.02C3016.85 3750.77 3141.23 3712.41 3254.09 3646.62C3379.74 3573.38 3495.53 3482.38 3609.53 3392.51C3725.86 3300.79 3840.83 3207.07 3963.34 3123.59C3993.14 3103.28 4023.38 3083.63 4054.05 3064.64C4059.39 3061.33 4054.49 3052.85 4049.11 3056.18L4049.06 3056.13ZM4048.63 3012.19C3891.2 3117.45 3751.76 3245.72 3611.88 3372.69C3540.89 3437.15 3469.48 3501.23 3395.06 3561.74C3335.96 3609.84 3275.3 3657.26 3209.98 3696.72C3147.45 3734.52 3079.98 3762.94 3008.55 3778.82C2930.61 3796.14 2845.33 3803.4 2766 3791.57C2646.43 3773.7 2546.83 3704.78 2461.96 3622.1C2383.62 3545.82 2316.96 3457.35 2233.5 3386.39C2165.32 3328.39 2078.52 3284.43 1987.02 3306.72C1939.29 3318.35 1895.62 3344.11 1856.18 3372.63C1808.66 3406.99 1765.34 3446.85 1723.88 3488.18C1638.58 3573.18 1561.83 3666.24 1476.94 3751.6C1445.87 3782.84 1413.29 3814.77 1375.24 3837.56C1343.83 3856.39 1313.39 3861.53 1280.02 3843.15C1236.78 3819.35 1210.9 3770.99 1185.62 3730.65C1151.06 3675.49 1114.43 3621.68 1065.98 3577.61C1037.8 3551.96 1006.53 3530.11 973.116 3511.82C967.295 3508.64 962.12 3517.54 967.913 3520.76C1035.7 3557.87 1091.03 3610.26 1135.59 3673.08C1167.89 3718.64 1193.31 3769.57 1229.18 3812.52C1253.19 3841.27 1289.3 3869.19 1329.1 3865.69C1361.69 3862.83 1391.24 3841.06 1415.95 3821.4C1455.63 3789.84 1490.97 3752.85 1525.59 3715.94C1567.21 3671.56 1607.63 3626.08 1648.94 3581.4C1728.7 3495.13 1813.03 3402.88 1917.29 3345.88C1958.62 3323.28 2003.45 3308.4 2051 3311.58C2097.99 3314.72 2141.91 3333.36 2180.81 3359.2C2270.35 3418.67 2337.66 3507.6 2410.86 3584.87C2489.66 3668.02 2578.15 3746.65 2688.65 3783.65C2755.18 3805.93 2824.27 3809.34 2893.86 3805.01C2971.56 3800.2 3048.27 3784.33 3120.21 3754.24C3183.69 3727.7 3241.93 3690.94 3297.33 3650.43C3368.61 3598.31 3436.72 3541.92 3503.18 3483.83C3647.79 3357.38 3785.05 3222.29 3937.39 3104.92C3975.28 3075.73 4014.09 3047.81 4053.83 3021.16C4059.33 3017.49 4054.17 3008.56 4048.63 3012.23V3012.19Z" fill="url(#paint11_linear_921_39)"/>
<defs>
<linearGradient id="paint0_linear_921_39" x1="2769.21" y1="950.349" x2="2761.59" y2="1993.7" gradientUnits="userSpaceOnUse">
<stop offset="0.03125" stop-color="#F3B34E" stop-opacity="0.02"/>
<stop offset="0.437063" stop-color="#F3B34E" stop-opacity="0.2"/>
<stop offset="0.864583" stop-color="#12BAD6"/>
<stop offset="1" stop-color="#12BAD6" stop-opacity="0.1"/>
</linearGradient>
<linearGradient id="paint1_linear_921_39" x1="2769.97" y1="845.612" x2="2760.82" y2="2098.44" gradientUnits="userSpaceOnUse">
<stop offset="0.03125" stop-color="#F3B34E" stop-opacity="0.02"/>
<stop offset="0.437063" stop-color="#F3B34E" stop-opacity="0.2"/>
<stop offset="0.864583" stop-color="#12BAD6"/>
<stop offset="1" stop-color="#12BAD6" stop-opacity="0.1"/>
</linearGradient>
<linearGradient id="paint2_linear_921_39" x1="2770.74" y1="740.901" x2="2760.06" y2="2203.15" gradientUnits="userSpaceOnUse">
<stop offset="0.03125" stop-color="#F3B34E" stop-opacity="0.02"/>
<stop offset="0.437063" stop-color="#F3B34E" stop-opacity="0.2"/>
<stop offset="0.864583" stop-color="#12BAD6"/>
<stop offset="1" stop-color="#12BAD6" stop-opacity="0.1"/>
</linearGradient>
<linearGradient id="paint3_linear_921_39" x1="2771.51" y1="636.163" x2="2759.3" y2="2307.89" gradientUnits="userSpaceOnUse">
<stop offset="0.03125" stop-color="#F3B34E" stop-opacity="0.02"/>
<stop offset="0.437063" stop-color="#F3B34E" stop-opacity="0.2"/>
<stop offset="0.864583" stop-color="#12BAD6"/>
<stop offset="1" stop-color="#12BAD6" stop-opacity="0.1"/>
</linearGradient>
<linearGradient id="paint4_linear_921_39" x1="2772.27" y1="531.425" x2="2758.53" y2="2412.6" gradientUnits="userSpaceOnUse">
<stop offset="0.03125" stop-color="#F3B34E" stop-opacity="0.02"/>
<stop offset="0.437063" stop-color="#F3B34E" stop-opacity="0.2"/>
<stop offset="0.864583" stop-color="#12BAD6"/>
<stop offset="1" stop-color="#12BAD6" stop-opacity="0.1"/>
</linearGradient>
<linearGradient id="paint5_linear_921_39" x1="2773.03" y1="426.688" x2="2757.76" y2="2517.31" gradientUnits="userSpaceOnUse">
<stop offset="0.03125" stop-color="#F3B34E" stop-opacity="0.02"/>
<stop offset="0.437063" stop-color="#F3B34E" stop-opacity="0.2"/>
<stop offset="0.864583" stop-color="#12BAD6"/>
<stop offset="1" stop-color="#12BAD6" stop-opacity="0.1"/>
</linearGradient>
<linearGradient id="paint6_linear_921_39" x1="2773.8" y1="321.976" x2="2757.01" y2="2622.05" gradientUnits="userSpaceOnUse">
<stop offset="0.03125" stop-color="#F3B34E" stop-opacity="0.02"/>
<stop offset="0.437063" stop-color="#F3B34E" stop-opacity="0.2"/>
<stop offset="0.864583" stop-color="#12BAD6"/>
<stop offset="1" stop-color="#12BAD6" stop-opacity="0.1"/>
</linearGradient>
<linearGradient id="paint7_linear_921_39" x1="2774.56" y1="217.239" x2="2756.23" y2="2726.76" gradientUnits="userSpaceOnUse">
<stop offset="0.03125" stop-color="#F3B34E" stop-opacity="0.02"/>
<stop offset="0.437063" stop-color="#F3B34E" stop-opacity="0.2"/>
<stop offset="0.864583" stop-color="#12BAD6"/>
<stop offset="1" stop-color="#12BAD6" stop-opacity="0.1"/>
</linearGradient>
<linearGradient id="paint8_linear_921_39" x1="2775.33" y1="112.502" x2="2755.47" y2="2831.5" gradientUnits="userSpaceOnUse">
<stop offset="0.03125" stop-color="#F3B34E" stop-opacity="0.02"/>
<stop offset="0.437063" stop-color="#F3B34E" stop-opacity="0.2"/>
<stop offset="0.864583" stop-color="#12BAD6"/>
<stop offset="1" stop-color="#12BAD6" stop-opacity="0.1"/>
</linearGradient>
<linearGradient id="paint9_linear_921_39" x1="2776.09" y1="7.79055" x2="2754.7" y2="2936.21" gradientUnits="userSpaceOnUse">
<stop offset="0.03125" stop-color="#F3B34E" stop-opacity="0.02"/>
<stop offset="0.437063" stop-color="#F3B34E" stop-opacity="0.2"/>
<stop offset="0.864583" stop-color="#12BAD6"/>
<stop offset="1" stop-color="#12BAD6" stop-opacity="0.1"/>
</linearGradient>
<linearGradient id="paint10_linear_921_39" x1="0.0857841" y1="5013.47" x2="3093.08" y2="5013.47" gradientUnits="userSpaceOnUse">
<stop stop-color="#00A8B5"/>
<stop offset="0.5" stop-color="#55FFE0" stop-opacity="0.4"/>
<stop offset="0.833333" stop-color="#F3B34E" stop-opacity="0.5"/>
<stop offset="1" stop-color="#F3B34E" stop-opacity="0.05"/>
</linearGradient>
<linearGradient id="paint11_linear_921_39" x1="964.086" y1="3418.47" x2="4057.08" y2="3418.47" gradientUnits="userSpaceOnUse">
<stop stop-color="#00A8B5"/>
<stop offset="0.5" stop-color="#55FFE0" stop-opacity="0.4"/>
<stop offset="0.833333" stop-color="#F3B34E" stop-opacity="0.5"/>
<stop offset="1" stop-color="#F3B34E" stop-opacity="0.05"/>
</linearGradient>
</defs>
</svg>
