<svg width="1679" height="486" viewBox="0 0 1679 486" fill="none" xmlns="http://www.w3.org/2000/svg">
<path opacity="0.15" d="M1678.86 404.253C1679.31 404.809 1678.52 405.604 1678.07 405.044C1672.64 398.293 1667.55 391.278 1662.64 384.147C1632.7 340.699 1606.9 294.456 1578.48 250.019C1544.49 196.843 1507.98 144.588 1463.96 99.1403C1422.44 56.2634 1372.28 17.9018 1313.13 4.15064C1274.17 -4.90613 1233.89 7.27405 1199.24 25.3092C1164.95 43.1578 1137.71 68.2234 1115.68 99.8568C1093.97 131.027 1076.95 165.116 1056.99 197.377C1048.06 211.811 1038.54 225.928 1027.74 239.033C1015.4 253.993 1001.02 266.539 986.051 278.776C922.073 331.086 847.949 374.933 764.742 385.777C677.723 397.122 589.924 373.325 511.801 335.986C476.688 319.193 443.201 300.438 414.96 273.357C390.075 249.497 369.421 221.823 347.386 195.425C324.911 168.493 300.385 142.984 269.931 125.031C235.363 104.645 193.587 92.274 153.301 93.4309C121.44 94.3489 91.1619 104.626 63.7743 120.635C41.5457 133.632 21.7529 150.04 0.811272 164.907C0.221891 165.325 -0.337652 164.355 0.247999 163.941C9.90937 157.101 19.235 149.869 28.7248 142.861C50.6811 126.65 73.7826 111.712 99.6258 102.484C131.005 91.2889 164.592 89.6619 197.168 96.2669C234.359 103.805 269.681 119.989 299.027 144.096C325.4 165.758 346.681 192.607 368.093 218.972C390.564 246.646 413.822 274.01 442.619 295.366C478.057 321.641 520.78 340.699 561.85 356.193C647.605 388.524 741.533 399.48 829.552 369.388C870.82 355.278 909.245 333.818 944.839 308.789C978.814 284.907 1012.41 258.908 1037.12 225.166C1079.71 167.023 1103.89 92.5278 1162.52 47.3037C1192.1 24.4808 1228.41 7.18076 1265.47 1.43026C1295.71 -3.26045 1324.87 4.09092 1352.56 16.1256C1408.22 40.2993 1453.89 83.4897 1492.69 129.236C1532.81 176.543 1566.86 228.64 1599.46 281.302C1624.98 322.533 1648.38 366.362 1678.85 404.253H1678.86ZM1678.8 380.415C1662.53 364.63 1648.71 346.39 1635.21 328.254C1617.73 304.774 1600.92 280.802 1583.67 257.154C1545.19 204.392 1504.68 152.227 1455.8 108.589C1430.66 86.1466 1403.21 66.0479 1372.95 51.0391C1341.72 35.5564 1305.49 23.2978 1270.21 26.4996C1236.06 29.5969 1202.7 43.1167 1173.23 60.1593C1144.1 77.0003 1119.95 99.0358 1099.18 125.441C1078.66 151.533 1061.37 179.95 1041.81 206.743C1031.74 220.55 1021.02 233.958 1008.87 246.011C995.683 259.095 980.519 269.663 965.165 280.026C896.077 326.671 817.29 364.902 734.162 376.989C652.137 388.931 567.527 375.25 491.717 342.427C457.805 327.742 426.288 309.853 399.49 284.145C376.986 262.554 358.084 237.694 338.348 213.639C319.129 190.215 298.74 167.49 274.012 149.727C245.195 129.031 210.433 115.175 175.317 110.194C146.911 106.106 117.935 109.123 90.9791 118.974C67.8515 127.445 46.9061 140.442 26.6657 154.279C17.9406 160.25 9.3088 166.344 0.415865 172.053C-0.330187 172.539 0.359917 173.751 1.12089 173.262C20.4474 160.851 38.7256 146.891 58.7646 135.573C83.429 121.657 110.328 112.003 138.738 110.115C175.537 107.671 213.007 117.627 245.718 134.14C274.814 148.824 299.128 170.598 320.603 194.85C361.874 241.451 395.902 294.172 452.038 324.664C519.411 361.26 595.747 382.277 672.545 382.632C753.607 383.005 831.081 357.663 902.079 319.772C935.431 301.972 969.806 281.925 998.663 257.318C1022.54 236.947 1040.97 211.046 1058.57 185.297C1078.17 156.627 1097.06 127.083 1121.29 102.021C1146.33 76.0935 1177.58 56.756 1210.9 43.2847C1228.31 36.243 1246.58 30.7351 1265.25 28.4364C1283.3 26.1974 1300.75 28.1304 1318.38 32.3957C1355.91 41.4711 1390.63 59.8234 1421.63 82.5717C1475.5 122.105 1519.36 174.031 1559.53 226.987C1592.8 270.846 1622.76 317.462 1658.01 359.779C1664.27 367.294 1670.78 374.605 1677.8 381.423C1678.45 382.049 1679.44 381.049 1678.79 380.434L1678.8 380.415ZM1678.56 356.443C1660.55 343.109 1645.08 326.451 1630.16 309.838C1611.31 288.87 1593.3 267.17 1574.9 245.817C1533.95 198.306 1491.11 151.458 1440.21 114.369C1387.76 76.1458 1318.6 43.0943 1252.14 54.4759C1185.26 65.921 1124.06 104.335 1079.58 154.604C1058.38 178.565 1039.53 204.549 1017.58 227.849C1006.39 239.746 994.287 250.907 980.78 260.158C966.232 270.125 950.267 278.324 934.644 286.455C898.513 305.267 861.087 321.473 822.987 335.836C785.106 350.114 746.598 362.533 706.692 369.698C630.099 383.453 549.323 379.654 476.095 352.159C443.268 339.844 412.68 323.231 386.819 299.359C365.086 279.305 346.953 255.852 328.432 232.906C309.912 209.96 290.596 187.29 267.118 169.158C240.574 148.652 208.728 134.42 175.839 127.897C148.127 122.396 119.613 123.516 92.5794 131.815C69.0788 139.032 47.6484 151.141 26.8709 164.053C18.1309 169.486 9.45803 175.039 0.524057 180.159C-0.412238 180.696 0.434519 182.148 1.37454 181.61C20.7719 170.494 39.0987 157.634 59.0332 147.451C83.9886 134.707 110.958 126.493 139.129 126.098C175.085 125.59 211.683 136.972 242.696 154.78C269.424 170.124 291.563 191.686 311.456 214.975C330.544 237.317 347.901 261.117 367.869 282.705C388.672 305.196 412.177 324.126 439.583 337.967C504.545 370.806 578.509 382.747 650.794 378.169C728.656 373.232 802.851 347.811 873.998 317.07C908.439 302.188 942.761 285.761 974.756 266.073C1000.49 250.236 1021.04 227.637 1040.2 204.582C1060.79 179.83 1080.33 154.089 1103.7 131.815C1129.04 107.671 1158.99 89.3335 1190.99 75.3434C1223.12 61.29 1258.92 50.5166 1294.32 54.711C1333.01 59.2935 1370.04 73.1231 1403.69 92.4979C1459.6 124.684 1506.17 170.968 1548.93 218.696C1584.98 258.938 1617.75 302.848 1656.93 340.173C1663.49 346.501 1670.45 352.416 1677.74 357.883C1678.61 358.525 1679.45 357.07 1678.59 356.432L1678.56 356.443ZM1678.47 332.582C1658.8 321.891 1641.54 307.181 1625 292.239C1604.86 274.044 1585.62 254.863 1566.06 236.033C1522.04 193.63 1476.18 151.966 1422.77 121.601C1366.61 89.6693 1298.18 68.3951 1233.76 83.4449C1169.16 98.5358 1109.84 133.117 1062.26 178.815C1040.65 199.571 1020.56 222.05 997.328 241.059C970.675 262.871 939.438 275.35 907.622 287.746C871.439 301.856 834.629 314.361 797.971 327.224C760.646 340.318 723.284 353.129 684.672 361.954C612.245 378.508 534.272 384.024 462.349 362.104C430.347 352.353 400.337 337.273 375.098 315.152C353.504 296.225 335.68 273.615 317.824 251.262C300.161 229.148 282.133 207.086 260.281 188.943C236.034 168.792 207.251 154.268 176.723 146.286C149.074 139.047 120.195 138.412 92.4563 145.506C69.56 151.361 48.4392 162.03 27.9004 173.457C18.8545 178.487 9.87581 183.637 0.628493 188.286C-0.490585 188.853 0.490482 190.525 1.61702 189.98C21.3874 180.035 40.0722 168.109 60.2828 159.03C85.7194 147.604 112.995 141.095 140.994 142.57C175.578 144.387 210.377 157.015 239.276 175.841C263.668 191.716 283.778 212.867 302.246 235.156C320.218 256.844 336.938 279.626 356.454 299.994C376.859 321.264 400.165 338.639 427.049 350.894C490.124 379.654 561.756 382.945 629.602 373.948C706.33 363.775 778.813 336.348 851.366 310.614C884.879 298.725 918.276 286.392 950.804 271.988C977.319 260.244 999.536 243.034 1020.38 223.069C1042.77 201.638 1063.66 178.662 1087.41 158.724C1113.56 136.782 1143.08 119.754 1174.24 105.984C1205.52 92.1584 1239.96 80.3663 1274.52 80.0379C1311.45 79.6871 1349.45 89.9641 1383.27 104.238C1441.69 128.889 1491.77 169.37 1537.92 212.117C1576.04 247.418 1611.34 286.799 1652.88 318.197C1660.71 324.108 1668.83 329.608 1677.45 334.295C1678.57 334.896 1679.55 333.206 1678.44 332.601L1678.47 332.582ZM1678.1 308.61C1656.94 300.695 1637.75 288.205 1619.44 275.167C1597.22 259.348 1575.97 242.205 1554.42 225.487C1507.61 189.148 1459.03 153.985 1403.99 131.102C1373.14 118.276 1340.63 109.656 1307.41 105.969C1274.2 102.282 1243.01 104.936 1210.9 114.343C1148.09 132.744 1091.1 164.508 1040.14 205.198C1017.74 223.084 995.753 241.981 970.537 255.856C942.638 271.196 910.577 278.246 880.101 286.653C843.872 296.665 807.599 306.576 772.001 318.682C736.273 330.814 700.876 343.792 664.54 354.054C596.075 373.388 521.41 387.356 450.733 371.966C419.518 365.164 389.866 352.155 364.937 332C343.674 314.816 326.25 293.65 309.319 272.35C292.044 250.624 274.963 228.555 254.32 209.866C231.615 189.356 204.774 173.958 175.611 164.713C149.033 156.246 120.959 153.891 93.5119 159.205C70.7574 163.612 49.5359 172.983 28.8218 183.088C19.5185 187.633 10.2712 192.294 0.762777 196.395C-0.554005 196.966 0.583724 198.895 1.88185 198.328C22.3647 189.488 41.7732 178.356 62.6851 170.445C87.8979 160.903 114.562 156.451 141.468 159.511C175.171 163.344 208.493 177.423 235.724 197.485C258.613 214.352 277.328 235.884 295.035 257.938C312.034 279.123 328.403 300.968 347.972 319.884C367.626 338.915 390.288 353.913 415.821 363.831C477.788 387.908 547.324 382.68 611.13 369.492C684.575 354.316 753.66 325.186 825.449 304.278C859.174 294.456 893.238 285.813 926.856 275.622C953.781 267.465 977.509 255.919 1000.29 239.324C1024.1 221.983 1046.14 202.355 1070.03 185.107C1097.17 165.501 1126.51 149.816 1157.18 136.479C1188.87 122.702 1222.58 110.593 1257.15 106.999C1291.95 103.398 1328.77 109.485 1362.23 118.9C1422.66 135.901 1476.28 169.497 1526.21 206.717C1567.43 237.455 1606.35 273.07 1651.32 298.397C1659.72 303.185 1668.48 307.313 1677.52 310.745C1678.87 311.252 1679.45 309.088 1678.11 308.588L1678.1 308.61ZM1677.97 284.728C1629.75 273.816 1586.93 243.739 1545.18 218.625C1493.96 187.812 1441.13 158.582 1383.04 142.987C1350.17 134.158 1316.19 129.744 1282.16 129.453C1250.45 129.18 1220.2 135.505 1190.11 145.234C1159 155.309 1128.38 167.825 1098.88 181.957C1070.27 195.667 1043.45 212.471 1016.54 229.196C993.415 243.575 969.757 257.684 943.608 265.864C914.602 274.939 883.394 277.69 853.556 283.067C818.424 289.411 783.614 297.337 749.739 308.696C714.373 320.559 679.685 334.366 644.329 346.281C579.557 368.108 509.018 388.972 439.941 380.852C409.297 377.251 380.015 366.694 354.999 348.479C333.103 332.534 315.41 311.79 298.643 290.717C282.077 269.905 266.074 248.523 246.949 229.943C226.38 209.888 201.958 194.218 175.16 183.879C149.462 173.953 121.925 169.725 94.5191 173.251C71.5295 176.211 49.909 184.405 28.6614 193.317C19.5558 197.138 10.4801 201.022 1.18056 204.359C-0.333921 204.903 0.318892 207.344 1.85203 206.788C21.8873 199.597 41.0197 190.077 61.2788 183.502C86.9392 175.184 113.723 172.147 140.435 176.729C172.336 182.204 203.29 196.85 228.54 217.001C249.306 233.577 266.432 253.993 282.864 274.734C315.947 316.495 349.12 358.04 401.713 375.183C462.36 394.961 529.52 382.449 589.368 365.929C660.243 346.367 727.287 314.775 798.635 297.158C831.387 289.075 864.661 283.686 897.894 278.029C924.7 273.465 950.118 268.039 974.681 256.012C999.349 243.955 1022.14 228.417 1045.56 214.154C1074.78 196.354 1105.07 181.174 1136.62 167.975C1167.34 155.123 1198.92 143.42 1231.59 136.662C1266.13 129.524 1302.19 131.035 1336.93 136.058C1399.66 145.122 1457.42 170.736 1512.03 201.993C1556.76 227.584 1599.64 258.397 1647.63 277.746C1657.26 281.676 1667.18 284.826 1677.31 287.164C1678.89 287.537 1679.55 285.093 1677.98 284.735L1677.97 284.728ZM1677.47 260.804C1626.27 255.878 1578.5 231.57 1531.99 211.355C1477.32 187.607 1421.44 166.247 1362.02 158.22C1328.06 153.643 1293.71 152.668 1259.55 155.309C1229.01 157.683 1199.1 166.37 1170.17 176.02C1138.96 186.428 1107.99 198.142 1077.7 210.99C1049.99 222.744 1023.11 236.275 995.575 248.4C971.242 259.113 946.059 268.151 919.537 271.342C889.449 274.965 858.901 274.469 828.727 277.499C794.782 280.906 761.281 287.388 728.913 298.247C694.386 309.816 660.836 324.287 626.958 337.605C565.505 361.76 499.715 388.199 432.678 388.457C403.325 388.569 374.658 382.281 349.359 367.033C326.638 353.338 308.304 334.038 291.656 313.629C275.217 293.478 260.064 272.249 242.26 253.24C222.907 232.574 200.608 215.628 174.794 203.825C149.761 192.38 122.642 186.058 95.0451 187.779C72.7008 189.178 51.3339 195.664 30.299 202.933C20.6861 206.254 11.1031 209.65 1.32232 212.445C-0.408525 212.938 0.326336 215.639 2.06837 215.143C22.4244 209.348 41.9821 201.063 62.5247 195.873C88.6365 189.279 115.465 188.342 141.685 194.951C172.687 202.765 201.619 218.908 225.242 240.339C244.737 258.016 260.795 278.94 276.951 299.594C308.52 339.949 343.749 377.892 396.293 388.035C456.552 399.659 519.959 379.777 576.222 359.738C643.304 335.855 708.274 302.169 778.358 287.825C811.427 281.056 845.014 278.555 878.661 276.798C905.257 275.41 931.119 274.014 956.757 266.192C981.429 258.662 1004.8 247.429 1028.09 236.499C1058.62 222.17 1089.43 208.837 1120.94 196.791C1151.94 184.943 1183.28 173.516 1215.56 165.616C1247.75 157.735 1280.51 156.007 1313.56 157.033C1378.3 159.049 1439.79 176.125 1499.41 200.56C1547.63 220.338 1594.75 245.489 1645.58 258.083C1656.06 260.703 1666.72 262.549 1677.47 263.606C1679.26 263.778 1679.25 260.994 1677.47 260.807V260.804ZM1677.31 236.921C1623.77 237.951 1571.77 221.166 1520.72 207.068C1460.15 190.312 1399.09 176.927 1335.96 176.416C1303.78 176.155 1270.82 177.61 1239.04 182.901C1207.08 188.219 1175.94 198.115 1145.23 208.258C1113.1 218.871 1081.06 229.76 1049.1 240.925C1023.07 250.012 997.037 259.442 970.257 266.121C946.175 272.129 921.555 275.264 896.719 274.163C866.131 272.809 835.696 269.569 805.01 270.555C771.811 271.622 739.063 277.231 707.613 287.94C675.339 298.93 644.199 313.267 613.111 327.179C554.412 353.45 493.911 383.643 429.661 393.23C402.646 397.256 374.292 396.905 348.762 386.225C324.322 375.997 304.148 358.495 286.84 338.755C252.663 299.77 226.037 254.337 179.912 227.693C154.77 213.165 126.793 203.515 97.5966 202.81C74.9613 202.261 52.9267 207.254 31.198 213.083C21.3202 215.733 11.4686 218.468 1.45662 220.546C-0.479382 220.953 0.337545 223.905 2.27355 223.532C23.3197 219.128 43.7167 212.061 64.9419 208.437C92.1728 203.788 119.62 205.698 145.695 215.039C175.164 225.588 201.149 243.302 222.799 265.748C240.704 284.295 255.674 305.304 271.721 325.388C302.612 364.055 340.112 396.099 391.701 398.529C450.3 401.29 508.667 376.138 561.342 353.461C592.83 339.9 623.917 325.425 655.408 311.864C688.485 297.62 721.967 284.429 757.617 278.316C789.795 272.801 822.401 272.719 854.903 274.585C881.966 276.13 908.805 279.037 935.849 275.734C990.658 269.043 1042.91 245.881 1094.87 228.465C1126.69 217.8 1158.34 206.53 1190.63 197.362C1222.71 188.253 1254.67 183.14 1287.94 180.942C1354.15 176.591 1418.76 183.984 1482.98 200.186C1535.32 213.389 1587 231.846 1640.82 238.16C1652.92 239.602 1665.11 240.218 1677.29 240.003C1679.28 239.962 1679.28 236.884 1677.29 236.925L1677.31 236.921ZM1677.15 213.038C1621.83 219.811 1566.36 211.639 1511.47 204.72C1447.17 196.615 1383.15 191.794 1318.41 197.6C1286.7 200.444 1254.56 203.989 1223.44 210.747C1190.7 217.837 1158.69 228.055 1126.69 237.843C1069.17 255.434 1009.56 275.182 949.196 279.611C894.567 283.627 842.69 265.345 788.497 262.849C756.368 261.356 724.198 265.252 693.569 275.163C661.97 285.41 631.829 300.08 602.11 314.79C545.716 342.703 490.057 375.172 429.552 393.528C404.586 401.1 377.702 406.384 351.612 402.111C326.06 397.943 303.492 383.565 285.128 365.787C248.538 330.336 225.134 283.53 183.493 252.908C159.933 235.585 132.083 222.931 102.983 218.983C80.2285 215.897 57.6082 218.669 35.1968 222.797C24.1702 224.827 13.1883 227.073 2.06463 228.543C-0.0466932 228.823 -0.072805 232.186 2.06463 231.902C24.2261 228.973 45.9437 223.196 68.273 221.491C96.7597 219.276 125.319 224.747 150.973 237.332C178.036 250.486 200.608 269.607 220.121 292.333C236.653 311.596 250.966 332.635 267.517 351.886C283.3 370.242 301.493 386.725 323.647 396.969C344.372 406.552 366.974 408.503 389.471 405.772C446.409 398.853 500.058 370.041 550.536 344.572C579.729 329.847 608.765 314.775 638.466 301.083C670.919 286.119 704.148 272.831 739.798 268.151C772.43 263.871 805.16 266.394 837.501 271.756C863.423 276.055 889.023 282.145 915.344 283.433C968.687 286.045 1021.19 271.663 1072.07 257.43C1136.89 239.302 1200.11 216.068 1267.05 206.896C1333.73 197.757 1399.78 195.951 1466.76 202.858C1523.46 208.702 1580.07 219.535 1637.23 218.998C1650.58 218.877 1663.9 218.005 1677.15 216.386C1679.26 216.128 1679.29 212.766 1677.15 213.027V213.038ZM1676.5 189.227C1617.93 201.825 1558.02 202.287 1498.39 203.441C1432.81 204.694 1367.92 208.859 1303.23 220.143C1270.45 225.864 1237.51 231.574 1205.25 239.806C1172.75 248.097 1140.68 258.001 1108.3 266.767C1050.92 282.298 990.721 296.199 930.884 291.161C875.762 286.522 825.363 261.431 770.588 255.001C738.683 251.269 706.304 253.952 675.671 263.737C644.665 273.637 615.36 288.649 586.79 304.065C532.623 333.288 480.661 367.41 424.054 391.897C400.736 401.973 375.743 410.821 350.15 412.048C326.097 413.209 304.093 405.376 284.792 391.151C242.816 360.208 220.654 309.752 181.255 275.891C159.683 257.348 133.724 242.892 105.975 236.223C82.7576 230.626 59.1078 231.372 35.5251 233.693C24.4425 234.787 13.3785 236.059 2.25115 236.656C-0.0765352 236.783 -0.0914564 240.421 2.25115 240.294C25.3228 239.059 48.2042 234.984 71.3654 235.499C101.58 236.175 129.975 245.575 155.572 261.524C179.976 276.734 199.47 297.52 217.099 319.999C232.501 339.635 246.654 360.458 264.335 378.18C280.107 393.98 299.568 407.802 321.532 413.179C342.275 418.258 364.139 415.418 384.487 409.921C439.84 394.961 490.21 362.88 539.535 334.68C567.02 318.962 594.59 303.304 623.071 289.444C655.897 273.473 689.842 260.207 726.556 257.546C758.875 255.206 790.753 260.636 821.834 269.17C848.129 276.391 873.823 285.642 900.68 290.68C1021.06 313.26 1137.47 255.18 1253.4 233.048C1321.09 220.125 1388.37 210.441 1457.33 208.101C1517.1 206.071 1577.24 207.676 1636.66 199.798C1650.35 197.98 1663.96 195.616 1677.47 192.708C1679.76 192.216 1678.79 188.708 1676.5 189.2V189.227ZM1676.3 165.344C1617.55 182.913 1557.1 192.843 1496.64 202.396C1430.53 212.844 1364.93 224.666 1299.97 240.914C1267.81 248.956 1235.43 256.322 1203.42 264.89C1170.09 273.805 1137 283.627 1103.45 291.758C1044.01 306.158 982.045 315.838 921.353 303.46C867.537 292.486 820.204 263.158 767.118 250.06C736.65 242.541 704.655 241.041 673.91 247.907C642.237 254.997 612.536 269.995 584.354 285.679C530.639 315.577 480.776 351.759 427.486 382.348C390.153 403.775 339.161 432.89 294.778 416.9C243.987 398.614 219.729 344.132 185.176 306.767C165.07 285.033 140.692 267.133 113.025 256.281C89.017 246.866 63.6773 244.601 38.1064 244.713C26.2106 244.754 14.3185 245.086 2.42648 244.772C-0.0951748 244.705 -0.0951748 248.624 2.42648 248.691C27.8743 249.366 53.4564 247.135 78.7364 251.098C110.071 256.012 139.305 270.726 163.413 291.209C203.122 324.974 224.59 376.612 267.402 406.824C284.777 419.086 304.574 426.255 325.967 425.001C347.498 423.736 368.294 416.198 387.788 407.402C441.65 383.098 490.128 347.729 540.095 316.577C595.806 281.843 656.699 244.302 724.776 247.616C784.833 250.538 836.046 283.123 892.321 300.139C1012.34 336.43 1134.28 285.496 1250.43 257.318C1317.29 241.097 1383.66 224.853 1451.61 213.602C1511.94 203.608 1572.69 195.555 1632.23 181.293C1647.38 177.663 1662.43 173.615 1677.36 169.146C1679.77 168.426 1678.75 164.646 1676.32 165.37L1676.3 165.344ZM1676.1 141.461C1614.92 164.411 1552.39 183.334 1489.71 201.702C1423.23 221.181 1357.05 241.302 1291.21 262.856C1258.76 273.48 1226 282.776 1193.2 292.187C1160.96 301.438 1128.66 310.513 1095.84 317.51C1034.54 330.571 971.88 335.754 911.271 316.693C858.111 299.971 812.859 266.435 760.967 246.911C731.189 235.716 699.537 230.532 667.815 234.634C636.216 238.716 606.564 252.773 579.035 268.189C525.886 297.956 477.773 335.732 427.706 370.216C405.324 385.632 382.495 400.741 358.137 412.877C339.157 422.333 317.995 430.897 296.431 430.58C243.92 429.811 213.88 372.963 185.496 337.124C166.618 313.286 144.587 292.344 117.684 277.79C94.0193 264.98 68.1984 259.102 41.6166 256.393C28.6353 255.072 15.6129 254.236 2.63911 252.829C-0.0429484 252.538 -0.0205669 256.74 2.63911 257.027C29.7432 259.968 57.2426 260.513 83.5857 268.241C115.177 277.51 143.136 296.475 165.595 320.32C199.724 356.562 222.411 409.828 271.076 429.475C310.617 445.439 354.235 421.434 387.579 401.361C439.109 370.343 486.152 332.444 536.316 299.348C563.577 281.365 591.852 264.013 622.168 251.657C654.487 238.485 688.72 233.925 723.176 240.462C780.697 251.359 828.433 287.974 881.6 310.245C933.824 332.116 988.961 337.788 1044.99 330.646C1111.32 322.186 1176.02 301.912 1240.04 283.254C1308.23 263.382 1375.28 239.724 1443.43 219.643C1506.1 201.175 1569.02 183.401 1630.85 162.176C1646.38 156.839 1661.84 151.285 1677.22 145.514C1679.73 144.573 1678.64 140.513 1676.1 141.465V141.461ZM1675.35 117.814C1547.06 174.826 1417.87 229.848 1287.78 282.88C1225.51 308.233 1160.28 329.343 1094.21 342.214C1030.94 354.528 967.12 357.044 906.276 333.008C853.019 311.969 809.203 274.607 758.93 248.112C732.617 234.249 704.219 224.133 674.287 222.797C641.812 221.345 611.395 231.059 582.706 245.631C528.162 273.335 480.362 313.208 432.525 350.864C409.677 368.839 386.777 386.845 362.687 403.145C343.525 416.108 323.191 428.789 300.996 435.838C280.424 442.376 261.486 441.114 242.532 430.274C218.699 416.642 202.618 393.218 186.854 371.47C169.773 347.916 152.006 324.966 128.897 306.953C104.177 287.683 76.0991 275.857 45.6453 269.14C31.6456 266.054 17.4893 263.733 3.41872 261.028C0.602374 260.483 -0.602501 264.8 2.22877 265.345C32.2648 271.122 62.894 275.398 90.8336 288.567C121.097 302.83 145.855 325.425 166.405 351.517C193.886 386.404 222.284 442.506 273.191 444.659C291.525 445.436 309.595 438.428 325.739 430.412C348.747 418.989 369.958 404.048 390.549 388.789C439.236 352.719 485.085 312.827 535.458 279.037C563.558 260.188 593.579 242.093 626.35 232.764C659.236 223.435 693.841 226.323 725.731 238.014C781.312 258.393 826.396 299.449 879.064 325.69C931.201 351.662 987.502 360.641 1045.32 354.226C1112.69 346.763 1179.17 327.672 1242.88 304.968C1310.95 280.69 1377.22 250.635 1443.81 222.61C1505.98 196.444 1567.98 169.853 1629.79 142.838C1645.76 135.83 1661.7 128.786 1677.63 121.706C1680.24 120.538 1677.98 116.679 1675.37 117.84L1675.35 117.814ZM1675.12 93.9533C1543.68 160.698 1417.3 237.011 1284.93 301.957C1223.08 332.303 1157.41 355.779 1089.41 367.634C1054.06 373.806 1017.74 377.534 981.925 373.582C951.86 370.269 922.681 361.395 895.555 348.08C842.533 322.059 799.848 280.865 750.821 248.706C725.008 231.768 696.732 217.71 665.872 213.374C634 208.896 603.636 215.725 574.797 229.383C518.978 255.822 471.141 298.419 424.74 338.4C384.263 373.291 343.909 412.772 296.11 437.618C280.603 445.682 261.948 453.052 244.226 448.813C216.737 442.226 197.694 419.825 181.751 398.002C164.025 373.746 147.522 348.558 125.268 328.071C102.782 307.375 76.5579 292.456 47.7939 282.369C33.2757 277.283 18.433 273.2 3.6239 269.081C0.669537 268.26 -0.587566 272.846 2.35934 273.667C32.6565 282.1 63.1066 290.676 90.1324 307.252C119.654 325.377 142.192 350.939 162.22 378.81C186.522 412.627 217.715 462.661 266.63 453.563C286.258 449.914 304.428 439.267 320.864 428.401C342.57 414.049 362.796 397.487 382.674 380.743C430.048 340.859 475.468 298.221 526.662 263.196C554.923 243.855 585.973 225.372 620.012 218.86C654.595 212.244 689.854 220.629 720.729 236.503C774.072 263.92 816.832 307.812 868.145 338.549C920.507 369.914 978.497 383.848 1039.44 378.818C1107.53 373.198 1174.85 354.894 1237.84 328.668C1306.6 300.031 1372.35 263.039 1437.68 227.431C1501.2 192.816 1564.21 157.276 1628.2 123.553C1644.57 114.925 1661.01 106.421 1677.51 98.0395C1680.24 96.6513 1677.84 92.5464 1675.11 93.9346L1675.12 93.9533ZM1674.89 70.093C1539.96 146.495 1417.27 242.28 1283.01 319.801C1222.08 354.995 1157.08 381.43 1087.38 392.789C1050.92 398.73 1013.04 401.906 976.323 396.413C945.701 391.83 916.366 381.311 889.322 366.313C835.475 336.46 793.2 291.277 745.401 253.292C720.99 233.887 694.449 216.05 664.275 207.112C633.668 198.045 602.051 199.649 572.377 211.27C514.252 234.033 465.296 279.634 420.096 321.387C378.246 360.048 338.299 402.477 291.578 435.401C276.373 446.118 258.856 457.418 239.954 459.691C215.051 462.676 193.177 444.215 178.346 426.318C158.314 402.141 143.054 374.448 121.966 351.054C100.797 327.545 75.3643 308.838 46.9434 295.049C32.9475 288.261 18.4703 282.548 3.87009 277.201C0.822467 276.081 -0.49059 280.932 2.53465 282.052C34.0665 293.601 64.8598 307.39 91.147 328.664C118.214 350.569 137.809 378.489 157.546 406.783C172.06 427.565 187.996 449.507 212.037 459.806C228.917 467.038 244.815 465.777 261.474 458.657C281.558 450.1 299.392 436.543 316.235 422.863C338.146 405.059 358.797 385.736 379.369 366.421C424.539 324.015 469.149 279.723 520.746 245.03C550.719 224.879 584.75 206.433 621.758 206.105C655.703 205.803 687.172 218.875 715.134 237.328C767.73 272.032 809.737 320.413 862.128 355.543C886.058 371.59 911.916 384.848 939.531 393.256C971.145 402.883 1004 405.525 1036.89 403.462C1105.18 399.178 1172.3 381.225 1233.96 351.655C1304.22 317.973 1369.95 273.585 1434.65 230.42C1498.59 187.753 1561.73 143.846 1627.4 103.85C1643.93 93.7816 1660.62 83.9798 1677.46 74.4441C1680.28 72.847 1677.74 68.4958 1674.92 70.0967L1674.89 70.093ZM1674.65 46.229C1539.72 129.818 1423.73 239.53 1292.77 328.765C1260.49 350.782 1227.31 371.679 1191.42 387.352C1161.3 400.512 1129.76 410.144 1097.42 416.056C1060.36 422.822 1021.13 426.266 983.604 421.609C950.875 417.545 919.417 406.455 890.803 390.162C836.535 359.29 794.383 312.528 749.847 269.693C704.737 226.304 648.269 179.692 581.046 192.037C546.354 198.403 515.139 218.531 487.487 239.5C463.289 257.863 440.747 278.309 418.891 299.397C375.691 341.046 335.688 386.151 290.831 426.057C274.668 440.439 257.423 455.067 237.619 464.202C217.103 473.666 197.269 470.214 179.427 455.951C154.061 435.674 139.066 403.891 120.056 378.157C100.715 351.98 77.7255 328.866 50.614 310.745C36.066 301.042 20.6376 292.833 4.73178 285.578C1.64312 284.171 -1.06132 288.75 2.04972 290.172C34.2941 304.882 64.0392 323.973 88.8827 349.427C113.999 375.176 131.311 406.171 152.693 434.756C167.028 453.921 186.489 473.636 211.895 475.386C227.995 476.506 243.785 467.967 256.834 459.482C276.865 446.458 294.756 430.154 312.042 413.739C334.091 392.778 355.216 370.862 376.53 349.159C421.055 303.804 466.493 256.4 520.955 222.841C554.009 202.478 590.394 189.951 629.304 198.291C663.622 205.65 693.192 226.278 719.334 248.874C767.514 290.519 808.386 340.184 860.606 377.187C885.248 394.648 912.151 408.962 941.06 417.903C974.435 428.221 1008.84 430.098 1043.53 427.912C1114.34 423.434 1181.86 402.604 1243.12 366.876C1311.33 327.104 1374.18 277.69 1436.07 228.891C1499.21 179.084 1561.62 128.191 1628.12 82.859C1644.3 71.8332 1660.71 61.1631 1677.36 50.8488C1680.26 49.0501 1677.6 44.449 1674.68 46.2551L1674.65 46.229ZM1674.42 22.3687C1588.96 79.5267 1513.27 149.178 1437.34 218.125C1398.8 253.128 1360.04 287.926 1319.64 320.783C1287.56 346.905 1254.64 372.653 1219.18 394.084C1185.24 414.608 1148.61 430.039 1109.84 438.663C1067.53 448.07 1021.23 452.015 978.177 445.589C913.27 435.886 859.204 398.461 813.131 353.562C770.606 312.14 734.423 264.099 689.119 225.566C652.107 194.07 604.994 170.199 555.322 182.304C529.411 188.618 505.709 202.608 484.298 218.095C458.503 236.753 434.991 258.397 412.483 280.843C366.179 327 324.519 377.53 278.44 423.881C261.571 440.846 243.886 458.187 223.232 470.561C206.184 480.786 189.659 483.577 171.545 473.595C148.074 460.672 134.026 434.412 120.303 412.507C101.543 382.553 81.6572 353.334 55.3551 329.403C40.0611 315.476 23.0847 303.61 4.94814 293.68C1.78861 291.952 -1.02028 296.785 2.12433 298.531C38.9196 318.682 68.9557 347.132 93.1427 381.247C110.675 405.988 124.477 433.643 143.945 456.966C156.982 472.576 176.581 487.738 198.187 485.838C215.876 484.286 231.916 472.464 245.33 461.788C266.868 444.648 286.053 424.564 304.846 404.522C327.44 380.422 349.382 355.723 371.804 331.463C415.098 284.616 460.875 234.522 517.471 203.567C539.905 191.298 564.241 183.219 590.05 184.943C615.562 186.648 639.402 196.772 660.519 210.803C709.124 243.097 745.662 291.389 785.397 333.344C828.168 378.497 876.206 421.195 936.189 441.286C972.301 453.384 1009.81 455.235 1047.58 452.888C1089.76 450.276 1131.4 441.655 1170.45 425.318C1204.91 410.906 1236.52 390.942 1266.6 368.944C1305.29 340.643 1342.26 310.021 1378.33 278.477C1456.83 209.814 1531.34 136.457 1614.04 72.7238C1634.6 56.8717 1655.67 41.7099 1677.24 27.2385C1680.23 25.2458 1677.42 20.3946 1674.42 22.3873V22.3687Z" fill="url(#paint0_linear_1122_573)"/>
<defs>
<linearGradient id="paint0_linear_1122_573" x1="0.0465659" y1="242.989" x2="1679.01" y2="242.989" gradientUnits="userSpaceOnUse">
<stop stop-color="#00A8B5"/>
<stop offset="0.5" stop-color="#55FFE0" stop-opacity="0.4"/>
<stop offset="0.833333" stop-color="#F3B34E" stop-opacity="0.5"/>
<stop offset="1" stop-color="#F3B34E" stop-opacity="0.05"/>
</linearGradient>
</defs>
</svg>
