<svg width="57" height="78" viewBox="0 0 57 78" fill="none" xmlns="http://www.w3.org/2000/svg">
<path d="M28.4241 4.83203C41.5779 4.83203 52.1615 15.4001 52.1615 28.3838C52.1615 41.5184 41.5779 52.0865 28.4241 52.0865C15.4214 52.0865 4.83789 41.5184 4.83789 28.3838C4.83789 15.4001 15.4214 4.83203 28.4241 4.83203ZM28.4241 7.39857C16.7822 7.39857 7.40818 16.7589 7.40818 28.3838C7.40818 40.0087 16.7822 49.52 28.4241 49.52C40.066 49.52 49.5912 40.0087 49.5912 28.3838C49.5912 16.7589 40.066 7.39857 28.4241 7.39857Z" fill="#12BAD6"/>
<path d="M25.552 29.2881L34.7748 19.9277C38.2522 16.4554 43.3928 21.7394 40.0665 25.0608L28.1222 36.9877C26.6103 38.4974 24.3424 38.4974 22.8305 36.9877L16.9339 31.0997C13.6077 27.6274 18.597 22.4943 22.0745 25.8157L25.552 29.2881ZM36.5891 21.7394L25.552 32.9114L20.2602 27.6274C19.2018 26.5706 17.6899 28.2313 18.7482 29.2881L24.6448 35.176C25.0984 35.6289 25.8543 35.6289 26.3079 35.176L38.2522 23.2491C39.1594 22.1923 37.6474 20.6826 36.5891 21.7394Z" fill="#12BAD6"/>
<path d="M28.4244 0C44.1485 0 57 12.6817 57 28.3829C57 38.951 51.1034 48.3113 42.4854 53.1424V76.3922C42.4854 77.298 41.5783 77.9019 40.6711 77.449L28.4244 71.2591L16.3289 77.449C15.4218 78.0529 14.3634 77.449 14.3634 76.3922V53.1424C5.74536 48.3113 0 38.951 0 28.3829C0 12.6817 12.7003 0 28.4244 0ZM39.9151 54.3502C36.4377 56.0109 32.5066 56.9167 28.4244 56.9167C24.3422 56.9167 20.4111 56.0109 16.9337 54.3502V74.2786L27.8196 68.6926C28.2732 68.3907 28.7268 68.3907 29.0292 68.6926L39.9151 74.2786V54.3502ZM28.4244 2.56654C14.2122 2.56654 2.57029 14.1914 2.57029 28.3829C2.57029 42.7253 14.2122 54.3502 28.4244 54.3502C42.7878 54.3502 54.4297 42.7253 54.4297 28.3829C54.4297 14.1914 42.7878 2.56654 28.4244 2.56654Z" fill="#12BAD6"/>
</svg>
