<svg width="144" height="144" viewBox="0 0 144 144" fill="none" xmlns="http://www.w3.org/2000/svg">
<path d="M120.384 56.7363H88.8485C87.6965 56.7363 86.6885 57.7443 86.6885 58.8963C86.6885 60.0483 87.6965 61.0563 88.8485 61.0563H120.384C121.536 61.0563 122.544 60.0483 122.544 58.8963C122.544 57.7443 121.536 56.7363 120.384 56.7363Z" fill="#12BAD6"/>
<path d="M120.384 68.6875H88.8485C87.6965 68.6875 86.6885 69.6955 86.6885 70.8475C86.6885 71.9995 87.6965 73.0075 88.8485 73.0075H120.384C121.536 73.0075 122.544 71.9995 122.544 70.8475C122.544 69.6955 121.536 68.6875 120.384 68.6875Z" fill="#12BAD6"/>
<path d="M120.384 80.6406H88.8485C87.6965 80.6406 86.6885 81.6486 86.6885 82.8006C86.6885 83.9526 87.6965 84.9606 88.8485 84.9606H120.384C121.536 84.9606 122.544 83.9526 122.544 82.8006C122.544 81.6486 121.536 80.6406 120.384 80.6406Z" fill="#12BAD6"/>
<path d="M21.1676 30.0968C22.8377 30.0968 24.1916 28.7429 24.1916 27.0728C24.1916 25.4027 22.8377 24.0488 21.1676 24.0488C19.4974 24.0488 18.1436 25.4027 18.1436 27.0728C18.1436 28.7429 19.4974 30.0968 21.1676 30.0968Z" fill="#12BAD6"/>
<path d="M30.816 30.0968C32.4861 30.0968 33.84 28.7429 33.84 27.0728C33.84 25.4027 32.4861 24.0488 30.816 24.0488C29.1459 24.0488 27.792 25.4027 27.792 27.0728C27.792 28.7429 29.1459 30.0968 30.816 30.0968Z" fill="#12BAD6"/>
<path d="M40.3199 30.0968C41.99 30.0968 43.3439 28.7429 43.3439 27.0728C43.3439 25.4027 41.99 24.0488 40.3199 24.0488C38.6498 24.0488 37.2959 25.4027 37.2959 27.0728C37.2959 28.7429 38.6498 30.0968 40.3199 30.0968Z" fill="#12BAD6"/>
<path d="M140.544 108.287H85.5363C84.3843 108.287 83.3763 109.295 83.3763 110.447V112.895H59.7603V110.447C59.7603 109.295 58.7523 108.287 57.6003 108.287H3.31234C2.16034 108.287 1.15234 109.295 1.15234 110.447V118.079C1.15234 123.839 7.63234 128.303 15.9843 128.303H127.872C136.224 128.303 142.704 123.839 142.704 118.079V110.447C142.704 109.295 141.84 108.287 140.544 108.287ZM138.384 118.079C138.384 120.815 134.064 123.839 127.872 123.839H15.9843C9.79234 123.839 5.47234 120.815 5.47234 118.079V112.751H55.2963V115.199C55.2963 116.351 56.3043 117.359 57.4563 117.359H85.3923C86.5443 117.359 87.5523 116.351 87.5523 115.199V112.751H138.24V118.079H138.384Z" fill="#12BAD6"/>
<path d="M8.35238 104.399C9.50438 104.399 10.5124 103.391 10.5124 102.239V37.8711H133.488V102.239C133.488 103.391 134.496 104.399 135.648 104.399C136.8 104.399 137.808 103.391 137.808 102.239V29.5191C137.808 21.5991 130.464 15.1191 121.536 15.1191H22.4644C13.5364 15.1191 6.19238 21.5991 6.19238 29.5191V102.239C6.19238 103.391 7.20038 104.399 8.35238 104.399ZM22.4644 19.4391H121.68C128.304 19.4391 133.632 23.9031 133.632 29.5191V33.4071H10.5124V29.5191C10.5124 23.9031 15.8404 19.4391 22.4644 19.4391Z" fill="#12BAD6"/>
<path d="M31.392 99.3594H63.936C65.088 99.3594 66.096 98.3514 66.096 97.1994L66.24 68.9754L72 70.5594C72.576 70.7034 73.152 70.5594 73.728 70.2714C74.304 69.9834 74.592 69.4074 74.736 68.8314L77.904 54.8634C78.192 53.7114 77.472 52.5594 76.32 52.2714L56.88 46.7994C56.592 46.6554 38.448 46.6554 38.16 46.7994L18.72 52.2714C17.568 52.5594 16.992 53.7114 17.136 54.8634L20.304 68.8314C20.448 69.4074 20.736 69.8394 21.312 70.2714C21.888 70.5594 22.464 70.7034 23.04 70.5594L28.8 68.9754V97.0554C29.088 98.3514 30.096 99.3594 31.392 99.3594ZM52.848 51.2634C51.84 52.7034 50.112 54.1434 47.664 54.1434C45.216 54.1434 43.488 52.7034 42.48 51.2634H52.848ZM24.48 65.8074L22.176 56.1594L37.728 51.8394C39.024 54.4314 42.048 58.6074 47.808 58.6074C53.568 58.6074 56.592 54.4314 57.888 51.8394L73.44 56.1594L71.136 65.8074L64.8 64.0794C64.08 63.9354 63.504 64.0794 62.928 64.5114C62.208 64.7994 61.92 65.5194 61.92 66.2394L61.776 95.0394H33.552V66.2394C33.552 65.5194 33.264 64.9434 32.688 64.5114C32.112 64.0794 31.392 63.9354 30.816 64.0794L24.48 65.8074Z" fill="#12BAD6"/>
</svg>
