<svg width="1318" height="585" viewBox="0 0 1318 585" fill="none" xmlns="http://www.w3.org/2000/svg">
<g opacity="0.9" filter="url(#filter0_d_5215_37)">
<g clip-path="url(#clip0_5215_37)" filter="url(#filter1_d_5215_37)">
<path d="M30.0064 181.848C31.6086 181.848 32.9074 180.553 32.9074 178.956C32.9074 177.359 31.6086 176.064 30.0064 176.064C28.4042 176.064 27.1054 177.359 27.1054 178.956C27.1054 180.553 28.4042 181.848 30.0064 181.848Z" fill="#33B8C2"/>
<path d="M29.1468 131C29.1468 131 8.30231 143.693 29.1468 172.679L29.1468 131Z" fill="#33B8C2"/>
<path d="M30.4147 131C30.4147 131 51.2592 143.693 30.4147 172.679L30.4147 131Z" fill="#33B8C2"/>
<path d="M48.8095 160.211C48.8095 160.211 36.0234 157.126 32.886 176.096L48.8095 160.211Z" fill="#33B8C2"/>
<path d="M49.6798 161.067C49.6798 161.067 52.7635 173.825 33.7456 176.953L49.6798 161.067Z" fill="#33B8C2"/>
<path d="M11.0423 160.211C11.0423 160.211 23.839 157.126 26.9765 176.096L11.0423 160.211Z" fill="#33B8C2"/>
<path d="M10.1827 161.067C10.1827 161.067 7.08828 173.825 26.117 176.953L10.1827 161.067Z" fill="#33B8C2"/>
</g>
</g>
<g filter="url(#filter2_d_5215_37)">
<g clip-path="url(#clip1_5215_37)" filter="url(#filter3_d_5215_37)">
<path d="M1134.01 463.848C1135.61 463.848 1136.91 462.553 1136.91 460.956C1136.91 459.359 1135.61 458.064 1134.01 458.064C1132.4 458.064 1131.11 459.359 1131.11 460.956C1131.11 462.553 1132.4 463.848 1134.01 463.848Z" fill="#33B8C2"/>
<path d="M1133.15 413C1133.15 413 1112.3 425.693 1133.15 454.679V413Z" fill="#33B8C2"/>
<path d="M1134.41 413C1134.41 413 1155.26 425.693 1134.41 454.679V413Z" fill="#33B8C2"/>
<path d="M1152.81 442.21C1152.81 442.21 1140.02 439.126 1136.89 458.096L1152.81 442.21Z" fill="#33B8C2"/>
<path d="M1153.68 443.067C1153.68 443.067 1156.76 455.825 1137.75 458.953L1153.68 443.067Z" fill="#33B8C2"/>
<path d="M1115.04 442.21C1115.04 442.21 1127.84 439.126 1130.98 458.096L1115.04 442.21Z" fill="#33B8C2"/>
<path d="M1114.18 443.067C1114.18 443.067 1111.09 455.825 1130.12 458.953L1114.18 443.067Z" fill="#33B8C2"/>
</g>
</g>
<g filter="url(#filter4_d_5215_37)">
<g clip-path="url(#clip2_5215_37)" filter="url(#filter5_d_5215_37)">
<path d="M1281.01 567.848C1282.61 567.848 1283.91 566.553 1283.91 564.956C1283.91 563.359 1282.61 562.064 1281.01 562.064C1279.4 562.064 1278.11 563.359 1278.11 564.956C1278.11 566.553 1279.4 567.848 1281.01 567.848Z" fill="#33B8C2" fill-opacity="0.6"/>
<path d="M1280.15 517C1280.15 517 1259.3 529.693 1280.15 558.679V517Z" fill="#33B8C2" fill-opacity="0.6"/>
<path d="M1281.41 517C1281.41 517 1302.26 529.693 1281.41 558.679V517Z" fill="#33B8C2" fill-opacity="0.6"/>
<path d="M1299.81 546.211C1299.81 546.211 1287.02 543.126 1283.89 562.096L1299.81 546.211Z" fill="#33B8C2" fill-opacity="0.6"/>
<path d="M1300.68 547.067C1300.68 547.067 1303.76 559.825 1284.75 562.953L1300.68 547.067Z" fill="#33B8C2" fill-opacity="0.6"/>
<path d="M1262.04 546.211C1262.04 546.211 1274.84 543.126 1277.98 562.096L1262.04 546.211Z" fill="#33B8C2" fill-opacity="0.6"/>
<path d="M1261.18 547.067C1261.18 547.067 1258.09 559.825 1277.12 562.953L1261.18 547.067Z" fill="#33B8C2" fill-opacity="0.6"/>
</g>
</g>
<g opacity="0.3" filter="url(#filter6_d_5215_37)">
<g clip-path="url(#clip3_5215_37)" filter="url(#filter7_d_5215_37)">
<path d="M45.0063 382.848C46.6085 382.848 47.9074 381.553 47.9074 379.956C47.9074 378.359 46.6085 377.064 45.0063 377.064C43.4041 377.064 42.1053 378.359 42.1053 379.956C42.1053 381.553 43.4041 382.848 45.0063 382.848Z" fill="#33B8C2" fill-opacity="0.9"/>
<path d="M44.1468 332C44.1468 332 23.3022 344.693 44.1468 373.679L44.1468 332Z" fill="#33B8C2" fill-opacity="0.9"/>
<path d="M45.4146 332C45.4146 332 66.2591 344.693 45.4146 373.679L45.4146 332Z" fill="#33B8C2" fill-opacity="0.9"/>
<path d="M63.8095 361.211C63.8095 361.211 51.0234 358.126 47.886 377.096L63.8095 361.211Z" fill="#33B8C2" fill-opacity="0.9"/>
<path d="M64.6797 362.068C64.6797 362.068 67.7634 374.825 48.7455 377.953L64.6797 362.068Z" fill="#33B8C2" fill-opacity="0.9"/>
<path d="M26.0421 361.211C26.0421 361.211 38.8389 358.126 41.9763 377.096L26.0421 361.211Z" fill="#33B8C2" fill-opacity="0.9"/>
<path d="M25.1826 362.068C25.1826 362.068 22.0882 374.825 41.1168 377.953L25.1826 362.068Z" fill="#33B8C2" fill-opacity="0.9"/>
</g>
</g>
<g opacity="0.3" filter="url(#filter8_d_5215_37)">
<g clip-path="url(#clip4_5215_37)" filter="url(#filter9_d_5215_37)">
<path d="M188.006 60.848C189.609 60.848 190.907 59.5532 190.907 57.9559C190.907 56.3586 189.609 55.0637 188.006 55.0637C186.404 55.0637 185.105 56.3586 185.105 57.9559C185.105 59.5532 186.404 60.848 188.006 60.848Z" fill="#33B8C2" fill-opacity="0.9"/>
<path d="M187.147 10C187.147 10 166.302 22.6933 187.147 51.679L187.147 10Z" fill="#33B8C2" fill-opacity="0.9"/>
<path d="M188.415 10C188.415 10 209.259 22.6933 188.415 51.679L188.415 10Z" fill="#33B8C2" fill-opacity="0.9"/>
<path d="M206.809 39.2107C206.809 39.2107 194.023 36.1258 190.886 55.0961L206.809 39.2107Z" fill="#33B8C2" fill-opacity="0.9"/>
<path d="M207.68 40.0676C207.68 40.0676 210.763 52.8252 191.745 55.953L207.68 40.0676Z" fill="#33B8C2" fill-opacity="0.9"/>
<path d="M169.042 39.2107C169.042 39.2107 181.839 36.1258 184.976 55.0961L169.042 39.2107Z" fill="#33B8C2" fill-opacity="0.9"/>
<path d="M168.183 40.0676C168.183 40.0676 165.088 52.8252 184.117 55.953L168.183 40.0676Z" fill="#33B8C2" fill-opacity="0.9"/>
</g>
</g>
<g opacity="0.3" filter="url(#filter10_d_5215_37)">
<g clip-path="url(#clip5_5215_37)" filter="url(#filter11_d_5215_37)">
<path d="M1070.01 60.848C1071.61 60.848 1072.91 59.5532 1072.91 57.9559C1072.91 56.3586 1071.61 55.0637 1070.01 55.0637C1068.4 55.0637 1067.11 56.3586 1067.11 57.9559C1067.11 59.5532 1068.4 60.848 1070.01 60.848Z" fill="#33B8C2" fill-opacity="0.9"/>
<path d="M1069.15 10C1069.15 10 1048.3 22.6933 1069.15 51.679L1069.15 10Z" fill="#33B8C2" fill-opacity="0.9"/>
<path d="M1070.41 10C1070.41 10 1091.26 22.6933 1070.41 51.679L1070.41 10Z" fill="#33B8C2" fill-opacity="0.9"/>
<path d="M1088.81 39.2107C1088.81 39.2107 1076.02 36.1258 1072.89 55.0961L1088.81 39.2107Z" fill="#33B8C2" fill-opacity="0.9"/>
<path d="M1089.68 40.0676C1089.68 40.0676 1092.76 52.8252 1073.75 55.953L1089.68 40.0676Z" fill="#33B8C2" fill-opacity="0.9"/>
<path d="M1051.04 39.2107C1051.04 39.2107 1063.84 36.1258 1066.98 55.0961L1051.04 39.2107Z" fill="#33B8C2" fill-opacity="0.9"/>
<path d="M1050.18 40.0676C1050.18 40.0676 1047.09 52.8252 1066.12 55.953L1050.18 40.0676Z" fill="#33B8C2" fill-opacity="0.9"/>
</g>
</g>
<g opacity="0.3" filter="url(#filter12_d_5215_37)">
<g clip-path="url(#clip6_5215_37)" filter="url(#filter13_d_5215_37)">
<path d="M131.006 560.848C132.609 560.848 133.907 559.553 133.907 557.956C133.907 556.359 132.609 555.064 131.006 555.064C129.404 555.064 128.105 556.359 128.105 557.956C128.105 559.553 129.404 560.848 131.006 560.848Z" fill="#33B8C2" fill-opacity="0.9"/>
<path d="M130.147 510C130.147 510 109.302 522.693 130.147 551.679L130.147 510Z" fill="#33B8C2" fill-opacity="0.9"/>
<path d="M131.415 510C131.415 510 152.259 522.693 131.415 551.679L131.415 510Z" fill="#33B8C2" fill-opacity="0.9"/>
<path d="M149.809 539.211C149.809 539.211 137.023 536.126 133.886 555.096L149.809 539.211Z" fill="#33B8C2" fill-opacity="0.9"/>
<path d="M150.68 540.068C150.68 540.068 153.763 552.825 134.745 555.953L150.68 540.068Z" fill="#33B8C2" fill-opacity="0.9"/>
<path d="M112.042 539.211C112.042 539.211 124.839 536.126 127.976 555.096L112.042 539.211Z" fill="#33B8C2" fill-opacity="0.9"/>
<path d="M111.183 540.068C111.183 540.068 108.088 552.825 127.117 555.953L111.183 540.068Z" fill="#33B8C2" fill-opacity="0.9"/>
</g>
</g>
<g opacity="0.6" filter="url(#filter14_d_5215_37)">
<g clip-path="url(#clip7_5215_37)" filter="url(#filter15_d_5215_37)">
<path d="M1236.01 143.848C1237.61 143.848 1238.91 142.553 1238.91 140.956C1238.91 139.359 1237.61 138.064 1236.01 138.064C1234.4 138.064 1233.11 139.359 1233.11 140.956C1233.11 142.553 1234.4 143.848 1236.01 143.848Z" fill="#33B8C2" fill-opacity="0.9"/>
<path d="M1235.15 93C1235.15 93 1214.3 105.693 1235.15 134.679L1235.15 93Z" fill="#33B8C2" fill-opacity="0.9"/>
<path d="M1236.41 93C1236.41 93 1257.26 105.693 1236.41 134.679L1236.41 93Z" fill="#33B8C2" fill-opacity="0.9"/>
<path d="M1254.81 122.211C1254.81 122.211 1242.02 119.126 1238.89 138.096L1254.81 122.211Z" fill="#33B8C2" fill-opacity="0.9"/>
<path d="M1255.68 123.068C1255.68 123.068 1258.76 135.825 1239.75 138.953L1255.68 123.068Z" fill="#33B8C2" fill-opacity="0.9"/>
<path d="M1217.04 122.211C1217.04 122.211 1229.84 119.126 1232.98 138.096L1217.04 122.211Z" fill="#33B8C2" fill-opacity="0.9"/>
<path d="M1216.18 123.068C1216.18 123.068 1213.09 135.825 1232.12 138.953L1216.18 123.068Z" fill="#33B8C2" fill-opacity="0.9"/>
</g>
</g>
<g opacity="0.3" filter="url(#filter16_d_5215_37)">
<g clip-path="url(#clip8_5215_37)" filter="url(#filter17_d_5215_37)">
<path d="M195.006 308.848C196.609 308.848 197.907 307.553 197.907 305.956C197.907 304.359 196.609 303.064 195.006 303.064C193.404 303.064 192.105 304.359 192.105 305.956C192.105 307.553 193.404 308.848 195.006 308.848Z" fill="#33B8C2" fill-opacity="0.9"/>
<path d="M194.147 258C194.147 258 173.302 270.693 194.147 299.679L194.147 258Z" fill="#33B8C2" fill-opacity="0.9"/>
<path d="M195.415 258C195.415 258 216.259 270.693 195.415 299.679L195.415 258Z" fill="#33B8C2" fill-opacity="0.9"/>
<path d="M213.809 287.211C213.809 287.211 201.023 284.126 197.886 303.096L213.809 287.211Z" fill="#33B8C2" fill-opacity="0.9"/>
<path d="M214.68 288.068C214.68 288.068 217.763 300.825 198.745 303.953L214.68 288.068Z" fill="#33B8C2" fill-opacity="0.9"/>
<path d="M176.042 287.211C176.042 287.211 188.839 284.126 191.976 303.096L176.042 287.211Z" fill="#33B8C2" fill-opacity="0.9"/>
<path d="M175.183 288.068C175.183 288.068 172.088 300.825 191.117 303.953L175.183 288.068Z" fill="#33B8C2" fill-opacity="0.9"/>
</g>
</g>
<defs>
<filter id="filter0_d_5215_37" x="0.346812" y="121.347" width="66.2817" height="77.2674" filterUnits="userSpaceOnUse" color-interpolation-filters="sRGB">
<feFlood flood-opacity="0" result="BackgroundImageFix"/>
<feColorMatrix in="SourceAlpha" type="matrix" values="0 0 0 0 0 0 0 0 0 0 0 0 0 0 0 0 0 0 127 0" result="hardAlpha"/>
<feOffset dx="3.55644" dy="3.55644"/>
<feGaussianBlur stdDeviation="6.60481"/>
<feComposite in2="hardAlpha" operator="out"/>
<feColorMatrix type="matrix" values="0 0 0 0 0 0 0 0 0 0 0 0 0 0 0 0 0 0 0.9 0"/>
<feBlend mode="normal" in2="BackgroundImageFix" result="effect1_dropShadow_5215_37"/>
<feBlend mode="normal" in="SourceGraphic" in2="effect1_dropShadow_5215_37" result="shape"/>
</filter>
<filter id="filter1_d_5215_37" x="10" y="131" width="56.6285" height="67.1061" filterUnits="userSpaceOnUse" color-interpolation-filters="sRGB">
<feFlood flood-opacity="0" result="BackgroundImageFix"/>
<feColorMatrix in="SourceAlpha" type="matrix" values="0 0 0 0 0 0 0 0 0 0 0 0 0 0 0 0 0 0 127 0" result="hardAlpha"/>
<feOffset dx="9.14513" dy="8.63706"/>
<feGaussianBlur stdDeviation="3.81047"/>
<feComposite in2="hardAlpha" operator="out"/>
<feColorMatrix type="matrix" values="0 0 0 0 0 0 0 0 0 0 0 0 0 0 0 0 0 0 0.9 0"/>
<feBlend mode="normal" in2="BackgroundImageFix" result="effect1_dropShadow_5215_37"/>
<feBlend mode="normal" in="SourceGraphic" in2="effect1_dropShadow_5215_37" result="shape"/>
</filter>
<filter id="filter2_d_5215_37" x="1104.35" y="403.347" width="66.2817" height="77.2674" filterUnits="userSpaceOnUse" color-interpolation-filters="sRGB">
<feFlood flood-opacity="0" result="BackgroundImageFix"/>
<feColorMatrix in="SourceAlpha" type="matrix" values="0 0 0 0 0 0 0 0 0 0 0 0 0 0 0 0 0 0 127 0" result="hardAlpha"/>
<feOffset dx="3.55644" dy="3.55644"/>
<feGaussianBlur stdDeviation="6.60481"/>
<feComposite in2="hardAlpha" operator="out"/>
<feColorMatrix type="matrix" values="0 0 0 0 0 0 0 0 0 0 0 0 0 0 0 0 0 0 0.9 0"/>
<feBlend mode="normal" in2="BackgroundImageFix" result="effect1_dropShadow_5215_37"/>
<feBlend mode="normal" in="SourceGraphic" in2="effect1_dropShadow_5215_37" result="shape"/>
</filter>
<filter id="filter3_d_5215_37" x="1114" y="413" width="56.6285" height="67.1061" filterUnits="userSpaceOnUse" color-interpolation-filters="sRGB">
<feFlood flood-opacity="0" result="BackgroundImageFix"/>
<feColorMatrix in="SourceAlpha" type="matrix" values="0 0 0 0 0 0 0 0 0 0 0 0 0 0 0 0 0 0 127 0" result="hardAlpha"/>
<feOffset dx="9.14513" dy="8.63706"/>
<feGaussianBlur stdDeviation="3.81047"/>
<feComposite in2="hardAlpha" operator="out"/>
<feColorMatrix type="matrix" values="0 0 0 0 0 0 0 0 0 0 0 0 0 0 0 0 0 0 0.9 0"/>
<feBlend mode="normal" in2="BackgroundImageFix" result="effect1_dropShadow_5215_37"/>
<feBlend mode="normal" in="SourceGraphic" in2="effect1_dropShadow_5215_37" result="shape"/>
</filter>
<filter id="filter4_d_5215_37" x="1251.35" y="507.347" width="66.2817" height="77.2674" filterUnits="userSpaceOnUse" color-interpolation-filters="sRGB">
<feFlood flood-opacity="0" result="BackgroundImageFix"/>
<feColorMatrix in="SourceAlpha" type="matrix" values="0 0 0 0 0 0 0 0 0 0 0 0 0 0 0 0 0 0 127 0" result="hardAlpha"/>
<feOffset dx="3.55644" dy="3.55644"/>
<feGaussianBlur stdDeviation="6.60481"/>
<feComposite in2="hardAlpha" operator="out"/>
<feColorMatrix type="matrix" values="0 0 0 0 0 0 0 0 0 0 0 0 0 0 0 0 0 0 0.9 0"/>
<feBlend mode="normal" in2="BackgroundImageFix" result="effect1_dropShadow_5215_37"/>
<feBlend mode="normal" in="SourceGraphic" in2="effect1_dropShadow_5215_37" result="shape"/>
</filter>
<filter id="filter5_d_5215_37" x="1261" y="517" width="56.6285" height="67.1061" filterUnits="userSpaceOnUse" color-interpolation-filters="sRGB">
<feFlood flood-opacity="0" result="BackgroundImageFix"/>
<feColorMatrix in="SourceAlpha" type="matrix" values="0 0 0 0 0 0 0 0 0 0 0 0 0 0 0 0 0 0 127 0" result="hardAlpha"/>
<feOffset dx="9.14513" dy="8.63706"/>
<feGaussianBlur stdDeviation="3.81047"/>
<feComposite in2="hardAlpha" operator="out"/>
<feColorMatrix type="matrix" values="0 0 0 0 0 0 0 0 0 0 0 0 0 0 0 0 0 0 0.9 0"/>
<feBlend mode="normal" in2="BackgroundImageFix" result="effect1_dropShadow_5215_37"/>
<feBlend mode="normal" in="SourceGraphic" in2="effect1_dropShadow_5215_37" result="shape"/>
</filter>
<filter id="filter6_d_5215_37" x="15.3468" y="322.347" width="66.2817" height="77.2674" filterUnits="userSpaceOnUse" color-interpolation-filters="sRGB">
<feFlood flood-opacity="0" result="BackgroundImageFix"/>
<feColorMatrix in="SourceAlpha" type="matrix" values="0 0 0 0 0 0 0 0 0 0 0 0 0 0 0 0 0 0 127 0" result="hardAlpha"/>
<feOffset dx="3.55644" dy="3.55644"/>
<feGaussianBlur stdDeviation="6.60481"/>
<feComposite in2="hardAlpha" operator="out"/>
<feColorMatrix type="matrix" values="0 0 0 0 0 0 0 0 0 0 0 0 0 0 0 0 0 0 0.9 0"/>
<feBlend mode="normal" in2="BackgroundImageFix" result="effect1_dropShadow_5215_37"/>
<feBlend mode="normal" in="SourceGraphic" in2="effect1_dropShadow_5215_37" result="shape"/>
</filter>
<filter id="filter7_d_5215_37" x="25" y="332" width="56.6285" height="67.1061" filterUnits="userSpaceOnUse" color-interpolation-filters="sRGB">
<feFlood flood-opacity="0" result="BackgroundImageFix"/>
<feColorMatrix in="SourceAlpha" type="matrix" values="0 0 0 0 0 0 0 0 0 0 0 0 0 0 0 0 0 0 127 0" result="hardAlpha"/>
<feOffset dx="9.14513" dy="8.63706"/>
<feGaussianBlur stdDeviation="3.81047"/>
<feComposite in2="hardAlpha" operator="out"/>
<feColorMatrix type="matrix" values="0 0 0 0 0 0 0 0 0 0 0 0 0 0 0 0 0 0 0.9 0"/>
<feBlend mode="normal" in2="BackgroundImageFix" result="effect1_dropShadow_5215_37"/>
<feBlend mode="normal" in="SourceGraphic" in2="effect1_dropShadow_5215_37" result="shape"/>
</filter>
<filter id="filter8_d_5215_37" x="158.347" y="0.346812" width="66.2817" height="77.2674" filterUnits="userSpaceOnUse" color-interpolation-filters="sRGB">
<feFlood flood-opacity="0" result="BackgroundImageFix"/>
<feColorMatrix in="SourceAlpha" type="matrix" values="0 0 0 0 0 0 0 0 0 0 0 0 0 0 0 0 0 0 127 0" result="hardAlpha"/>
<feOffset dx="3.55644" dy="3.55644"/>
<feGaussianBlur stdDeviation="6.60481"/>
<feComposite in2="hardAlpha" operator="out"/>
<feColorMatrix type="matrix" values="0 0 0 0 0 0 0 0 0 0 0 0 0 0 0 0 0 0 0.9 0"/>
<feBlend mode="normal" in2="BackgroundImageFix" result="effect1_dropShadow_5215_37"/>
<feBlend mode="normal" in="SourceGraphic" in2="effect1_dropShadow_5215_37" result="shape"/>
</filter>
<filter id="filter9_d_5215_37" x="168" y="10" width="56.6285" height="67.1061" filterUnits="userSpaceOnUse" color-interpolation-filters="sRGB">
<feFlood flood-opacity="0" result="BackgroundImageFix"/>
<feColorMatrix in="SourceAlpha" type="matrix" values="0 0 0 0 0 0 0 0 0 0 0 0 0 0 0 0 0 0 127 0" result="hardAlpha"/>
<feOffset dx="9.14513" dy="8.63706"/>
<feGaussianBlur stdDeviation="3.81047"/>
<feComposite in2="hardAlpha" operator="out"/>
<feColorMatrix type="matrix" values="0 0 0 0 0 0 0 0 0 0 0 0 0 0 0 0 0 0 0.9 0"/>
<feBlend mode="normal" in2="BackgroundImageFix" result="effect1_dropShadow_5215_37"/>
<feBlend mode="normal" in="SourceGraphic" in2="effect1_dropShadow_5215_37" result="shape"/>
</filter>
<filter id="filter10_d_5215_37" x="1040.35" y="0.346812" width="66.2817" height="77.2674" filterUnits="userSpaceOnUse" color-interpolation-filters="sRGB">
<feFlood flood-opacity="0" result="BackgroundImageFix"/>
<feColorMatrix in="SourceAlpha" type="matrix" values="0 0 0 0 0 0 0 0 0 0 0 0 0 0 0 0 0 0 127 0" result="hardAlpha"/>
<feOffset dx="3.55644" dy="3.55644"/>
<feGaussianBlur stdDeviation="6.60481"/>
<feComposite in2="hardAlpha" operator="out"/>
<feColorMatrix type="matrix" values="0 0 0 0 0 0 0 0 0 0 0 0 0 0 0 0 0 0 0.9 0"/>
<feBlend mode="normal" in2="BackgroundImageFix" result="effect1_dropShadow_5215_37"/>
<feBlend mode="normal" in="SourceGraphic" in2="effect1_dropShadow_5215_37" result="shape"/>
</filter>
<filter id="filter11_d_5215_37" x="1050" y="10" width="56.6285" height="67.1061" filterUnits="userSpaceOnUse" color-interpolation-filters="sRGB">
<feFlood flood-opacity="0" result="BackgroundImageFix"/>
<feColorMatrix in="SourceAlpha" type="matrix" values="0 0 0 0 0 0 0 0 0 0 0 0 0 0 0 0 0 0 127 0" result="hardAlpha"/>
<feOffset dx="9.14513" dy="8.63706"/>
<feGaussianBlur stdDeviation="3.81047"/>
<feComposite in2="hardAlpha" operator="out"/>
<feColorMatrix type="matrix" values="0 0 0 0 0 0 0 0 0 0 0 0 0 0 0 0 0 0 0.9 0"/>
<feBlend mode="normal" in2="BackgroundImageFix" result="effect1_dropShadow_5215_37"/>
<feBlend mode="normal" in="SourceGraphic" in2="effect1_dropShadow_5215_37" result="shape"/>
</filter>
<filter id="filter12_d_5215_37" x="101.347" y="500.347" width="66.2817" height="77.2674" filterUnits="userSpaceOnUse" color-interpolation-filters="sRGB">
<feFlood flood-opacity="0" result="BackgroundImageFix"/>
<feColorMatrix in="SourceAlpha" type="matrix" values="0 0 0 0 0 0 0 0 0 0 0 0 0 0 0 0 0 0 127 0" result="hardAlpha"/>
<feOffset dx="3.55644" dy="3.55644"/>
<feGaussianBlur stdDeviation="6.60481"/>
<feComposite in2="hardAlpha" operator="out"/>
<feColorMatrix type="matrix" values="0 0 0 0 0 0 0 0 0 0 0 0 0 0 0 0 0 0 0.9 0"/>
<feBlend mode="normal" in2="BackgroundImageFix" result="effect1_dropShadow_5215_37"/>
<feBlend mode="normal" in="SourceGraphic" in2="effect1_dropShadow_5215_37" result="shape"/>
</filter>
<filter id="filter13_d_5215_37" x="111" y="510" width="56.6285" height="67.1061" filterUnits="userSpaceOnUse" color-interpolation-filters="sRGB">
<feFlood flood-opacity="0" result="BackgroundImageFix"/>
<feColorMatrix in="SourceAlpha" type="matrix" values="0 0 0 0 0 0 0 0 0 0 0 0 0 0 0 0 0 0 127 0" result="hardAlpha"/>
<feOffset dx="9.14513" dy="8.63706"/>
<feGaussianBlur stdDeviation="3.81047"/>
<feComposite in2="hardAlpha" operator="out"/>
<feColorMatrix type="matrix" values="0 0 0 0 0 0 0 0 0 0 0 0 0 0 0 0 0 0 0.9 0"/>
<feBlend mode="normal" in2="BackgroundImageFix" result="effect1_dropShadow_5215_37"/>
<feBlend mode="normal" in="SourceGraphic" in2="effect1_dropShadow_5215_37" result="shape"/>
</filter>
<filter id="filter14_d_5215_37" x="1206.35" y="83.3468" width="66.2817" height="77.2674" filterUnits="userSpaceOnUse" color-interpolation-filters="sRGB">
<feFlood flood-opacity="0" result="BackgroundImageFix"/>
<feColorMatrix in="SourceAlpha" type="matrix" values="0 0 0 0 0 0 0 0 0 0 0 0 0 0 0 0 0 0 127 0" result="hardAlpha"/>
<feOffset dx="3.55644" dy="3.55644"/>
<feGaussianBlur stdDeviation="6.60481"/>
<feComposite in2="hardAlpha" operator="out"/>
<feColorMatrix type="matrix" values="0 0 0 0 0 0 0 0 0 0 0 0 0 0 0 0 0 0 0.9 0"/>
<feBlend mode="normal" in2="BackgroundImageFix" result="effect1_dropShadow_5215_37"/>
<feBlend mode="normal" in="SourceGraphic" in2="effect1_dropShadow_5215_37" result="shape"/>
</filter>
<filter id="filter15_d_5215_37" x="1216" y="93" width="56.6285" height="67.1061" filterUnits="userSpaceOnUse" color-interpolation-filters="sRGB">
<feFlood flood-opacity="0" result="BackgroundImageFix"/>
<feColorMatrix in="SourceAlpha" type="matrix" values="0 0 0 0 0 0 0 0 0 0 0 0 0 0 0 0 0 0 127 0" result="hardAlpha"/>
<feOffset dx="9.14513" dy="8.63706"/>
<feGaussianBlur stdDeviation="3.81047"/>
<feComposite in2="hardAlpha" operator="out"/>
<feColorMatrix type="matrix" values="0 0 0 0 0 0 0 0 0 0 0 0 0 0 0 0 0 0 0.9 0"/>
<feBlend mode="normal" in2="BackgroundImageFix" result="effect1_dropShadow_5215_37"/>
<feBlend mode="normal" in="SourceGraphic" in2="effect1_dropShadow_5215_37" result="shape"/>
</filter>
<filter id="filter16_d_5215_37" x="165.347" y="248.347" width="66.2817" height="77.2674" filterUnits="userSpaceOnUse" color-interpolation-filters="sRGB">
<feFlood flood-opacity="0" result="BackgroundImageFix"/>
<feColorMatrix in="SourceAlpha" type="matrix" values="0 0 0 0 0 0 0 0 0 0 0 0 0 0 0 0 0 0 127 0" result="hardAlpha"/>
<feOffset dx="3.55644" dy="3.55644"/>
<feGaussianBlur stdDeviation="6.60481"/>
<feComposite in2="hardAlpha" operator="out"/>
<feColorMatrix type="matrix" values="0 0 0 0 0 0 0 0 0 0 0 0 0 0 0 0 0 0 0.9 0"/>
<feBlend mode="normal" in2="BackgroundImageFix" result="effect1_dropShadow_5215_37"/>
<feBlend mode="normal" in="SourceGraphic" in2="effect1_dropShadow_5215_37" result="shape"/>
</filter>
<filter id="filter17_d_5215_37" x="175" y="258" width="56.6285" height="67.1061" filterUnits="userSpaceOnUse" color-interpolation-filters="sRGB">
<feFlood flood-opacity="0" result="BackgroundImageFix"/>
<feColorMatrix in="SourceAlpha" type="matrix" values="0 0 0 0 0 0 0 0 0 0 0 0 0 0 0 0 0 0 127 0" result="hardAlpha"/>
<feOffset dx="9.14513" dy="8.63706"/>
<feGaussianBlur stdDeviation="3.81047"/>
<feComposite in2="hardAlpha" operator="out"/>
<feColorMatrix type="matrix" values="0 0 0 0 0 0 0 0 0 0 0 0 0 0 0 0 0 0 0.9 0"/>
<feBlend mode="normal" in2="BackgroundImageFix" result="effect1_dropShadow_5215_37"/>
<feBlend mode="normal" in="SourceGraphic" in2="effect1_dropShadow_5215_37" result="shape"/>
</filter>
<clipPath id="clip0_5215_37">
<rect width="39.8624" height="50.8481" fill="white" transform="translate(10 131)"/>
</clipPath>
<clipPath id="clip1_5215_37">
<rect width="39.8624" height="50.8481" fill="white" transform="translate(1114 413)"/>
</clipPath>
<clipPath id="clip2_5215_37">
<rect width="39.8624" height="50.8481" fill="white" transform="translate(1261 517)"/>
</clipPath>
<clipPath id="clip3_5215_37">
<rect width="39.8624" height="50.8481" fill="white" transform="translate(25 332)"/>
</clipPath>
<clipPath id="clip4_5215_37">
<rect width="39.8624" height="50.8481" fill="white" transform="translate(168 10)"/>
</clipPath>
<clipPath id="clip5_5215_37">
<rect width="39.8624" height="50.8481" fill="white" transform="translate(1050 10)"/>
</clipPath>
<clipPath id="clip6_5215_37">
<rect width="39.8624" height="50.8481" fill="white" transform="translate(111 510)"/>
</clipPath>
<clipPath id="clip7_5215_37">
<rect width="39.8624" height="50.8481" fill="white" transform="translate(1216 93)"/>
</clipPath>
<clipPath id="clip8_5215_37">
<rect width="39.8624" height="50.8481" fill="white" transform="translate(175 258)"/>
</clipPath>
</defs>
</svg>
