<svg width="117" height="118" viewBox="0 0 117 118" fill="none" xmlns="http://www.w3.org/2000/svg">
<path d="M0 77.28L12.7964 90.0764L14.6242 88.2486C18.6846 84.1881 25.1897 84.1881 29.249 88.2486C33.3095 92.309 33.3095 98.8141 29.249 102.873L27.4203 104.702L29.249 106.53L40.2176 117.498L42.0463 115.671L117 40.717L106.031 29.7484L104.203 27.9206L102.375 29.7484C98.3145 33.8089 91.8103 33.8089 87.7501 29.7484C83.6896 25.6879 83.6896 19.1829 87.7501 15.1236L89.5779 13.2958L76.7815 0.49939L1.82779 75.4531L0 77.2818V77.28ZM7.31301 77.28L56.6735 27.9195L89.5797 60.8257L40.2192 110.186L34.3635 104.33C38.5962 98.2871 38.2959 89.9806 32.9063 84.5918C27.5185 79.204 19.2111 78.9046 13.1677 83.1347L7.31197 77.2789L7.31301 77.28ZM60.33 24.263L76.7836 7.80942L82.6393 13.6651C78.4094 19.7085 78.7088 28.016 84.0965 33.4038C89.4852 38.7925 97.7917 39.0935 103.835 34.861L109.691 40.7167L93.2363 57.1693L60.3301 24.2631L60.33 24.263ZM40.2199 51.6845L45.3046 63.6251L36.5066 73.5655L49.5609 72.1661L56.074 83.3637L59.0731 70.5377L71.899 67.5387L60.7014 61.0255L62.1009 47.9713L52.1605 56.7693L40.2199 51.6845Z" fill="#20BACD"/>
</svg>
