<svg width="61" height="61" viewBox="0 0 61 61" fill="none" xmlns="http://www.w3.org/2000/svg">
<path d="M30.5 0C13.6442 0 0 13.6408 0 30.5C0 47.3592 13.6408 61 30.5 61C47.3592 61 61 47.3592 61 30.5C61 13.6408 47.3592 0 30.5 0ZM50.2698 50.2698C39.3479 61.1917 21.6579 61.1975 10.7302 50.2698C-0.170801 39.3688 -0.170801 21.6312 10.7302 10.7302C21.6521 -0.191714 39.3421 -0.191714 50.2698 10.7302C61.1708 21.6312 61.1708 39.3688 50.2698 50.2698Z" fill="#F05F5F"/>
<path d="M42.1823 18.8229C41.9439 18.5845 41.6206 18.4507 41.2835 18.4507C40.9464 18.4507 40.6232 18.5845 40.3848 18.8229L30.5005 28.6991L20.615 18.8229C20.4976 18.7021 20.3573 18.606 20.2024 18.5399C20.0475 18.4738 19.881 18.4392 19.7126 18.438C19.5442 18.4368 19.3772 18.4692 19.2214 18.5331C19.0656 18.597 18.924 18.6912 18.8049 18.8103C18.6858 18.9294 18.5916 19.0709 18.5277 19.2268C18.4638 19.3826 18.4315 19.5495 18.4326 19.718C18.4338 19.8864 18.4684 20.0529 18.5345 20.2078C18.6006 20.3627 18.6968 20.5029 18.8175 20.6203L28.703 30.5047L18.8175 40.3855C18.5846 40.625 18.4553 40.9465 18.4576 41.2806C18.46 41.6146 18.5937 41.9343 18.8299 42.1706C19.0661 42.4068 19.3858 42.5405 19.7199 42.5428C20.054 42.5452 20.3755 42.4159 20.615 42.183L30.5005 32.301L40.3848 42.1865C40.5022 42.3072 40.6424 42.4034 40.7974 42.4695C40.9523 42.5355 41.1188 42.5702 41.2872 42.5713C41.4556 42.5725 41.6226 42.5402 41.7784 42.4763C41.9342 42.4124 42.0758 42.3181 42.1948 42.199C42.3139 42.08 42.4082 41.9384 42.4721 41.7826C42.536 41.6268 42.5683 41.4598 42.5671 41.2914C42.5659 41.123 42.5313 40.9565 42.4652 40.8016C42.3992 40.6467 42.303 40.5064 42.1823 40.389L32.2968 30.5L42.1823 20.6157C42.4206 20.3773 42.5545 20.054 42.5545 19.717C42.5545 19.3799 42.4206 19.0566 42.1823 18.8182V18.8229Z" fill="#F05F5F"/>
</svg>
